<?xml version="1.0" encoding="utf-8"?>
<!-- Generator: Adobe Illustrator 16.0.0, SVG Export Plug-In . SVG Version: 6.00 Build 0)  -->
<!DOCTYPE svg PUBLIC "-//W3C//DTD SVG 1.1//EN" "http://www.w3.org/Graphics/SVG/1.1/DTD/svg11.dtd">
<svg version="1.1" id="Layer_1" xmlns="http://www.w3.org/2000/svg" xmlns:xlink="http://www.w3.org/1999/xlink" x="0px" y="0px"
	 width="1554px" height="2198.25px" viewBox="0 0 1554 2198.25" enable-background="new 0 0 1554 2198.25" xml:space="preserve">
<title>Group 10</title>
<desc>Created with Sketch.</desc>
<g>
	<polygon id="Rectangle-Copy-2_3_" fill="#F0F0F0" points="2901.562,2882.117 315.276,295.832 627.481,-17.373 3213.766,2568.912 	
		"/>
	<polygon id="Rectangle-Copy-2_2_" fill="#E6E7E8" points="2611.48,3217.923 0.833,609.266 322.833,286 2910.679,2872.479 	"/>
	<g>
		<rect id="Rectangle-Copy-2" x="0.36" y="0.269" fill="#FFFFFF" width="645.14" height="610.532"/>
		<path id="Premio-Santander-a-l" fill="#EC0000" d="M106.224,100.337h3.536c3.305,0,5.777-0.653,7.418-1.959
			c1.641-1.305,2.461-3.206,2.461-5.702c0-2.519-0.687-4.379-2.062-5.581c-1.375-1.201-3.53-1.802-6.464-1.802h-4.888V100.337z
			 M130.489,92.295c0,5.454-1.704,9.625-5.113,12.513c-3.409,2.89-8.255,4.333-14.542,4.333h-4.61v18.026H95.478V76.489h16.188
			c6.148,0,10.821,1.323,14.022,3.968C128.889,83.104,130.489,87.05,130.489,92.295z M160.855,87.685
			c1.433,0,2.623,0.104,3.57,0.312l-0.797,9.914c-0.855-0.231-1.895-0.347-3.12-0.347c-3.375,0-6.002,0.867-7.886,2.6
			c-1.884,1.733-2.825,4.16-2.825,7.279v19.725h-10.573V88.413h8.007l1.561,6.517h0.52c1.202-2.172,2.825-3.923,4.87-5.251
			C156.227,88.35,158.451,87.685,160.855,87.685z M186.09,95.208c-2.241,0-3.998,0.71-5.269,2.131
			c-1.271,1.422-1.999,3.438-2.184,6.049h14.836c-0.047-2.611-0.728-4.627-2.045-6.049C190.111,95.917,188.332,95.208,186.09,95.208
			z M187.581,127.86c-6.24,0-11.116-1.721-14.628-5.165c-3.513-3.443-5.269-8.319-5.269-14.628c0-6.494,1.624-11.514,4.87-15.062
			c3.247-3.548,7.735-5.321,13.467-5.321c5.477,0,9.741,1.56,12.791,4.679c3.051,3.12,4.576,7.43,4.576,12.931v5.13h-24.993
			c0.116,3.004,1.006,5.35,2.67,7.037c1.663,1.687,3.998,2.53,7.001,2.53c2.334,0,4.542-0.243,6.622-0.728
			c2.079-0.485,4.251-1.259,6.516-2.323v8.181c-1.849,0.925-3.825,1.612-5.927,2.062C193.173,127.636,190.608,127.86,187.581,127.86
			z M246.683,127.168H236.11v-22.636c0-2.796-0.468-4.893-1.403-6.292c-0.937-1.398-2.41-2.097-4.42-2.097
			c-2.704,0-4.668,0.993-5.893,2.98c-1.225,1.988-1.837,5.257-1.837,9.811v18.233h-10.572V88.413h8.076l1.421,4.957h0.589
			c1.04-1.78,2.542-3.172,4.507-4.177c1.964-1.005,4.217-1.508,6.759-1.508c5.801,0,9.729,1.895,11.787,5.685h0.936
			c1.04-1.803,2.571-3.201,4.593-4.194c2.021-0.994,4.304-1.491,6.846-1.491c4.391,0,7.713,1.126,9.966,3.38
			c2.253,2.253,3.38,5.864,3.38,10.833v25.271h-10.607v-22.636c0-2.796-0.468-4.893-1.404-6.292
			c-0.936-1.398-2.409-2.097-4.42-2.097c-2.587,0-4.523,0.924-5.805,2.773c-1.283,1.848-1.925,4.784-1.925,8.804V127.168z
			 M281.243,78.395c0-3.443,1.918-5.164,5.754-5.164c3.836,0,5.754,1.721,5.754,5.164c0,1.642-0.479,2.918-1.438,3.831
			s-2.397,1.369-4.316,1.369C283.162,83.595,281.243,81.861,281.243,78.395z M292.266,127.168h-10.573V88.413h10.573V127.168z
			 M311.782,107.721c0,3.836,0.63,6.737,1.889,8.701c1.259,1.964,3.311,2.947,6.153,2.947c2.82,0,4.848-0.977,6.084-2.929
			c1.236-1.954,1.854-4.859,1.854-8.719c0-3.836-0.624-6.713-1.872-8.631c-1.248-1.919-3.293-2.877-6.136-2.877
			c-2.819,0-4.853,0.953-6.101,2.86C312.406,100.979,311.782,103.861,311.782,107.721z M338.578,107.721
			c0,6.31-1.665,11.243-4.992,14.802c-3.328,3.559-7.961,5.338-13.9,5.338c-3.72,0-7.002-0.814-9.845-2.444
			c-2.842-1.628-5.026-3.968-6.551-7.019c-1.526-3.05-2.289-6.609-2.289-10.677c0-6.332,1.652-11.254,4.958-14.767
			c3.305-3.513,7.95-5.269,13.935-5.269c3.721,0,7.002,0.809,9.844,2.427c2.843,1.618,5.027,3.939,6.552,6.967
			C337.814,100.106,338.578,103.653,338.578,107.721z M125.394,209.82c0,4.576-1.646,8.181-4.939,10.815
			c-3.294,2.634-7.875,3.952-13.745,3.952c-5.408,0-10.191-1.018-14.351-3.051v-9.983c3.42,1.525,6.314,2.6,8.684,3.224
			c2.369,0.624,4.536,0.936,6.5,0.936c2.357,0,4.165-0.451,5.425-1.352c1.259-0.901,1.889-2.241,1.889-4.021
			c0-0.994-0.277-1.878-0.832-2.652c-0.555-0.775-1.369-1.52-2.443-2.236c-1.075-0.717-3.264-1.86-6.569-3.432
			c-3.097-1.456-5.419-2.854-6.967-4.194c-1.548-1.341-2.785-2.9-3.709-4.68c-0.923-1.779-1.386-3.859-1.386-6.239
			c0-4.484,1.52-8.008,4.558-10.573c3.039-2.565,7.239-3.848,12.601-3.848c2.635,0,5.147,0.312,7.539,0.936
			c2.392,0.624,4.894,1.503,7.505,2.635l-3.466,8.354c-2.704-1.109-4.939-1.883-6.707-2.323c-1.769-0.438-3.507-0.658-5.218-0.658
			c-2.033,0-3.593,0.473-4.679,1.42c-1.087,0.948-1.629,2.185-1.629,3.709c0,0.948,0.22,1.774,0.659,2.479
			c0.439,0.706,1.138,1.387,2.097,2.046c0.959,0.658,3.23,1.842,6.812,3.553c4.737,2.265,7.984,4.536,9.741,6.811
			C124.515,203.726,125.394,206.516,125.394,209.82z M158.359,223.895l-2.045-5.27h-0.277c-1.779,2.242-3.61,3.796-5.494,4.663
			c-1.883,0.866-4.338,1.3-7.365,1.3c-3.722,0-6.65-1.063-8.789-3.189c-2.137-2.126-3.206-5.154-3.206-9.082
			c0-4.113,1.438-7.146,4.315-9.1s7.216-3.033,13.017-3.241l6.724-0.208v-1.699c0-3.928-2.01-5.893-6.032-5.893
			c-3.096,0-6.736,0.936-10.918,2.808l-3.501-7.141c4.46-2.334,9.406-3.501,14.836-3.501c5.2,0,9.186,1.133,11.959,3.397
			c2.773,2.265,4.16,5.708,4.16,10.33v25.826H158.359z M155.239,205.938l-4.09,0.139c-3.073,0.093-5.361,0.647-6.863,1.665
			s-2.253,2.565-2.253,4.645c0,2.98,1.71,4.472,5.13,4.472c2.45,0,4.408-0.705,5.875-2.115s2.201-3.282,2.201-5.615V205.938z
			 M212.4,223.895h-10.573v-22.636c0-2.796-0.497-4.894-1.491-6.292c-0.993-1.398-2.577-2.097-4.749-2.097
			c-2.958,0-5.096,0.988-6.413,2.963c-1.317,1.976-1.976,5.251-1.976,9.828v18.233h-10.573V185.14h8.077l1.42,4.957h0.59
			c1.178-1.872,2.802-3.288,4.87-4.247c2.068-0.959,4.42-1.438,7.054-1.438c4.506,0,7.926,1.219,10.261,3.657
			c2.334,2.438,3.501,5.957,3.501,10.555V223.895z M239.611,216.164c1.85,0,4.068-0.404,6.656-1.213v7.869
			c-2.635,1.178-5.87,1.768-9.706,1.768c-4.229,0-7.309-1.069-9.238-3.207s-2.895-5.344-2.895-9.619v-18.684h-5.061v-4.472
			l5.824-3.536l3.051-8.181h6.76v8.25h10.849v7.938h-10.849v18.684c0,1.502,0.421,2.611,1.265,3.328
			C237.11,215.806,238.225,216.164,239.611,216.164z M278.712,223.895l-2.045-5.27h-0.277c-1.78,2.242-3.611,3.796-5.495,4.663
			c-1.883,0.866-4.339,1.3-7.366,1.3c-3.72,0-6.65-1.063-8.787-3.189c-2.138-2.126-3.207-5.154-3.207-9.082
			c0-4.113,1.438-7.146,4.316-9.1c2.876-1.953,7.216-3.033,13.016-3.241l6.725-0.208v-1.699c0-3.928-2.011-5.893-6.031-5.893
			c-3.097,0-6.736,0.936-10.919,2.808l-3.501-7.141c4.46-2.334,9.406-3.501,14.836-3.501c5.2,0,9.187,1.133,11.959,3.397
			s4.16,5.708,4.16,10.33v25.826H278.712z M275.593,205.938l-4.09,0.139c-3.074,0.093-5.361,0.647-6.863,1.665
			c-1.503,1.017-2.254,2.565-2.254,4.645c0,2.98,1.71,4.472,5.13,4.472c2.449,0,4.408-0.705,5.875-2.115s2.201-3.282,2.201-5.615
			V205.938z M332.754,223.895h-10.572v-22.636c0-2.796-0.497-4.894-1.491-6.292s-2.577-2.097-4.749-2.097
			c-2.959,0-5.096,0.988-6.413,2.963c-1.317,1.976-1.976,5.251-1.976,9.828v18.233H296.98V185.14h8.077l1.421,4.957h0.59
			c1.178-1.872,2.802-3.288,4.87-4.247c2.067-0.959,4.419-1.438,7.054-1.438c4.507,0,7.926,1.219,10.26,3.657
			c2.335,2.438,3.501,5.957,3.501,10.555V223.895z M355.91,224.588c-4.553,0-8.128-1.768-10.729-5.304
			c-2.6-3.536-3.899-8.436-3.899-14.698c0-6.355,1.322-11.306,3.969-14.854c2.647-3.548,6.292-5.321,10.937-5.321
			c4.876,0,8.596,1.895,11.162,5.685h0.347c-0.531-2.889-0.797-5.465-0.797-7.73v-12.409h10.608v53.938h-8.111l-2.046-5.027h-0.451
			C364.495,222.681,360.832,224.588,355.91,224.588z M359.618,216.164c2.704,0,4.687-0.785,5.945-2.357
			c1.26-1.571,1.947-4.24,2.062-8.007v-1.144c0-4.16-0.641-7.14-1.922-8.943c-1.283-1.802-3.369-2.703-6.258-2.703
			c-2.357,0-4.188,0.999-5.494,2.998s-1.958,4.905-1.958,8.718c0,3.813,0.659,6.673,1.976,8.58
			C355.285,215.211,357.169,216.164,359.618,216.164z M404.613,191.934c-2.243,0-3.998,0.71-5.27,2.132
			c-1.271,1.421-1.999,3.438-2.184,6.048h14.836c-0.046-2.611-0.728-4.627-2.045-6.048
			C408.634,192.644,406.855,191.934,404.613,191.934z M406.104,224.588c-6.24,0-11.116-1.722-14.628-5.166
			c-3.513-3.443-5.27-8.319-5.27-14.628c0-6.494,1.623-11.514,4.871-15.062c3.247-3.548,7.736-5.321,13.467-5.321
			c5.477,0,9.74,1.56,12.791,4.679c3.05,3.12,4.576,7.43,4.576,12.931v5.13h-24.993c0.115,3.004,1.005,5.35,2.669,7.037
			c1.664,1.687,3.998,2.53,7.002,2.53c2.333,0,4.541-0.243,6.621-0.728c2.081-0.485,4.252-1.259,6.517-2.323v8.181
			c-1.849,0.925-3.825,1.612-5.928,2.063C411.696,224.362,409.13,224.588,406.104,224.588z M452.137,184.412
			c1.432,0,2.624,0.104,3.57,0.312l-0.797,9.914c-0.855-0.231-1.895-0.347-3.119-0.347c-3.374,0-6.003,0.867-7.887,2.6
			c-1.883,1.733-2.825,4.16-2.825,7.279v19.725h-10.573V185.14h8.008l1.56,6.517h0.52c1.202-2.172,2.825-3.923,4.871-5.252
			C447.509,185.076,449.734,184.412,452.137,184.412z M505.797,223.895l-2.045-5.27h-0.278c-1.779,2.242-3.611,3.796-5.494,4.663
			c-1.883,0.866-4.339,1.3-7.366,1.3c-3.72,0-6.649-1.063-8.788-3.189c-2.138-2.126-3.207-5.154-3.207-9.082
			c0-4.113,1.439-7.146,4.316-9.1c2.877-1.953,7.216-3.033,13.016-3.241l6.725-0.208v-1.699c0-3.928-2.01-5.893-6.032-5.893
			c-3.096,0-6.735,0.936-10.919,2.808l-3.5-7.141c4.46-2.334,9.406-3.501,14.836-3.501c5.199,0,9.186,1.133,11.959,3.397
			c2.773,2.265,4.16,5.708,4.16,10.33v25.826H505.797z M502.677,205.938l-4.09,0.139c-3.074,0.093-5.362,0.647-6.863,1.665
			s-2.253,2.565-2.253,4.645c0,2.98,1.71,4.472,5.13,4.472c2.45,0,4.408-0.705,5.875-2.115c1.467-1.41,2.201-3.282,2.201-5.615
			V205.938z M105.219,320.621H94.646v-53.938h10.572V320.621z M140.923,320.621l-2.045-5.27h-0.277
			c-1.78,2.242-3.611,3.796-5.494,4.663c-1.884,0.867-4.339,1.3-7.366,1.3c-3.721,0-6.65-1.063-8.787-3.189
			c-2.138-2.126-3.207-5.153-3.207-9.082c0-4.114,1.438-7.146,4.316-9.1c2.877-1.952,7.216-3.033,13.016-3.241l6.725-0.208v-1.698
			c0-3.928-2.011-5.893-6.032-5.893c-3.097,0-6.736,0.936-10.919,2.808l-3.501-7.141c4.46-2.334,9.406-3.501,14.836-3.501
			c5.2,0,9.186,1.133,11.959,3.397c2.773,2.265,4.16,5.708,4.16,10.33v25.825H140.923z M137.803,302.665l-4.09,0.139
			c-3.074,0.093-5.361,0.647-6.864,1.664c-1.502,1.016-2.253,2.565-2.253,4.645c0,2.98,1.71,4.472,5.13,4.472
			c2.449,0,4.408-0.704,5.875-2.115c1.467-1.41,2.201-3.282,2.201-5.615V302.665z M178.464,320.621v-50.679h10.746v50.679H178.464z
			 M236.908,320.621h-10.572v-22.636c0-2.796-0.497-4.894-1.491-6.292c-0.993-1.397-2.577-2.097-4.749-2.097
			c-2.958,0-5.095,0.988-6.413,2.963c-1.317,1.976-1.976,5.252-1.976,9.828v18.233h-10.573v-38.755h8.077l1.421,4.957h0.589
			c1.179-1.872,2.802-3.287,4.87-4.247c2.068-0.959,4.42-1.438,7.054-1.438c4.507,0,7.927,1.22,10.261,3.657
			c2.334,2.438,3.501,5.956,3.501,10.555V320.621z M283.565,320.621h-10.572v-22.636c0-2.796-0.497-4.894-1.49-6.292
			c-0.994-1.397-2.577-2.097-4.749-2.097c-2.958,0-5.096,0.988-6.413,2.963c-1.317,1.976-1.976,5.252-1.976,9.828v18.233h-10.573
			v-38.755h8.077l1.421,4.957h0.59c1.178-1.872,2.802-3.287,4.87-4.247c2.068-0.959,4.419-1.438,7.054-1.438
			c4.506,0,7.926,1.22,10.26,3.657c2.334,2.438,3.501,5.956,3.501,10.555V320.621z M302.874,301.175c0,3.836,0.629,6.735,1.889,8.7
			s3.311,2.946,6.153,2.946c2.819,0,4.847-0.977,6.083-2.929c1.236-1.952,1.854-4.859,1.854-8.718c0-3.837-0.624-6.714-1.872-8.632
			c-1.248-1.918-3.293-2.877-6.135-2.877c-2.82,0-4.854,0.953-6.102,2.86C303.498,294.432,302.874,297.315,302.874,301.175z
			 M329.669,301.175c0,6.309-1.664,11.242-4.991,14.801c-3.328,3.559-7.961,5.339-13.901,5.339c-3.721,0-7.002-0.815-9.844-2.444
			c-2.843-1.629-5.026-3.969-6.552-7.019c-1.525-3.051-2.288-6.61-2.288-10.677c0-6.333,1.653-11.255,4.957-14.767
			c3.305-3.512,7.95-5.27,13.935-5.27c3.721,0,7.002,0.808,9.845,2.427c2.842,1.618,5.026,3.941,6.552,6.968
			C328.906,293.56,329.669,297.107,329.669,301.175z M346.204,320.621l-14.767-38.755h11.058l7.488,22.082
			c0.832,2.796,1.352,5.442,1.56,7.938h0.208c0.115-2.219,0.636-4.864,1.56-7.938l7.453-22.082h11.058l-14.767,38.755H346.204z
			 M401.979,320.621l-2.046-5.27h-0.277c-1.779,2.242-3.611,3.796-5.495,4.663c-1.882,0.867-4.338,1.3-7.366,1.3
			c-3.72,0-6.649-1.063-8.787-3.189s-3.206-5.153-3.206-9.082c0-4.114,1.438-7.146,4.315-9.1c2.877-1.952,7.216-3.033,13.016-3.241
			l6.725-0.208v-1.698c0-3.928-2.011-5.893-6.032-5.893c-3.096,0-6.736,0.936-10.919,2.808l-3.501-7.141
			c4.46-2.334,9.405-3.501,14.836-3.501c5.199,0,9.186,1.133,11.959,3.397c2.773,2.265,4.16,5.708,4.16,10.33v25.825H401.979z
			 M398.858,302.665l-4.09,0.139c-3.074,0.093-5.362,0.647-6.863,1.664s-2.253,2.565-2.253,4.645c0,2.98,1.71,4.472,5.131,4.472
			c2.45,0,4.408-0.704,5.875-2.115c1.467-1.41,2.201-3.282,2.201-5.615V302.665z M435.984,321.314
			c-12.063,0-18.095-6.621-18.095-19.863c0-6.586,1.64-11.619,4.922-15.096c3.282-3.478,7.984-5.217,14.109-5.217
			c4.483,0,8.504,0.878,12.062,2.635l-3.12,8.18c-1.664-0.669-3.212-1.219-4.645-1.646c-1.433-0.428-2.866-0.641-4.298-0.641
			c-5.5,0-8.25,3.906-8.25,11.716c0,7.58,2.75,11.37,8.25,11.37c2.034,0,3.917-0.271,5.65-0.814c1.733-0.544,3.466-1.393,5.2-2.548
			v9.047c-1.71,1.086-3.438,1.837-5.182,2.254C440.843,321.106,438.642,321.314,435.984,321.314z M456.296,271.849
			c0-3.444,1.918-5.165,5.755-5.165c3.836,0,5.754,1.721,5.754,5.165c0,1.641-0.479,2.917-1.439,3.83
			c-0.959,0.913-2.397,1.369-4.315,1.369C458.214,277.048,456.296,275.314,456.296,271.849z M467.32,320.621h-10.573v-38.755h10.573
			V320.621z M486.836,301.175c0,3.836,0.63,6.735,1.89,8.7c1.259,1.965,3.31,2.946,6.152,2.946c2.819,0,4.847-0.977,6.083-2.929
			c1.237-1.952,1.855-4.859,1.855-8.718c0-3.837-0.625-6.714-1.873-8.632c-1.247-1.918-3.292-2.877-6.135-2.877
			c-2.819,0-4.853,0.953-6.101,2.86C487.46,294.432,486.836,297.315,486.836,301.175z M513.631,301.175
			c0,6.309-1.664,11.242-4.991,14.801c-3.328,3.559-7.962,5.339-13.901,5.339c-3.72,0-7.002-0.815-9.845-2.444
			c-2.842-1.629-5.026-3.969-6.551-7.019c-1.525-3.051-2.288-6.61-2.288-10.677c0-6.333,1.652-11.255,4.957-14.767
			c3.305-3.512,7.95-5.27,13.935-5.27c3.721,0,7.002,0.808,9.845,2.427c2.843,1.618,5.027,3.941,6.552,6.968
			S513.631,297.107,513.631,301.175z M489.054,277.603v-0.936c3.975-4.622,6.691-8.1,8.146-10.434h11.854v0.728
			c-1.202,1.201-3.252,2.986-6.152,5.355c-2.901,2.368-5.171,4.131-6.812,5.286H489.054z M558.14,320.621h-10.572v-22.636
			c0-2.796-0.497-4.894-1.49-6.292c-0.994-1.397-2.577-2.097-4.749-2.097c-2.958,0-5.096,0.988-6.413,2.963
			c-1.318,1.976-1.976,5.252-1.976,9.828v18.233h-10.573v-38.755h8.076l1.421,4.957h0.59c1.179-1.872,2.801-3.287,4.87-4.247
			c2.068-0.959,4.419-1.438,7.054-1.438c4.506,0,7.927,1.22,10.26,3.657c2.334,2.438,3.501,5.956,3.501,10.555V320.621z
			 M124.665,417.348H95.478v-50.679h29.187v8.805h-18.441V386.6h17.159v8.805h-17.159v13.068h18.441V417.348z M169.105,417.348
			h-10.572v-22.636c0-2.796-0.468-4.894-1.404-6.292s-2.409-2.097-4.42-2.097c-2.704,0-4.667,0.994-5.892,2.981
			c-1.226,1.987-1.838,5.257-1.838,9.81v18.233h-10.573v-38.755h8.077l1.422,4.958h0.589c1.04-1.779,2.542-3.172,4.506-4.177
			c1.964-1.006,4.217-1.508,6.759-1.508c5.8,0,9.729,1.896,11.786,5.686h0.936c1.041-1.803,2.571-3.201,4.594-4.195
			c2.022-0.994,4.304-1.491,6.846-1.491c4.39,0,7.712,1.126,9.966,3.38c2.253,2.253,3.379,5.864,3.379,10.832v25.271h-10.607
			v-22.636c0-2.796-0.467-4.894-1.403-6.292c-0.937-1.398-2.409-2.097-4.42-2.097c-2.588,0-4.523,0.925-5.806,2.773
			c-1.282,1.848-1.924,4.783-1.924,8.805V417.348z M225.399,418.041c-4.553,0-8.123-1.653-10.711-4.957h-0.555
			c0.37,3.235,0.555,5.107,0.555,5.615v15.704h-10.573v-55.81h8.597l1.491,5.026h0.485c2.473-3.836,6.135-5.754,10.988-5.754
			c4.576,0,8.158,1.768,10.746,5.304c2.588,3.537,3.882,8.447,3.882,14.733c0,4.136-0.606,7.73-1.819,10.78
			s-2.941,5.373-5.183,6.967S228.426,418.041,225.399,418.041z M222.279,386.323c-2.611,0-4.518,0.803-5.72,2.409
			c-1.201,1.606-1.825,4.258-1.871,7.956v1.143c0,4.161,0.618,7.141,1.854,8.944c1.235,1.803,3.194,2.704,5.875,2.704
			c4.738,0,7.107-3.906,7.107-11.716c0-3.813-0.584-6.672-1.751-8.58C226.607,387.277,224.775,386.323,222.279,386.323z
			 M270.671,377.865c1.433,0,2.623,0.104,3.57,0.312l-0.797,9.914c-0.855-0.231-1.895-0.347-3.12-0.347
			c-3.374,0-6.002,0.867-7.886,2.6s-2.825,4.16-2.825,7.28v19.724H249.04v-38.755h8.007l1.56,6.517h0.52
			c1.202-2.172,2.825-3.923,4.87-5.251C266.043,378.53,268.267,377.865,270.671,377.865z M295.906,385.387
			c-2.242,0-3.998,0.71-5.27,2.132c-1.27,1.421-1.999,3.438-2.184,6.049h14.837c-0.047-2.612-0.729-4.628-2.046-6.049
			C299.927,386.097,298.147,385.387,295.906,385.387z M297.396,418.041c-6.239,0-11.115-1.722-14.628-5.166
			c-3.513-3.442-5.269-8.319-5.269-14.628c0-6.494,1.624-11.514,4.87-15.062c3.248-3.547,7.736-5.321,13.468-5.321
			c5.477,0,9.741,1.561,12.791,4.679c3.05,3.121,4.575,7.43,4.575,12.931v5.13h-24.992c0.116,3.004,1.005,5.35,2.669,7.037
			s3.998,2.53,7.002,2.53c2.334,0,4.542-0.243,6.621-0.728c2.08-0.485,4.252-1.259,6.517-2.322v8.181
			c-1.849,0.925-3.825,1.612-5.928,2.063C302.989,417.815,300.424,418.041,297.396,418.041z M348.838,405.839
			c0,3.976-1.382,7.002-4.143,9.082c-2.761,2.08-6.893,3.12-12.392,3.12c-2.82,0-5.223-0.19-7.211-0.572
			c-1.987-0.381-3.848-0.942-5.581-1.681v-8.735c1.964,0.925,4.177,1.698,6.638,2.322c2.461,0.625,4.628,0.937,6.5,0.937
			c3.835,0,5.754-1.109,5.754-3.328c0-0.832-0.254-1.508-0.763-2.028c-0.508-0.52-1.387-1.109-2.634-1.768
			c-1.248-0.659-2.912-1.428-4.992-2.306c-2.981-1.248-5.17-2.403-6.569-3.466c-1.397-1.064-2.414-2.282-3.05-3.657
			c-0.636-1.376-0.954-3.069-0.954-5.079c0-3.443,1.334-6.107,4.003-7.991c2.67-1.883,6.453-2.825,11.353-2.825
			c4.667,0,9.208,1.017,13.623,3.051l-3.189,7.625c-1.941-0.832-3.756-1.514-5.442-2.045c-1.687-0.531-3.41-0.797-5.165-0.797
			c-3.12,0-4.68,0.843-4.68,2.53c0,0.948,0.503,1.768,1.508,2.461c1.005,0.694,3.206,1.722,6.604,3.085
			c3.028,1.225,5.247,2.369,6.656,3.432c1.409,1.063,2.449,2.287,3.12,3.674S348.838,403.921,348.838,405.839z M381.7,417.348
			l-2.045-5.27h-0.278c-1.779,2.242-3.611,3.796-5.494,4.663c-1.884,0.867-4.34,1.3-7.366,1.3c-3.72,0-6.65-1.063-8.788-3.189
			c-2.138-2.125-3.207-5.153-3.207-9.082c0-4.114,1.438-7.146,4.315-9.099c2.877-1.952,7.217-3.033,13.017-3.241l6.725-0.208v-1.698
			c0-3.928-2.011-5.893-6.031-5.893c-3.097,0-6.736,0.936-10.92,2.808l-3.5-7.141c4.46-2.334,9.405-3.501,14.836-3.501
			c5.2,0,9.186,1.133,11.959,3.397c2.773,2.265,4.159,5.708,4.159,10.33v25.825H381.7z M378.58,399.392l-4.09,0.139
			c-3.075,0.093-5.362,0.647-6.865,1.664c-1.501,1.016-2.252,2.565-2.252,4.645c0,2.981,1.709,4.472,5.13,4.472
			c2.45,0,4.409-0.705,5.875-2.115c1.467-1.41,2.202-3.281,2.202-5.615V399.392z M421.598,377.865c1.433,0,2.623,0.104,3.571,0.312
			l-0.797,9.914c-0.855-0.231-1.896-0.347-3.12-0.347c-3.374,0-6.003,0.867-7.886,2.6c-1.883,1.733-2.825,4.16-2.825,7.28v19.724
			h-10.573v-38.755h8.007l1.56,6.517h0.52c1.203-2.172,2.825-3.923,4.871-5.251C416.97,378.53,419.195,377.865,421.598,377.865z
			 M431.754,368.576c0-3.443,1.918-5.166,5.755-5.166c3.836,0,5.754,1.722,5.754,5.166c0,1.64-0.479,2.917-1.438,3.83
			c-0.959,0.913-2.397,1.369-4.315,1.369C433.672,373.774,431.754,372.041,431.754,368.576z M442.778,417.348h-10.573v-38.755
			h10.573V417.348z M478.482,417.348l-2.045-5.27h-0.278c-1.779,2.242-3.611,3.796-5.495,4.663c-1.882,0.867-4.338,1.3-7.365,1.3
			c-3.721,0-6.65-1.063-8.788-3.189c-2.138-2.125-3.207-5.153-3.207-9.082c0-4.114,1.438-7.146,4.316-9.099
			c2.877-1.952,7.216-3.033,13.016-3.241l6.725-0.208v-1.698c0-3.928-2.011-5.893-6.032-5.893c-3.097,0-6.736,0.936-10.919,2.808
			l-3.501-7.141c4.46-2.334,9.405-3.501,14.836-3.501c5.2,0,9.186,1.133,11.959,3.397c2.773,2.265,4.16,5.708,4.16,10.33v25.825
			H478.482z M475.362,399.392l-4.09,0.139c-3.074,0.093-5.362,0.647-6.863,1.664c-1.502,1.016-2.253,2.565-2.253,4.645
			c0,2.981,1.709,4.472,5.13,4.472c2.45,0,4.409-0.705,5.876-2.115c1.467-1.41,2.201-3.281,2.201-5.615V399.392z M507.322,417.348
			H496.75V363.41h10.572V417.348z M127.369,514.074H91.942v-7.453l12.722-12.86c3.767-3.859,6.228-6.534,7.384-8.024
			c1.155-1.491,1.987-2.871,2.495-4.143c0.509-1.271,0.763-2.588,0.763-3.951c0-2.034-0.56-3.547-1.681-4.542
			s-2.617-1.49-4.489-1.49c-1.964,0-3.87,0.451-5.72,1.352c-1.849,0.901-3.778,2.184-5.789,3.847l-5.823-6.897
			c2.495-2.125,4.563-3.628,6.205-4.506c1.641-0.877,3.432-1.554,5.373-2.028c1.941-0.474,4.113-0.71,6.517-0.71
			c3.166,0,5.962,0.578,8.389,1.733c2.426,1.155,4.31,2.773,5.65,4.853c1.34,2.08,2.011,4.46,2.011,7.141
			c0,2.333-0.411,4.523-1.23,6.569c-0.82,2.045-2.092,4.142-3.813,6.292c-1.721,2.149-4.755,5.211-9.099,9.186l-6.517,6.135v0.486
			h22.081V514.074z M167.614,488.735c0,8.851-1.45,15.402-4.351,19.655c-2.9,4.252-7.366,6.378-13.397,6.378
			c-5.847,0-10.255-2.195-13.225-6.586c-2.969-4.391-4.454-10.873-4.454-19.446c0-8.943,1.444-15.536,4.333-19.776
			c2.889-4.24,7.337-6.361,13.346-6.361c5.847,0,10.266,2.219,13.259,6.656C166.118,473.691,167.614,480.184,167.614,488.735z
			 M142.829,488.735c0,6.216,0.538,10.67,1.612,13.363c1.074,2.692,2.883,4.038,5.425,4.038c2.496,0,4.298-1.363,5.408-4.09
			c1.109-2.727,1.664-7.165,1.664-13.311c0-6.216-0.56-10.683-1.681-13.398c-1.121-2.715-2.917-4.073-5.39-4.073
			c-2.519,0-4.321,1.358-5.407,4.073C143.372,478.052,142.829,482.519,142.829,488.735z M199.471,514.074h-10.711v-29.326
			l0.104-4.819l0.173-5.269c-1.779,1.779-3.016,2.946-3.709,3.501l-5.824,4.679l-5.165-6.447l16.327-13h8.805V514.074z
			 M230.98,462.737c4.853,0,8.764,1.103,11.734,3.31c2.969,2.208,4.454,5.183,4.454,8.926c0,2.589-0.716,4.894-2.148,6.916
			c-1.433,2.021-3.745,3.83-6.933,5.425c3.79,2.034,6.511,4.154,8.164,6.361c1.652,2.208,2.479,4.627,2.479,7.262
			c0,4.16-1.629,7.505-4.888,10.035c-3.259,2.53-7.545,3.796-12.86,3.796c-5.546,0-9.902-1.179-13.069-3.536
			c-3.166-2.358-4.749-5.696-4.749-10.019c0-2.888,0.768-5.454,2.305-7.695c1.536-2.242,4.003-4.217,7.401-5.927
			c-2.89-1.826-4.969-3.778-6.239-5.858c-1.271-2.08-1.907-4.356-1.907-6.829c0-3.628,1.502-6.562,4.507-8.805
			C222.233,463.857,226.15,462.737,230.98,462.737z M223.077,500.59c0,1.988,0.693,3.536,2.08,4.645
			c1.386,1.11,3.282,1.664,5.685,1.664c2.657,0,4.645-0.572,5.962-1.716c1.317-1.144,1.976-2.651,1.976-4.523
			c0-1.549-0.653-3-1.958-4.351c-1.306-1.352-3.426-2.791-6.361-4.316C225.538,494.257,223.077,497.124,223.077,500.59z
			 M230.911,470.571c-1.826,0-3.299,0.468-4.42,1.404c-1.121,0.936-1.681,2.19-1.681,3.761c0,1.387,0.445,2.629,1.334,3.727
			c0.89,1.098,2.501,2.225,4.836,3.379c2.265-1.062,3.848-2.149,4.749-3.258c0.901-1.109,1.352-2.392,1.352-3.848
			c0-1.594-0.577-2.854-1.733-3.778C234.192,471.033,232.713,470.571,230.911,470.571z"/>
		<g>
			<path d="M127.369,514.074H91.942v-7.453l12.722-12.86c3.767-3.859,6.228-6.534,7.384-8.024c1.155-1.491,1.987-2.871,2.495-4.143
				c0.509-1.271,0.763-2.588,0.763-3.951c0-2.034-0.56-3.547-1.681-4.542s-2.617-1.49-4.489-1.49c-1.964,0-3.87,0.451-5.72,1.352
				c-1.849,0.901-3.778,2.184-5.789,3.847l-5.823-6.897c2.495-2.125,4.563-3.628,6.205-4.506c1.641-0.877,3.432-1.554,5.373-2.028
				c1.941-0.474,4.113-0.71,6.517-0.71c3.166,0,5.962,0.578,8.389,1.733c2.426,1.155,4.31,2.773,5.65,4.853
				c1.34,2.08,2.011,4.46,2.011,7.141c0,2.333-0.411,4.523-1.23,6.569c-0.82,2.045-2.092,4.142-3.813,6.292
				c-1.721,2.149-4.755,5.211-9.099,9.186l-6.517,6.135v0.486h22.081V514.074z"/>
			<path d="M163.125,469.253c-2.993-4.437-7.412-6.656-13.259-6.656c-6.009,0-10.457,2.121-13.346,6.361
				c-2.889,4.24-4.333,10.833-4.333,19.776c0,8.573,1.485,15.056,4.454,19.446c2.97,4.392,7.378,6.586,13.225,6.586
				c6.032,0,10.498-2.126,13.397-6.378c2.9-4.253,4.351-10.804,4.351-19.655C167.614,480.184,166.118,473.691,163.125,469.253z
				 M155.274,502.046c-1.109,2.728-2.912,4.09-5.408,4.09c-2.542,0-4.351-1.346-5.425-4.038c-1.075-2.693-1.612-7.147-1.612-13.363
				c0-6.216,0.543-10.683,1.63-13.398c1.086-2.715,2.889-4.073,5.407-4.073c2.473,0,4.27,1.358,5.39,4.073
				c1.121,2.715,1.681,7.182,1.681,13.398C156.938,494.881,156.383,499.319,155.274,502.046z"/>
			<path d="M199.471,514.074h-10.711v-29.326l0.104-4.819l0.173-5.269c-1.779,1.779-3.016,2.946-3.709,3.501l-5.824,4.679
				l-5.165-6.447l16.327-13h8.805V514.074z"/>
			<path d="M246.25,493.674c-1.652-2.207-4.374-4.327-8.164-6.361c3.188-1.595,5.5-3.403,6.933-5.425
				c1.433-2.022,2.148-4.327,2.148-6.916c0-3.744-1.484-6.719-4.454-8.926c-2.97-2.207-6.881-3.31-11.734-3.31
				c-4.83,0-8.748,1.12-11.751,3.362c-3.005,2.243-4.507,5.177-4.507,8.805c0,2.473,0.636,4.749,1.907,6.829
				c1.271,2.08,3.35,4.032,6.239,5.858c-3.397,1.71-5.865,3.686-7.401,5.927c-1.537,2.242-2.305,4.807-2.305,7.695
				c0,4.322,1.583,7.661,4.749,10.019c3.167,2.357,7.522,3.536,13.069,3.536c5.315,0,9.602-1.266,12.86-3.796
				c3.258-2.53,4.888-5.875,4.888-10.035C248.729,498.302,247.902,495.882,246.25,493.674z M226.491,471.975
				c1.121-0.936,2.594-1.404,4.42-1.404c1.802,0,3.281,0.462,4.437,1.386c1.156,0.925,1.733,2.185,1.733,3.778
				c0,1.457-0.45,2.739-1.352,3.848c-0.901,1.109-2.484,2.195-4.749,3.258c-2.334-1.154-3.946-2.281-4.836-3.379
				c-0.889-1.098-1.334-2.34-1.334-3.727C224.811,474.165,225.371,472.91,226.491,471.975z M236.804,505.183
				c-1.317,1.144-3.305,1.716-5.962,1.716c-2.403,0-4.299-0.554-5.685-1.664c-1.387-1.109-2.08-2.657-2.08-4.645
				c0-3.466,2.461-6.333,7.384-8.597c2.935,1.525,5.055,2.964,6.361,4.316c1.306,1.351,1.958,2.801,1.958,4.351
				C238.78,502.531,238.121,504.039,236.804,505.183z"/>
		</g>
	</g>
</g>
</svg>
