<?xml version="1.0" encoding="utf-8"?>
<!-- Generator: Adobe Illustrator 16.0.0, SVG Export Plug-In . SVG Version: 6.00 Build 0)  -->
<!DOCTYPE svg PUBLIC "-//W3C//DTD SVG 1.1//EN" "http://www.w3.org/Graphics/SVG/1.1/DTD/svg11.dtd">
<svg version="1.1" id="Layer_1" xmlns="http://www.w3.org/2000/svg" xmlns:xlink="http://www.w3.org/1999/xlink" x="0px" y="0px"
	 width="1554px" height="2198.25px" viewBox="0 0 1554 2198.25" enable-background="new 0 0 1554 2198.25" xml:space="preserve">
<title>Group 10</title>
<desc>Created with Sketch.</desc>
<g>
	<g>
		<defs>
			<rect id="SVGID_1_" x="0.167" width="1553.833" height="2273.278"/>
		</defs>
		<clipPath id="SVGID_2_">
			<use xlink:href="#SVGID_1_"  overflow="visible"/>
		</clipPath>
		<g clip-path="url(#SVGID_2_)">
			<polygon id="Rectangle-Copy-2" fill="#D71A21" points="-1677.393,2586.284 908.891,0 1239.724,331.832 -1346.562,2918.117 			"/>
			<polygon id="Rectangle-Copy-2_1_" fill="#9E0B0F" points="-1355.679,2908.479 1232.167,322 1554.167,645.266 -1056.48,3253.923 
							"/>
		</g>
		<g clip-path="url(#SVGID_2_)">
			<rect x="908.566" fill="#FFFFFF" width="645.601" height="645.599"/>
			<g id="Page-1">
				<g id="Convocatoria-ajustes" transform="translate(-374.000000, -739.000000)">
					<g id="Group-15" transform="translate(374.000000, 739.000000)">
						<path id="Es-momento-de-que-tu" d="M1028.064,182.457h-17.136v-30.74h17.136v3.175h-13.561v9.903h12.741v3.154h-12.741v11.312
							h13.561V182.457z M1049.217,176.17c0,2.145-0.799,3.799-2.396,4.962c-1.598,1.163-3.841,1.745-6.729,1.745
							c-3.056,0-5.439-0.484-7.148-1.451v-3.238c1.107,0.561,2.295,1.002,3.563,1.325s2.491,0.484,3.669,0.484
							c1.822,0,3.225-0.291,4.205-0.873c0.982-0.582,1.473-1.468,1.473-2.66c0-0.897-0.39-1.665-1.168-2.302
							c-0.777-0.638-2.295-1.392-4.552-2.26c-2.145-0.799-3.669-1.497-4.573-2.092c-0.904-0.595-1.576-1.272-2.018-2.029
							c-0.442-0.757-0.663-1.661-0.663-2.712c0-1.878,0.764-3.36,2.292-4.447c1.527-1.086,3.623-1.629,6.287-1.629
							c2.48,0,4.905,0.504,7.274,1.514l-1.24,2.838c-2.313-0.953-4.409-1.43-6.287-1.43c-1.653,0-2.901,0.259-3.742,0.778
							c-0.841,0.519-1.262,1.234-1.262,2.145c0,0.617,0.157,1.143,0.474,1.577c0.314,0.435,0.823,0.848,1.523,1.241
							c0.701,0.393,2.047,0.96,4.037,1.703c2.733,0.995,4.58,1.998,5.541,3.007C1048.737,173.374,1049.217,174.642,1049.217,176.17z
							 M1095.453,182.457v-14.992c0-1.836-0.393-3.213-1.178-4.131c-0.785-0.918-2.004-1.377-3.658-1.377
							c-2.172,0-3.777,0.624-4.814,1.872c-1.037,1.247-1.557,3.168-1.557,5.761v12.868h-3.49v-14.992
							c0-1.836-0.393-3.213-1.178-4.131c-0.784-0.918-2.012-1.377-3.68-1.377c-2.186,0-3.787,0.656-4.804,1.966
							c-1.017,1.311-1.524,3.459-1.524,6.445v12.09h-3.49v-23.044h2.838l0.568,3.154h0.168c0.658-1.121,1.588-1.998,2.786-2.628
							c1.198-0.63,2.54-0.946,4.026-0.946c3.602,0,5.957,1.303,7.064,3.911h0.168c0.688-1.206,1.683-2.159,2.986-2.86
							c1.303-0.7,2.789-1.051,4.457-1.051c2.607,0,4.559,0.669,5.855,2.008s1.945,3.479,1.945,6.423v15.034H1095.453z
							 M1126.025,170.914c0,3.757-0.947,6.69-2.839,8.799c-1.893,2.109-4.507,3.165-7.843,3.165c-2.061,0-3.89-0.484-5.488-1.451
							c-1.598-0.967-2.831-2.355-3.7-4.163c-0.868-1.809-1.304-3.925-1.304-6.35c0-3.757,0.939-6.683,2.818-8.778
							c1.877-2.096,4.484-3.143,7.82-3.143c3.225,0,5.787,1.072,7.686,3.217C1125.075,164.354,1126.025,167.255,1126.025,170.914z
							 M1108.469,170.914c0,2.944,0.588,5.187,1.766,6.729c1.178,1.542,2.908,2.312,5.193,2.312s4.02-0.767,5.204-2.302
							c1.185-1.535,1.776-3.781,1.776-6.739c0-2.929-0.592-5.155-1.776-6.676c-1.185-1.521-2.933-2.281-5.246-2.281
							c-2.285,0-4.009,0.75-5.173,2.25C1109.051,165.706,1108.469,167.942,1108.469,170.914z M1161.517,182.457v-14.992
							c0-1.836-0.393-3.213-1.177-4.131c-0.785-0.918-2.005-1.377-3.659-1.377c-2.173,0-3.778,0.624-4.815,1.872
							c-1.037,1.247-1.556,3.168-1.556,5.761v12.868h-3.49v-14.992c0-1.836-0.393-3.213-1.177-4.131
							c-0.785-0.918-2.012-1.377-3.68-1.377c-2.188,0-3.789,0.656-4.805,1.966c-1.016,1.311-1.524,3.459-1.524,6.445v12.09h-3.49
							v-23.044h2.839l0.567,3.154h0.168c0.659-1.121,1.587-1.998,2.786-2.628c1.198-0.63,2.54-0.946,4.026-0.946
							c3.603,0,5.957,1.303,7.064,3.911h0.169c0.687-1.206,1.682-2.159,2.985-2.86c1.304-0.7,2.79-1.051,4.457-1.051
							c2.607,0,4.56,0.669,5.856,2.008s1.944,3.479,1.944,6.423v15.034H1161.517z M1181.933,182.877
							c-3.406,0-6.094-1.037-8.063-3.112c-1.969-2.075-2.954-4.955-2.954-8.642c0-3.715,0.915-6.666,2.744-8.852
							s4.286-3.28,7.37-3.28c2.887,0,5.172,0.95,6.854,2.849c1.682,1.899,2.523,4.405,2.523,7.517v2.208h-15.875
							c0.07,2.706,0.754,4.759,2.051,6.161s3.122,2.103,5.477,2.103c2.481,0,4.935-0.519,7.359-1.556v3.112
							c-1.234,0.532-2.4,0.915-3.501,1.146C1184.816,182.762,1183.488,182.877,1181.933,182.877z M1180.986,161.915
							c-1.85,0-3.326,0.603-4.426,1.808c-1.1,1.206-1.748,2.874-1.945,5.004h12.049c0-2.201-0.49-3.886-1.473-5.057
							C1184.211,162.5,1182.809,161.915,1180.986,161.915z M1212.126,182.457v-14.908c0-1.878-0.427-3.28-1.282-4.205
							s-2.193-1.388-4.016-1.388c-2.412,0-4.178,0.652-5.299,1.956s-1.683,3.455-1.683,6.455v12.09h-3.49v-23.044h2.839l0.567,3.154
							h0.169c0.715-1.136,1.717-2.015,3.006-2.639s2.727-0.936,4.311-0.936c2.775,0,4.863,0.669,6.266,2.008
							s2.103,3.479,2.103,6.423v15.034H1212.126z M1230.229,179.997c0.616,0,1.212-0.046,1.787-0.137
							c0.574-0.091,1.03-0.186,1.366-0.284v2.67c-0.378,0.182-0.936,0.333-1.672,0.452c-0.735,0.119-1.397,0.179-1.986,0.179
							c-4.457,0-6.686-2.348-6.686-7.043v-13.709h-3.302v-1.682l3.302-1.451l1.471-4.92h2.02v5.341h6.686v2.712h-6.686v13.562
							c0,1.388,0.329,2.453,0.988,3.196C1228.176,179.625,1229.08,179.997,1230.229,179.997z M1257.879,170.914
							c0,3.757-0.947,6.69-2.839,8.799c-1.893,2.109-4.507,3.165-7.843,3.165c-2.061,0-3.89-0.484-5.488-1.451
							c-1.598-0.967-2.831-2.355-3.7-4.163c-0.868-1.809-1.304-3.925-1.304-6.35c0-3.757,0.939-6.683,2.818-8.778
							c1.877-2.096,4.484-3.143,7.82-3.143c3.225,0,5.787,1.072,7.686,3.217S1257.879,167.255,1257.879,170.914z M1240.322,170.914
							c0,2.944,0.588,5.187,1.766,6.729c1.178,1.542,2.908,2.312,5.193,2.312s4.02-0.767,5.204-2.302
							c1.184-1.535,1.776-3.781,1.776-6.739c0-2.929-0.593-5.155-1.776-6.676c-1.185-1.521-2.933-2.281-5.246-2.281
							c-2.285,0-4.009,0.75-5.173,2.25C1240.904,165.706,1240.322,167.942,1240.322,170.914z M1290.868,179.366h-0.189
							c-1.612,2.341-4.022,3.511-7.233,3.511c-3.012,0-5.357-1.03-7.033-3.091s-2.512-4.99-2.512-8.789
							c0-3.799,0.841-6.749,2.523-8.852c1.682-2.103,4.021-3.153,7.021-3.153c3.127,0,5.523,1.135,7.191,3.406h0.273l-0.147-1.661
							l-0.084-1.619v-9.378h3.49v32.717h-2.839L1290.868,179.366z M1283.888,179.955c2.382,0,4.11-0.648,5.183-1.945
							s1.608-3.389,1.608-6.276v-0.736c0-3.266-0.542-5.596-1.63-6.991c-1.086-1.395-2.821-2.092-5.203-2.092
							c-2.046,0-3.612,0.795-4.699,2.386c-1.088,1.591-1.63,3.837-1.63,6.739c0,2.943,0.54,5.165,1.619,6.665
							C1280.215,179.205,1281.8,179.955,1283.888,179.955z M1311.305,182.877c-3.406,0-6.093-1.037-8.062-3.112
							c-1.971-2.075-2.955-4.955-2.955-8.642c0-3.715,0.915-6.666,2.744-8.852c1.83-2.187,4.285-3.28,7.37-3.28
							c2.887,0,5.173,0.95,6.854,2.849c1.682,1.899,2.523,4.405,2.523,7.517v2.208h-15.875c0.069,2.706,0.752,4.759,2.05,6.161
							s3.122,2.103,5.478,2.103c2.48,0,4.935-0.519,7.359-1.556v3.112c-1.234,0.532-2.402,0.915-3.502,1.146
							C1314.189,182.762,1312.861,182.877,1311.305,182.877z M1310.359,161.915c-1.851,0-3.326,0.603-4.426,1.808
							c-1.1,1.206-1.75,2.874-1.945,5.004h12.048c0-2.201-0.489-3.886-1.472-5.057
							C1313.582,162.5,1312.182,161.915,1310.359,161.915z M1345.619,179.955c2.327,0,4.023-0.624,5.089-1.871
							c1.064-1.248,1.633-3.35,1.703-6.308v-0.778c0-3.224-0.547-5.544-1.641-6.959c-1.093-1.416-2.824-2.124-5.193-2.124
							c-2.047,0-3.613,0.795-4.699,2.386c-1.086,1.591-1.629,3.837-1.629,6.739c0,2.901,0.536,5.113,1.608,6.633
							C1341.93,179.194,1343.517,179.955,1345.619,179.955z M1345.094,182.877c-2.972,0-5.291-1.044-6.959-3.133
							c-1.669-2.088-2.503-5.004-2.503-8.747c0-3.77,0.842-6.714,2.523-8.831c1.683-2.117,4.023-3.175,7.022-3.175
							c3.154,0,5.579,1.191,7.275,3.574h0.189l0.504-3.154h2.755v33.389h-3.49v-9.861c0-1.402,0.076-2.593,0.231-3.574h-0.273
							C1350.757,181.707,1348.332,182.877,1345.094,182.877z M1366.583,159.413v14.949c0,1.878,0.427,3.28,1.282,4.205
							c0.854,0.925,2.193,1.388,4.017,1.388c2.409,0,4.173-0.659,5.288-1.976c1.114-1.318,1.671-3.47,1.671-6.455v-12.111h3.49
							v23.044h-2.88l-0.505-3.091h-0.189c-0.715,1.135-1.707,2.004-2.975,2.607c-1.271,0.603-2.717,0.904-4.343,0.904
							c-2.805,0-4.902-0.666-6.297-1.998c-1.396-1.332-2.092-3.462-2.092-6.392v-15.076H1366.583z M1399.468,182.877
							c-3.406,0-6.096-1.037-8.063-3.112c-1.971-2.075-2.954-4.955-2.954-8.642c0-3.715,0.914-6.666,2.743-8.852
							c1.83-2.187,4.285-3.28,7.37-3.28c2.887,0,5.172,0.95,6.854,2.849c1.682,1.899,2.522,4.405,2.522,7.517v2.208h-15.874
							c0.069,2.706,0.753,4.759,2.05,6.161c1.295,1.402,3.122,2.103,5.478,2.103c2.48,0,4.933-0.519,7.359-1.556v3.112
							c-1.234,0.532-2.401,0.915-3.501,1.146C1402.351,182.762,1401.023,182.877,1399.468,182.877z M1398.521,161.915
							c-1.851,0-3.326,0.603-4.426,1.808c-1.103,1.206-1.75,2.874-1.945,5.004h12.048c0-2.201-0.492-3.886-1.472-5.057
							C1401.744,162.5,1400.342,161.915,1398.521,161.915z M1017.847,239.206c0.616,0,1.212-0.046,1.787-0.137
							c0.574-0.091,1.03-0.186,1.366-0.284v2.67c-0.378,0.182-0.936,0.333-1.672,0.452c-0.735,0.119-1.397,0.179-1.986,0.179
							c-4.457,0-6.686-2.348-6.686-7.043v-13.709h-3.302v-1.682l3.302-1.451l1.471-4.92h2.02v5.341h6.686v2.712h-6.686v13.562
							c0,1.388,0.329,2.453,0.988,3.196C1015.793,238.834,1016.697,239.206,1017.847,239.206z M1028.885,218.622v14.949
							c0,1.878,0.428,3.28,1.283,4.205c0.855,0.925,2.193,1.388,4.016,1.388c2.411,0,4.174-0.659,5.288-1.977
							c1.114-1.318,1.671-3.47,1.671-6.455v-12.111h3.49v23.044h-2.88l-0.505-3.091h-0.189c-0.715,1.135-1.706,2.004-2.975,2.607
							s-2.717,0.904-4.342,0.904c-2.803,0-4.902-0.666-6.297-1.998s-2.093-3.462-2.093-6.392v-15.076H1028.885z M1066.711,241.666
							h-3.49v-23.044h3.49V241.666z M1062.926,212.377c0-0.799,0.196-1.384,0.589-1.756s0.884-0.557,1.472-0.557
							c0.561,0,1.045,0.189,1.451,0.568c0.406,0.378,0.609,0.96,0.609,1.745c0,0.785-0.203,1.37-0.609,1.755
							s-0.891,0.578-1.451,0.578c-0.588,0-1.079-0.193-1.472-0.578S1062.926,213.162,1062.926,212.377z M1089.797,238.575h-0.189
							c-1.611,2.341-4.022,3.511-7.232,3.511c-3.014,0-5.357-1.03-7.033-3.091s-2.513-4.99-2.513-8.789
							c0-3.799,0.841-6.749,2.523-8.852c1.683-2.103,4.022-3.154,7.022-3.154c3.126,0,5.523,1.135,7.191,3.406h0.273l-0.148-1.661
							l-0.084-1.619v-9.378h3.49v32.717h-2.838L1089.797,238.575z M1082.816,239.164c2.383,0,4.111-0.648,5.184-1.945
							s1.607-3.389,1.607-6.276v-0.736c0-3.266-0.543-5.596-1.629-6.991s-2.821-2.092-5.204-2.092c-2.046,0-3.612,0.795-4.699,2.386
							c-1.087,1.591-1.63,3.837-1.63,6.739c0,2.943,0.54,5.165,1.619,6.665C1079.145,238.414,1080.729,239.164,1082.816,239.164z
							 M1110.234,242.086c-3.406,0-6.094-1.037-8.063-3.112s-2.954-4.955-2.954-8.642c0-3.715,0.914-6.666,2.744-8.852
							c1.829-2.187,4.285-3.28,7.369-3.28c2.888,0,5.172,0.95,6.854,2.849c1.683,1.899,2.523,4.405,2.523,7.517v2.208h-15.875
							c0.07,2.706,0.753,4.759,2.05,6.161s3.123,2.103,5.478,2.103c2.481,0,4.935-0.519,7.359-1.556v3.112
							c-1.233,0.532-2.401,0.915-3.501,1.146C1113.119,241.971,1111.79,242.086,1110.234,242.086z M1109.288,221.124
							c-1.851,0-3.325,0.603-4.426,1.808c-1.101,1.206-1.749,2.874-1.944,5.004h12.047c0-2.201-0.49-3.886-1.472-5.057
							C1112.512,221.708,1111.111,221.124,1109.288,221.124z M1138.83,241.666l-0.694-3.28h-0.168
							c-1.149,1.444-2.296,2.422-3.438,2.933c-1.142,0.511-2.568,0.768-4.278,0.768c-2.285,0-4.075-0.589-5.372-1.766
							c-1.297-1.178-1.945-2.853-1.945-5.025c0-4.653,3.723-7.093,11.165-7.317l3.911-0.126v-1.43c0-1.808-0.389-3.143-1.167-4.005
							c-0.778-0.862-2.022-1.293-3.732-1.293c-1.92,0-4.093,0.589-6.518,1.766l-1.073-2.67c1.137-0.617,2.381-1.1,3.732-1.451
							c1.354-0.351,2.709-0.525,4.068-0.525c2.748,0,4.783,0.609,6.108,1.829s1.987,3.175,1.987,5.866v15.728H1138.83z
							 M1130.945,239.206c2.172,0,3.879-0.596,5.119-1.788c1.24-1.191,1.861-2.859,1.861-5.004v-2.082l-3.49,0.147
							c-2.775,0.098-4.777,0.529-6.004,1.293c-1.226,0.764-1.839,1.951-1.839,3.563c0,1.262,0.382,2.222,1.146,2.881
							C1128.502,238.876,1129.571,239.206,1130.945,239.206z M1174.658,235.379c0,2.145-0.799,3.799-2.397,4.962
							c-1.598,1.163-3.841,1.745-6.728,1.745c-3.057,0-5.439-0.484-7.149-1.451v-3.238c1.107,0.561,2.296,1.002,3.563,1.325
							c1.269,0.322,2.492,0.484,3.67,0.484c1.822,0,3.223-0.291,4.205-0.873c0.98-0.582,1.471-1.468,1.471-2.66
							c0-0.897-0.389-1.665-1.166-2.302c-0.778-0.638-2.296-1.392-4.553-2.26c-2.145-0.799-3.668-1.497-4.572-2.092
							c-0.904-0.595-1.578-1.272-2.02-2.029s-0.662-1.661-0.662-2.712c0-1.878,0.764-3.36,2.292-4.447s3.624-1.629,6.287-1.629
							c2.481,0,4.905,0.504,7.274,1.514l-1.24,2.838c-2.312-0.953-4.408-1.43-6.287-1.43c-1.654,0-2.901,0.259-3.742,0.778
							c-0.841,0.519-1.262,1.234-1.262,2.145c0,0.617,0.158,1.143,0.473,1.577c0.316,0.435,0.824,0.848,1.525,1.241
							c0.7,0.393,2.046,0.96,4.037,1.703c2.732,0.995,4.58,1.998,5.539,3.007C1174.178,232.583,1174.658,233.851,1174.658,235.379z
							 M1190.07,242.086c-3.406,0-6.094-1.037-8.064-3.112c-1.969-2.075-2.953-4.955-2.953-8.642c0-3.715,0.914-6.666,2.743-8.852
							s4.286-3.28,7.37-3.28c2.887,0,5.172,0.95,6.854,2.849c1.683,1.899,2.523,4.405,2.523,7.517v2.208h-15.875
							c0.07,2.706,0.754,4.759,2.051,6.161s3.122,2.103,5.477,2.103c2.481,0,4.936-0.519,7.359-1.556v3.112
							c-1.233,0.532-2.4,0.915-3.5,1.146C1192.954,241.971,1191.625,242.086,1190.07,242.086z M1189.123,221.124
							c-1.85,0-3.325,0.603-4.426,1.808c-1.1,1.206-1.748,2.874-1.944,5.004h12.048c0-2.201-0.49-3.886-1.473-5.057
							C1192.348,221.708,1190.946,221.124,1189.123,221.124z M1231.449,241.666v-14.908c0-1.878-0.428-3.28-1.283-4.205
							s-2.193-1.388-4.016-1.388c-2.425,0-4.195,0.659-5.309,1.977c-1.115,1.318-1.672,3.476-1.672,6.476v12.048h-3.49v-32.717h3.49
							v9.903c0,1.192-0.057,2.18-0.168,2.965h0.21c0.687-1.107,1.665-1.98,2.933-2.618c1.269-0.638,2.717-0.957,4.342-0.957
							c2.818,0,4.932,0.669,6.34,2.008s2.113,3.466,2.113,6.381v15.034H1231.449z M1256.28,241.666l-0.694-3.28h-0.168
							c-1.15,1.444-2.296,2.422-3.438,2.933c-1.143,0.511-2.568,0.768-4.279,0.768c-2.284,0-4.074-0.589-5.371-1.766
							c-1.297-1.178-1.945-2.853-1.945-5.025c0-4.653,3.722-7.093,11.165-7.317l3.911-0.126v-1.43c0-1.808-0.39-3.143-1.168-4.005
							c-0.777-0.862-2.021-1.293-3.731-1.293c-1.921,0-4.093,0.589-6.519,1.766l-1.072-2.67c1.136-0.617,2.38-1.1,3.732-1.451
							s2.709-0.525,4.068-0.525c2.748,0,4.783,0.609,6.108,1.829c1.324,1.22,1.987,3.175,1.987,5.866v15.728H1256.28z
							 M1248.396,239.206c2.173,0,3.88-0.596,5.12-1.788c1.24-1.191,1.861-2.859,1.861-5.004v-2.082l-3.491,0.147
							c-2.775,0.098-4.776,0.529-6.003,1.293c-1.227,0.764-1.84,1.951-1.84,3.563c0,1.262,0.383,2.222,1.146,2.881
							C1245.953,238.876,1247.021,239.206,1248.396,239.206z M1284.918,218.622v2.208l-4.269,0.505
							c0.394,0.49,0.742,1.131,1.052,1.924c0.309,0.792,0.462,1.686,0.462,2.681c0,2.257-0.771,4.058-2.312,5.404
							c-1.542,1.345-3.659,2.018-6.351,2.018c-0.688,0-1.33-0.056-1.934-0.168c-1.486,0.785-2.229,1.773-2.229,2.965
							c0,0.631,0.258,1.097,0.777,1.398s1.409,0.452,2.67,0.452h4.08c2.495,0,4.41,0.526,5.75,1.577
							c1.34,1.052,2.008,2.58,2.008,4.584c0,2.551-1.023,4.496-3.069,5.834c-2.046,1.339-5.032,2.008-8.957,2.008
							c-3.013,0-5.337-0.561-6.97-1.682c-1.635-1.122-2.45-2.706-2.45-4.752c0-1.402,0.448-2.614,1.346-3.637
							s2.159-1.718,3.784-2.082c-0.588-0.267-1.082-0.68-1.482-1.24c-0.398-0.561-0.599-1.213-0.599-1.956
							c0-0.841,0.226-1.577,0.673-2.208s1.156-1.241,2.123-1.829c-1.191-0.491-2.16-1.325-2.912-2.502
							c-0.75-1.177-1.124-2.523-1.124-4.037c0-2.523,0.757-4.468,2.271-5.835s3.658-2.05,6.434-2.05c1.205,0,2.292,0.14,3.26,0.42
							H1284.918z M1266.541,245.535c0,1.248,0.525,2.193,1.577,2.838s2.559,0.967,4.521,0.967c2.929,0,5.099-0.438,6.508-1.314
							c1.408-0.876,2.113-2.064,2.113-3.564c0-1.248-0.385-2.113-1.157-2.597c-0.771-0.484-2.222-0.726-4.353-0.726h-4.184
							c-1.584,0-2.817,0.378-3.701,1.135C1266.982,243.032,1266.541,244.119,1266.541,245.535z M1268.434,226.001
							c0,1.612,0.456,2.832,1.367,3.659c0.91,0.827,2.18,1.24,3.805,1.24c3.406,0,5.109-1.654,5.109-4.962
							c0-3.462-1.725-5.193-5.172-5.193c-1.641,0-2.902,0.441-3.785,1.325C1268.875,222.953,1268.434,224.263,1268.434,226.001z
							 M1303.82,241.666l-0.694-3.28h-0.168c-1.15,1.444-2.296,2.422-3.438,2.933c-1.141,0.511-2.568,0.768-4.278,0.768
							c-2.285,0-4.075-0.589-5.372-1.766c-1.297-1.178-1.945-2.853-1.945-5.025c0-4.653,3.723-7.093,11.166-7.317l3.91-0.126v-1.43
							c0-1.808-0.389-3.143-1.167-4.005c-0.778-0.862-2.022-1.293-3.731-1.293c-1.92,0-4.094,0.589-6.519,1.766l-1.072-2.67
							c1.136-0.617,2.38-1.1,3.731-1.451c1.353-0.351,2.709-0.525,4.068-0.525c2.749,0,4.784,0.609,6.109,1.829
							c1.324,1.22,1.986,3.175,1.986,5.866v15.728H1303.82z M1295.936,239.206c2.172,0,3.879-0.596,5.119-1.788
							c1.241-1.191,1.861-2.859,1.861-5.004v-2.082l-3.49,0.147c-2.775,0.098-4.777,0.529-6.003,1.293
							c-1.226,0.764-1.84,1.951-1.84,3.563c0,1.262,0.383,2.222,1.146,2.881C1293.492,238.876,1294.562,239.206,1295.936,239.206z
							 M1020.916,277.41c1.023,0,1.941,0.084,2.755,0.252l-0.483,3.238c-0.953-0.21-1.795-0.315-2.523-0.315
							c-1.865,0-3.459,0.757-4.783,2.271c-1.324,1.514-1.987,3.399-1.987,5.656v12.363h-3.49v-23.044h2.88l0.4,4.268h0.168
							c0.855-1.5,1.885-2.656,3.091-3.469C1018.147,277.816,1019.473,277.41,1020.916,277.41z M1036.854,301.295
							c-3.406,0-6.094-1.037-8.062-3.112c-1.971-2.075-2.955-4.955-2.955-8.642c0-3.715,0.915-6.666,2.744-8.852
							c1.83-2.187,4.285-3.28,7.369-3.28c2.889,0,5.173,0.95,6.855,2.849c1.682,1.899,2.522,4.405,2.522,7.517v2.208h-15.874
							c0.069,2.706,0.753,4.759,2.05,6.161s3.122,2.103,5.478,2.103c2.48,0,4.934-0.519,7.359-1.556v3.112
							c-1.234,0.532-2.401,0.915-3.502,1.146C1039.738,301.18,1038.41,301.295,1036.854,301.295z M1035.908,280.333
							c-1.851,0-3.326,0.603-4.426,1.808c-1.101,1.206-1.75,2.874-1.945,5.004h12.048c0-2.201-0.491-3.886-1.472-5.057
							C1039.131,280.917,1037.73,280.333,1035.908,280.333z M1065.449,300.875l-0.693-3.28h-0.169
							c-1.149,1.444-2.296,2.422-3.438,2.933s-2.569,0.768-4.278,0.768c-2.285,0-4.076-0.589-5.373-1.766
							c-1.297-1.178-1.944-2.853-1.944-5.025c0-4.653,3.722-7.093,11.165-7.317l3.91-0.126v-1.43c0-1.808-0.389-3.143-1.166-4.005
							c-0.779-0.862-2.023-1.293-3.732-1.293c-1.92,0-4.094,0.589-6.519,1.766l-1.072-2.67c1.136-0.617,2.38-1.1,3.732-1.451
							s2.708-0.525,4.068-0.525c2.747,0,4.783,0.609,6.108,1.829c1.324,1.22,1.986,3.175,1.986,5.866v15.728H1065.449z
							 M1057.564,298.415c2.172,0,3.879-0.596,5.119-1.788c1.241-1.191,1.861-2.859,1.861-5.004v-2.082l-3.49,0.147
							c-2.775,0.098-4.776,0.529-6.003,1.293c-1.226,0.764-1.84,1.951-1.84,3.563c0,1.262,0.382,2.222,1.146,2.881
							C1055.121,298.085,1056.191,298.415,1057.564,298.415z M1078.717,300.875h-3.49v-32.717h3.49V300.875z M1089.607,300.875
							h-3.49v-23.044h3.49V300.875z M1085.823,271.586c0-0.799,0.196-1.384,0.589-1.756s0.883-0.557,1.472-0.557
							c0.562,0,1.044,0.189,1.45,0.568c0.406,0.378,0.61,0.96,0.61,1.745c0,0.785-0.204,1.37-0.61,1.755s-0.889,0.578-1.45,0.578
							c-0.589,0-1.079-0.193-1.472-0.578S1085.823,272.371,1085.823,271.586z M1112.694,297.784h-0.188
							c-1.613,2.341-4.023,3.511-7.233,3.511c-3.014,0-5.358-1.03-7.033-3.091s-2.513-4.99-2.513-8.789
							c0-3.799,0.841-6.749,2.523-8.852c1.682-2.103,4.022-3.154,7.022-3.154c3.126,0,5.522,1.135,7.19,3.406h0.273l-0.146-1.661
							l-0.084-1.619v-9.378h3.49v32.717h-2.839L1112.694,297.784z M1105.714,298.373c2.383,0,4.11-0.648,5.183-1.945
							s1.609-3.389,1.609-6.276v-0.736c0-3.266-0.543-5.596-1.631-6.991c-1.086-1.395-2.82-2.092-5.203-2.092
							c-2.047,0-3.613,0.795-4.699,2.386c-1.087,1.591-1.63,3.837-1.63,6.739c0,2.943,0.54,5.165,1.619,6.665
							C1102.041,297.623,1103.625,298.373,1105.714,298.373z M1137.568,300.875l-0.694-3.28h-0.168
							c-1.149,1.444-2.296,2.422-3.438,2.933c-1.142,0.511-2.568,0.768-4.278,0.768c-2.284,0-4.075-0.589-5.372-1.766
							c-1.297-1.178-1.945-2.853-1.945-5.025c0-4.653,3.723-7.093,11.166-7.317l3.91-0.126v-1.43c0-1.808-0.389-3.143-1.167-4.005
							c-0.778-0.862-2.022-1.293-3.731-1.293c-1.921,0-4.094,0.589-6.519,1.766l-1.072-2.67c1.136-0.617,2.38-1.1,3.731-1.451
							c1.354-0.351,2.709-0.525,4.068-0.525c2.748,0,4.784,0.609,6.109,1.829c1.324,1.22,1.986,3.175,1.986,5.866v15.728H1137.568z
							 M1129.684,298.415c2.172,0,3.879-0.596,5.119-1.788c1.24-1.191,1.861-2.859,1.861-5.004v-2.082l-3.49,0.147
							c-2.775,0.098-4.777,0.529-6.003,1.293c-1.227,0.764-1.84,1.951-1.84,3.563c0,1.262,0.382,2.222,1.146,2.881
							C1127.24,298.085,1128.311,298.415,1129.684,298.415z M1163.03,297.784h-0.188c-1.613,2.341-4.023,3.511-7.233,3.511
							c-3.014,0-5.358-1.03-7.033-3.091s-2.513-4.99-2.513-8.789c0-3.799,0.842-6.749,2.523-8.852
							c1.682-2.103,4.022-3.154,7.022-3.154c3.126,0,5.522,1.135,7.19,3.406h0.273l-0.146-1.661l-0.084-1.619v-9.378h3.49v32.717
							h-2.839L1163.03,297.784z M1156.05,298.373c2.383,0,4.11-0.648,5.183-1.945s1.609-3.389,1.609-6.276v-0.736
							c0-3.266-0.543-5.596-1.63-6.991s-2.821-2.092-5.204-2.092c-2.047,0-3.613,0.795-4.699,2.386
							c-1.086,1.591-1.629,3.837-1.629,6.739c0,2.943,0.539,5.165,1.618,6.665C1152.377,297.623,1153.961,298.373,1156.05,298.373z"
							/>
						<path id="_xA1_Participa-y-gana-ha" fill="#EC0000" d="M1010.959,401.366h4.617l0.965,18.45h-6.548L1010.959,401.366z
							 M1016.616,394.895c0,1.06-0.284,1.86-0.851,2.403c-0.568,0.542-1.395,0.813-2.479,0.813c-1.048,0-1.858-0.277-2.432-0.833
							c-0.574-0.555-0.861-1.35-0.861-2.384c0-1.022,0.294-1.813,0.88-2.375c0.587-0.562,1.391-0.842,2.413-0.842
							c1.06,0,1.88,0.278,2.46,0.833C1016.326,393.065,1016.616,393.86,1016.616,394.895z M1028.217,398.187h1.93
							c1.805,0,3.154-0.356,4.05-1.069c0.896-0.712,1.343-1.75,1.343-3.113c0-1.375-0.375-2.391-1.125-3.047
							c-0.751-0.656-1.928-0.984-3.529-0.984h-2.668V398.187z M1041.463,393.797c0,2.977-0.931,5.254-2.791,6.831
							c-1.861,1.577-4.508,2.366-7.938,2.366h-2.517v9.84h-5.867v-27.666h8.838c3.355,0,5.907,0.722,7.654,2.167
							C1040.59,388.779,1041.463,390.933,1041.463,393.797z M1059.667,412.833l-1.116-2.876h-0.151
							c-0.972,1.224-1.972,2.072-2.999,2.545c-1.029,0.473-2.369,0.709-4.021,0.709c-2.031,0-3.631-0.58-4.797-1.741
							c-1.168-1.161-1.751-2.813-1.751-4.958c0-2.246,0.785-3.901,2.356-4.967c1.57-1.066,3.939-1.656,7.105-1.77l3.671-0.113
							v-0.927c0-2.145-1.098-3.217-3.292-3.217c-1.691,0-3.678,0.511-5.961,1.533l-1.912-3.898c2.436-1.274,5.135-1.911,8.1-1.911
							c2.838,0,5.015,0.618,6.528,1.854c1.515,1.236,2.271,3.116,2.271,5.639v14.098H1059.667z M1057.964,403.031l-2.233,0.076
							c-1.678,0.05-2.926,0.354-3.746,0.909c-0.82,0.555-1.23,1.4-1.23,2.536c0,1.627,0.934,2.441,2.801,2.441
							c1.338,0,2.406-0.385,3.207-1.154c0.802-0.77,1.202-1.792,1.202-3.065V403.031z M1081.447,391.28
							c0.783,0,1.433,0.057,1.949,0.17l-0.436,5.412c-0.466-0.126-1.033-0.189-1.702-0.189c-1.843,0-3.277,0.474-4.306,1.419
							c-1.027,0.946-1.542,2.271-1.542,3.974v10.767h-5.771v-21.156h4.371l0.852,3.558h0.284c0.656-1.186,1.542-2.141,2.658-2.867
							C1078.922,391.643,1080.136,391.28,1081.447,391.28z M1096.151,408.614c1.009,0,2.22-0.221,3.634-0.663v4.296
							c-1.439,0.644-3.205,0.965-5.299,0.965c-2.309,0-3.99-0.583-5.043-1.75c-1.054-1.167-1.58-2.917-1.58-5.251v-10.2h-2.764
							v-2.441l3.18-1.93l1.665-4.466h3.69v4.503h5.923v4.333h-5.923v10.2c0,0.82,0.23,1.425,0.69,1.817
							C1094.785,408.418,1095.395,408.614,1096.151,408.614z M1103.814,386.208c0-1.879,1.048-2.82,3.143-2.82
							c2.094,0,3.141,0.94,3.141,2.82c0,0.896-0.262,1.593-0.785,2.091c-0.523,0.498-1.309,0.747-2.355,0.747
							C1104.862,389.047,1103.814,388.101,1103.814,386.208z M1109.833,412.833h-5.772v-21.156h5.772V412.833z M1124.479,413.212
							c-6.585,0-9.878-3.614-9.878-10.843c0-3.596,0.896-6.343,2.688-8.241c1.791-1.898,4.358-2.848,7.701-2.848
							c2.447,0,4.643,0.479,6.586,1.438l-1.703,4.466c-0.908-0.366-1.754-0.666-2.536-0.899s-1.564-0.35-2.347-0.35
							c-3.002,0-4.504,2.132-4.504,6.396c0,4.138,1.502,6.207,4.504,6.207c1.11,0,2.139-0.148,3.084-0.445
							c0.947-0.296,1.893-0.76,2.84-1.391v4.939c-0.934,0.593-1.877,1.003-2.83,1.23
							C1127.132,413.099,1125.93,413.212,1124.479,413.212z M1135.568,386.208c0-1.879,1.047-2.82,3.142-2.82
							c2.094,0,3.142,0.94,3.142,2.82c0,0.896-0.262,1.593-0.785,2.091c-0.524,0.498-1.31,0.747-2.356,0.747
							C1136.615,389.047,1135.568,388.101,1135.568,386.208z M1141.586,412.833h-5.771v-21.156h5.771V412.833z M1159.261,413.212
							c-2.485,0-4.435-0.902-5.848-2.706h-0.303c0.202,1.767,0.303,2.788,0.303,3.066v8.572h-5.771v-30.467h4.692l0.814,2.744h0.265
							c1.351-2.094,3.35-3.141,5.999-3.141c2.498,0,4.453,0.965,5.866,2.895s2.119,4.611,2.119,8.042
							c0,2.258-0.331,4.22-0.993,5.885c-0.662,1.666-1.605,2.934-2.829,3.804C1162.352,412.777,1160.913,413.212,1159.261,413.212z
							 M1157.558,395.897c-1.426,0-2.467,0.438-3.122,1.315c-0.656,0.877-0.997,2.325-1.022,4.343v0.625
							c0,2.271,0.337,3.898,1.013,4.882c0.675,0.984,1.744,1.476,3.207,1.476c2.586,0,3.879-2.132,3.879-6.396
							c0-2.082-0.318-3.643-0.955-4.684S1158.92,395.897,1157.558,395.897z M1185.602,412.833l-1.116-2.876h-0.151
							c-0.972,1.224-1.971,2.072-3,2.545c-1.027,0.473-2.368,0.709-4.021,0.709c-2.031,0-3.63-0.58-4.798-1.741
							c-1.166-1.161-1.75-2.813-1.75-4.958c0-2.246,0.785-3.901,2.356-4.967c1.57-1.066,3.938-1.656,7.105-1.77l3.671-0.113v-0.927
							c0-2.145-1.098-3.217-3.293-3.217c-1.689,0-3.677,0.511-5.961,1.533l-1.91-3.898c2.435-1.274,5.135-1.911,8.099-1.911
							c2.839,0,5.015,0.618,6.528,1.854s2.271,3.116,2.271,5.639v14.098H1185.602z M1183.898,403.031l-2.232,0.076
							c-1.678,0.05-2.928,0.354-3.747,0.909c-0.819,0.555-1.229,1.4-1.229,2.536c0,1.627,0.934,2.441,2.801,2.441
							c1.336,0,2.406-0.385,3.207-1.154s1.201-1.792,1.201-3.065V403.031z M1202.613,391.677h6.32l3.994,11.903
							c0.34,1.035,0.573,2.258,0.699,3.671h0.113c0.139-1.299,0.41-2.523,0.814-3.671l3.917-11.903h6.188l-8.951,23.862
							c-0.82,2.208-1.99,3.86-3.51,4.958c-1.521,1.098-3.297,1.646-5.328,1.646c-0.996,0-1.974-0.107-2.933-0.322v-4.58
							c0.694,0.164,1.45,0.246,2.271,0.246c1.021,0,1.914-0.312,2.678-0.937s1.359-1.568,1.789-2.829l0.34-1.041L1202.613,391.677z
							 M1256.167,391.677v2.933l-3.312,0.852c0.605,0.946,0.908,2.006,0.908,3.179c0,2.271-0.791,4.04-2.375,5.308
							c-1.583,1.268-3.781,1.902-6.595,1.902l-1.041-0.057l-0.852-0.094c-0.593,0.454-0.89,0.958-0.89,1.514
							c0,0.833,1.061,1.249,3.18,1.249h3.596c2.32,0,4.09,0.499,5.308,1.495c1.218,0.997,1.826,2.46,1.826,4.391
							c0,2.473-1.031,4.39-3.094,5.752c-2.063,1.363-5.024,2.044-8.885,2.044c-2.952,0-5.207-0.514-6.765-1.542
							c-1.559-1.028-2.338-2.469-2.338-4.324c0-1.274,0.398-2.34,1.192-3.198c0.795-0.858,1.962-1.47,3.501-1.835
							c-0.593-0.252-1.11-0.666-1.552-1.239c-0.441-0.574-0.662-1.183-0.662-1.826c0-0.808,0.233-1.479,0.7-2.016
							s1.142-1.062,2.024-1.58c-1.11-0.479-1.989-1.249-2.64-2.309c-0.649-1.06-0.975-2.309-0.975-3.747
							c0-2.309,0.751-4.094,2.252-5.355c1.502-1.262,3.646-1.892,6.434-1.892c0.594,0,1.297,0.053,2.11,0.161
							c0.813,0.107,1.334,0.186,1.562,0.236H1256.167z M1239.836,415.823c0,0.795,0.382,1.419,1.145,1.874
							c0.764,0.455,1.833,0.681,3.208,0.681c2.069,0,3.69-0.284,4.863-0.852c1.173-0.567,1.76-1.343,1.76-2.327
							c0-0.795-0.347-1.344-1.04-1.646c-0.694-0.303-1.768-0.454-3.218-0.454h-2.989c-1.061,0-1.946,0.249-2.659,0.748
							C1240.192,414.344,1239.836,415.003,1239.836,415.823z M1241.937,398.604c0,1.148,0.262,2.056,0.785,2.725
							c0.524,0.669,1.321,1.003,2.394,1.003c1.086,0,1.88-0.334,2.385-1.003c0.504-0.668,0.757-1.577,0.757-2.725
							c0-2.549-1.047-3.823-3.142-3.823C1242.996,394.781,1241.937,396.055,1241.937,398.604z M1273.084,412.833l-1.116-2.876
							h-0.151c-0.971,1.224-1.971,2.072-3,2.545c-1.027,0.473-2.367,0.709-4.021,0.709c-2.031,0-3.63-0.58-4.797-1.741
							s-1.751-2.813-1.751-4.958c0-2.246,0.785-3.901,2.356-4.967c1.57-1.066,3.938-1.656,7.105-1.77l3.671-0.113v-0.927
							c0-2.145-1.098-3.217-3.293-3.217c-1.689,0-3.677,0.511-5.96,1.533l-1.911-3.898c2.435-1.274,5.135-1.911,8.099-1.911
							c2.839,0,5.015,0.618,6.528,1.854s2.271,3.116,2.271,5.639v14.098H1273.084z M1271.381,403.031l-2.232,0.076
							c-1.678,0.05-2.927,0.354-3.747,0.909c-0.819,0.555-1.229,1.4-1.229,2.536c0,1.627,0.934,2.441,2.801,2.441
							c1.337,0,2.406-0.385,3.207-1.154s1.201-1.792,1.201-3.065V403.031z M1302.586,412.833h-5.771v-12.357
							c0-1.526-0.271-2.671-0.814-3.435c-0.542-0.763-1.406-1.145-2.592-1.145c-1.615,0-2.781,0.539-3.501,1.618
							s-1.079,2.867-1.079,5.365v9.954h-5.771v-21.156h4.409l0.776,2.706h0.321c0.644-1.022,1.53-1.794,2.659-2.318
							s2.412-0.785,3.851-0.785c2.46,0,4.327,0.665,5.601,1.996c1.275,1.331,1.912,3.252,1.912,5.762V412.833z M1321.963,412.833
							l-1.116-2.876h-0.151c-0.971,1.224-1.971,2.072-2.999,2.545s-2.368,0.709-4.021,0.709c-2.031,0-3.63-0.58-4.797-1.741
							s-1.751-2.813-1.751-4.958c0-2.246,0.785-3.901,2.356-4.967s3.938-1.656,7.105-1.77l3.671-0.113v-0.927
							c0-2.145-1.098-3.217-3.292-3.217c-1.69,0-3.678,0.511-5.961,1.533l-1.911-3.898c2.435-1.274,5.135-1.911,8.1-1.911
							c2.838,0,5.014,0.618,6.528,1.854c1.514,1.236,2.271,3.116,2.271,5.639v14.098H1321.963z M1320.26,403.031l-2.232,0.076
							c-1.678,0.05-2.927,0.354-3.747,0.909c-0.819,0.555-1.229,1.4-1.229,2.536c0,1.627,0.934,2.441,2.801,2.441
							c1.337,0,2.406-0.385,3.207-1.154s1.201-1.792,1.201-3.065V403.031z M1030.336,465.583h-5.771v-12.357
							c0-3.053-1.136-4.58-3.406-4.58c-1.615,0-2.781,0.549-3.501,1.646s-1.079,2.876-1.079,5.336v9.954h-5.771v-29.445h5.771v5.999
							c0,0.467-0.043,1.564-0.132,3.292l-0.133,1.703h0.303c1.287-2.069,3.331-3.104,6.132-3.104c2.484,0,4.371,0.668,5.658,2.006
							c1.286,1.337,1.93,3.255,1.93,5.752V465.583z M1049.713,465.583l-1.116-2.876h-0.151c-0.971,1.224-1.971,2.072-2.999,2.545
							s-2.368,0.709-4.021,0.709c-2.03,0-3.63-0.58-4.797-1.741c-1.167-1.16-1.751-2.813-1.751-4.958
							c0-2.246,0.785-3.901,2.356-4.967c1.571-1.066,3.939-1.656,7.106-1.77l3.67-0.113v-0.928c0-2.145-1.098-3.217-3.292-3.217
							c-1.69,0-3.678,0.511-5.961,1.533l-1.911-3.898c2.435-1.274,5.135-1.911,8.1-1.911c2.838,0,5.014,0.618,6.527,1.854
							c1.515,1.236,2.271,3.116,2.271,5.639v14.098H1049.713z M1048.01,455.781l-2.232,0.076c-1.678,0.05-2.927,0.353-3.747,0.908
							c-0.819,0.555-1.229,1.4-1.229,2.536c0,1.627,0.934,2.441,2.801,2.441c1.337,0,2.406-0.385,3.207-1.154
							s1.201-1.792,1.201-3.066V455.781z M1074.446,459.301c0,2.17-0.754,3.823-2.262,4.958c-1.507,1.136-3.763,1.703-6.765,1.703
							c-1.539,0-2.852-0.104-3.936-0.312c-1.086-0.208-2.102-0.514-3.047-0.917v-4.769c1.072,0.504,2.279,0.927,3.623,1.268
							c1.344,0.341,2.526,0.511,3.549,0.511c2.094,0,3.141-0.605,3.141-1.817c0-0.454-0.139-0.823-0.416-1.107
							c-0.277-0.284-0.757-0.605-1.438-0.965c-0.681-0.36-1.589-0.779-2.725-1.259c-1.628-0.681-2.823-1.312-3.586-1.892
							c-0.763-0.581-1.318-1.246-1.665-1.997c-0.348-0.75-0.521-1.675-0.521-2.772c0-1.879,0.729-3.333,2.186-4.361
							c1.457-1.028,3.522-1.542,6.197-1.542c2.548,0,5.027,0.555,7.437,1.666l-1.74,4.163c-1.061-0.454-2.051-0.827-2.971-1.117
							c-0.922-0.29-1.861-0.435-2.82-0.435c-1.703,0-2.555,0.46-2.555,1.381c0,0.517,0.274,0.965,0.823,1.343
							c0.549,0.379,1.751,0.94,3.604,1.685c1.653,0.668,2.864,1.293,3.634,1.873c0.77,0.581,1.337,1.249,1.703,2.006
							S1074.446,458.254,1074.446,459.301z M1087.863,461.363c1.009,0,2.22-0.221,3.633-0.662v4.296
							c-1.438,0.643-3.205,0.965-5.299,0.965c-2.309,0-3.989-0.583-5.043-1.75c-1.053-1.167-1.58-2.917-1.58-5.251v-10.2h-2.763
							v-2.441l3.179-1.93l1.666-4.466h3.689v4.504h5.924v4.333h-5.924v10.2c0,0.82,0.23,1.425,0.691,1.816
							C1086.497,461.168,1087.105,461.363,1087.863,461.363z M1109.209,465.583l-1.117-2.876h-0.151
							c-0.972,1.224-1.972,2.072-2.999,2.545c-1.028,0.473-2.369,0.709-4.021,0.709c-2.031,0-3.631-0.58-4.797-1.741
							c-1.167-1.16-1.75-2.813-1.75-4.958c0-2.246,0.785-3.901,2.355-4.967c1.57-1.066,3.939-1.656,7.105-1.77l3.672-0.113v-0.928
							c0-2.145-1.098-3.217-3.293-3.217c-1.691,0-3.678,0.511-5.961,1.533l-1.912-3.898c2.436-1.274,5.135-1.911,8.1-1.911
							c2.839,0,5.015,0.618,6.529,1.854c1.514,1.236,2.27,3.116,2.27,5.639v14.098H1109.209z M1107.506,455.781l-2.233,0.076
							c-1.679,0.05-2.927,0.353-3.747,0.908s-1.23,1.4-1.23,2.536c0,1.627,0.934,2.441,2.801,2.441c1.338,0,2.406-0.385,3.208-1.154
							c0.801-0.77,1.202-1.792,1.202-3.066V455.781z M1146.885,456.936c0,2.006-0.726,3.617-2.176,4.835
							c-1.451,1.217-3.482,1.946-6.094,2.186v3.879h-2.593v-3.804c-3.078-0.063-5.778-0.605-8.099-1.627v-4.996
							c1.098,0.542,2.418,1.022,3.964,1.438c1.546,0.417,2.924,0.663,4.135,0.738v-5.866l-1.268-0.492
							c-2.498-0.984-4.267-2.053-5.308-3.208s-1.562-2.583-1.562-4.286c0-1.829,0.716-3.333,2.147-4.513s3.429-1.896,5.989-2.148
							v-2.895h2.593v2.819c2.889,0.126,5.5,0.707,7.834,1.741l-1.779,4.428c-1.967-0.807-3.986-1.299-6.055-1.476v5.582
							c2.46,0.946,4.211,1.766,5.251,2.46c1.041,0.694,1.804,1.457,2.29,2.29C1146.642,454.854,1146.885,455.825,1146.885,456.936z
							 M1141.189,457.219c0-0.53-0.215-0.978-0.645-1.343c-0.429-0.366-1.072-0.745-1.93-1.136v4.712
							C1140.331,459.162,1141.189,458.418,1141.189,457.219z M1133.582,445.733c0,0.555,0.191,1.012,0.576,1.372
							c0.385,0.359,1.007,0.729,1.864,1.107v-4.447C1134.396,444.005,1133.582,444.661,1133.582,445.733z M1159.961,447.909
							c2.674,0,4.803,0.75,6.387,2.252c1.583,1.501,2.375,3.558,2.375,6.169c0,3.091-0.953,5.469-2.857,7.134
							c-1.905,1.666-4.631,2.498-8.176,2.498c-3.078,0-5.562-0.498-7.455-1.495v-5.052c0.996,0.53,2.156,0.962,3.481,1.296
							c1.325,0.334,2.58,0.501,3.767,0.501c3.569,0,5.354-1.463,5.354-4.39c0-2.788-1.849-4.183-5.544-4.183
							c-0.669,0-1.407,0.066-2.215,0.199c-0.807,0.132-1.463,0.274-1.968,0.426l-2.327-1.249l1.041-14.098h15.006v4.958h-9.879
							l-0.51,5.431l0.662-0.133C1157.873,447.998,1158.825,447.909,1159.961,447.909z M1191.203,451.75
							c0,4.832-0.791,8.408-2.375,10.729c-1.583,2.321-4.021,3.482-7.314,3.482c-3.191,0-5.598-1.198-7.219-3.595
							s-2.432-5.936-2.432-10.616c0-4.882,0.789-8.481,2.365-10.796c1.577-2.315,4.006-3.472,7.285-3.472
							c3.192,0,5.605,1.211,7.238,3.633C1190.387,443.538,1191.203,447.083,1191.203,451.75z M1177.673,451.75
							c0,3.394,0.294,5.825,0.88,7.295c0.587,1.47,1.574,2.205,2.961,2.205c1.363,0,2.348-0.744,2.953-2.233
							s0.908-3.911,0.908-7.267c0-3.394-0.307-5.832-0.918-7.314s-1.593-2.224-2.943-2.224c-1.375,0-2.358,0.741-2.951,2.224
							C1177.969,445.919,1177.673,448.357,1177.673,451.75z M1213.324,451.75c0,4.832-0.791,8.408-2.375,10.729
							c-1.583,2.321-4.021,3.482-7.313,3.482c-3.192,0-5.599-1.198-7.22-3.595s-2.432-5.936-2.432-10.616
							c0-4.882,0.789-8.481,2.365-10.796c1.578-2.315,4.006-3.472,7.286-3.472c3.192,0,5.604,1.211,7.238,3.633
							S1213.324,447.083,1213.324,451.75z M1199.795,451.75c0,3.394,0.293,5.825,0.879,7.295c0.587,1.47,1.574,2.205,2.962,2.205
							c1.362,0,2.347-0.744,2.952-2.233s0.908-3.911,0.908-7.267c0-3.394-0.307-5.832-0.918-7.314s-1.593-2.224-2.942-2.224
							c-1.375,0-2.359,0.741-2.952,2.224S1199.795,448.357,1199.795,451.75z M1246.743,465.583h-5.771v-12.357
							c0-1.526-0.256-2.671-0.767-3.435s-1.315-1.145-2.412-1.145c-1.477,0-2.549,0.542-3.218,1.627s-1.003,2.87-1.003,5.355v9.954
							h-5.771v-21.156h4.409l0.776,2.706h0.321c0.567-0.971,1.388-1.731,2.46-2.28s2.303-0.823,3.689-0.823
							c3.167,0,5.312,1.035,6.435,3.104h0.511c0.568-0.984,1.403-1.748,2.508-2.29c1.104-0.543,2.35-0.814,3.736-0.814
							c2.397,0,4.211,0.615,5.441,1.845c1.229,1.23,1.845,3.201,1.845,5.913v13.795h-5.79v-12.357c0-1.526-0.256-2.671-0.768-3.435
							c-0.51-0.763-1.314-1.145-2.412-1.145c-1.413,0-2.469,0.505-3.17,1.514c-0.699,1.009-1.05,2.611-1.05,4.807V465.583z
							 M1265.609,438.958c0-1.88,1.047-2.82,3.142-2.82s3.142,0.94,3.142,2.82c0,0.896-0.262,1.592-0.785,2.091
							s-1.31,0.748-2.356,0.748C1266.656,441.797,1265.609,440.851,1265.609,438.958z M1271.627,465.583h-5.771v-21.156h5.771
							V465.583z M1283.454,465.583h-5.771v-29.445h5.771V465.583z M1311.195,465.962c-2.484,0-4.434-0.902-5.847-2.706h-0.303
							c0.202,1.766,0.303,2.788,0.303,3.065v8.572h-5.771v-30.466h4.692l0.814,2.744h0.265c1.35-2.094,3.35-3.141,5.999-3.141
							c2.498,0,4.453,0.965,5.865,2.895c1.414,1.931,2.12,4.611,2.12,8.043c0,2.258-0.331,4.22-0.993,5.885
							c-0.662,1.666-1.605,2.933-2.83,3.804C1314.287,465.527,1312.849,465.962,1311.195,465.962z M1309.492,448.647
							c-1.425,0-2.466,0.438-3.121,1.315c-0.656,0.876-0.997,2.324-1.022,4.343v0.625c0,2.271,0.337,3.898,1.013,4.882
							c0.675,0.984,1.744,1.476,3.207,1.476c2.586,0,3.879-2.132,3.879-6.396c0-2.082-0.318-3.643-0.955-4.684
							C1311.855,449.167,1310.855,448.647,1309.492,448.647z M1332.863,448.136c-1.224,0-2.183,0.388-2.877,1.164
							c-0.693,0.776-1.091,1.877-1.191,3.302h8.099c-0.025-1.425-0.397-2.526-1.116-3.302S1334.087,448.136,1332.863,448.136z
							 M1333.677,465.962c-3.406,0-6.068-0.94-7.985-2.819c-1.918-1.88-2.877-4.542-2.877-7.986c0-3.545,0.887-6.286,2.659-8.222
							s4.223-2.905,7.352-2.905c2.99,0,5.317,0.852,6.982,2.555c1.666,1.703,2.498,4.056,2.498,7.058v2.801h-13.644
							c0.063,1.64,0.549,2.921,1.457,3.842s2.183,1.381,3.822,1.381c1.274,0,2.479-0.132,3.614-0.397
							c1.136-0.265,2.321-0.688,3.558-1.268v4.466c-1.009,0.505-2.088,0.88-3.235,1.126
							C1336.729,465.839,1335.329,465.962,1333.677,465.962z M1361.76,459.301c0,2.17-0.755,3.823-2.263,4.958
							c-1.508,1.136-3.762,1.703-6.765,1.703c-1.539,0-2.851-0.104-3.936-0.312c-1.085-0.208-2.101-0.514-3.047-0.917v-4.769
							c1.072,0.504,2.28,0.927,3.624,1.268c1.344,0.341,2.526,0.511,3.548,0.511c2.095,0,3.142-0.605,3.142-1.817
							c0-0.454-0.139-0.823-0.416-1.107c-0.277-0.284-0.757-0.605-1.438-0.965c-0.681-0.36-1.59-0.779-2.726-1.259
							c-1.627-0.681-2.822-1.312-3.586-1.892c-0.763-0.581-1.318-1.246-1.665-1.997c-0.347-0.75-0.521-1.675-0.521-2.772
							c0-1.879,0.729-3.333,2.186-4.361c1.457-1.028,3.523-1.542,6.198-1.542c2.548,0,5.027,0.555,7.437,1.666l-1.74,4.163
							c-1.061-0.454-2.051-0.827-2.972-1.117s-1.86-0.435-2.819-0.435c-1.703,0-2.555,0.46-2.555,1.381
							c0,0.517,0.273,0.965,0.822,1.343c0.549,0.379,1.751,0.94,3.605,1.685c1.653,0.668,2.864,1.293,3.634,1.873
							c0.77,0.581,1.337,1.249,1.703,2.006S1361.76,458.254,1361.76,459.301z M1370.861,454.968c0,2.094,0.343,3.677,1.03,4.75
							s1.809,1.608,3.36,1.608c1.539,0,2.646-0.533,3.32-1.599c0.675-1.066,1.013-2.652,1.013-4.759c0-2.095-0.34-3.665-1.021-4.712
							c-0.682-1.047-1.798-1.571-3.35-1.571c-1.539,0-2.649,0.52-3.33,1.561C1371.202,451.287,1370.861,452.861,1370.861,454.968z
							 M1385.489,454.968c0,3.444-0.908,6.137-2.725,8.08s-4.347,2.914-7.589,2.914c-2.03,0-3.822-0.445-5.374-1.334
							c-1.552-0.89-2.744-2.167-3.576-3.832c-0.833-1.665-1.249-3.608-1.249-5.828c0-3.457,0.902-6.144,2.706-8.062
							s4.34-2.876,7.607-2.876c2.031,0,3.822,0.441,5.374,1.325c1.552,0.883,2.744,2.151,3.576,3.804
							C1385.073,450.811,1385.489,452.747,1385.489,454.968z M1405.019,459.301c0,2.17-0.755,3.823-2.263,4.958
							c-1.508,1.136-3.762,1.703-6.764,1.703c-1.539,0-2.852-0.104-3.937-0.312c-1.085-0.208-2.101-0.514-3.047-0.917v-4.769
							c1.072,0.504,2.279,0.927,3.623,1.268c1.344,0.341,2.527,0.511,3.549,0.511c2.095,0,3.142-0.605,3.142-1.817
							c0-0.454-0.139-0.823-0.416-1.107c-0.277-0.284-0.757-0.605-1.438-0.965c-0.681-0.36-1.59-0.779-2.725-1.259
							c-1.628-0.681-2.824-1.312-3.587-1.892c-0.764-0.581-1.318-1.246-1.666-1.997c-0.347-0.75-0.519-1.675-0.519-2.772
							c0-1.879,0.728-3.333,2.185-4.361c1.457-1.028,3.523-1.542,6.198-1.542c2.548,0,5.027,0.555,7.437,1.666l-1.741,4.163
							c-1.06-0.454-2.05-0.827-2.971-1.117s-1.86-0.435-2.819-0.435c-1.703,0-2.555,0.46-2.555,1.381
							c0,0.517,0.273,0.965,0.822,1.343c0.549,0.379,1.751,0.94,3.605,1.685c1.653,0.668,2.864,1.293,3.634,1.873
							c0.77,0.581,1.337,1.249,1.703,2.006C1404.835,457.352,1405.019,458.254,1405.019,459.301z M1414.366,456.406h-4.617
							l-0.965-18.488h6.547L1414.366,456.406z M1408.708,462.877c0-1.06,0.284-1.861,0.852-2.403
							c0.568-0.542,1.395-0.813,2.479-0.813c1.047,0,1.856,0.277,2.431,0.833s0.861,1.35,0.861,2.384c0,0.997-0.29,1.782-0.87,2.356
							s-1.388,0.861-2.422,0.861c-1.06,0-1.88-0.281-2.46-0.842C1408.998,464.691,1408.708,463.899,1408.708,462.877z"/>
					</g>
				</g>
			</g>
		</g>
	</g>
</g>
</svg>
