<?xml version="1.0" encoding="utf-8"?>
<!-- Generator: Adobe Illustrator 16.0.0, SVG Export Plug-In . SVG Version: 6.00 Build 0)  -->
<!DOCTYPE svg PUBLIC "-//W3C//DTD SVG 1.1//EN" "http://www.w3.org/Graphics/SVG/1.1/DTD/svg11.dtd">
<svg version="1.1" id="Layer_1" xmlns="http://www.w3.org/2000/svg" xmlns:xlink="http://www.w3.org/1999/xlink" x="0px" y="0px"
	 width="2100px" height="3096.234px" viewBox="-59.346 -2700.486 2100 3096.234"
	 enable-background="new -59.346 -2700.486 2100 3096.234" xml:space="preserve">
<title>Group 25</title>
<desc>Created with Sketch.</desc>
<g>
	<defs>
		<rect id="SVGID_1_" x="-59.346" y="-2700.486" width="2100" height="3096.234"/>
	</defs>
	<clipPath id="SVGID_2_">
		<use xlink:href="#SVGID_1_"  overflow="visible"/>
	</clipPath>
	<g clip-path="url(#SVGID_2_)">
		<g>
			<polygon id="path-3_2_" fill="#FFFFFF" points="597.529,35.481 597.529,18.098 583.264,18.098 583.264,35.481 			"/>
		</g>
		<g>
			<polygon id="path-1_2_" fill="#FFFFFF" points="410.552,-1.476 363.74,-1.476 363.74,19.033 363.74,39.669 410.552,39.669 			"/>
		</g>
		<polygon id="Rectangle-Copy-2" fill="#F0F0F0" points="2640.111,-2120.296 266.016,253.892 -323.273,-335.4 2050.912,-2709.539 		
			"/>
		<polygon id="Rectangle-Copy-2_1_" fill="#B30000" points="2981.968,-1795.823 582.371,603.816 79.127,100.572 2478.816,-2299.067 
					"/>
		<rect id="Rectangle-Copy-2_2_" x="-59.346" y="-603.386" fill="#EC0000" width="842.605" height="1000.298"/>
		<g id="Convocatoria-ajustes" transform="translate(0.000000, -24343.000000)">
			<g id="Group-24" transform="translate(0.000000, 24343.000000)">
				<rect id="Rectangle-Copy-2_3_" x="-59.346" y="-604.542" fill="#EC0000" width="842.605" height="1000.29"/>
				<g id="Group-21" transform="translate(102.000000, 73.000000)">
					<path id="Premio-Santander-a-l" fill="#FFFFFF" d="M-31.968-571.122h2.764c2.585,0,4.547-0.492,5.795-1.519
						c1.249-1.07,1.962-2.54,1.962-4.544c0-1.962-0.535-3.481-1.605-4.373c-1.07-0.935-2.764-1.427-5.083-1.427h-3.834V-571.122z
						 M-12.976-577.406c0,4.323-1.426,7.533-4.102,9.851c-2.585,2.318-6.419,3.388-11.324,3.388h-3.566v14.131h-8.471v-39.768
						h12.572c4.904,0,8.471,1.027,11.056,3.125C-14.224-584.589-12.976-581.558-12.976-577.406z M10.742-580.973
						c1.159,0,2.14,0.085,2.854,0.221l-0.624,7.753c-0.713-0.221-1.516-0.221-2.408-0.221c-2.675,0-4.726,0.671-6.152,2.097
						c-1.427,1.377-2.229,3.21-2.229,5.657v15.429h-8.203v-30.359h6.242l1.248,5.079h0.535c0.892-1.733,2.14-3.117,3.834-4.187
						C7.443-580.531,8.958-580.973,10.742-580.973z M30.625-575.095c-1.783,0-3.121,0.585-4.19,1.655
						c-1.07,1.027-1.605,2.625-1.784,4.722h11.592c0-2.097-0.535-3.566-1.605-4.722C33.568-574.603,32.32-575.095,30.625-575.095z
						 M31.785-549.587c-4.904,0-8.738-1.384-11.502-4.059c-2.764-2.675-4.191-6.47-4.191-11.463c0-5.122,1.337-9.044,3.834-11.812
						c2.586-2.81,6.063-4.187,10.521-4.187c4.28,0,7.668,1.291,9.986,3.702c2.318,2.447,3.567,5.792,3.567,10.072v4.059H24.473
						c0.089,2.318,0.803,4.187,2.051,5.571c1.249,1.384,3.121,1.962,5.439,1.962c1.873,0,3.656-0.221,5.261-0.578
						c1.605-0.313,3.299-1.027,5.083-1.826v6.37c-1.427,0.67-3.032,1.249-4.637,1.605C36.064-549.815,34.103-549.587,31.785-549.587
						z M77.972-550.036h-8.203v-17.74c0-2.19-0.357-3.838-1.07-4.993c-0.624-1.163-1.783-1.612-3.477-1.612
						c-2.051,0-3.656,0.806-4.637,2.326c-0.892,1.512-1.337,4.144-1.337,7.618v14.266h-8.292v-30.359h6.42l1.159,3.923h0.446
						c0.802-1.384,1.961-2.411,3.478-3.21c1.516-0.849,3.388-1.155,5.35-1.155c4.547,0,7.668,1.469,9.273,4.365h0.713
						c0.803-1.384,1.962-2.54,3.567-3.21c1.605-0.713,3.388-1.155,5.35-1.155c3.478,0,5.974,0.934,7.757,2.625
						c1.694,1.74,2.675,4.636,2.675,8.474v19.837h-8.382v-17.74c0-2.19-0.356-3.838-0.98-4.993
						c-0.713-1.163-1.873-1.612-3.478-1.612c-2.14,0-3.656,0.67-4.547,2.19c-0.981,1.512-1.516,3.702-1.516,6.955L77.972-550.036
						L77.972-550.036z M105.167-588.292c0-2.668,1.427-4.052,4.458-4.052s4.547,1.384,4.547,4.052c0,1.255-0.357,2.326-1.159,2.989
						c-0.713,0.713-1.873,1.07-3.388,1.07C106.594-584.233,105.167-585.609,105.167-588.292z M113.816-550.036h-8.203v-30.359h8.203
						V-550.036z M129.152-565.33c0,2.989,0.446,5.307,1.516,6.826c0.981,1.512,2.497,2.311,4.815,2.311
						c2.229,0,3.834-0.799,4.726-2.311c0.98-1.52,1.516-3.837,1.516-6.826c0-3.032-0.446-5.214-1.516-6.727
						c-0.981-1.52-2.497-2.19-4.726-2.19c-2.229,0-3.834,0.67-4.726,2.19C129.776-570.544,129.152-568.361,129.152-565.33z
						 M150.106-565.33c0,4.95-1.248,8.781-3.923,11.591c-2.675,2.768-6.241,4.151-10.878,4.151c-2.942,0-5.528-0.67-7.846-1.969
						c-2.318-1.291-3.923-3.117-5.083-5.436c-1.159-2.454-1.694-5.214-1.694-8.338c0-4.994,1.249-8.824,3.923-11.592
						c2.497-2.81,6.242-4.187,10.878-4.187c2.943,0,5.439,0.578,7.757,1.869c2.229,1.248,3.923,3.124,5.083,5.442
						C149.482-571.257,150.106-568.49,150.106-565.33z M-17.078-485.838c0,3.609-1.248,6.377-3.834,8.467
						c-2.497,2.097-6.063,3.124-10.7,3.124c-4.28,0-8.025-0.799-11.235-2.454v-7.847c2.586,1.163,4.904,2.055,6.777,2.54
						c1.872,0.449,3.566,0.67,5.082,0.67c1.873,0,3.299-0.314,4.369-1.027c0.981-0.664,1.427-1.733,1.427-3.117
						c0-0.806-0.178-1.52-0.624-2.097c-0.535-0.578-1.07-1.156-2.051-1.733c-0.892-0.585-2.497-1.52-5.083-2.682
						c-2.407-1.156-4.28-2.183-5.439-3.253c-1.159-1.027-2.14-2.318-2.854-3.695c-0.713-1.384-1.07-2.989-1.07-4.865
						c0-3.474,1.159-6.242,3.566-8.203c2.497-2.004,5.707-3.032,9.897-3.032c2.051,0,4.012,0.221,5.885,0.713
						c1.873,0.449,3.834,1.163,5.885,2.054l-2.853,6.598c-2.051-0.892-3.834-1.469-5.261-1.826
						c-1.337-0.356-2.764-0.492-4.012-0.492c-1.605,0-2.764,0.357-3.745,1.156c-0.802,0.713-1.249,1.783-1.249,2.946
						c0,0.671,0.089,1.384,0.446,1.962c0.356,0.578,0.98,1.02,1.604,1.605c0.713,0.578,2.586,1.384,5.35,2.76
						c3.745,1.784,6.242,3.617,7.668,5.35C-17.702-490.475-17.078-488.377-17.078-485.838z M8.78-474.688l-1.605-4.194H6.908
						c-1.337,1.74-2.764,3.031-4.28,3.702c-1.427,0.713-3.299,1.07-5.796,1.07c-2.853,0-5.171-0.806-6.776-2.589
						c-1.694-1.605-2.586-4.009-2.586-7.041c0-3.26,1.159-5.571,3.389-7.183c2.14-1.512,5.707-2.447,10.165-2.54l5.261-0.128v-1.298
						c0-3.117-1.694-4.637-4.815-4.637c-2.407,0-5.261,0.713-8.56,2.233l-2.764-5.571c3.477-1.876,7.4-2.811,11.591-2.811
						c4.102,0,7.222,0.935,9.362,2.675c2.229,1.733,3.299,4.543,3.299,8.11v20.287H8.78V-474.688z M6.373-488.827l-3.21,0.093
						c-2.497,0.136-4.191,0.442-5.35,1.291c-1.159,0.799-1.783,1.962-1.783,3.567c0,2.318,1.427,3.481,4.102,3.481
						c1.961,0,3.478-0.585,4.637-1.612c1.159-1.02,1.694-2.54,1.694-4.408C6.373-486.287,6.373-488.827,6.373-488.827z
						 M51.223-474.688H43.02v-17.748c0-2.183-0.357-3.837-1.159-4.993c-0.803-1.156-1.962-1.605-3.745-1.605
						c-2.318,0-3.923,0.806-4.993,2.318c-0.98,1.469-1.516,4.145-1.516,7.625v14.266h-8.203v-30.366h6.42l1.159,3.923h0.446
						c0.892-1.469,2.14-2.539,3.834-3.338c1.605-0.713,3.478-1.163,5.528-1.163c3.477,0,6.241,0.935,8.024,2.903
						c1.873,1.826,2.764,4.637,2.764,8.246L51.223-474.688L51.223-474.688z M72.533-480.845c1.427,0,3.299-0.356,5.261-0.934v6.148
						c-2.14,0.942-4.636,1.384-7.668,1.384c-3.388,0-5.707-0.799-7.222-2.539c-1.516-1.741-2.318-4.194-2.318-7.533v-14.623h-3.923
						v-3.481l4.547-2.768l2.407-6.37h5.35v6.505h8.471v6.242h-8.471v14.623c0,1.163,0.357,2.054,1.07,2.539
						C70.571-481.066,71.374-480.845,72.533-480.845z M103.116-474.688l-1.605-4.194h-0.178c-1.427,1.74-2.853,3.031-4.28,3.702
						c-1.516,0.713-3.388,1.07-5.796,1.07c-2.942,0-5.261-0.806-6.866-2.589c-1.604-1.605-2.585-4.009-2.585-7.041
						c0-3.26,1.159-5.571,3.388-7.183c2.229-1.512,5.707-2.447,10.165-2.54l5.261-0.128v-1.298c0-3.117-1.605-4.637-4.726-4.637
						c-2.497,0-5.35,0.713-8.649,2.233l-2.764-5.571c3.478-1.876,7.401-2.811,11.591-2.811c4.102,0,7.223,0.935,9.362,2.675
						c2.229,1.733,3.299,4.543,3.299,8.11v20.287h-5.618V-474.688z M100.709-488.827l-3.21,0.093
						c-2.497,0.136-4.191,0.442-5.35,1.291c-1.159,0.799-1.783,1.962-1.783,3.567c0,2.318,1.427,3.481,4.102,3.481
						c1.962,0,3.478-0.585,4.637-1.612c1.159-1.02,1.694-2.54,1.694-4.408v-2.411H100.709z M145.47-474.688h-8.203v-17.748
						c0-2.183-0.357-3.837-1.159-4.993c-0.803-1.156-2.051-1.605-3.745-1.605c-2.318,0-3.923,0.806-4.993,2.318
						c-1.07,1.469-1.516,4.145-1.516,7.625v14.266h-8.203v-30.366h6.331l1.159,3.923h0.535c0.892-1.469,2.14-2.539,3.745-3.338
						c1.694-0.806,3.566-1.163,5.617-1.163c3.478,0,6.242,0.935,8.025,2.903c1.783,1.826,2.764,4.637,2.764,8.246L145.47-474.688
						L145.47-474.688z M163.659-474.247c-3.566,0-6.42-1.384-8.471-4.144c-2.051-2.811-3.032-6.641-3.032-11.506
						c0-4.993,1.07-8.824,3.121-11.591c2.14-2.761,4.993-4.188,8.649-4.188c3.834,0,6.687,1.512,8.649,4.408h0.268
						c-0.535-2.311-0.625-4.28-0.625-6.013v-9.722h8.382v42.314h-6.42l-1.605-3.973h-0.357
						C170.347-475.759,167.493-474.247,163.659-474.247z M166.512-480.845c2.14,0,3.745-0.578,4.637-1.876
						c1.07-1.241,1.516-3.338,1.694-6.234v-0.941c0-3.253-0.535-5.571-1.516-6.955c-1.07-1.376-2.675-2.09-4.904-2.09
						c-1.873,0-3.21,0.842-4.28,2.311c-1.07,1.52-1.516,3.838-1.516,6.869c0,2.989,0.446,5.214,1.516,6.734
						C163.213-481.558,164.551-480.845,166.512-480.845z M201.821-499.748c-1.783,0-3.209,0.578-4.19,1.648
						c-1.07,1.027-1.605,2.632-1.783,4.729h11.591c0-2.097-0.535-3.566-1.605-4.729
						C204.764-499.255,203.516-499.748,201.821-499.748z M202.98-474.247c-4.904,0-8.738-1.384-11.502-4.059
						s-4.191-6.505-4.191-11.456c0-5.128,1.337-9.052,3.834-11.812c2.586-2.811,6.063-4.194,10.521-4.194
						c4.28,0,7.668,1.249,9.987,3.702c2.407,2.454,3.566,5.792,3.566,10.072v4.059h-19.527c0.089,2.318,0.803,4.194,2.051,5.571
						c1.249,1.384,3.121,1.969,5.439,1.969c1.872,0,3.656-0.229,5.261-0.585c1.604-0.357,3.299-1.027,5.082-1.826v6.377
						c-1.426,0.67-3.031,1.249-4.636,1.605S205.388-474.247,202.98-474.247z M239.092-505.675c1.159,0,2.14,0.128,2.764,0.264
						l-0.535,7.761c-0.713-0.221-1.516-0.221-2.407-0.221c-2.675,0-4.815,0.664-6.152,2.09c-1.516,1.384-2.229,3.21-2.229,5.664
						v15.429h-8.203v-30.366h6.241l1.249,5.086h0.446c0.981-1.74,2.229-3.124,3.834-4.194
						C235.704-505.19,237.131-505.675,239.092-505.675z M281.089-474.688l-1.605-4.194h-0.268c-1.427,1.74-2.764,3.031-4.28,3.702
						c-1.516,0.713-3.388,1.07-5.796,1.07c-2.942,0-5.261-0.806-6.866-2.589c-1.605-1.605-2.497-4.009-2.497-7.041
						c0-3.26,1.159-5.571,3.299-7.183c2.229-1.512,5.707-2.447,10.254-2.54l5.171-0.128v-1.298c0-3.117-1.605-4.637-4.726-4.637
						c-2.407,0-5.35,0.713-8.56,2.233l-2.764-5.571c3.388-1.876,7.4-2.811,11.591-2.811c4.012,0,7.133,0.935,9.362,2.675
						c2.229,1.733,3.21,4.543,3.21,8.11v20.287h-5.528V-474.688z M278.682-488.827l-3.299,0.093
						c-2.408,0.136-4.191,0.442-5.35,1.291c-1.159,0.799-1.694,1.962-1.694,3.567c0,2.318,1.337,3.481,4.012,3.481
						c1.962,0,3.478-0.585,4.637-1.612c1.159-1.156,1.783-2.54,1.783-4.408v-2.411H278.682z M-32.771-399.391h-8.292v-42.264h8.292
						V-399.391z M-4.862-399.391l-1.605-4.151h-0.268c-1.337,1.74-2.764,3.039-4.28,3.702c-1.516,0.713-3.388,1.07-5.796,1.07
						c-2.853,0-5.171-0.849-6.866-2.582c-1.605-1.605-2.497-4.059-2.497-7.048c0-3.252,1.159-5.571,3.299-7.176
						c2.229-1.52,5.707-2.454,10.254-2.589l5.171-0.085v-1.291c0-3.125-1.605-4.637-4.726-4.637c-2.408,0-5.35,0.713-8.56,2.226
						l-2.764-5.571c3.477-1.869,7.4-2.81,11.591-2.81c4.012,0,7.133,0.941,9.362,2.675c2.229,1.74,3.21,4.551,3.21,8.118v20.279
						h-5.528V-399.391z M-7.27-413.529l-3.299,0.135c-2.408,0.136-4.191,0.45-5.35,1.292c-1.159,0.806-1.694,1.969-1.694,3.566
						c0,2.325,1.337,3.481,4.012,3.481c1.962,0,3.478-0.578,4.637-1.605c1.159-1.163,1.783-2.54,1.783-4.416v-2.454H-7.27z
						 M24.562-399.391v-39.725h8.471v39.725H24.562z M70.393-399.391h-8.292v-17.705c0-2.226-0.356-3.83-1.159-4.993
						c-0.802-1.155-1.961-1.598-3.656-1.598c-2.318,0-4.012,0.799-4.993,2.311c-1.07,1.477-1.516,4.151-1.516,7.625v14.266h-8.203
						v-30.358h6.331l1.159,3.923h0.446c0.981-1.519,2.229-2.539,3.834-3.345c1.605-0.799,3.478-1.156,5.528-1.156
						c3.566,0,6.331,0.935,8.025,2.896c1.873,1.826,2.764,4.637,2.764,8.203C70.393-419.186,70.393-399.391,70.393-399.391z
						 M106.95-399.391h-8.203v-17.705c0-2.226-0.356-3.83-1.159-4.993c-0.803-1.155-1.962-1.598-3.745-1.598
						c-2.318,0-3.923,0.799-4.904,2.311c-1.07,1.477-1.516,4.151-1.516,7.625v14.266h-8.292v-30.358h6.42l1.159,3.923h0.446
						c0.892-1.519,2.229-2.539,3.834-3.345c1.604-0.799,3.477-1.156,5.528-1.156c3.478,0,6.331,0.935,8.025,2.896
						c1.873,1.826,2.764,4.637,2.764,8.203L106.95-399.391L106.95-399.391z M122.019-414.685c0,3.032,0.446,5.35,1.516,6.862
						c1.07,1.519,2.585,2.325,4.904,2.325c2.229,0,3.834-0.806,4.726-2.325c0.892-1.512,1.516-3.831,1.516-6.862
						c0-2.989-0.446-5.214-1.516-6.691c-0.892-1.512-2.497-2.226-4.726-2.226s-3.834,0.713-4.726,2.226
						C122.732-419.899,122.019-417.673,122.019-414.685z M143.151-414.685c0,4.993-1.249,8.831-3.923,11.591
						c-2.675,2.811-6.242,4.188-10.878,4.188c-2.942,0-5.528-0.713-7.847-1.955c-2.14-1.298-3.923-3.125-5.083-5.443
						c-1.159-2.318-1.694-5.214-1.694-8.381c0-4.95,1.248-8.781,3.923-11.591c2.497-2.761,6.241-4.145,10.878-4.145
						c2.942,0,5.439,0.578,7.757,1.826c2.229,1.291,3.923,3.167,5.083,5.485C142.438-420.569,143.151-417.809,143.151-414.685z
						 M155.991-399.391l-11.591-30.358h8.738l5.885,17.291c0.713,2.19,1.07,4.28,1.249,6.249h0.178
						c0.089-1.74,0.446-3.837,1.248-6.249l5.796-17.291h8.649l-11.591,30.358H155.991z M199.682-399.391l-1.605-4.151h-0.089
						c-1.426,1.74-2.764,3.039-4.28,3.702c-1.516,0.713-3.388,1.07-5.795,1.07c-2.943,0-5.261-0.849-6.866-2.582
						c-1.605-1.741-2.586-4.059-2.586-7.048c0-3.252,1.159-5.571,3.388-7.176c2.229-1.648,5.707-2.454,10.165-2.589l5.26-0.085
						v-1.291c0-3.125-1.605-4.637-4.726-4.637c-2.497,0-5.35,0.713-8.649,2.226l-2.764-5.571c3.478-1.869,7.49-2.81,11.591-2.81
						s7.223,0.941,9.452,2.675c2.14,1.74,3.21,4.551,3.21,8.118v20.279h-5.707V-399.391z M197.274-413.529l-3.209,0.135
						c-2.497,0.136-4.191,0.45-5.35,1.292c-1.159,0.806-1.783,1.969-1.783,3.566c0,2.325,1.427,3.481,4.102,3.481
						c1.961,0,3.478-0.578,4.636-1.605c1.159-1.163,1.694-2.54,1.694-4.416v-2.454H197.274z M226.342-398.906
						c-9.452,0-14.088-5.214-14.088-15.508c0-5.221,1.248-9.188,3.834-11.862c2.497-2.761,6.242-4.059,10.967-4.059
						c3.478,0,6.687,0.713,9.541,2.097l-2.497,6.377c-1.249-0.585-2.497-0.942-3.566-1.249c-1.07-0.356-2.229-0.492-3.389-0.492
						c-4.28,0-6.419,3.032-6.419,9.188c0,5.878,2.14,8.917,6.419,8.917c1.605,0,3.032-0.228,4.458-0.713
						c1.337-0.449,2.675-1.027,4.012-1.969v7.09c-1.337,0.806-2.675,1.384-4.012,1.698
						C230.176-399.034,228.482-398.906,226.342-398.906z M242.392-437.596c0-2.682,1.516-4.059,4.458-4.059
						c3.032,0,4.547,1.376,4.547,4.059c0,1.241-0.356,2.311-1.159,2.981c-0.713,0.713-1.873,1.07-3.388,1.07
						C243.907-433.544,242.392-434.971,242.392-437.596z M250.951-399.391h-8.292v-30.358h8.292V-399.391z M266.198-414.685
						c0,3.032,0.535,5.35,1.516,6.862c1.07,1.519,2.586,2.325,4.904,2.325c2.229,0,3.834-0.806,4.726-2.325
						c0.981-1.512,1.516-3.831,1.516-6.862c0-2.989-0.446-5.214-1.516-6.691c-0.98-1.512-2.497-2.226-4.726-2.226
						s-3.834,0.713-4.726,2.226C266.912-419.899,266.198-417.673,266.198-414.685z M287.241-414.685
						c0,4.993-1.337,8.831-3.923,11.591c-2.675,2.811-6.331,4.188-10.967,4.188c-2.853,0-5.439-0.713-7.757-1.955
						c-2.318-1.298-3.923-3.125-5.083-5.443c-1.159-2.318-1.694-5.214-1.694-8.381c0-4.95,1.249-8.781,3.923-11.591
						c2.675-2.761,6.241-4.145,10.878-4.145c2.854,0,5.439,0.578,7.757,1.826c2.318,1.291,3.923,3.167,5.083,5.485
						S287.241-417.809,287.241-414.685z M267.981-433.095v-0.713c3.121-3.566,5.172-6.377,6.331-8.203h9.273v0.578
						c-0.892,0.935-2.497,2.318-4.815,4.145c-2.318,1.876-4.102,3.26-5.35,4.194H267.981L267.981-433.095z M322.104-399.391h-8.203
						v-17.705c0-2.226-0.356-3.83-1.159-4.993c-0.803-1.155-1.962-1.598-3.745-1.598c-2.318,0-3.923,0.799-4.993,2.311
						c-1.069,1.477-1.516,4.151-1.516,7.625v14.266h-8.203v-30.358h6.331l1.248,3.923h0.445c0.892-1.519,2.141-2.539,3.835-3.345
						c1.604-0.713,3.477-1.156,5.527-1.156c3.478,0,6.242,0.935,8.025,2.896c1.694,1.962,2.764,4.637,2.764,8.203L322.104-399.391
						L322.104-399.391z M-17.612-324.05h-22.826v-39.718h22.826v6.948h-14.534v8.695h13.464v6.955h-13.464v10.165h14.534V-324.05z
						 M17.251-324.05H9.048v-17.698c0-2.232-0.357-3.831-1.07-4.993c-0.713-1.163-1.872-1.647-3.477-1.647
						c-2.051,0-3.656,0.841-4.637,2.318c-0.892,1.512-1.337,4.188-1.337,7.668v14.266h-8.292v-30.358h6.42l1.159,3.923h0.446
						c0.803-1.384,1.962-2.454,3.478-3.26c1.516-0.799,3.388-1.155,5.35-1.155c4.458,0,7.668,1.512,9.273,4.415h0.713
						c0.802-1.384,1.961-2.546,3.566-3.26c1.605-0.663,3.388-1.155,5.35-1.155c3.477,0,5.974,0.934,7.757,2.675
						c1.694,1.74,2.675,4.636,2.675,8.467v19.795H28.04v-17.698c0-2.232-0.357-3.831-1.07-4.993
						c-0.624-1.163-1.783-1.647-3.478-1.647c-2.051,0-3.566,0.713-4.458,2.226c-0.981,1.519-1.516,3.702-1.516,6.955L17.251-324.05
						L17.251-324.05z M61.387-323.558c-3.566,0-6.331-1.292-8.292-3.966h-0.446c0.178,2.582,0.446,4.102,0.446,4.416v12.297h-8.203
						v-43.683h6.687l1.159,3.923h0.357c1.961-2.989,4.726-4.508,8.56-4.508c3.567,0,6.42,1.384,8.471,4.151
						c2.051,2.803,3.032,6.641,3.032,11.584c0,3.26-0.446,6.021-1.427,8.475c-0.892,2.454-2.318,4.194-4.013,5.435
						C65.935-324.136,63.706-323.558,61.387-323.558z M58.891-348.389c-2.14,0-3.566,0.621-4.547,1.869
						c-0.892,1.298-1.337,3.388-1.516,6.242v0.934c0,3.26,0.446,5.578,1.516,6.962c0.981,1.376,2.586,2.09,4.637,2.09
						c3.745,0,5.617-3.032,5.617-9.138c0-3.032-0.535-5.214-1.426-6.733C62.279-347.676,60.853-348.389,58.891-348.389z
						 M96.875-354.987c1.159,0,2.14,0.135,2.764,0.264l-0.535,7.761c-0.713-0.271-1.516-0.271-2.408-0.271
						c-2.675,0-4.814,0.713-6.152,2.097c-1.426,1.384-2.229,3.253-2.229,5.707v15.379h-8.203v-30.359h6.242l1.248,5.129h0.446
						c0.981-1.741,2.229-3.125,3.834-4.194C93.576-354.495,94.913-354.987,96.875-354.987z M116.58-349.06
						c-1.694,0-3.121,0.578-4.19,1.605c-0.981,1.07-1.605,2.675-1.694,4.772h11.591c0-2.097-0.624-3.609-1.605-4.772
						C119.612-348.617,118.363-349.06,116.58-349.06z M117.739-323.558c-4.815,0-8.649-1.384-11.502-4.059
						c-2.764-2.675-4.102-6.505-4.102-11.499c0-5.086,1.248-9.009,3.834-11.812c2.497-2.768,5.974-4.151,10.521-4.151
						c4.28,0,7.668,1.248,9.986,3.702c2.407,2.454,3.566,5.799,3.566,10.079v4.051h-19.616c0.179,2.318,0.803,4.194,2.14,5.578
						c1.248,1.377,3.121,1.955,5.439,1.955c1.873,0,3.566-0.221,5.171-0.578c1.605-0.357,3.388-1.02,5.172-1.869v6.42
						c-1.427,0.664-3.032,1.249-4.637,1.605C122.019-323.779,120.147-323.558,117.739-323.558z M158.131-333.053
						c0,3.117-1.07,5.436-3.299,7.041c-2.229,1.648-5.439,2.454-9.719,2.454c-2.229,0-4.102-0.136-5.707-0.492
						c-1.605-0.314-3.031-0.671-4.369-1.249v-6.862c1.516,0.713,3.21,1.292,5.172,1.869c2.051,0.578,3.656,0.713,5.171,0.713
						c2.942,0,4.458-0.935,4.458-2.583c0-0.67-0.178-1.163-0.535-1.605c-0.357-0.449-1.07-0.941-2.14-1.384
						c-0.892-0.492-2.318-1.155-3.923-1.869c-2.318-0.941-4.012-1.833-5.082-2.632c-1.07-0.849-1.873-1.783-2.408-2.946
						c-0.446-1.027-0.713-2.404-0.713-3.923c0-2.675,1.07-4.722,3.121-6.242c2.051-1.512,5.082-2.225,8.917-2.225
						c3.745,0,7.222,0.799,10.7,2.446l-2.586,6.021c-1.516-0.713-2.854-1.156-4.28-1.605c-1.427-0.492-2.675-0.578-4.013-0.578
						c-2.497,0-3.745,0.67-3.745,1.961c0,0.67,0.356,1.384,1.159,1.962c0.802,0.578,2.585,1.384,5.171,2.454
						c2.318,0.892,4.102,1.826,5.261,2.675c1.159,0.799,1.961,1.691,2.407,2.854C157.863-335.863,158.131-334.572,158.131-333.053z
						 M183.811-324.05l-1.605-4.145h-0.267c-1.337,1.74-2.764,2.989-4.28,3.702c-1.516,0.713-3.299,1.07-5.795,1.07
						c-2.854,0-5.171-0.849-6.776-2.589c-1.694-1.605-2.586-4.059-2.586-7.041c0-3.252,1.159-5.578,3.388-7.226
						c2.14-1.47,5.617-2.404,10.165-2.54l5.261-0.093v-1.291c0-3.117-1.694-4.637-4.814-4.637c-2.408,0-5.35,0.713-8.56,2.233
						l-2.764-5.578c3.478-1.869,7.401-2.803,11.591-2.803c4.013,0,7.133,0.934,9.362,2.675c2.229,1.74,3.299,4.544,3.299,8.11
						v20.287h-5.617V-324.05z M181.403-338.181l-3.299,0.135c-2.407,0.086-4.102,0.442-5.26,1.249
						c-1.159,0.849-1.784,2.004-1.784,3.609c0,2.318,1.427,3.474,4.102,3.474c1.962,0,3.478-0.578,4.637-1.598
						c1.159-1.163,1.694-2.546,1.694-4.416v-2.454H181.403z M215.107-354.987c1.159,0,2.14,0.135,2.764,0.264l-0.535,7.761
						c-0.713-0.271-1.516-0.271-2.407-0.271c-2.675,0-4.815,0.713-6.152,2.097c-1.516,1.384-2.229,3.253-2.229,5.707v15.379h-8.203
						v-30.359h6.241l1.249,5.129h0.446c0.981-1.741,2.229-3.125,3.834-4.194C211.719-354.495,213.234-354.987,215.107-354.987z
						 M223.132-362.298c0-2.632,1.516-4.016,4.547-4.016c2.942,0,4.458,1.384,4.458,4.016c0,1.291-0.357,2.318-1.159,3.031
						c-0.713,0.713-1.873,1.07-3.299,1.07C224.647-358.197,223.132-359.624,223.132-362.298z M231.691-324.05h-8.203v-30.359h8.203
						V-324.05z M259.778-324.05l-1.694-4.145h-0.178c-1.427,1.74-2.764,2.989-4.28,3.702c-1.516,0.713-3.388,1.07-5.795,1.07
						c-2.942,0-5.261-0.849-6.866-2.589c-1.605-1.733-2.586-4.059-2.586-7.041c0-3.252,1.159-5.578,3.388-7.226
						c2.229-1.605,5.707-2.404,10.165-2.54l5.261-0.093v-1.291c0-3.117-1.605-4.637-4.726-4.637c-2.497,0-5.35,0.713-8.56,2.233
						l-2.854-5.578c3.478-1.869,7.49-2.803,11.592-2.803s7.222,0.934,9.451,2.675c2.14,1.74,3.21,4.544,3.21,8.11v20.287h-5.528
						V-324.05z M257.282-338.181l-3.21,0.135c-2.407,0.086-4.19,0.442-5.35,1.249c-1.159,0.849-1.694,2.004-1.694,3.609
						c0,2.318,1.337,3.474,4.013,3.474c1.961,0,3.477-0.578,4.636-1.598c1.159-1.163,1.783-2.546,1.783-4.416v-2.454H257.282z
						 M282.337-324.05h-8.203v-42.264h8.203V-324.05z"/>
				</g>
				<path id="_x32_018" d="M86.617-165.274H58.797v-5.792l9.897-10.079c2.942-3.032,4.904-5.079,5.795-6.242
					c0.981-1.155,1.516-2.226,1.962-3.252c0.535-1.027,0.624-2.097,0.624-3.117c0-1.655-0.446-2.811-1.249-3.617
					c-0.802-0.799-2.14-1.155-3.477-1.155c-1.516,0-3.032,0.356-4.548,1.07c-1.516,0.663-3.031,1.733-4.547,2.989l-4.458-5.443
					c1.961-1.604,3.566-2.896,4.815-3.474c1.248-0.585,2.675-1.298,4.19-1.655c1.516-0.314,3.21-0.535,5.083-0.535
					c2.497,0,4.637,0.449,6.598,1.384c1.962,0.935,3.388,2.183,4.458,3.788c0.98,1.655,1.605,3.524,1.605,5.578
					c0,1.869-0.357,3.61-0.892,5.122c-0.625,1.519-1.694,3.252-3.032,4.993c-1.427,1.698-3.745,4.059-7.222,7.176l-5.083,4.729
					v0.356h17.298V-165.274L86.617-165.274z M118.092-185.197c0,6.948-1.159,12.077-3.299,15.422
					c-2.229,3.346-5.885,4.993-10.61,4.993c-4.637,0-7.936-1.74-10.254-5.214c-2.318-3.481-3.566-8.609-3.566-15.201
					c0-6.962,1.248-12.176,3.388-15.521c2.229-3.381,5.795-4.993,10.432-4.993s8.025,1.74,10.432,5.221
					C116.933-196.881,118.092-191.931,118.092-185.197z M98.654-185.197c0,4.858,0.446,8.332,1.249,10.429
					c0.802,2.097,2.229,3.125,4.28,3.125c1.961,0,3.388-1.027,4.28-3.21c0.981-2.233,1.337-5.578,1.337-10.436
					c0-4.9-0.535-8.381-1.337-10.564c-0.892-2.097-2.318-3.253-4.19-3.253c-1.962,0-3.299,1.07-4.28,3.253
					C99.1-193.671,98.654-190.062,98.654-185.197z M143.058-165.274h-8.381v-22.912l0.089-3.837l0.178-4.188
					c-1.427,1.384-2.318,2.318-2.942,2.761l-4.547,3.745l-4.013-5.122l12.751-10.214h6.955L143.058-165.274L143.058-165.274z
					 M167.756-205.577c3.745,0,6.776,0.806,9.095,2.546c2.318,1.733,3.478,4.052,3.478,6.948c0,2.097-0.535,3.838-1.694,5.443
					c-1.159,1.605-2.942,2.989-5.439,4.28c2.942,1.648,5.083,3.253,6.331,4.993c1.248,1.741,1.961,3.609,1.961,5.664
					c0,3.253-1.249,5.928-3.834,7.89c-2.497,1.961-5.885,3.031-10.076,3.031c-4.369,0-7.757-0.934-10.165-2.81
					c-2.407-1.826-3.745-4.501-3.745-7.847c0-2.318,0.624-4.323,1.873-6.063c1.248-1.741,3.121-3.338,5.795-4.637
					c-2.318-1.384-3.923-2.982-4.904-4.637c-0.892-1.605-1.427-3.338-1.427-5.307c0-2.896,1.159-5.122,3.478-6.948
					C160.891-204.685,164.012-205.577,167.756-205.577z M161.604-175.924c0,1.512,0.535,2.803,1.605,3.609
					c1.07,0.799,2.497,1.248,4.369,1.248c2.14,0,3.566-0.449,4.637-1.384c1.07-0.935,1.516-2.097,1.516-3.609
					c0-1.163-0.446-2.318-1.516-3.345c-1.07-1.027-2.675-2.183-4.993-3.346C163.387-180.789,161.604-178.606,161.604-175.924z
					 M167.756-199.463c-1.427,0-2.585,0.356-3.478,1.07c-0.98,0.664-1.337,1.733-1.337,2.896c0,1.027,0.357,2.047,1.07,2.896
					c0.713,0.799,1.961,1.741,3.834,2.632c1.694-0.806,3.031-1.698,3.656-2.546c0.713-0.799,1.07-1.826,1.07-2.982
					c0-1.298-0.446-2.232-1.427-3.031C170.253-199.335,169.094-199.463,167.756-199.463z"/>
				<path id="Derechos-Reservados" fill="#FFFFFF" d="M70.478,7.883c0,2.454-0.713,4.323-1.962,5.707
					c-1.426,1.249-3.299,1.961-5.795,1.961H58.53V0.708h4.547c2.318,0,4.102,0.713,5.439,2.004
					C69.765,3.96,70.478,5.565,70.478,7.883z M68.605,8.019c0-1.962-0.446-3.346-1.516-4.416c-0.892-0.892-2.408-1.512-4.28-1.512
					h-2.497v11.948h2.051c2.051,0,3.567-0.449,4.637-1.519C68.16,11.493,68.605,9.98,68.605,8.019z M78.235,15.687
					c-1.605,0-2.854-0.492-3.923-1.512c-0.981-1.027-1.427-2.454-1.427-4.194c0-1.826,0.446-3.252,1.249-4.28
					c0.98-1.027,2.14-1.605,3.656-1.605c1.337,0,2.497,0.449,3.299,1.384c0.892,0.935,1.337,2.09,1.337,3.566v1.07h-7.668
					c0,1.248,0.356,2.318,1.07,3.031c0.535,0.671,1.516,1.027,2.675,1.027c1.159,0,2.407-0.228,3.566-0.806v1.47
					c-0.624,0.271-1.159,0.492-1.783,0.627C79.662,15.687,79.038,15.687,78.235,15.687z M77.79,5.565
					c-0.981,0-1.605,0.357-2.229,0.935c-0.535,0.585-0.802,1.384-0.892,2.454h5.796c0-1.07-0.268-1.869-0.713-2.454
					C79.395,5.836,78.681,5.565,77.79,5.565z M90.362,4.188c0.535,0,0.98,0,1.426,0.128L91.61,5.922
					c-0.535-0.086-0.981-0.086-1.337-0.086c-0.892,0-1.605,0.357-2.318,1.02c-0.713,0.713-0.892,1.655-0.892,2.811v6.021h-1.783
					V4.317h1.427l0.267,2.097h0.089c0.446-0.713,0.892-1.291,1.516-1.648C89.024,4.317,89.737,4.188,90.362,4.188z M98.03,15.687
					c-1.605,0-2.854-0.492-3.923-1.512c-0.892-1.027-1.427-2.454-1.427-4.194c0-1.826,0.535-3.252,1.338-4.28
					c0.892-1.027,2.051-1.605,3.566-1.605c1.427,0,2.586,0.449,3.388,1.384s1.249,2.09,1.249,3.566v1.07h-7.668
					c0,1.248,0.357,2.318,1.07,3.031c0.625,0.671,1.516,1.027,2.675,1.027s2.407-0.228,3.566-0.806v1.47
					c-0.535,0.271-1.159,0.492-1.694,0.627C99.457,15.687,98.832,15.687,98.03,15.687z M97.584,5.565
					c-0.892,0-1.605,0.357-2.229,0.935c-0.535,0.585-0.803,1.384-0.892,2.454h5.795c0-1.07-0.268-1.869-0.713-2.454
					C99.189,5.836,98.565,5.565,97.584,5.565z M109.532,15.687c-1.605,0-2.943-0.492-3.745-1.512
					c-0.892-1.027-1.249-2.454-1.249-4.194c0-1.826,0.446-3.345,1.427-4.28c0.892-1.027,2.14-1.512,3.834-1.512
					c0.535,0,0.981,0.128,1.605,0.128c0.535,0,0.892,0.228,1.249,0.449l-0.446,1.427c-0.357-0.136-0.803-0.271-1.249-0.357
					c-0.535-0.135-0.802-0.135-1.159-0.135c-2.318,0-3.388,1.384-3.388,4.28c0,1.384,0.178,2.454,0.803,3.167
					c0.624,0.671,1.426,1.027,2.407,1.027s1.873-0.228,2.942-0.585v1.52C111.583,15.551,110.691,15.687,109.532,15.687z
					 M122.639,15.551V8.375c0-0.935-0.268-1.647-0.624-2.097c-0.357-0.442-0.981-0.713-1.962-0.713
					c-1.159,0-2.051,0.357-2.497,0.935c-0.624,0.713-0.802,1.741-0.802,3.167v5.799h-1.783V-0.32h1.783V4.41
					c0,0.621,0,1.07-0.178,1.426h0.178c0.356-0.578,0.802-0.934,1.337-1.291c0.624-0.356,1.337-0.449,2.14-0.449
					c1.338,0,2.408,0.314,2.943,0.935c0.713,0.67,1.07,1.605,1.07,3.124v7.312h-1.605V15.551z M137.44,9.895
					c0,1.826-0.446,3.252-1.337,4.28c-0.981,1.02-2.229,1.512-3.834,1.512c-1.07,0-1.873-0.221-2.675-0.713
					c-0.802-0.442-1.426-1.155-1.783-1.961c-0.356-0.806-0.535-1.876-0.535-3.117c0-1.876,0.446-3.26,1.426-4.33
					c0.892-1.02,2.14-1.469,3.745-1.469c1.516,0,2.854,0.449,3.745,1.469C136.995,6.728,137.44,8.154,137.44,9.895z M128.881,9.895
					c0,1.376,0.267,2.539,0.802,3.252c0.624,0.671,1.427,1.156,2.586,1.156s1.961-0.356,2.497-1.156
					c0.624-0.713,0.802-1.876,0.802-3.252c0-1.384-0.178-2.547-0.802-3.26c-0.535-0.713-1.337-1.156-2.497-1.156
					s-1.962,0.356-2.586,1.02C129.237,7.441,128.881,8.511,128.881,9.895z M147.694,12.434c0,1.027-0.356,1.869-1.159,2.404
					c-0.802,0.627-1.873,0.849-3.299,0.849c-1.516,0-2.675-0.221-3.478-0.713v-1.605c0.624,0.221,1.159,0.45,1.783,0.67
					c0.535,0.136,1.159,0.264,1.694,0.264c0.98,0,1.516-0.128,2.14-0.485C145.822,13.59,146,13.147,146,12.52
					c0-0.442-0.179-0.799-0.535-1.156c-0.357-0.314-1.159-0.67-2.229-1.027c-0.981-0.357-1.694-0.671-2.14-1.027
					c-0.535-0.264-0.802-0.578-0.981-0.935c-0.178-0.356-0.356-0.806-0.356-1.291c0-0.892,0.356-1.605,1.159-2.183
					c0.713-0.585,1.783-0.806,3.031-0.806c1.159,0,2.408,0.221,3.478,0.67l-0.535,1.427c-1.159-0.492-2.14-0.713-3.032-0.713
					c-0.803,0-1.427,0.085-1.873,0.356c-0.446,0.221-0.624,0.578-0.624,1.02c0,0.357,0.178,0.585,0.268,0.806
					c0.089,0.221,0.356,0.492,0.713,0.578c0.356,0.271,1.07,0.492,1.961,0.806c1.249,0.492,2.229,0.935,2.675,1.512
					C147.427,11.136,147.694,11.721,147.694,12.434z M157.77,9.31v6.156h-1.783V0.622h4.102c1.783,0,3.121,0.307,4.012,1.02
					c0.981,0.713,1.337,1.741,1.337,3.125c0,1.962-1.07,3.253-3.031,3.966l4.012,6.733h-2.051l-3.566-6.156H157.77L157.77,9.31z
					 M157.77,7.798h2.318c1.248,0,2.051-0.229,2.675-0.713c0.535-0.449,0.802-1.163,0.802-2.183c0-0.942-0.267-1.741-0.98-2.097
					c-0.535-0.45-1.427-0.713-2.764-0.713h-2.229L157.77,7.798L157.77,7.798z M173.374,15.687c-1.605,0-2.854-0.492-3.923-1.512
					c-0.892-1.027-1.427-2.454-1.427-4.194c0-1.826,0.535-3.252,1.337-4.28c0.892-1.027,2.051-1.605,3.566-1.605
					c1.427,0,2.586,0.449,3.389,1.384c0.802,0.935,1.248,2.09,1.248,3.566v1.07h-7.668c0,1.248,0.356,2.318,1.07,3.031
					c0.535,0.671,1.516,1.027,2.675,1.027s2.408-0.228,3.567-0.806v1.47c-0.535,0.271-1.159,0.492-1.694,0.627
					C174.8,15.687,174.176,15.687,173.374,15.687z M172.928,5.565c-0.892,0-1.604,0.357-2.051,0.935
					c-0.624,0.585-0.802,1.384-0.98,2.454h5.795c0-1.07-0.178-1.869-0.713-2.454C174.533,5.836,173.82,5.565,172.928,5.565z
					 M187.551,12.434c0,1.027-0.356,1.869-1.159,2.404c-0.802,0.627-1.872,0.849-3.299,0.849s-2.586-0.221-3.478-0.713v-1.605
					c0.624,0.221,1.159,0.45,1.783,0.67c0.535,0.136,1.159,0.264,1.694,0.264c0.981,0,1.516-0.128,2.14-0.485
					c0.446-0.229,0.713-0.671,0.713-1.298c0-0.442-0.267-0.799-0.624-1.156c-0.356-0.314-1.159-0.67-2.229-1.027
					c-0.981-0.357-1.694-0.671-2.14-1.027c-0.446-0.264-0.802-0.578-0.98-0.935c-0.179-0.356-0.357-0.806-0.357-1.291
					c0-0.892,0.357-1.605,1.159-2.183c0.713-0.585,1.783-0.806,3.032-0.806c1.159,0,2.497,0.221,3.477,0.67l-0.535,1.427
					c-1.159-0.492-2.14-0.713-3.032-0.713c-0.802,0-1.427,0.085-1.873,0.356c-0.446,0.221-0.535,0.578-0.535,1.02
					c0,0.357,0.089,0.585,0.178,0.806c0.178,0.221,0.356,0.492,0.713,0.578c0.356,0.271,1.07,0.492,1.961,0.806
					c1.249,0.492,2.229,0.935,2.675,1.512C187.283,11.136,187.551,11.721,187.551,12.434z M195.041,15.687
					c-1.605,0-2.854-0.492-3.923-1.512c-0.892-1.027-1.337-2.454-1.337-4.194c0-1.826,0.446-3.252,1.248-4.28
					c0.892-1.027,2.051-1.605,3.566-1.605c1.427,0,2.586,0.449,3.389,1.384c0.802,0.935,1.248,2.09,1.248,3.566v1.07h-7.668
					c0,1.248,0.356,2.318,1.07,3.031c0.624,0.671,1.516,1.027,2.675,1.027s2.408-0.228,3.567-0.806v1.47
					c-0.535,0.271-1.159,0.492-1.694,0.627C196.467,15.687,195.754,15.687,195.041,15.687z M194.595,5.565
					c-0.892,0-1.604,0.357-2.051,0.935c-0.624,0.585-0.802,1.384-0.98,2.454h5.795c0-1.07-0.178-1.869-0.713-2.454
					C196.111,5.836,195.576,5.565,194.595,5.565z M207.167,4.188c0.446,0,0.892,0,1.337,0.128l-0.267,1.605
					c-0.446-0.086-0.892-0.086-1.249-0.086c-0.892,0-1.605,0.357-2.318,1.02c-0.713,0.713-0.892,1.655-0.892,2.811v6.021h-1.783
					V4.317h1.427l0.178,2.097h0.178c0.446-0.713,0.892-1.291,1.516-1.648C205.83,4.41,206.454,4.188,207.167,4.188z M213.052,15.551
					l-4.28-11.142h1.873l2.407,6.641c0.535,1.47,0.803,2.54,0.892,2.989h0.178c0.089-0.356,0.268-1.163,0.624-2.189
					c0.357-1.156,1.337-3.609,2.675-7.44h1.873l-4.28,11.142H213.052z M227.854,15.551l-0.357-1.604h-0.089
					c-0.625,0.67-1.159,1.163-1.605,1.384c-0.625,0.221-1.338,0.356-2.14,0.356c-1.159,0-1.961-0.221-2.497-0.849
					c-0.624-0.535-0.981-1.377-0.981-2.404c0-2.232,1.873-3.481,5.528-3.609l1.783-0.092V8.019c0-0.935-0.178-1.52-0.535-1.962
					c-0.357-0.492-0.981-0.578-1.873-0.578s-1.962,0.221-3.121,0.799l-0.446-1.248c0.535-0.357,1.159-0.621,1.873-0.713
					c0.624-0.128,1.249-0.221,1.962-0.221c1.248,0,2.318,0.314,2.942,0.935c0.713,0.535,0.98,1.469,0.98,2.853v7.668H227.854z
					 M224.019,14.303c1.07,0,1.873-0.264,2.497-0.842c0.535-0.585,0.892-1.384,0.892-2.411V9.98l-1.605,0.136
					c-1.427,0-2.318,0.221-2.942,0.578c-0.535,0.356-0.892,0.935-0.892,1.74c0,0.578,0.179,1.027,0.535,1.384
					C222.86,14.175,223.395,14.303,224.019,14.303z M240.158,14.039L240.158,14.039c-0.892,1.156-2.051,1.733-3.567,1.733
					c-1.516,0-2.585-0.442-3.388-1.469c-0.802-1.07-1.159-2.454-1.159-4.323c0-1.826,0.446-3.252,1.249-4.28
					c0.802-1.027,1.961-1.512,3.388-1.512c1.516,0,2.675,0.578,3.478,1.647h0.089l-0.089-0.806V4.188V-0.32h1.783v15.871h-1.427
					L240.158,14.039z M236.77,14.303c1.159,0,1.962-0.356,2.586-0.935c0.446-0.578,0.803-1.647,0.803-3.031V9.98
					c0-1.605-0.268-2.632-0.803-3.345c-0.624-0.713-1.427-1.07-2.586-1.07c-0.98,0-1.694,0.357-2.318,1.163
					c-0.535,0.841-0.803,1.869-0.803,3.252s0.268,2.54,0.803,3.253C235.076,13.947,235.878,14.303,236.77,14.303z M254.959,9.895
					c0,1.826-0.446,3.252-1.337,4.28c-0.981,1.02-2.229,1.512-3.834,1.512c-1.07,0-1.872-0.221-2.675-0.713
					c-0.802-0.442-1.427-1.155-1.783-1.961c-0.268-0.806-0.535-1.876-0.535-3.117c0-1.876,0.446-3.26,1.427-4.33
					c0.892-1.02,2.14-1.469,3.745-1.469c1.516,0,2.853,0.449,3.745,1.469C254.514,6.728,254.959,8.154,254.959,9.895z
					 M246.578,9.895c0,1.376,0.178,2.539,0.802,3.252c0.535,0.671,1.337,1.156,2.497,1.156s1.961-0.356,2.586-1.156
					c0.535-0.713,0.802-1.876,0.802-3.252c0-1.384-0.268-2.547-0.802-3.26c-0.625-0.713-1.427-1.156-2.586-1.156
					s-1.961,0.356-2.497,1.02C246.756,7.441,246.578,8.511,246.578,9.895z M265.213,12.434c0,1.027-0.357,1.869-1.159,2.404
					c-0.803,0.627-1.873,0.849-3.299,0.849c-1.516,0-2.585-0.221-3.477-0.713v-1.605c0.624,0.221,1.159,0.45,1.783,0.67
					c0.535,0.136,1.159,0.264,1.694,0.264c0.981,0,1.516-0.128,2.14-0.485c0.446-0.229,0.713-0.671,0.713-1.298
					c0-0.442-0.268-0.799-0.624-1.156c-0.357-0.314-1.159-0.67-2.229-1.027c-0.98-0.357-1.694-0.671-2.14-1.027
					c-0.446-0.264-0.803-0.578-0.981-0.935c-0.178-0.356-0.356-0.806-0.356-1.291c0-0.892,0.356-1.605,1.159-2.183
					c0.713-0.585,1.784-0.806,3.032-0.806c1.159,0,2.408,0.221,3.478,0.67l-0.535,1.427c-1.159-0.492-2.14-0.713-3.031-0.713
					c-0.803,0-1.427,0.085-1.873,0.356c-0.446,0.221-0.535,0.578-0.535,1.02c0,0.357,0.089,0.585,0.178,0.806
					c0.089,0.221,0.357,0.492,0.713,0.578c0.357,0.135,1.07,0.492,1.962,0.806c1.248,0.492,2.229,0.935,2.675,1.512
					C264.946,11.136,265.213,11.721,265.213,12.434z M65.752,33.078c-0.713,0-1.159,0.221-1.516,0.799
					c-0.356,0.578-0.624,1.156-0.624,2.097c0,1.826,0.713,2.896,2.14,2.896c0.357,0,0.803,0,1.249-0.135
					c0.446-0.085,0.802-0.221,1.249-0.442v1.961c-0.803,0.357-1.605,0.578-2.497,0.578c-1.426,0-2.497-0.492-3.299-1.291
					c-0.803-0.806-1.159-1.962-1.159-3.481c0-1.512,0.356-2.675,1.159-3.474c0.713-0.806,1.873-1.248,3.121-1.248
					c1.07,0,2.14,0.221,3.121,0.799l-0.625,1.74C67.09,33.299,66.376,33.078,65.752,33.078z M57.638,35.838
					c0-1.384,0.268-2.675,0.981-3.831c0.713-1.163,1.694-2.097,2.853-2.768c1.07-0.713,2.408-1.027,3.745-1.027
					c1.427,0,2.675,0.314,3.834,1.027c1.159,0.67,2.14,1.605,2.853,2.768c0.625,1.155,0.981,2.447,0.981,3.831
					s-0.356,2.539-0.981,3.831c-0.713,1.163-1.694,2.097-2.853,2.768c-1.159,0.713-2.407,1.07-3.923,1.07
					c-1.337,0-2.675-0.356-3.923-1.07c-1.159-0.67-2.051-1.605-2.764-2.768C57.906,38.513,57.638,37.222,57.638,35.838z
					 M58.976,35.838c0,1.163,0.268,2.183,0.803,3.117c0.624,0.941,1.337,1.74,2.318,2.325c0.981,0.578,1.962,0.799,3.121,0.799
					s2.229-0.221,3.21-0.799c0.892-0.585,1.694-1.255,2.318-2.325c0.535-0.935,0.802-1.955,0.802-3.117
					c0-1.163-0.268-2.183-0.802-3.117c-0.625-0.942-1.338-1.741-2.318-2.326c-0.981-0.578-2.051-0.799-3.21-0.799
					s-2.14,0.221-3.121,0.799c-0.892,0.585-1.694,1.298-2.318,2.326C59.333,33.741,58.976,34.811,58.976,35.838z M90.629,43.371
					H80.197v-2.183l3.745-3.831c1.159-1.163,1.783-1.969,2.14-2.325c0.357-0.485,0.625-0.799,0.713-1.291
					c0.178-0.442,0.268-0.799,0.268-1.156c0-0.578-0.089-1.027-0.446-1.384c-0.357-0.356-0.892-0.449-1.337-0.449
					c-0.535,0-1.159,0.093-1.694,0.313c-0.624,0.271-1.159,0.713-1.783,1.163l-1.694-1.962c0.713-0.585,1.338-1.027,1.873-1.248
					c0.446-0.271,0.981-0.492,1.605-0.578c0.535-0.135,1.159-0.228,1.962-0.228c0.892,0,1.694,0.093,2.407,0.449
					c0.713,0.357,1.337,0.799,1.605,1.377c0.356,0.585,0.624,1.298,0.624,2.097c0,0.713-0.089,1.248-0.356,1.961
					c-0.268,0.578-0.535,1.291-1.159,1.876c-0.446,0.578-1.427,1.47-2.675,2.675l-1.962,1.826v0.136h6.509L90.629,43.371
					L90.629,43.371z M102.488,35.838c0,2.539-0.535,4.501-1.337,5.799c-0.802,1.291-2.14,1.869-3.923,1.869
					c-1.694,0-3.031-0.713-3.923-2.004c-0.892-1.249-1.249-3.21-1.249-5.664c0-2.675,0.446-4.501,1.249-5.799
					c0.802-1.291,2.229-1.826,3.923-1.826c1.784,0,3.032,0.67,3.923,1.961C101.953,31.423,102.488,33.384,102.488,35.838z
					 M95.176,35.838c0,1.876,0.089,3.117,0.446,3.966c0.357,0.806,0.803,1.163,1.605,1.163c0.713,0,1.338-0.356,1.605-1.163
					c0.357-0.849,0.535-2.09,0.535-3.966c0-1.826-0.178-3.117-0.535-3.923c-0.267-0.849-0.802-1.163-1.605-1.163
					c-0.713,0-1.248,0.313-1.605,1.163C95.266,32.721,95.176,34.098,95.176,35.838z M111.761,43.371h-3.121v-8.56v-1.427v-1.469
					c-0.624,0.578-0.98,0.806-1.07,1.027l-1.783,1.376l-1.516-1.826l4.814-3.831h2.497L111.761,43.371L111.761,43.371z
					 M117.378,43.371l5.617-12.169h-7.311v-2.675h10.7v2.004l-5.707,12.84H117.378L117.378,43.371z M143.058,39.184
					c0,1.427-0.535,2.454-1.516,3.167c-0.981,0.799-2.318,1.156-4.102,1.156c-1.605,0-3.032-0.356-4.19-0.935v-2.903
					c1.07,0.449,1.872,0.806,2.585,0.941c0.713,0.221,1.427,0.221,1.873,0.221c0.713,0,1.248-0.136,1.605-0.357
					c0.356-0.221,0.624-0.67,0.624-1.163c0-0.356-0.178-0.578-0.268-0.799c-0.089-0.221-0.356-0.492-0.713-0.713
					c-0.356-0.221-0.892-0.578-1.961-1.027c-0.892-0.442-1.605-0.799-2.051-1.291c-0.535-0.449-0.802-0.806-1.07-1.384
					s-0.446-1.155-0.446-1.869c0-1.249,0.446-2.318,1.337-3.125c0.98-0.799,2.14-1.156,3.745-1.156c0.803,0,1.516,0.136,2.229,0.264
					c0.624,0.228,1.337,0.449,2.14,0.806l-0.981,2.404c-0.802-0.357-1.516-0.578-1.961-0.67c-0.535-0.128-1.07-0.221-1.516-0.221
					c-0.625,0-1.07,0.093-1.427,0.449c-0.356,0.357-0.446,0.713-0.446,1.027c0,0.221,0.089,0.485,0.178,0.713
					c0.178,0.221,0.357,0.442,0.625,0.578c0.267,0.221,0.892,0.578,1.961,1.02c1.427,0.713,2.318,1.384,2.942,2.012
					C142.791,37.357,143.058,38.292,143.058,39.184z M152.777,43.371l-0.624-1.513h-0.089c-0.535,0.713-1.07,1.156-1.605,1.377
					c-0.624,0.271-1.249,0.356-2.229,0.356c-1.07,0-1.962-0.356-2.497-0.934c-0.625-0.578-0.981-1.47-0.981-2.632
					c0-1.156,0.446-2.09,1.249-2.668c0.892-0.585,2.14-0.941,3.834-0.941l1.961-0.085v-0.492c0-1.163-0.535-1.741-1.694-1.741
					c-0.892,0-1.962,0.221-3.21,0.806l-1.07-2.054c1.249-0.713,2.764-1.07,4.369-1.07c1.516,0,2.675,0.357,3.478,1.07
					c0.802,0.67,1.337,1.605,1.337,2.989v7.668h-2.229V43.371z M151.796,38.021h-1.159c-0.892,0-1.605,0.271-1.961,0.492
					c-0.446,0.356-0.624,0.799-0.624,1.384c0,0.935,0.446,1.291,1.516,1.291c0.624,0,1.248-0.221,1.694-0.578
					c0.446-0.492,0.713-0.941,0.713-1.655L151.796,38.021L151.796,38.021z M168.648,43.371h-3.121v-6.599
					c0-0.799-0.089-1.384-0.446-1.869c-0.357-0.449-0.803-0.585-1.427-0.585c-0.892,0-1.516,0.356-1.873,0.941
					c-0.356,0.578-0.535,1.512-0.535,2.896v5.35h-3.121v-11.37h2.318l0.446,1.519h0.089c0.356-0.578,0.802-0.934,1.427-1.291
					c0.535-0.228,1.248-0.449,2.051-0.449c1.248,0,2.318,0.314,3.031,1.027c0.713,0.713,1.07,1.733,1.07,3.117L168.648,43.371
					L168.648,43.371z M176.673,41.053c0.535,0,1.159-0.086,1.961-0.357v2.318c-0.802,0.357-1.783,0.492-2.942,0.492
					c-1.248,0-2.229-0.356-2.675-0.935c-0.535-0.578-0.802-1.605-0.802-2.768v-5.485h-1.516v-1.241l1.783-1.07l0.892-2.411h1.961
					v2.411h3.299v2.311h-3.299v5.485c0,0.449,0.178,0.806,0.356,0.892C175.959,40.967,176.138,41.053,176.673,41.053z
					 M188.086,43.371l-0.535-1.513h-0.089c-0.624,0.713-1.07,1.156-1.694,1.377c-0.535,0.271-1.248,0.356-2.14,0.356
					c-1.07,0-1.962-0.356-2.586-0.934c-0.535-0.578-0.892-1.47-0.892-2.632c0-1.156,0.446-2.09,1.248-2.668
					c0.803-0.585,2.051-0.941,3.834-0.941l1.962-0.085v-0.492c0-1.163-0.624-1.741-1.783-1.741c-0.892,0-1.962,0.221-3.21,0.806
					l-1.07-2.054c1.338-0.713,2.854-1.07,4.458-1.07c1.516,0,2.675,0.357,3.478,1.07c0.802,0.67,1.248,1.605,1.248,2.989v7.668
					h-2.229V43.371z M187.194,38.021h-1.159c-0.981,0-1.605,0.271-1.961,0.492c-0.446,0.356-0.713,0.799-0.713,1.384
					c0,0.935,0.446,1.291,1.516,1.291c0.713,0,1.249-0.221,1.694-0.578c0.535-0.492,0.713-0.941,0.713-1.655L187.194,38.021
					L187.194,38.021z M203.957,43.371h-3.121v-6.599c0-0.799-0.089-1.384-0.446-1.869c-0.356-0.449-0.802-0.585-1.337-0.585
					c-0.981,0-1.516,0.356-1.873,0.941c-0.356,0.578-0.624,1.512-0.624,2.896v5.35h-3.121v-11.37h2.318l0.446,1.519h0.179
					c0.267-0.578,0.802-0.934,1.337-1.291c0.624-0.228,1.337-0.449,2.14-0.449c1.249,0,2.318,0.314,2.942,1.027
					c0.713,0.713,1.07,1.733,1.07,3.117L203.957,43.371L203.957,43.371z M210.823,43.506c-1.337,0-2.407-0.492-3.121-1.512
					c-0.803-1.027-1.159-2.454-1.159-4.28c0-1.876,0.356-3.396,1.159-4.416c0.802-1.07,1.873-1.52,3.21-1.52
					c1.427,0,2.586,0.585,3.299,1.605h0.089c-0.089-0.799-0.178-1.605-0.178-2.318V27.5h3.121v15.872h-2.497l-0.535-1.513h-0.089
					C213.409,43.014,212.25,43.506,210.823,43.506z M211.893,41.053c0.802,0,1.337-0.221,1.694-0.713
					c0.357-0.442,0.624-1.249,0.624-2.318v-0.307c0-1.298-0.267-2.097-0.624-2.682c-0.356-0.578-0.98-0.799-1.783-0.799
					c-0.713,0-1.337,0.314-1.694,0.934c-0.356,0.535-0.535,1.384-0.535,2.547c0,1.155,0.178,1.955,0.535,2.539
					C210.645,40.832,211.18,41.053,211.893,41.053z M225.089,34.012c-0.713,0-1.159,0.221-1.516,0.535
					c-0.356,0.485-0.535,1.07-0.713,1.783h4.458c0-0.849-0.268-1.427-0.624-1.783C226.249,34.098,225.803,34.012,225.089,34.012z
					 M225.535,43.506c-1.873,0-3.21-0.492-4.28-1.512c-1.07-1.027-1.516-2.454-1.516-4.28c0-1.876,0.446-3.396,1.427-4.416
					c0.892-1.07,2.318-1.52,3.923-1.52s2.942,0.45,3.745,1.384c0.803,0.935,1.337,2.226,1.337,3.838v1.512h-7.311
					c0,0.935,0.356,1.605,0.802,2.097c0.535,0.442,1.159,0.67,2.14,0.67c0.713,0,1.337-0.093,1.961-0.228
					c0.535-0.086,1.249-0.357,1.961-0.713v2.454c-0.624,0.221-1.159,0.442-1.694,0.578C227.14,43.506,226.516,43.506,225.535,43.506
					z M239.088,31.694c0.535,0,0.803,0,1.07,0.085l-0.268,2.896c-0.178-0.128-0.535-0.128-0.892-0.128
					c-1.07,0-1.694,0.264-2.318,0.841c-0.624,0.45-0.803,1.255-0.803,2.055v5.792h-3.121v-11.32h2.318l0.446,1.961h0.089
					c0.356-0.713,0.802-1.155,1.426-1.512C237.75,31.915,238.375,31.694,239.088,31.694z M70.567,56.26v9.58
					c0,1.07-0.178,2.097-0.713,2.903c-0.446,0.842-1.159,1.512-2.051,1.869c-0.892,0.442-2.051,0.713-3.209,0.713
					c-2.051,0-3.389-0.492-4.548-1.512c-1.07-0.941-1.605-2.325-1.605-4.059v-9.63h3.121v9.138c0,1.155,0.178,2.004,0.713,2.582
					c0.446,0.585,1.248,0.806,2.318,0.806c0.98,0,1.694-0.221,2.14-0.806c0.446-0.578,0.713-1.427,0.713-2.582V56.26H70.567
					L70.567,56.26z M84.477,71.19h-3.121v-6.599c0-0.799-0.089-1.384-0.446-1.869c-0.356-0.449-0.803-0.585-1.427-0.585
					c-0.892,0-1.516,0.356-1.783,0.941c-0.356,0.578-0.624,1.512-0.624,2.896v5.35h-3.121v-11.37h2.318l0.446,1.519h0.089
					c0.356-0.578,0.892-0.934,1.427-1.291c0.535-0.228,1.248-0.449,2.051-0.449c1.337,0,2.318,0.314,3.031,1.027
					c0.713,0.713,1.07,1.733,1.07,3.117L84.477,71.19L84.477,71.19z M87.508,56.838c0-1.07,0.535-1.52,1.783-1.52
					c1.07,0,1.694,0.449,1.694,1.52c0,0.442-0.089,0.799-0.446,1.155c-0.268,0.221-0.713,0.314-1.249,0.314
					C88.043,58.308,87.508,57.858,87.508,56.838z M90.718,71.19h-3.121V59.827h3.121V71.19z M96.781,71.19l-4.28-11.363h3.21
					l2.229,6.505c0.268,0.799,0.357,1.605,0.446,2.318h0.179c0-0.713,0.178-1.384,0.446-2.318l2.14-6.505h3.299l-4.28,11.363H96.781
					z M110.602,61.832c-0.713,0-1.159,0.221-1.516,0.535c-0.356,0.485-0.624,1.07-0.713,1.74h4.369c0-0.806-0.178-1.384-0.535-1.74
					C111.85,61.917,111.226,61.832,110.602,61.832z M111.048,71.326c-1.873,0-3.21-0.492-4.28-1.512
					c-1.07-1.07-1.516-2.454-1.516-4.28c0-1.876,0.446-3.396,1.337-4.416c0.981-1.07,2.318-1.52,4.013-1.52
					c1.605,0,2.853,0.45,3.656,1.384c0.802,0.935,1.427,2.226,1.427,3.838v1.512h-7.312c0,0.935,0.356,1.605,0.802,2.097
					c0.446,0.442,1.159,0.67,2.051,0.67c0.713,0,1.427-0.093,2.051-0.228c0.535-0.128,1.249-0.357,1.961-0.713v2.454
					c-0.624,0.221-1.159,0.442-1.783,0.578C112.653,71.326,111.939,71.326,111.048,71.326z M124.601,59.47
					c0.446,0,0.803,0,1.07,0.128l-0.268,2.896c-0.268-0.128-0.535-0.128-0.892-0.128c-1.07,0-1.783,0.264-2.318,0.841
					c-0.624,0.45-0.803,1.255-0.803,2.055v5.792h-3.21v-11.32h2.318l0.535,1.961h0.089c0.356-0.713,0.802-1.155,1.426-1.512
					C123.174,59.734,123.888,59.47,124.601,59.47z M135.568,67.716c0,1.156-0.446,2.097-1.248,2.675
					c-0.803,0.578-1.962,0.935-3.567,0.935c-0.802,0-1.516,0-2.051-0.135c-0.624-0.136-1.248-0.221-1.694-0.442v-2.675
					c0.624,0.221,1.337,0.442,1.961,0.67c0.713,0.264,1.427,0.264,1.873,0.264c1.159,0,1.783-0.356,1.783-0.934
					c0-0.229-0.178-0.492-0.268-0.585c-0.089-0.128-0.446-0.357-0.802-0.485c-0.356-0.228-0.803-0.449-1.516-0.67
					c-0.892-0.356-1.516-0.713-1.962-1.07c-0.446-0.314-0.713-0.671-0.892-1.027c-0.268-0.356-0.268-0.935-0.268-1.512
					c0-1.027,0.357-1.741,1.159-2.318c0.803-0.578,1.873-0.806,3.388-0.806c1.337,0,2.675,0.357,4.013,0.942l-0.892,2.183
					c-0.625-0.229-1.159-0.449-1.605-0.585c-0.535-0.085-1.07-0.221-1.516-0.221c-0.98,0-1.426,0.221-1.426,0.713
					c0,0.221,0.089,0.449,0.446,0.67c0.356,0.221,0.98,0.492,1.961,0.935c0.981,0.356,1.516,0.713,1.961,1.027
					c0.535,0.356,0.713,0.713,0.981,1.07C135.568,66.689,135.568,67.267,135.568,67.716z M137.976,56.838
					c0-1.07,0.535-1.52,1.694-1.52s1.694,0.449,1.694,1.52c0,0.442-0.089,0.799-0.446,1.155c-0.178,0.221-0.624,0.314-1.249,0.314
					C138.51,58.308,137.976,57.858,137.976,56.838z M141.186,71.19h-3.121V59.827h3.121V71.19z M148.051,71.326
					c-1.427,0-2.497-0.492-3.21-1.512c-0.803-1.07-1.159-2.454-1.159-4.28c0-1.876,0.356-3.396,1.159-4.416
					c0.892-1.07,1.872-1.52,3.299-1.52s2.497,0.585,3.21,1.605h0.178c-0.178-0.799-0.268-1.605-0.268-2.318v-3.566h3.121V71.19
					h-2.408l-0.624-1.513h-0.089C150.548,70.833,149.567,71.326,148.051,71.326z M149.21,68.872c0.803,0,1.338-0.221,1.694-0.713
					c0.356-0.442,0.624-1.249,0.624-2.318v-0.307c0-1.298-0.268-2.097-0.624-2.682c-0.356-0.578-1.07-0.799-1.873-0.799
					c-0.713,0-1.248,0.314-1.605,0.892c-0.356,0.578-0.535,1.427-0.535,2.589c0,1.155,0.178,1.955,0.535,2.54
					C147.873,68.651,148.497,68.872,149.21,68.872z M164.903,71.19l-0.535-1.513h-0.089c-0.624,0.713-1.07,1.156-1.694,1.377
					c-0.535,0.271-1.249,0.356-2.14,0.356c-1.07,0-1.961-0.356-2.585-0.934c-0.535-0.578-0.892-1.47-0.892-2.632
					c0-1.156,0.445-2.09,1.248-2.668c0.803-0.585,2.051-0.941,3.834-0.941l1.962-0.128v-0.449c0-1.163-0.625-1.741-1.784-1.741
					c-0.892,0-1.961,0.221-3.209,0.806l-1.07-2.097c1.337-0.67,2.854-1.027,4.458-1.027c1.516,0,2.675,0.357,3.477,1.027
					c0.803,0.713,1.249,1.648,1.249,3.032v7.668h-2.229V71.19z M164.012,65.84h-1.159c-0.981,0-1.605,0.271-1.962,0.492
					c-0.356,0.221-0.713,0.799-0.713,1.384c0,0.935,0.446,1.291,1.516,1.291c0.713,0,1.248-0.264,1.694-0.578
					c0.535-0.492,0.713-0.941,0.713-1.655L164.012,65.84L164.012,65.84z M173.82,71.326c-1.338,0-2.408-0.492-3.121-1.512
					c-0.802-1.07-1.159-2.454-1.159-4.28c0-1.876,0.357-3.396,1.159-4.416c0.803-1.07,1.873-1.52,3.299-1.52
					c1.337,0,2.497,0.585,3.21,1.605h0.089c-0.089-0.799-0.178-1.605-0.178-2.318v-3.566h3.121V71.19h-2.407l-0.624-1.513h-0.089
					C176.405,70.833,175.246,71.326,173.82,71.326z M174.89,68.872c0.802,0,1.427-0.221,1.783-0.713
					c0.356-0.442,0.535-1.249,0.535-2.318v-0.307c0-1.298-0.179-2.097-0.535-2.682c-0.356-0.578-1.07-0.799-1.873-0.799
					c-0.713,0-1.337,0.314-1.605,0.892c-0.356,0.578-0.624,1.427-0.624,2.589c0,1.155,0.268,1.955,0.624,2.54
					C173.641,68.651,174.176,68.872,174.89,68.872z M188.086,61.832c-0.624,0-1.159,0.221-1.516,0.535
					c-0.268,0.485-0.535,1.07-0.625,1.74h4.369c0-0.806-0.268-1.384-0.535-1.74C189.423,61.917,188.799,61.832,188.086,61.832z
					 M188.621,71.326c-1.873,0-3.299-0.492-4.369-1.512c-0.981-1.07-1.516-2.454-1.516-4.28c0-1.876,0.535-3.396,1.426-4.416
					c0.892-1.07,2.318-1.52,3.923-1.52c1.694,0,2.942,0.45,3.745,1.384c0.892,0.935,1.426,2.226,1.426,3.838v1.512h-7.312
					c0,0.935,0.357,1.605,0.803,2.097c0.446,0.442,1.159,0.67,2.051,0.67c0.713,0,1.427-0.093,1.961-0.228
					c0.624-0.128,1.249-0.357,1.962-0.713v2.454c-0.535,0.221-1.159,0.442-1.694,0.578
					C190.226,71.326,189.513,71.326,188.621,71.326z M203.779,67.716c0,1.156-0.356,2.097-1.248,2.675
					c-0.892,0.578-2.051,0.935-3.656,0.935c-0.803,0-1.516,0-2.051-0.135c-0.625-0.136-1.159-0.221-1.605-0.442v-2.675
					c0.535,0.221,1.248,0.442,1.961,0.67c0.713,0.264,1.337,0.264,1.873,0.264c1.159,0,1.694-0.356,1.694-0.934
					c0-0.229-0.089-0.492-0.267-0.585c-0.089-0.128-0.446-0.357-0.803-0.485c-0.356-0.228-0.802-0.449-1.516-0.67
					c-0.892-0.356-1.516-0.713-1.962-1.07c-0.446-0.314-0.624-0.671-0.892-1.027c-0.267-0.356-0.267-0.935-0.267-1.512
					c0-1.027,0.356-1.741,1.159-2.318c0.803-0.578,1.873-0.806,3.389-0.806c1.426,0,2.675,0.357,4.012,0.942l-0.892,2.183
					c-0.535-0.229-1.159-0.449-1.605-0.585c-0.446-0.085-1.07-0.221-1.516-0.221c-0.892,0-1.427,0.221-1.427,0.713
					c0,0.221,0.178,0.449,0.535,0.67c0.357,0.221,0.892,0.492,1.962,0.935c0.892,0.356,1.516,0.713,1.961,1.027
					c0.446,0.356,0.713,0.713,0.892,1.07C203.779,66.689,203.779,67.267,203.779,67.716z"/>
				<g id="Page-1_1_">
					<g id="Convocatoria-ajustes_1_" transform="translate(-372.000000, -25288.000000)">
						<g id="Page-1_2_" transform="translate(372.000000, 25288.000000)">
							<g id="Group-3">
								<g id="Clip-2">
								</g>
								<path id="Fill-1" fill="#FFFFFF" d="M387.814,0.486c0,5.079,8.827,10.65,8.827,16.449c0,0,0,0.578-0.267,1.163
									c8.292,1.647,14.177,5.571,14.177,10.208c0,6.242-10.433,11.235-23.451,11.363c-0.089,0-0.089,0-0.178,0
									c-12.929,0-23.361-4.994-23.361-11.142c0-4.637,6.42-8.339,14.088-10.3c0,2.539,8.649,10.657,8.917,13.91
									c0,0,0,0.228,0,0.585c0,0.128,0,0.356,0,0.442c1.872-0.934,1.872-3.923,1.872-3.923c0-7.09-8.471-10.208-8.471-17.163
									c0-2.675,1.249-4.729,2.497-5.222v1.969c0,5.122,9.184,10.65,9.184,15.287v1.52c2.051-0.806,2.051-4.508,2.051-4.508
									c0-6.37-8.56-9.851-8.56-17.163c0-2.675,1.248-4.636,2.586-5.214v1.741H387.814z"/>
							</g>
							<path id="Fill-4" fill="#FFFFFF" d="M429.009,38.513c-4.369,0-7.49-1.291-7.49-1.291v-7.54h1.07
								c0.624,3.973,3.478,6.962,6.955,6.962c3.388,0,5.795-1.833,5.795-4.95c0-3.253-3.12-4.772-5.35-5.799l-2.942-1.512
								c-2.942-1.52-5.261-3.837-5.261-7.226c0-4.144,3.032-7.753,8.917-7.753c4.102,0,7.311,1.427,7.311,1.427v6.684h-1.069
								c-0.535-3.566-2.497-6.377-6.599-6.377c-3.031,0-4.726,2.097-4.726,4.194c0,2.768,1.873,3.923,4.013,5.079l3.031,1.52
								c2.765,1.384,6.242,3.831,6.242,7.889C439.084,35.032,435.429,38.513,429.009,38.513"/>
							<path id="Fill-6" fill="#FFFFFF" d="M446.842,38.513c-2.586,0-4.28-1.869-4.28-4.501c0-2.004,1.338-3.388,4.28-4.551
								l5.082-1.961v-1.605c0-2.582-1.159-4.102-2.764-4.102c-1.159,0-2.318,0.628-2.943,1.52c-0.178,0.356-0.178,0.935-0.178,1.291
								c0,0.67,0.445,1.512,0.445,1.512l-2.585,1.163c-0.357-0.578-0.714-1.384-0.714-2.232c0-0.086,0-0.307,0-0.442
								c0.268-1.384,1.427-2.454,3.031-3.346c1.517-1.07,2.943-1.291,3.835-1.291c4.726,0,5.706,3.923,5.706,5.307v8.246
								c0,1.291,0.089,2.183,1.159,2.183c0.356,0,0.446,0,0.892-0.085l0.98-0.357v1.156l-5.35,2.097
								c-0.803-0.578-1.159-1.648-1.427-2.54C450.765,37.001,448.535,38.513,446.842,38.513L446.842,38.513z M448.357,30.396
								c-0.803,0.357-2.229,1.027-2.229,2.989c0,1.07,0.535,2.675,2.586,2.675c0.892,0,2.229-0.578,3.21-1.384v-5.927
								L448.357,30.396z"/>
							<path id="Fill-8" fill="#FFFFFF" d="M461.107,38.513v-0.935l1.338-0.221c0.803-0.135,1.427-0.806,1.427-1.655V24.825
								c0-0.935-0.446-1.377-1.338-1.377c-0.268,0-0.535,0-0.892,0.128l-0.535,0.229v-1.298l5.975-2.54h0.98v2.989
								c1.783-1.961,4.013-2.989,5.885-2.989c4.28,0,6.242,2.989,6.242,6.463v9.273c0,0.849,0.624,1.52,1.516,1.655l1.427,0.221
								v0.935h-9.987v-0.935l1.338-0.221c0.892-0.135,1.516-0.806,1.516-1.655V26.43c0-1.249-0.356-3.923-3.655-3.923
								c-1.873,0-3.389,1.163-4.28,1.961v11.235c0,0.849,0.624,1.427,1.516,1.655l1.338,0.221v0.935H461.107z"/>
							<path id="Fill-10" fill="#FFFFFF" d="M496.328,22.378h-5.439v10.115c0,2.183,1.159,3.481,2.765,3.481
								c0.713,0,1.693-0.271,2.675-0.806l0.445,0.892l-3.478,2.318c0,0-0.713,0.136-1.069,0.136c-3.3,0-5.172-2.097-5.172-6.505
								v-9.723h-2.764v-1.07c0,0,4.279-1.741,5.885-5.885h0.802v5.214h6.152L496.328,22.378z"/>
							<path id="Fill-12" fill="#FFFFFF" d="M503.64,38.513c-2.586,0-4.28-1.869-4.28-4.501c0-2.004,1.338-3.388,4.28-4.551
								l5.082-1.961v-1.605c0-2.582-1.159-4.102-2.764-4.102c-1.159,0-2.318,0.628-2.942,1.52c-0.179,0.356-0.179,0.935-0.179,1.291
								c0,0.67,0.445,1.512,0.445,1.512l-2.585,1.163c-0.357-0.578-0.714-1.384-0.714-2.232c0-0.086,0-0.307,0-0.442
								c0.268-1.384,1.427-2.454,3.032-3.346c1.516-1.07,2.942-1.291,3.834-1.291c4.903,0,5.706,3.923,5.706,5.307v8.246
								c0,1.291,0.089,2.183,1.159,2.183c0.356,0,0.446,0,0.892-0.085l0.98-0.357v1.156l-5.35,2.097
								c-0.803-0.578-1.159-1.648-1.427-2.54C507.562,37.001,505.333,38.513,503.64,38.513L503.64,38.513z M505.155,30.396
								c-0.892,0.357-2.229,1.027-2.229,2.989c0,1.07,0.535,2.675,2.586,2.675c0.892,0,2.318-0.578,3.21-1.384v-5.927
								L505.155,30.396z"/>
							<path id="Fill-14" fill="#FFFFFF" d="M519.064,38.513v-0.935l1.338-0.221c0.803-0.135,1.427-0.806,1.427-1.655V24.825
								c0-0.935-0.446-1.377-1.338-1.377c-0.268,0-0.535,0-0.892,0.128l-0.535,0.229v-1.298l5.975-2.54h0.98v2.989
								c1.783-1.961,4.013-2.989,5.885-2.989c4.28,0,6.242,2.989,6.242,6.463v9.273c0,0.849,0.624,1.52,1.516,1.655l1.427,0.221
								v0.935h-9.987v-0.935l1.338-0.221c0.892-0.135,1.516-0.806,1.516-1.655V26.43c0-1.249-0.356-3.923-3.655-3.923
								c-1.873,0-3.389,1.163-4.28,1.961v11.235c0,0.849,0.624,1.427,1.427,1.655l1.427,0.221v0.935H519.064z"/>
							<path id="Fill-16" fill="#FFFFFF" d="M549.737,38.513c-3.923,0-8.648-2.811-8.648-8.831c0-5.3,4.279-9.58,10.075-9.58
								c1.962,0,3.299,0.307,4.28,0.799V11.85c0-0.935-0.625-1.292-1.159-1.292c-0.357,0-0.803,0.136-1.159,0.271l-0.803,0.221
								V9.895l6.509-2.682h0.892v26.086c0,1.512,0.179,2.404,1.338,2.404c0.356,0,0.624,0,1.069-0.085l1.07-0.357v1.156
								l-5.885,2.097c-0.98-0.578-1.427-1.741-1.694-2.675C554.463,37.001,552.502,38.513,549.737,38.513 M551.609,21.708
								c-3.031,0-6.152,1.869-6.152,7.176c0,4.416,2.318,7.176,6.063,7.176c2.14,0,3.566-1.249,3.924-1.826V23.89
								C554.819,22.506,553.304,21.708,551.609,21.708"/>
							<path id="Fill-18" fill="#FFFFFF" d="M568.283,27.856v0.228c0,5.3,2.942,7.975,6.599,7.975c1.872,0,3.566-0.671,4.993-1.826
								v1.605c-1.605,1.519-3.923,2.675-6.955,2.675c-6.152,0-8.827-4.637-8.827-9.138c0-5.264,3.834-9.409,8.917-9.409
								c4.19,0,7.311,2.896,7.311,7.312v0.45h-12.037V27.856z M576.309,26.208L576.309,26.208c0-3.117-1.605-4.501-3.656-4.501
								c-2.14,0-3.744,1.512-4.279,4.501H576.309z"/>
							<g id="Clip-21">
							</g>
							<path id="Fill-20" fill="#FFFFFF" d="M583.264,38.513v-0.935l1.337-0.221c0.803-0.135,1.427-0.713,1.427-1.519V25.631
								c0-0.892-0.445-1.384-1.248-1.384c-0.357,0-0.624,0-0.981,0.135l-0.534,0.221v-1.156l5.885-2.325h0.892v3.702
								c1.516-2.675,3.299-3.831,5.35-3.831c1.604,0,2.14,0.356,2.14,0.356v4.052h-0.802c-0.268-1.02-1.07-1.598-2.229-1.598
								c-1.427,0-3.031,0.307-4.19,2.539v9.359c0,0.849,0.802,1.427,1.604,1.52l1.962,0.221v0.934h-10.61V38.513z"/>
						</g>
					</g>
				</g>
			</g>
		</g>
	</g>
</g>
</svg>
