<?xml version="1.0" encoding="UTF-8"?>
<svg width="44px" height="52px" viewBox="0 0 44 52" version="1.1" xmlns="http://www.w3.org/2000/svg" xmlns:xlink="http://www.w3.org/1999/xlink">
    <!-- Generator: Sketch 47.1 (45422) - http://www.bohemiancoding.com/sketch -->
    <title>Page 1</title>
    <desc>Created with Sketch.</desc>
    <defs>
        <polygon id="path-1" points="68.6491062 78 -5.14996032e-19 78 -5.14996032e-19 0.333272727 68.64925 0.333272727 68.64925 78 68.6491062 0.333414545 -0.00014375 0.333414545 -0.00014375 78.0001418 68.6491062 78.0001418"></polygon>
    </defs>
    <g id="Page-1" stroke="none" stroke-width="1" fill="none" fill-rule="evenodd">
        <g id="Convocatoria-2" transform="translate(-919.000000, -3932.000000)">
            <g id="Page-1" transform="translate(906.000000, 3918.000000)">
                <g id="Group-3">
                    <mask id="mask-2" fill="white">
                        <use xlink:href="#path-1"></use>
                    </mask>
                    <g id="Clip-2"></g>
                    <path d="M62.8991062,44.1367964 C62.8991062,59.6814873 50.0794812,72.3274145 34.3230437,72.3274145 C18.5680437,72.3274145 5.74985625,59.6814873 5.74985625,44.1367964 L5.74985625,18.3386509 L34.3230437,6.25574182 L62.8991062,18.3386509 L62.8991062,44.1367964 Z M66.9068562,13.8600327 L35.4557937,0.56316 C34.7312937,0.256832727 33.9147937,0.256832727 33.1902937,0.56316 L1.74210625,13.8600327 C0.68554375,14.3081782 -0.00014375,15.3335236 -0.00014375,16.4680691 L-0.00014375,44.1367964 C-0.00014375,62.8099964 15.3969187,78.0001418 34.3230437,78.0001418 C53.2506062,78.0001418 68.6491062,62.8099964 68.6491062,44.1367964 L68.6491062,16.4680691 C68.6491062,15.3321055 67.9634187,14.3081782 66.9068562,13.8600327 L66.9068562,13.8600327 Z" id="Fill-1" fill="#EC1C24" mask="url(#mask-2)"></path>
                </g>
                <path d="M51.2549372,44.4092166 C51.2549372,52.2423421 45.4682226,58.7603144 37.8718133,60.0966115 L37.8718133,21.0944972 L51.2549372,26.724424 L51.2549372,44.4092166 Z M18.7450628,44.4092166 L18.7450628,26.724424 L32.1267504,21.0944972 L32.1267504,60.0966115 C24.5317774,58.7603144 18.7450628,52.2423421 18.7450628,44.4092166 L18.7450628,44.4092166 Z M33.8675045,14.2283546 L14.740754,22.2729195 C13.6850987,22.7183519 13,23.7374898 13,24.8651667 L13,44.4092166 C13,56.3146652 22.8685817,66 34.9992819,66 C47.129982,66 57,56.3146652 57,44.4092166 L57,24.8651667 C57,23.7360802 56.3149013,22.7183519 55.259246,22.2729195 L36.1310592,14.2283546 C35.4071813,13.9238818 34.5899461,13.9238818 33.8675045,14.2283546 L33.8675045,14.2283546 Z" id="Fill-4" fill="#EC1C24"></path>
            </g>
        </g>
    </g>
</svg>