<?xml version="1.0" encoding="UTF-8"?>
<svg width="75px" height="68px" viewBox="0 0 75 68" version="1.1" xmlns="http://www.w3.org/2000/svg" xmlns:xlink="http://www.w3.org/1999/xlink">
    <!-- Generator: Sketch 47.1 (45422) - http://www.bohemiancoding.com/sketch -->
    <title>Page 1</title>
    <desc>Created with Sketch.</desc>
    <defs></defs>
    <g id="Page-1" stroke="none" stroke-width="1" fill="none" fill-rule="evenodd">
        <g id="Convocatoria-2" transform="translate(-190.000000, -4352.000000)">
            <g id="Page-1" transform="translate(190.000000, 4354.000000)">
                <path d="M65.1317813,30.1846978 C72.6413467,21.9481667 74.7257339,10.6418379 71.5980432,0.696404571 C61.4291638,-1.52394538 50.3779159,1.57809587 42.8672406,9.81573874 C35.3576752,18.0533816 33.2755078,29.3585986 36.4009787,39.3040319 C46.5709681,41.5232701 57.6222159,38.4223406 65.1317813,30.1846978 Z" id="Stroke-1" stroke="#EC1C24" stroke-width="4" stroke-linejoin="round"></path>
                <path d="M22.7929938,44 C10.0122395,44 0,51.740761 0,61.6229794 C0,64.040189 1.99132936,66 4.44741342,66 L56.5521972,66 C58.0454163,66 59.4385685,65.2635663 60.2624518,64.0380005 C61.0852233,62.8124347 61.2297643,61.2629694 60.6449294,59.9115643 C58.1065682,54.0343198 51.0396283,50.0862472 43.0609686,50.0862472 C42.1303473,50.0862472 41.193055,50.1431485 40.2568744,50.2580453 C35.9740153,46.3012186 29.6497934,44 22.7929938,44 M22.7929938,48.3770206 C29.5730755,48.3770206 35.4770169,51.0393434 38.6535819,54.9874161 C40.0433986,54.656951 41.518828,54.4632678 43.0609686,54.4632678 C49.3985327,54.4632678 54.7598896,57.4735638 56.5521972,61.6229794 L4.44741342,61.6229794 C4.44741342,54.3078836 12.6606742,48.3770206 22.7929938,48.3770206" id="Fill-3" fill="#EC1C24"></path>
                <path d="M54,20 C39.5662813,34.2639724 38.0094287,36.6766906 34,50" id="Stroke-5" stroke="#EC1C24" stroke-width="4" stroke-linejoin="round"></path>
            </g>
        </g>
    </g>
</svg>