<?xml version="1.0" encoding="UTF-8"?>
<svg width="71px" height="88px" viewBox="0 0 71 88" version="1.1" xmlns="http://www.w3.org/2000/svg" xmlns:xlink="http://www.w3.org/1999/xlink">
    <!-- Generator: Sketch 47.1 (45422) - http://www.bohemiancoding.com/sketch -->
    <title>Page 1</title>
    <desc>Created with Sketch.</desc>
    <defs>
        <polygon id="path-1" points="70.1468548 0.613257143 70.1468548 31.9995429 0.000343548387 31.9995429 0.000343548387 0.613257143"></polygon>
    </defs>
    <g id="Page-1" stroke="none" stroke-width="1" fill="none" fill-rule="evenodd">
        <g id="Convocatoria-2" transform="translate(-554.000000, -4332.000000)">
            <g id="Page-1" transform="translate(554.000000, 4332.000000)">
                <g id="Group-3" transform="translate(0.000000, 56.000000)">
                    <mask id="mask-2" fill="white">
                        <use xlink:href="#path-1"></use>
                    </mask>
                    <g id="Clip-2"></g>
                    <path d="M63.5877145,0.613257143 C61.9077629,0.613257143 60.2278113,1.25097143 58.9486661,2.5264 L47.0916661,14.3606857 C45.7426661,15.6978286 42.7973113,16.9126857 40.9009242,16.9126857 L24.974021,16.9126857 C23.7326661,16.9126857 22.6836984,16.0132571 22.6836984,14.9469714 C22.6836984,13.8818286 23.7326661,12.9812571 24.974021,12.9812571 L39.2690694,12.9812571 L39.3045694,12.9812571 C42.5304887,12.9812571 45.1551984,10.3618286 45.1551984,7.1424 C45.1551984,5.58354286 44.5471177,4.11611429 43.4408919,3.0144 C42.3358113,1.91268571 40.8677145,1.30582857 39.3080048,1.30582857 L39.3045694,1.30582857 L15.3764242,1.30582857 C6.89765,1.30582857 0.000343548387,8.1904 0.000343548387,16.6532571 C0.000343548387,25.1149714 6.89765,31.9995429 15.3764242,31.9995429 C15.4485694,31.9995429 15.5184242,31.9961143 15.5905694,31.9904 L17.3816016,31.8224 L44.534521,30.2966857 C47.5886661,30.1252571 51.6757468,28.3001143 53.8378113,26.1412571 L68.2244726,11.7835429 C69.4635371,10.5481143 70.1471984,8.90468571 70.1471984,7.15725714 C70.1471984,5.40754286 69.4646823,3.76297143 68.2244726,2.5264 C66.9464726,1.25097143 65.2676661,0.613257143 63.5877145,0.613257143 M63.5877145,5.18468571 C63.8946177,5.18468571 64.4843758,5.25897143 64.9882468,5.76182857 C65.36615,6.13897143 65.5665532,6.62125714 65.5665532,7.15725714 C65.5665532,7.68982857 65.36615,8.17211429 64.9859565,8.5504 L50.59815,22.9092571 C49.2273919,24.2784 46.2144726,25.6235429 44.2780048,25.7321143 L17.1250855,27.2578286 C17.0678274,27.2612571 17.0117145,27.2658286 16.9544565,27.2715429 L15.2745048,27.4281143 C9.3677629,27.3732571 4.58098871,22.5606857 4.58098871,16.6532571 C4.58098871,10.7115429 9.42387581,5.87725714 15.3764242,5.87725714 L39.3080048,5.87725714 C39.6561339,5.87725714 39.9561661,6.00182857 40.203521,6.24868571 C40.4497306,6.4944 40.5745532,6.79497143 40.5745532,7.1424 C40.5745532,7.84182857 40.0042629,8.40982857 39.2690694,8.40982857 L24.974021,8.40982857 C21.1858274,8.40982857 18.1030532,11.3424 18.1030532,14.9469714 C18.1030532,18.5515429 21.1858274,21.4841143 24.974021,21.4841143 L40.9009242,21.4841143 C43.988279,21.4841143 48.1246016,19.7801143 50.3301823,17.5926857 L62.1860371,5.76068571 C62.6887629,5.25897143 63.2796661,5.18468571 63.5877145,5.18468571" id="Fill-1" fill="#EC1C24" mask="url(#mask-2)"></path>
                </g>
                <path d="M46.9236002,0 L46.9236002,0 L46.8017755,0 C41.7644368,0.0323106163 38.7693867,1.95133044 36.9718969,3.72033668 C35.00776,1.86247624 31.9989184,0.124626663 27.0925988,0.124626663 L26.9638783,0.124626663 C22.2540873,0.154629378 17.9431,1.88901711 14.8227772,5.00929948 C11.6840658,8.14919902 9.97162352,12.4672821 10.0003558,17.1661689 L10.0279387,21.6273418 C10.0543724,25.8369536 12.40582,31.0931985 15.6192353,34.1246267 L28.9578967,46.7061499 C29.1946505,46.9277084 29.4360014,47.1365734 29.6968903,47.3408227 L31.1243086,48.688637 C32.7057319,50.1795411 34.7836484,51 36.9753447,51 C39.2417449,50.9861526 41.3277065,50.1403068 42.9010847,48.618246 L56.4787985,35.5059055 C56.6316541,35.3581998 56.7730168,35.2001086 56.9040358,35.0350937 L58.5613122,33.4357182 C61.7402488,30.3662096 64.0273361,25.0280342 63.9997532,20.7434157 L63.9710209,16.1610779 C63.9687223,15.8806679 63.9422887,15.6025658 63.8905706,15.3290796 C63.1228448,6.40904154 56.0811441,0 46.9236002,0 M46.9236002,4.61580234 C53.874507,4.61580234 58.984251,9.43469997 59.3428295,16.1910806 L59.3738603,16.1910806 L59.4025926,20.7722645 C59.4221305,23.8083084 57.6522237,27.9094488 55.3754799,30.1077247 L53.2619354,32.1467554 L53.2918169,32.179066 L39.7129539,45.2937144 C38.9682138,46.0137795 37.9867201,46.377274 37.0006291,46.3841977 L36.9753447,46.3841977 C35.9984481,46.3841977 35.0215515,46.0310888 34.2733636,45.326025 L32.6792982,43.8212734 C32.4827696,43.6724138 32.2896888,43.5143226 32.1046531,43.3423839 L18.767141,30.7608607 C16.4628143,28.5868178 14.643488,24.5618382 14.6250993,21.5984931 L14.5975163,17.1373201 C14.552694,10.0001358 19.7647248,4.78658702 26.9926105,4.740429 L27.0925988,4.740429 C31.7541196,4.740429 33.748138,6.78176758 35.0112079,8.41922346 L35.0318951,11.9364648 C35.0387908,13.0004073 35.8984599,13.8566386 36.9558068,13.8566386 L36.968449,13.8566386 C38.0315424,13.8497149 38.8866142,12.9796362 38.8797185,11.9122319 L38.8590313,8.61193321 C40.081876,6.94678251 41.9770554,4.646959 46.8293584,4.61580234 C46.8603893,4.61580234 46.8925694,4.61580234 46.9236002,4.61580234" id="Fill-4" fill="#EC1C24"></path>
            </g>
        </g>
    </g>
</svg>