<?xml version="1.0" encoding="UTF-8"?>
<svg width="71px" height="76px" viewBox="0 0 71 76" version="1.1" xmlns="http://www.w3.org/2000/svg" xmlns:xlink="http://www.w3.org/1999/xlink">
    <!-- Generator: Sketch 47.1 (45422) - http://www.bohemiancoding.com/sketch -->
    <title>Page 1</title>
    <desc>Created with Sketch.</desc>
    <defs></defs>
    <g id="Page-1" stroke="none" stroke-width="1" fill="none" fill-rule="evenodd">
        <g id="Convocatoria-2" transform="translate(-919.000000, -4345.000000)">
            <g id="Page-1" transform="translate(921.000000, 4347.000000)">
                <g id="Group-4" transform="translate(0.000000, 10.000000)" stroke-width="4" stroke="#EC1C24" stroke-linejoin="round">
                    <polygon id="Stroke-1" points="0 61.7847222 33.5 61.7847222 33.5 0.0771412037 0 0.0771412037"></polygon>
                    <polygon id="Stroke-3" points="33.5 61.7847222 67 61.7847222 67 16.8114005 33.5 16.8114005"></polygon>
                </g>
                <polygon id="Fill-5" fill="#EC1C24" points="14 18 9 18 9 23 14 23"></polygon>
                <polygon id="Fill-6" fill="#EC1C24" points="26 18 21 18 21 23 26 23"></polygon>
                <polygon id="Fill-7" fill="#EC1C24" points="14 27 9 27 9 32 14 32"></polygon>
                <polygon id="Fill-8" fill="#EC1C24" points="26 27 21 27 21 32 26 32"></polygon>
                <polygon id="Fill-9" fill="#EC1C24" points="14 36 9 36 9 41 14 41"></polygon>
                <polygon id="Fill-10" fill="#EC1C24" points="26 36 21 36 21 41 26 41"></polygon>
                <polygon id="Fill-11" fill="#EC1C24" points="14 46 9 46 9 51 14 51"></polygon>
                <polygon id="Fill-12" fill="#EC1C24" points="26 46 21 46 21 51 26 51"></polygon>
                <polygon id="Fill-13" fill="#EC1C24" points="14 54 9 54 9 59 14 59"></polygon>
                <polygon id="Fill-14" fill="#EC1C24" points="26 54 21 54 21 59 26 59"></polygon>
                <polygon id="Fill-15" fill="#EC1C24" points="47 36 42 36 42 41 47 41"></polygon>
                <polygon id="Fill-16" fill="#EC1C24" points="60 36 55 36 55 41 60 41"></polygon>
                <polygon id="Fill-17" fill="#EC1C24" points="47 46 42 46 42 51 47 51"></polygon>
                <polygon id="Fill-18" fill="#EC1C24" points="60 46 55 46 55 51 60 51"></polygon>
                <polygon id="Fill-19" fill="#EC1C24" points="47 54 42 54 42 59 47 59"></polygon>
                <polygon id="Fill-20" fill="#EC1C24" points="60 54 55 54 55 59 60 59"></polygon>
                <g id="Group-27" transform="translate(46.000000, 0.000000)">
                    <path d="M9.12385714,4.5435311 C9.12385714,7.02136842 7.11814286,9.03139234 4.64242857,9.03139234 C2.16814286,9.03139234 0.162428571,7.02136842 0.162428571,4.5435311 C0.162428571,2.06569378 2.16814286,0.0556698565 4.64242857,0.0556698565 C7.11814286,0.0556698565 9.12385714,2.06569378 9.12385714,4.5435311" id="Fill-21" fill="#EC1C24"></path>
                    <path d="M9.12385714,4.5435311 C9.12385714,7.02136842 7.11814286,9.03139234 4.64242857,9.03139234 C2.16814286,9.03139234 0.162428571,7.02136842 0.162428571,4.5435311 C0.162428571,2.06569378 2.16814286,0.0556698565 4.64242857,0.0556698565 C7.11814286,0.0556698565 9.12385714,2.06569378 9.12385714,4.5435311 Z" id="Stroke-23" stroke="#EC1C24" stroke-width="4" stroke-linejoin="round"></path>
                    <path d="M4.64285714,9.03096316 L4.64285714,25.1841163" id="Stroke-25" stroke="#EC1C24" stroke-width="4" stroke-linejoin="round"></path>
                </g>
            </g>
        </g>
    </g>
</svg>