<?xml version="1.0" encoding="utf-8"?>
<!-- Generator: Adobe Illustrator 16.0.0, SVG Export Plug-In . SVG Version: 6.00 Build 0)  -->
<!DOCTYPE svg PUBLIC "-//W3C//DTD SVG 1.1//EN" "http://www.w3.org/Graphics/SVG/1.1/DTD/svg11.dtd">
<svg version="1.1" id="Layer_1" xmlns="http://www.w3.org/2000/svg" xmlns:xlink="http://www.w3.org/1999/xlink" x="0px" y="0px"
	 width="129px" height="33px" viewBox="0 0 129 33" enable-background="new 0 0 129 33" xml:space="preserve">
<title>2°LUGAR</title>
<desc>Created with Sketch.</desc>
<path fill="#EE4135" d="M8.048,27.439v-0.911c8.544-6.384,12.768-9.937,12.768-16.752c0-6-4.128-9.744-9.696-9.744
	c-5.76,0-10.032,4.032-10.032,10.224h4.896C6.272,6.848,8.48,4.64,11.12,4.64c2.544,0,4.656,1.968,4.656,5.136
	c0,3.6-1.92,6.384-14.976,18V32h20.352v-4.561H8.048z"/>
<path fill="#EE4135" d="M40.688,12.944c-3.744,0-6.48-2.736-6.48-6.384c0-3.6,2.736-6.336,6.48-6.336
	c3.696,0,6.432,2.736,6.432,6.336C47.12,10.208,44.384,12.944,40.688,12.944z"/>
<path fill="#FFFFFF" d="M40.688,9.824c1.776,0,3.072-1.344,3.072-3.264c0-1.776-1.296-3.264-3.072-3.264s-3.072,1.488-3.072,3.264
	C37.616,8.48,38.912,9.824,40.688,9.824z"/>
<polygon points="60.32,29.768 60.32,16.4 57.92,16.4 57.92,32 68.12,32 68.12,29.768 "/>
<path d="M72.439,26.432c0,3.576,2.185,5.929,5.425,5.929c3.216,0,5.376-2.353,5.376-5.929V16.4h-2.448v9.984
	c0,2.16-1.176,3.552-2.928,3.552c-1.753,0-2.929-1.392-2.929-3.552V16.4h-2.496V26.432z"/>
<path d="M92.864,24.439v2.017h3.239v0.192c0,2.16-1.392,3.384-3.408,3.384c-2.184,0-3.6-2.04-3.6-5.784
	c0-3.408,1.561-5.855,3.696-5.855c2.088,0,2.929,1.367,3.072,3.672h2.448c-0.049-3.553-1.969-6.024-5.377-6.024
	c-3.672,0-6.336,3.456-6.336,8.208s2.521,8.112,5.952,8.112c1.152,0,2.521-0.433,3.192-1.488H96.2V32h2.088v-7.561H92.864z"/>
<polygon points="111.536,32 110.408,27.968 104.672,27.968 103.544,32 101.145,32 105.8,16.4 109.232,16.4 114.057,32 "/>
<polygon fill="#FFFFFF" points="105.271,25.809 109.809,25.809 107.889,18.848 107.191,18.848 "/>
<path d="M126.008,32l-4.08-6.36h-2.52V32h-2.328V16.4h6.072c2.736,0,4.8,2.04,4.8,4.728c0,2.088-1.368,3.769-3.336,4.32L128.912,32
	H126.008z"/>
<path fill="#FFFFFF" d="M119.408,18.632v4.944h3.744c1.344,0,2.375-1.057,2.375-2.448c0-1.319-1.031-2.399-2.375-2.496H119.408z"/>
</svg>
