<?xml version="1.0" encoding="UTF-8"?>
<svg width="200px" height="145px" viewBox="0 0 200 145" version="1.1" xmlns="http://www.w3.org/2000/svg" xmlns:xlink="http://www.w3.org/1999/xlink">
    <!-- Generator: Sketch 47.1 (45422) - http://www.bohemiancoding.com/sketch -->
    <title>Group 26</title>
    <desc>Created with Sketch.</desc>
    <defs></defs>
    <g id="Page-1" stroke="none" stroke-width="1" fill="none" fill-rule="evenodd">
        <g id="Convocatoria-ajustes" transform="translate(-463.000000, -15087.000000)">
            <g id="Group-26" transform="translate(463.000000, 15087.000000)">
                <g id="Group-Copy-20">
                    <rect id="Rectangle-3" fill="#FFFFFF" x="0" y="1" width="200" height="144" rx="8"></rect>
                    <path d="M8,0 L192,0 L192,0 C196.418278,-8.11624501e-16 200,3.581722 200,8 L200,18 L0,18 L0,8 L0,8 C-5.41083001e-16,3.581722 3.581722,8.11624501e-16 8,0 Z" id="Rectangle-4" fill="#BA251C"></path>
                    <circle id="Oval" fill="#EBEBEB" cx="12" cy="9" r="3"></circle>
                    <circle id="Oval-Copy" fill="#EBEBEB" cx="21" cy="9" r="3"></circle>
                    <circle id="Oval-Copy-2" fill="#EBEBEB" cx="30" cy="9" r="3"></circle>
                    <rect id="Rectangle-5" fill="#D8D8D8" x="37" y="58" width="43" height="43"></rect>
                </g>
                <path d="M92.078125,83 L92.078125,74.4335938 L93.8945312,74.4335938 L93.8945312,81.5 L97.3691406,81.5 L97.3691406,83 L92.078125,83 Z M106.392578,78.7050781 C106.392578,80.123054 106.041019,81.2128868 105.337891,81.9746094 C104.634762,82.7363319 103.62696,83.1171875 102.314453,83.1171875 C101.001947,83.1171875 99.9941441,82.7363319 99.2910156,81.9746094 C98.5878871,81.2128868 98.2363281,80.1191478 98.2363281,78.6933594 C98.2363281,77.267571 98.5888637,76.1787147 99.2939453,75.4267578 C99.999027,74.6748009 101.009759,74.2988281 102.326172,74.2988281 C103.642585,74.2988281 104.649411,74.6777306 105.34668,75.4355469 C106.043949,76.1933632 106.392578,77.283196 106.392578,78.7050781 Z M100.140625,78.7050781 C100.140625,79.6621142 100.322264,80.3828101 100.685547,80.8671875 C101.04883,81.3515649 101.591793,81.59375 102.314453,81.59375 C103.763679,81.59375 104.488281,80.630869 104.488281,78.7050781 C104.488281,76.775381 103.767585,75.8105469 102.326172,75.8105469 C101.603512,75.8105469 101.058596,76.0537085 100.691406,76.5400391 C100.324217,77.0263696 100.140625,77.7480421 100.140625,78.7050781 Z M111.419922,78.1894531 L114.818359,78.1894531 L114.818359,82.6308594 C114.267575,82.8105478 113.749026,82.9365231 113.262695,83.0087891 C112.776365,83.081055 112.279299,83.1171875 111.771484,83.1171875 C110.478509,83.1171875 109.491214,82.7373085 108.80957,81.9775391 C108.127926,81.2177696 107.787109,80.1269602 107.787109,78.7050781 C107.787109,77.3222587 108.182613,76.2441445 108.973633,75.4707031 C109.764652,74.6972618 110.861321,74.3105469 112.263672,74.3105469 C113.142583,74.3105469 113.99023,74.4863264 114.806641,74.8378906 L114.203125,76.2910156 C113.578122,75.9785141 112.927738,75.8222656 112.251953,75.8222656 C111.466793,75.8222656 110.837893,76.0859349 110.365234,76.6132812 C109.892576,77.1406276 109.65625,77.8496049 109.65625,78.7402344 C109.65625,79.6699265 109.846678,80.3798804 110.227539,80.8701172 C110.6084,81.360354 111.162106,81.6054688 111.888672,81.6054688 C112.26758,81.6054688 112.652342,81.5664066 113.042969,81.4882812 L113.042969,79.7011719 L111.419922,79.7011719 L111.419922,78.1894531 Z M124.632812,78.7050781 C124.632812,80.123054 124.281254,81.2128868 123.578125,81.9746094 C122.874996,82.7363319 121.867194,83.1171875 120.554688,83.1171875 C119.242181,83.1171875 118.234379,82.7363319 117.53125,81.9746094 C116.828121,81.2128868 116.476562,80.1191478 116.476562,78.6933594 C116.476562,77.267571 116.829098,76.1787147 117.53418,75.4267578 C118.239261,74.6748009 119.249993,74.2988281 120.566406,74.2988281 C121.882819,74.2988281 122.889645,74.6777306 123.586914,75.4355469 C124.284183,76.1933632 124.632812,77.283196 124.632812,78.7050781 Z M118.380859,78.7050781 C118.380859,79.6621142 118.562498,80.3828101 118.925781,80.8671875 C119.289064,81.3515649 119.832028,81.59375 120.554688,81.59375 C122.003913,81.59375 122.728516,80.630869 122.728516,78.7050781 C122.728516,76.775381 122.00782,75.8105469 120.566406,75.8105469 C119.843746,75.8105469 119.29883,76.0537085 118.931641,76.5400391 C118.564451,77.0263696 118.380859,77.7480421 118.380859,78.7050781 Z" id="LOGO" fill="#EE4135"></path>
                <path d="M37,101 C45.5817567,91.7828168 52.4409243,88.7258382 57.5775029,91.8290642 C62.7140814,94.9322902 65.9214815,94.4255938 67.1997031,90.3089751 C70.5417593,79.6696546 74.808525,77.2655228 80,83.0965799 C80,83.1928323 80,89.160639 80,101 L37,101 Z" id="Path-8" fill="#A7A7A7"></path>
                <circle id="Oval-7" fill="#FFFFFF" cx="52" cy="73" r="7"></circle>
            </g>
        </g>
    </g>
</svg>