<?xml version="1.0" encoding="UTF-8"?>
<svg width="200px" height="140px" viewBox="0 0 200 140" version="1.1" xmlns="http://www.w3.org/2000/svg" xmlns:xlink="http://www.w3.org/1999/xlink">
    <!-- Generator: Sketch 47.1 (45422) - http://www.bohemiancoding.com/sketch -->
    <title>Group 25</title>
    <desc>Created with Sketch.</desc>
    <defs></defs>
    <g id="Page-1" stroke="none" stroke-width="1" fill="none" fill-rule="evenodd">
        <g id="Convocatoria-ajustes" transform="translate(-465.000000, -14536.000000)">
            <g id="Group-25" transform="translate(465.000000, 14536.000000)">
                <g id="Group-Copy-18">
                    <rect id="Rectangle-3" fill="#FFFFFF" x="0" y="0.965517241" width="200" height="139.034483" rx="8"></rect>
                    <path d="M8,0 L192,0 L192,0 C196.418278,-8.11624501e-16 200,3.581722 200,8 L200,17.3793103 L0,17.3793103 L0,8 L0,8 C-5.41083001e-16,3.581722 3.581722,8.11624501e-16 8,0 Z" id="Rectangle-4" fill="#BA251C"></path>
                    <ellipse id="Oval" fill="#EBEBEB" cx="12" cy="8.68965517" rx="3" ry="2.89655172"></ellipse>
                    <ellipse id="Oval-Copy" fill="#EBEBEB" cx="21" cy="8.68965517" rx="3" ry="2.89655172"></ellipse>
                    <ellipse id="Oval-Copy-2" fill="#EBEBEB" cx="30" cy="8.68965517" rx="3" ry="2.89655172"></ellipse>
                    <g id="Group" transform="translate(16.000000, 33.000000)" stroke="#F4F4F4" stroke-width="3">
                        <path d="M2.49096386,60 L164.509036,60" id="Line-4" stroke-linecap="square"></path>
                        <path d="M84,61.4821429 L84,87.5178571" id="Line-6" stroke-linecap="square"></path>
                        <path d="M99.4992063,31 L132.527778,31" id="Line-7" stroke-linecap="square"></path>
                        <path d="M32.5055918,30.9655172 L66.3968647,30.9655172" id="Line-7-Copy" stroke-linecap="square"></path>
                        <path d="M32,2.46031746 L32,59.7249936" id="Line-5" stroke-linecap="square"></path>
                        <path d="M68,2.46031746 L68,59.7249936" id="Line-5-Copy" stroke-linecap="square"></path>
                        <path d="M99,2.46031746 L99,59.7249936" id="Line-5-Copy-2" stroke-linecap="square"></path>
                        <path d="M133,2.46031746 L133,59.7249936" id="Line-5-Copy-3" stroke-linecap="square"></path>
                        <rect id="Rectangle-6-Copy-3" x="1.5" y="1.5" width="165" height="86"></rect>
                    </g>
                </g>
            </g>
        </g>
    </g>
</svg>