<?xml version="1.0" encoding="UTF-8"?>
<svg width="200px" height="140px" viewBox="0 0 200 140" version="1.1" xmlns="http://www.w3.org/2000/svg" xmlns:xlink="http://www.w3.org/1999/xlink">
    <!-- Generator: Sketch 47.1 (45422) - http://www.bohemiancoding.com/sketch -->
    <title>Group 14</title>
    <desc>Created with Sketch.</desc>
    <defs></defs>
    <g id="Page-1" stroke="none" stroke-width="1" fill="none" fill-rule="evenodd">
        <g id="Convocatoria-ajustes" transform="translate(-463.000000, -7858.000000)">
            <g id="Group-14" transform="translate(463.000000, 7858.000000)">
                <g id="Group-6">
                    <g id="Group-Copy-4">
                        <rect id="Rectangle-3" fill="#FFFFFF" x="0" y="1.03703704" width="200" height="138.962963" rx="8"></rect>
                        <path d="M8,0 L192,0 L192,-8.8817842e-16 C196.418278,-1.69980292e-15 200,3.581722 200,8 L200,18.6666667 L0,18.6666667 L0,8 L-8.8817842e-16,8 C-1.42926142e-15,3.581722 3.581722,-7.65539184e-17 8,-8.8817842e-16 Z" id="Rectangle-4" fill="#BA251C"></path>
                        <ellipse id="Oval" fill="#EBEBEB" cx="12" cy="9.33333333" rx="3" ry="3.11111111"></ellipse>
                        <ellipse id="Oval-Copy" fill="#EBEBEB" cx="21" cy="9.33333333" rx="3" ry="3.11111111"></ellipse>
                        <ellipse id="Oval-Copy-2" fill="#EBEBEB" cx="30" cy="9.33333333" rx="3" ry="3.11111111"></ellipse>
                    </g>
                </g>
                <rect id="Rectangle" fill="#F4F4F4" x="26" y="29" width="144" height="101"></rect>
                <rect id="Rectangle" fill="#FFFFFF" x="43" y="38" width="110" height="20"></rect>
                <path d="M53.5078125,52 L53.2275391,51.0224609 L53.1181641,51.0224609 C52.8948557,51.3779315 52.5781271,51.6525055 52.1679688,51.8461914 C51.7578104,52.0398773 51.2906927,52.1367188 50.7666016,52.1367188 C49.8688106,52.1367188 49.1920596,51.896324 48.7363281,51.4155273 C48.2805967,50.9347307 48.0527344,50.2431686 48.0527344,49.3408203 L48.0527344,44.3574219 L50.1376953,44.3574219 L50.1376953,48.8212891 C50.1376953,49.3727241 50.2356761,49.7862942 50.4316406,50.0620117 C50.6276051,50.3377292 50.9397765,50.4755859 51.3681641,50.4755859 C51.9515003,50.4755859 52.3730456,50.2807637 52.6328125,49.8911133 C52.8925794,49.5014629 53.0224609,48.8554733 53.0224609,47.953125 L53.0224609,44.3574219 L55.1074219,44.3574219 L55.1074219,52 L53.5078125,52 Z M62.6269531,49.7304688 C62.6269531,50.5143268 62.3546577,51.1113261 61.8100586,51.5214844 C61.2654595,51.9316427 60.4508518,52.1367188 59.3662109,52.1367188 C58.8102186,52.1367188 58.336265,52.0991215 57.9443359,52.0239258 C57.5524069,51.9487301 57.1855486,51.8382169 56.84375,51.6923828 L56.84375,49.9697266 C57.2311217,50.1520191 57.667478,50.3046869 58.152832,50.4277344 C58.638186,50.5507819 59.0654278,50.6123047 59.4345703,50.6123047 C60.1910845,50.6123047 60.5693359,50.3935569 60.5693359,49.9560547 C60.5693359,49.7919914 60.5192062,49.6586919 60.4189453,49.5561523 C60.3186844,49.4536128 60.145509,49.337403 59.8994141,49.2075195 C59.6533191,49.0776361 59.3251974,48.9261076 58.9150391,48.7529297 C58.3271455,48.5068347 57.8953464,48.2789724 57.6196289,48.0693359 C57.3439114,47.8596995 57.1433926,47.6193047 57.0180664,47.3481445 C56.8927403,47.0769843 56.8300781,46.743166 56.8300781,46.3466797 C56.8300781,45.6676398 57.0932591,45.1424172 57.6196289,44.7709961 C58.1459987,44.399575 58.8922478,44.2138672 59.8583984,44.2138672 C60.778976,44.2138672 61.6744748,44.414386 62.5449219,44.8154297 L61.9160156,46.3193359 C61.5332012,46.1552726 61.1754574,46.0208339 60.8427734,45.9160156 C60.5100895,45.8111974 60.1705746,45.7587891 59.8242188,45.7587891 C59.2089813,45.7587891 58.9013672,45.9251285 58.9013672,46.2578125 C58.9013672,46.4446624 59.0004873,46.6064446 59.1987305,46.7431641 C59.3969736,46.8798835 59.8310513,47.0826809 60.5009766,47.3515625 C61.0979848,47.5931002 61.5354804,47.8186838 61.8134766,48.0283203 C62.0914727,48.2379568 62.2965488,48.4794908 62.4287109,48.7529297 C62.5608731,49.0263686 62.6269531,49.3522117 62.6269531,49.7304688 Z M69.6679688,52 L69.3876953,51.0224609 L69.2783203,51.0224609 C69.0550119,51.3779315 68.7382833,51.6525055 68.328125,51.8461914 C67.9179667,52.0398773 67.450849,52.1367188 66.9267578,52.1367188 C66.0289669,52.1367188 65.3522158,51.896324 64.8964844,51.4155273 C64.4407529,50.9347307 64.2128906,50.2431686 64.2128906,49.3408203 L64.2128906,44.3574219 L66.2978516,44.3574219 L66.2978516,48.8212891 C66.2978516,49.3727241 66.3958324,49.7862942 66.5917969,50.0620117 C66.7877614,50.3377292 67.0999328,50.4755859 67.5283203,50.4755859 C68.1116566,50.4755859 68.5332018,50.2807637 68.7929688,49.8911133 C69.0527357,49.5014629 69.1826172,48.8554733 69.1826172,47.953125 L69.1826172,44.3574219 L71.2675781,44.3574219 L71.2675781,52 L69.6679688,52 Z M78.3085938,52 L77.9052734,50.9609375 L77.8505859,50.9609375 C77.4996727,51.402997 77.138511,51.7094718 76.7670898,51.8803711 C76.3956687,52.0512704 75.9114613,52.1367188 75.3144531,52.1367188 C74.5807255,52.1367188 74.0030946,51.9270854 73.581543,51.5078125 C73.1599914,51.0885396 72.9492188,50.4915403 72.9492188,49.7167969 C72.9492188,48.9055949 73.2329073,48.3074564 73.800293,47.9223633 C74.3676786,47.5372702 75.2233016,47.324219 76.3671875,47.2832031 L77.6933594,47.2421875 L77.6933594,46.9072266 C77.6933594,46.1324831 77.296879,45.7451172 76.5039062,45.7451172 C75.8932261,45.7451172 75.1754599,45.9296857 74.3505859,46.2988281 L73.6601562,44.890625 C74.5397179,44.4303362 75.5149686,44.2001953 76.5859375,44.2001953 C77.6113333,44.2001953 78.3974582,44.4235004 78.9443359,44.8701172 C79.4912137,45.316734 79.7646484,45.9957637 79.7646484,46.9072266 L79.7646484,52 L78.3085938,52 Z M77.6933594,48.4589844 L76.8867188,48.4863281 C76.2805959,48.5045574 75.8294286,48.6139313 75.5332031,48.8144531 C75.2369777,49.014975 75.0888672,49.3203104 75.0888672,49.7304688 C75.0888672,50.3183623 75.4261034,50.6123047 76.1005859,50.6123047 C76.5836613,50.6123047 76.9698879,50.4733087 77.2592773,50.1953125 C77.5486668,49.9173163 77.6933594,49.5481794 77.6933594,49.0878906 L77.6933594,48.4589844 Z M86.1767578,44.2138672 C86.4593113,44.2138672 86.6940095,44.2343748 86.8808594,44.2753906 L86.7236328,46.2304688 C86.5550122,46.1848956 86.3499361,46.1621094 86.1083984,46.1621094 C85.4430305,46.1621094 84.9246438,46.3330061 84.5532227,46.6748047 C84.1818015,47.0166033 83.9960938,47.4951141 83.9960938,48.1103516 L83.9960938,52 L81.9111328,52 L81.9111328,44.3574219 L83.4902344,44.3574219 L83.7978516,45.6425781 L83.9003906,45.6425781 C84.137371,45.2141906 84.4575175,44.8689792 84.8608398,44.6069336 C85.2641622,44.344888 85.7027971,44.2138672 86.1767578,44.2138672 Z M88.1796875,42.3818359 C88.1796875,41.7027961 88.5579389,41.3632812 89.3144531,41.3632812 C90.0709673,41.3632812 90.4492188,41.7027961 90.4492188,42.3818359 C90.4492188,42.7054053 90.3546559,42.9571931 90.1655273,43.137207 C89.9763988,43.317221 89.6927102,43.4072266 89.3144531,43.4072266 C88.5579389,43.4072266 88.1796875,43.0654331 88.1796875,42.3818359 Z M90.3535156,52 L88.2685547,52 L88.2685547,44.3574219 L90.3535156,44.3574219 L90.3535156,52 Z M94.2021484,48.1650391 C94.2021484,48.9215533 94.3263334,49.4934876 94.574707,49.8808594 C94.8230807,50.2682311 95.2275363,50.4619141 95.7880859,50.4619141 C96.3440783,50.4619141 96.7439766,50.2693704 96.987793,49.8842773 C97.2316093,49.4991843 97.3535156,48.9261106 97.3535156,48.1650391 C97.3535156,47.4085249 97.23047,46.8411477 96.984375,46.4628906 C96.73828,46.0846335 96.3349637,45.8955078 95.7744141,45.8955078 C95.2184217,45.8955078 94.817384,46.0834942 94.5712891,46.4594727 C94.3251941,46.8354511 94.2021484,47.4039675 94.2021484,48.1650391 Z M99.4863281,48.1650391 C99.4863281,49.4091859 99.1582064,50.3821579 98.5019531,51.0839844 C97.8456998,51.7858108 96.931972,52.1367188 95.7607422,52.1367188 C95.0270146,52.1367188 94.3798856,51.9760758 93.8193359,51.6547852 C93.2587863,51.3334945 92.8281265,50.8720733 92.5273438,50.2705078 C92.226561,49.6689423 92.0761719,48.9671264 92.0761719,48.1650391 C92.0761719,46.9163349 92.402015,45.9456415 93.0537109,45.2529297 C93.7054069,44.5602179 94.6214134,44.2138672 95.8017578,44.2138672 C96.5354854,44.2138672 97.1826144,44.3733708 97.7431641,44.6923828 C98.3037137,45.0113948 98.7343735,45.4693981 99.0351562,46.0664062 C99.335939,46.6634144 99.4863281,47.3629517 99.4863281,48.1650391 Z" id="usuario" fill="#EE4135"></path>
                <rect id="Rectangle" fill="#FFFFFF" x="43" y="69" width="110" height="20"></rect>
                <rect id="Rectangle" fill="#EC0000" x="86" y="98" width="67" height="20"></rect>
                <g id="Group-13" transform="translate(49.000000, 75.000000)" fill="#EC0000">
                    <circle id="Oval-5" cx="4.5" cy="4.5" r="4.5"></circle>
                    <circle id="Oval-5" cx="16.5" cy="4.5" r="4.5"></circle>
                    <circle id="Oval-5" cx="29.5" cy="4.5" r="4.5"></circle>
                    <circle id="Oval-5" cx="41.5" cy="4.5" r="4.5"></circle>
                    <circle id="Oval-5" cx="54.5" cy="4.5" r="4.5"></circle>
                    <circle id="Oval-5" cx="66.5" cy="4.5" r="4.5"></circle>
                </g>
                <path d="M101.538574,105.697266 C101.096515,105.697266 100.750164,105.837401 100.499512,106.117676 C100.248859,106.397951 100.105306,106.79557 100.068848,107.310547 L102.994629,107.310547 C102.985514,106.79557 102.851076,106.397951 102.591309,106.117676 C102.331542,105.837401 101.980634,105.697266 101.538574,105.697266 Z M101.83252,112.136719 C100.602045,112.136719 99.6404657,111.797204 98.9477539,111.118164 C98.2550421,110.439124 97.9086914,109.477545 97.9086914,108.233398 C97.9086914,106.952793 98.2288379,105.962731 98.8691406,105.263184 C99.5094433,104.563636 100.394688,104.213867 101.524902,104.213867 C102.604986,104.213867 103.445798,104.521481 104.047363,105.136719 C104.648929,105.751956 104.949707,106.601883 104.949707,107.686523 L104.949707,108.698242 L100.020996,108.698242 C100.043783,109.290693 100.219237,109.753254 100.547363,110.085938 C100.87549,110.418621 101.335772,110.584961 101.928223,110.584961 C102.388511,110.584961 102.823728,110.53711 103.233887,110.441406 C103.644045,110.345703 104.072426,110.193035 104.519043,109.983398 L104.519043,111.59668 C104.154458,111.778972 103.764813,111.91455 103.350098,112.003418 C102.935382,112.092286 102.429528,112.136719 101.83252,112.136719 Z M113.699707,112 L111.614746,112 L111.614746,107.536133 C111.614746,106.984698 111.516765,106.571128 111.320801,106.29541 C111.124836,106.019693 110.812665,105.881836 110.384277,105.881836 C109.800941,105.881836 109.379396,106.076658 109.119629,106.466309 C108.859862,106.855959 108.72998,107.501949 108.72998,108.404297 L108.72998,112 L106.64502,112 L106.64502,104.357422 L108.237793,104.357422 L108.518066,105.334961 L108.634277,105.334961 C108.8667,104.965818 109.186847,104.686687 109.594727,104.497559 C110.002606,104.30843 110.466306,104.213867 110.98584,104.213867 C111.874516,104.213867 112.548989,104.454262 113.009277,104.935059 C113.469566,105.415855 113.699707,106.109696 113.699707,107.016602 L113.699707,112 Z M119.065918,110.475586 C119.430503,110.475586 119.867999,110.395834 120.378418,110.236328 L120.378418,111.788086 C119.858884,112.020509 119.22087,112.136719 118.464355,112.136719 C117.630367,112.136719 117.023114,111.925946 116.642578,111.504395 C116.262042,111.082843 116.071777,110.450525 116.071777,109.607422 L116.071777,105.922852 L115.07373,105.922852 L115.07373,105.041016 L116.222168,104.34375 L116.82373,102.730469 L118.156738,102.730469 L118.156738,104.357422 L120.296387,104.357422 L120.296387,105.922852 L118.156738,105.922852 L118.156738,109.607422 C118.156738,109.903647 118.239908,110.122395 118.40625,110.263672 C118.572592,110.404949 118.792479,110.475586 119.065918,110.475586 Z M126.188965,104.213867 C126.471518,104.213867 126.706217,104.234375 126.893066,104.275391 L126.73584,106.230469 C126.567219,106.184896 126.362143,106.162109 126.120605,106.162109 C125.455238,106.162109 124.936851,106.333006 124.56543,106.674805 C124.194009,107.016603 124.008301,107.495114 124.008301,108.110352 L124.008301,112 L121.92334,112 L121.92334,104.357422 L123.502441,104.357422 L123.810059,105.642578 L123.912598,105.642578 C124.149578,105.214191 124.469725,104.868979 124.873047,104.606934 C125.276369,104.344888 125.715004,104.213867 126.188965,104.213867 Z M132.854004,112 L132.450684,110.960938 L132.395996,110.960938 C132.045083,111.402997 131.683921,111.709472 131.3125,111.880371 C130.941079,112.05127 130.456871,112.136719 129.859863,112.136719 C129.126136,112.136719 128.548505,111.927085 128.126953,111.507812 C127.705402,111.08854 127.494629,110.49154 127.494629,109.716797 C127.494629,108.905595 127.778317,108.307456 128.345703,107.922363 C128.913089,107.53727 129.768712,107.324219 130.912598,107.283203 L132.23877,107.242188 L132.23877,106.907227 C132.23877,106.132483 131.842289,105.745117 131.049316,105.745117 C130.438636,105.745117 129.72087,105.929686 128.895996,106.298828 L128.205566,104.890625 C129.085128,104.430336 130.060379,104.200195 131.131348,104.200195 C132.156743,104.200195 132.942868,104.4235 133.489746,104.870117 C134.036624,105.316734 134.310059,105.995764 134.310059,106.907227 L134.310059,112 L132.854004,112 Z M132.23877,108.458984 L131.432129,108.486328 C130.826006,108.504557 130.374839,108.613931 130.078613,108.814453 C129.782388,109.014975 129.634277,109.32031 129.634277,109.730469 C129.634277,110.318362 129.971514,110.612305 130.645996,110.612305 C131.129071,110.612305 131.515298,110.473309 131.804688,110.195312 C132.094077,109.917316 132.23877,109.548179 132.23877,109.087891 L132.23877,108.458984 Z M140.722168,104.213867 C141.004721,104.213867 141.23942,104.234375 141.42627,104.275391 L141.269043,106.230469 C141.100422,106.184896 140.895346,106.162109 140.653809,106.162109 C139.988441,106.162109 139.470054,106.333006 139.098633,106.674805 C138.727212,107.016603 138.541504,107.495114 138.541504,108.110352 L138.541504,112 L136.456543,112 L136.456543,104.357422 L138.035645,104.357422 L138.343262,105.642578 L138.445801,105.642578 C138.682781,105.214191 139.002928,104.868979 139.40625,104.606934 C139.809572,104.344888 140.248207,104.213867 140.722168,104.213867 Z" id="entrar" fill="#FFFFFF"></path>
            </g>
        </g>
    </g>
</svg>