<?xml version="1.0" encoding="utf-8"?>
<!-- Generator: Adobe Illustrator 16.0.0, SVG Export Plug-In . SVG Version: 6.00 Build 0)  -->
<!DOCTYPE svg PUBLIC "-//W3C//DTD SVG 1.1//EN" "http://www.w3.org/Graphics/SVG/1.1/DTD/svg11.dtd">
<svg version="1.1" id="Layer_1" xmlns="http://www.w3.org/2000/svg" xmlns:xlink="http://www.w3.org/1999/xlink" x="0px" y="0px"
	 width="128px" height="33px" viewBox="0 0 128 33" enable-background="new 0 0 128 33" xml:space="preserve">
<title>1°LUGAR</title>
<desc>Created with Sketch.</desc>
<path fill="#EE4135" d="M13.48,27.439V0.8H9.064v0.528c-0.288,3.6-2.976,6.336-6.288,6.336h-1.2v4.848h1.2
	c1.68,0,3.504-0.72,4.416-1.68h1.44v16.607h-7.68V32H20.92v-4.561H13.48z"/>
<path fill="#EE4135" d="M39.688,12.944c-3.744,0-6.48-2.736-6.48-6.384c0-3.6,2.736-6.336,6.48-6.336
	c3.696,0,6.432,2.736,6.432,6.336C46.12,10.208,43.384,12.944,39.688,12.944z"/>
<path fill="#FFFFFF" d="M39.688,9.824c1.776,0,3.072-1.344,3.072-3.264c0-1.776-1.296-3.264-3.072-3.264s-3.072,1.488-3.072,3.264
	C36.616,8.48,37.912,9.824,39.688,9.824z"/>
<polygon points="59.32,29.768 59.32,16.4 56.92,16.4 56.92,32 67.12,32 67.12,29.768 "/>
<path d="M71.439,26.432c0,3.576,2.185,5.929,5.424,5.929c3.217,0,5.377-2.353,5.377-5.929V16.4h-2.448v9.984
	c0,2.16-1.176,3.552-2.929,3.552c-1.752,0-2.928-1.392-2.928-3.552V16.4h-2.496V26.432z"/>
<path d="M91.864,24.439v2.017h3.239v0.192c0,2.16-1.392,3.384-3.408,3.384c-2.184,0-3.6-2.04-3.6-5.784
	c0-3.408,1.561-5.855,3.696-5.855c2.088,0,2.929,1.367,3.072,3.672h2.448c-0.049-3.553-1.969-6.024-5.377-6.024
	c-3.672,0-6.336,3.456-6.336,8.208s2.521,8.112,5.952,8.112c1.152,0,2.521-0.433,3.192-1.488H95.2V32h2.088v-7.561H91.864z"/>
<polygon points="110.536,32 109.408,27.968 103.672,27.968 102.544,32 100.145,32 104.8,16.4 108.232,16.4 113.057,32 "/>
<polygon fill="#FFFFFF" points="104.271,25.809 108.809,25.809 106.889,18.848 106.191,18.848 "/>
<path d="M125.008,32l-4.08-6.36h-2.52V32h-2.328V16.4h6.072c2.736,0,4.8,2.04,4.8,4.728c0,2.088-1.368,3.769-3.336,4.32L127.912,32
	H125.008z"/>
<path fill="#FFFFFF" d="M118.923,19v4.944h3.744c1.344,0,2.375-1.057,2.375-2.448c0-1.319-1.031-2.399-2.375-2.496H118.923z"/>
</svg>
