<?xml version="1.0" encoding="UTF-8"?>
<svg width="200px" height="140px" viewBox="0 0 200 140" version="1.1" xmlns="http://www.w3.org/2000/svg" xmlns:xlink="http://www.w3.org/1999/xlink">
    <!-- Generator: Sketch 47.1 (45422) - http://www.bohemiancoding.com/sketch -->
    <title>Group 19</title>
    <desc>Created with Sketch.</desc>
    <defs></defs>
    <g id="Page-1" stroke="none" stroke-width="1" fill="none" fill-rule="evenodd">
        <g id="Convocatoria-ajustes" transform="translate(-463.000000, -9693.000000)">
            <g id="Group-19" transform="translate(463.000000, 9693.000000)">
                <g id="Group-6">
                    <g id="Group-Copy-4">
                        <rect id="Rectangle-3" fill="#FFFFFF" x="0" y="1.03703704" width="200" height="138.962963" rx="8"></rect>
                        <path d="M8,0 L192,0 L192,-8.8817842e-16 C196.418278,-1.69980292e-15 200,3.581722 200,8 L200,18.6666667 L0,18.6666667 L0,8 L-8.8817842e-16,8 C-1.42926142e-15,3.581722 3.581722,-7.65539184e-17 8,-8.8817842e-16 Z" id="Rectangle-4" fill="#BA251C"></path>
                        <ellipse id="Oval" fill="#EBEBEB" cx="12" cy="9.33333333" rx="3" ry="3.11111111"></ellipse>
                        <ellipse id="Oval-Copy" fill="#EBEBEB" cx="21" cy="9.33333333" rx="3" ry="3.11111111"></ellipse>
                        <ellipse id="Oval-Copy-2" fill="#EBEBEB" cx="30" cy="9.33333333" rx="3" ry="3.11111111"></ellipse>
                    </g>
                </g>
                <rect id="Rectangle-5" fill="#F4F4F4" x="113" y="43" width="69" height="20"></rect>
                <g id="Group-7" transform="translate(113.000000, 70.000000)">
                    <circle id="Oval-2" fill="#F4F4F4" cx="24" cy="24" r="24"></circle>
                    <g id="Group-4" transform="translate(16.000000, 18.000000)" stroke="#EE4135" stroke-width="4" stroke-linecap="round">
                        <path d="M0.238636364,7.28342246 L5.10588226,11.8643598" id="Line"></path>
                        <path d="M5.505,11.76 L17.4927125,0.477447097" id="Line-9"></path>
                    </g>
                </g>
                <rect id="Rectangle-2" fill="#F4F4F4" x="10" y="43" width="92" height="75"></rect>
            </g>
        </g>
    </g>
</svg>