<?xml version="1.0" encoding="UTF-8"?>
<svg width="200px" height="140px" viewBox="0 0 200 140" version="1.1" xmlns="http://www.w3.org/2000/svg" xmlns:xlink="http://www.w3.org/1999/xlink">
    <!-- Generator: Sketch 47.1 (45422) - http://www.bohemiancoding.com/sketch -->
    <title>Group 16</title>
    <desc>Created with Sketch.</desc>
    <defs>
        <polygon id="path-1" points="90 30 90 0 0 0 0 30 0 60 90 60"></polygon>
    </defs>
    <g id="Page-1" stroke="none" stroke-width="1" fill="none" fill-rule="evenodd">
        <g id="Convocatoria-ajustes" transform="translate(-464.000000, -8275.000000)">
            <g id="Group-16" transform="translate(464.000000, 8275.000000)">
                <g id="Group-6">
                    <g id="Group-Copy-4">
                        <rect id="Rectangle-3" fill="#FFFFFF" x="0" y="1.03703704" width="200" height="138.962963" rx="8"></rect>
                        <path d="M8,0 L192,0 L192,-8.8817842e-16 C196.418278,-1.69980292e-15 200,3.581722 200,8 L200,18.6666667 L0,18.6666667 L0,8 L-8.8817842e-16,8 C-1.42926142e-15,3.581722 3.581722,-7.65539184e-17 8,-8.8817842e-16 Z" id="Rectangle-4" fill="#BA251C"></path>
                        <ellipse id="Oval" fill="#EBEBEB" cx="12" cy="9.33333333" rx="3" ry="3.11111111"></ellipse>
                        <ellipse id="Oval-Copy" fill="#EBEBEB" cx="21" cy="9.33333333" rx="3" ry="3.11111111"></ellipse>
                        <ellipse id="Oval-Copy-2" fill="#EBEBEB" cx="30" cy="9.33333333" rx="3" ry="3.11111111"></ellipse>
                    </g>
                </g>
                <rect id="Rectangle" fill="#F4F4F4" x="9" y="30" width="178" height="101"></rect>
                <g id="Page-1" transform="translate(57.000000, 52.000000)">
                    <mask id="mask-2" fill="white">
                        <use xlink:href="#path-1"></use>
                    </mask>
                    <g id="Clip-2"></g>
                    <path d="M78.7744254,16.8615385 L50.6374934,16.8615385 L50.6374934,11.2581818 L78.7755484,11.2581818 L78.7755484,16.8615385 L78.7744254,16.8615385 Z M78.7744254,28.0738462 L50.6374934,28.0738462 L50.6374934,22.4704895 L78.7755484,22.4704895 L78.7755484,28.0738462 L78.7744254,28.0738462 Z M67.5028075,48.7899301 L78.7744254,48.7899301 L78.7744254,43.1843357 L67.5028075,43.1843357 L67.5028075,48.7899301 Z M50.6374934,48.7899301 L61.9091113,48.7899301 L61.9091113,43.1843357 L50.6374934,43.1843357 L50.6374934,48.7899301 Z M11.2603878,48.7899301 C11.2603878,39.5188811 18.8294527,31.9753846 28.1324399,31.9753846 C37.4343041,31.9753846 45.005615,39.5188811 45.006738,48.7899301 L11.2603878,48.7899301 Z M28.1324399,10.5622378 C33.4442614,10.5622378 37.7667141,14.8699301 37.7667141,20.1611189 C37.7667141,25.4534266 33.4442614,29.76 28.1324399,29.76 C22.8206184,29.76 18.4970427,25.4545455 18.4970427,20.1611189 C18.4970427,14.8699301 22.8194954,10.5622378 28.1324399,10.5622378 L28.1324399,10.5622378 Z M84.3759826,0 L5.62514038,0.00111888112 C2.53013401,0.00111888112 0,2.52307692 0,5.60447552 L0.00224601333,54.3955245 C0.00224601333,57.478042 2.53350303,60 5.62738639,60 L84.3759826,60 C87.468743,60 90,57.478042 90,54.3955245 L90,5.60335664 C90,2.52195804 87.468743,0 84.3759826,0 L84.3759826,0 Z" id="Fill-1" fill="#EC0000" mask="url(#mask-2)"></path>
                </g>
            </g>
        </g>
    </g>
</svg>