<?xml version="1.0" encoding="UTF-8"?>
<svg width="200px" height="140px" viewBox="0 0 200 140" version="1.1" xmlns="http://www.w3.org/2000/svg" xmlns:xlink="http://www.w3.org/1999/xlink">
    <!-- Generator: Sketch 47.1 (45422) - http://www.bohemiancoding.com/sketch -->
    <title>Group 17</title>
    <desc>Created with Sketch.</desc>
    <defs>
        <polygon id="path-1" points="0.2278 0.791 10.3328 0.791 10.3328 10.8945 0.2278 10.8945"></polygon>
        <polygon id="path-3" points="0.6126 0.791 10.7166 0.791 10.7166 10.8945 0.6126 10.8945 0.6126 0.791"></polygon>
        <polygon id="path-5" points="0.9197 0.791 11.0247 0.791 11.0247 10.8945 0.9197 10.8945 0.9197 0.791"></polygon>
        <polygon id="path-7" points="0.074 0.791 10.18 0.791 10.18 10.8945 0.074 10.8945 0.074 0.791"></polygon>
        <polygon id="path-9" points="25.2537003 40 0.6927 40 0.6927 0.0902999898 25.2537003 0.0902999898 25.2537003 40"></polygon>
        <polygon id="path-11" points="0.7648 0.791 10.8718 0.791 10.8718 10.8945 0.7648 10.8945"></polygon>
        <polygon id="path-13" points="24.5595 40 0 40 0 0.0914955416 24.5595 0.0914955416"></polygon>
        <polygon id="path-15" points="0.3843 40 24.945 40 24.945 0.0914955416 0.3843 0.0914955416 0.3843 40"></polygon>
    </defs>
    <g id="Page-1" stroke="none" stroke-width="1" fill="none" fill-rule="evenodd">
        <g id="Convocatoria-ajustes" transform="translate(-463.000000, -9276.000000)">
            <g id="Group-17" transform="translate(463.000000, 9276.000000)">
                <g id="Group-6">
                    <g id="Group-Copy-4">
                        <rect id="Rectangle-3" fill="#FFFFFF" x="0" y="1.03703704" width="200" height="138.962963" rx="8"></rect>
                        <path d="M8,0 L192,0 L192,-8.8817842e-16 C196.418278,-1.69980292e-15 200,3.581722 200,8 L200,18.6666667 L0,18.6666667 L0,8 L-8.8817842e-16,8 C-1.42926142e-15,3.581722 3.581722,-7.65539184e-17 8,-8.8817842e-16 Z" id="Rectangle-4" fill="#BA251C"></path>
                        <ellipse id="Oval" fill="#EBEBEB" cx="12" cy="9.33333333" rx="3" ry="3.11111111"></ellipse>
                        <ellipse id="Oval-Copy" fill="#EBEBEB" cx="21" cy="9.33333333" rx="3" ry="3.11111111"></ellipse>
                        <ellipse id="Oval-Copy-2" fill="#EBEBEB" cx="30" cy="9.33333333" rx="3" ry="3.11111111"></ellipse>
                    </g>
                </g>
                <rect id="Rectangle-5" fill="#F4F4F4" x="108" y="63" width="69" height="8"></rect>
                <rect id="Rectangle-5" fill="#F4F4F4" x="108" y="50" width="69" height="8"></rect>
                <rect id="Rectangle-5" fill="#F4F4F4" x="108" y="75" width="69" height="8"></rect>
                <rect id="Rectangle-5" fill="#F4F4F4" x="108" y="87" width="69" height="8"></rect>
                <rect id="Rectangle-5" fill="#F4F4F4" x="108" y="99" width="69" height="8"></rect>
                <g id="Page-1" transform="translate(16.000000, 53.000000)">
                    <g id="Group-3" transform="translate(7.000000, 0.209500)">
                        <mask id="mask-2" fill="white">
                            <use xlink:href="#path-1"></use>
                        </mask>
                        <g id="Clip-2"></g>
                        <path d="M5.2808,0.7905 C2.4958,0.7905 0.2278,3.0575 0.2278,5.8405 C0.2278,8.6265 2.4958,10.8945 5.2808,10.8945 C8.0658,10.8945 10.3328,8.6265 10.3328,5.8405 C10.3328,3.0565 8.0658,0.7905 5.2808,0.7905" id="Fill-1" fill="#EC0000" mask="url(#mask-2)"></path>
                    </g>
                    <g id="Group-6" transform="translate(62.000000, 0.209500)">
                        <mask id="mask-4" fill="white">
                            <use xlink:href="#path-3"></use>
                        </mask>
                        <g id="Clip-5"></g>
                        <path d="M0.6126,5.8405 C0.6126,8.6265 2.8806,10.8945 5.6646,10.8945 C8.4496,10.8945 10.7166,8.6265 10.7166,5.8405 C10.7166,3.0565 8.4496,0.7905 5.6646,0.7905 C2.8806,0.7905 0.6126,3.0575 0.6126,5.8405 Z" id="Fill-4" fill="#EC0000" mask="url(#mask-4)"></path>
                    </g>
                    <g id="Group-9" transform="translate(34.000000, 0.209500)">
                        <mask id="mask-6" fill="white">
                            <use xlink:href="#path-5"></use>
                        </mask>
                        <g id="Clip-8"></g>
                        <path d="M5.9727,0.7905 C3.1877,0.7905 0.9197,3.0575 0.9197,5.8405 C0.9197,8.6265 3.1877,10.8945 5.9727,10.8945 C8.7597,10.8945 11.0247,8.6265 11.0247,5.8405 C11.0247,3.0565 8.7597,0.7905 5.9727,0.7905" id="Fill-7" fill="#EC0000" mask="url(#mask-6)"></path>
                    </g>
                    <g id="Group-12" transform="translate(21.000000, 0.209500)">
                        <mask id="mask-8" fill="white">
                            <use xlink:href="#path-7"></use>
                        </mask>
                        <g id="Clip-11"></g>
                        <path d="M5.127,0.7905 C2.342,0.7905 0.074,3.0575 0.074,5.8405 C0.074,8.6265 2.342,10.8945 5.127,10.8945 C7.914,10.8945 10.18,8.6265 10.18,5.8405 C10.179,3.0565 7.914,0.7905 5.127,0.7905" id="Fill-10" fill="#EC0000" mask="url(#mask-8)"></path>
                    </g>
                    <g id="Group-15" transform="translate(27.000000, 13.209500)">
                        <mask id="mask-10" fill="white">
                            <use xlink:href="#path-9"></use>
                        </mask>
                        <g id="Clip-14"></g>
                        <path d="M12.9727,0.0903 C9.8707,0.0903 0.6927,0.0843 0.6927,9.2973 L0.6927,18.4453 L3.7787,18.4453 L3.7787,7.6903 C3.7787,6.8423 4.4667,6.1553 5.3137,6.1553 C6.1637,6.1553 6.8487,6.8433 6.8487,7.6903 L6.8487,16.7833 L6.8487,18.5973 L6.8487,40.0003 L11.4377,40.0003 L11.4377,23.1233 C11.4377,22.2723 12.1267,21.5863 12.9727,21.5863 C13.8197,21.5863 14.5077,22.2743 14.5077,23.1233 L14.5077,40.0003 L19.0777,40.0003 L19.0777,18.5973 L19.0777,16.7833 L19.0777,7.6903 C19.0777,6.8423 19.7647,6.1553 20.6127,6.1553 C21.4647,6.1553 22.1497,6.8433 22.1497,7.6903 L22.1497,18.4463 L25.2537,18.4463 L25.2537,9.2983 C25.2557,0.1233 16.0737,0.0903 12.9727,0.0903" id="Fill-13" fill="#EC0000" mask="url(#mask-10)"></path>
                    </g>
                    <g id="Group-18" transform="translate(48.000000, 0.209500)">
                        <mask id="mask-12" fill="white">
                            <use xlink:href="#path-11"></use>
                        </mask>
                        <g id="Clip-17"></g>
                        <path d="M5.8188,0.7905 C3.0338,0.7905 0.7648,3.0575 0.7648,5.8405 C0.7648,8.6265 3.0338,10.8945 5.8188,10.8945 C8.6058,10.8945 10.8718,8.6265 10.8718,5.8405 C10.8718,3.0565 8.6058,0.7905 5.8188,0.7905" id="Fill-16" fill="#EC0000" mask="url(#mask-12)"></path>
                    </g>
                    <g id="Group-21" transform="translate(0.000000, 13.209500)">
                        <mask id="mask-14" fill="white">
                            <use xlink:href="#path-13"></use>
                        </mask>
                        <g id="Clip-20"></g>
                        <path d="M15.7065,7.6885 C15.4835,6.8675 15.9355,6.1555 16.7845,6.1555 C17.6315,6.1555 18.1015,6.8215 18.3195,7.6885 L21.4735,18.4465 L24.5595,18.4475 L21.8665,9.2985 C19.1375,0.0455 14.1015,0.0915 12.2805,0.0915 L12.2795,0.0915 C10.4595,0.0915 5.4255,0.0455 2.6965,9.2985 L-0.0005,18.4465 L3.0875,18.4465 L6.2425,7.6885 C6.4605,6.8215 6.9295,6.1555 7.7755,6.1555 C8.6255,6.1555 9.0775,6.8675 8.8535,7.6885 L2.6785,28.5105 L2.6935,28.5105 L2.6785,28.5635 L7.1005,28.5635 L8.1795,40.0005 L11.4205,40.0005 L10.9655,28.5635 L13.5995,28.5635 L13.1425,40.0005 L16.3635,40.0005 L17.4455,28.5635 L21.8845,28.5635 L21.8455,28.4295 L21.8845,28.5105 L15.7065,7.6885 Z" id="Fill-19" fill="#EC0000" mask="url(#mask-14)"></path>
                    </g>
                    <g id="Group-24" transform="translate(55.000000, 13.209500)">
                        <mask id="mask-16" fill="white">
                            <use xlink:href="#path-15"></use>
                        </mask>
                        <g id="Clip-23"></g>
                        <path d="M16.0913,7.6885 C15.8683,6.8675 16.3203,6.1555 17.1693,6.1555 C18.0173,6.1555 18.4873,6.8215 18.7043,7.6885 L21.8593,18.4465 L24.9453,18.4475 L22.2513,9.2985 C19.5233,0.0455 14.4873,0.0915 12.6653,0.0915 C10.8453,0.0915 5.8103,0.0455 3.0813,9.2985 L0.3843,18.4465 L3.4723,18.4465 L6.6283,7.6885 C6.8453,6.8215 7.3163,6.1555 8.1603,6.1555 C9.0113,6.1555 9.4623,6.8675 9.2383,7.6885 L3.6673,26.4725 L3.0643,28.5105 L7.4863,28.5635 L8.5653,40.0005 L11.8063,40.0005 L11.3493,28.5635 L13.9843,28.5635 L13.5273,40.0005 L16.7473,40.0005 L17.8293,28.5615 L22.2693,28.5615 L22.2303,28.4275 L16.0913,7.6885 Z" id="Fill-22" fill="#EC0000" mask="url(#mask-16)"></path>
                    </g>
                </g>
            </g>
        </g>
    </g>
</svg>