<?xml version="1.0" encoding="UTF-8"?>
<svg width="213px" height="341px" viewBox="0 0 213 341" version="1.1" xmlns="http://www.w3.org/2000/svg" xmlns:xlink="http://www.w3.org/1999/xlink">
    <!-- Generator: Sketch 47.1 (45422) - http://www.bohemiancoding.com/sketch -->
    <title>3</title>
    <desc>Created with Sketch.</desc>
    <defs></defs>
    <g id="Page-1" stroke="none" stroke-width="1" fill="none" fill-rule="evenodd">
        <g id="Convocatoria-2" transform="translate(-164.000000, -9603.000000)" fill="#FFFFFF">
            <path d="M211.5,9843.5 L164,9856 C170.5,9906 212.5,9943.5 267.5,9943.5 C330,9943.5 377,9902 377,9847.5 C377,9811.5 357.5,9782 323,9770 L323,9761.5 C349,9754 368.5,9729 368.5,9697 C368.5,9642 326,9603.5 267.5,9603.5 C213,9603.5 171.5,9645.5 171.5,9706 L222.5,9706 C222.5,9673 241,9651.5 269,9651.5 C296,9651.5 316,9671.5 316,9697 C316,9728 295,9747.5 260.5,9747.5 L239,9747.5 L239,9792 L260.5,9792 C297.5,9792 324.5,9816 324.5,9847.5 C324.5,9874.5 300,9895.5 269,9895.5 C239.5,9895.5 218.5,9873 211.5,9843.5 Z" id="3"></path>
        </g>
    </g>
</svg>