<?xml version="1.0" encoding="UTF-8"?>
<svg width="199px" height="141px" viewBox="0 0 199 141" version="1.1" xmlns="http://www.w3.org/2000/svg" xmlns:xlink="http://www.w3.org/1999/xlink">
    <!-- Generator: Sketch 47.1 (45422) - http://www.bohemiancoding.com/sketch -->
    <title>Group 20</title>
    <desc>Created with Sketch.</desc>
    <defs>
        <polygon id="path-1" points="0.564571429 0.605714286 23.7165714 0.605714286 23.7165714 23.7563429 0.564571429 23.7563429"></polygon>
    </defs>
    <g id="Page-1" stroke="none" stroke-width="1" fill="none" fill-rule="evenodd">
        <g id="Convocatoria-ajustes" transform="translate(-464.000000, -11048.000000)">
            <g id="Group-20" transform="translate(464.000000, 11048.000000)">
                <g id="Group">
                    <g id="Group-Copy-21">
                        <rect id="Rectangle-3" fill="#FFFFFF" x="0" y="1" width="199" height="140" rx="8"></rect>
                        <path d="M8,0 L191,0 L191,0 C195.418278,-1.65085012e-14 199,3.581722 199,8 L199,19 L0,19 L0,8 L0,8 C-5.41083001e-16,3.581722 3.581722,8.11624501e-16 8,0 Z" id="Rectangle-4" fill="#BA251C"></path>
                        <circle id="Oval" fill="#EBEBEB" cx="12" cy="9" r="3"></circle>
                        <circle id="Oval-Copy" fill="#EBEBEB" cx="21" cy="9" r="3"></circle>
                        <circle id="Oval-Copy-2" fill="#EBEBEB" cx="30" cy="9" r="3"></circle>
                        <rect id="Rectangle-6-Copy-3" fill="#F4F4F4" x="15" y="39" width="171" height="81"></rect>
                    </g>
                </g>
                <g id="Page-1" transform="translate(70.000000, 46.000000)">
                    <g id="Group-3" transform="translate(16.000000, 0.000000)">
                        <mask id="mask-2" fill="white">
                            <use xlink:href="#path-1"></use>
                        </mask>
                        <g id="Clip-2"></g>
                        <path d="M12.1405714,0.605485714 C5.75657143,0.605485714 0.564571429,5.79748571 0.564571429,12.1826286 C0.564571429,18.5643429 5.75657143,23.7563429 12.1405714,23.7563429 C18.5222857,23.7563429 23.7165714,18.5643429 23.7165714,12.1826286 C23.7165714,5.79748571 18.5222857,0.605485714 12.1405714,0.605485714" id="Fill-1" fill="#EC0000" mask="url(#mask-2)"></path>
                    </g>
                    <path d="M27,27 C20.1806441,27 0,26.9910882 0,47.5651678 L0,68 L6.78865289,68 L6.78865289,43.9736992 C6.78865289,42.0832767 8.3007757,40.5448716 10.1615969,40.5448716 C12.0289973,40.5448716 13.5367339,42.0832767 13.5367339,43.9736992 L13.5367339,68 L40.4215977,68 L40.4215977,43.9736992 C40.4215977,42.0832767 41.9337205,40.5448716 43.7967348,40.5448716 C45.6630386,40.5448716 47.1740649,42.0832767 47.1740649,43.9736992 L47.1740649,68 L54,68 L54,47.5651678 C54,27.0746366 33.8171628,27 27,27" id="Fill-4" fill="#EC0000"></path>
                </g>
            </g>
        </g>
    </g>
</svg>