<?xml version="1.0" encoding="UTF-8"?>
<svg width="200px" height="141px" viewBox="0 0 200 141" version="1.1" xmlns="http://www.w3.org/2000/svg" xmlns:xlink="http://www.w3.org/1999/xlink">
    <!-- Generator: Sketch 47.1 (45422) - http://www.bohemiancoding.com/sketch -->
    <title>Group 22</title>
    <desc>Created with Sketch.</desc>
    <defs></defs>
    <g id="Page-1" stroke="none" stroke-width="1" fill="none" fill-rule="evenodd">
        <g id="Convocatoria-ajustes" transform="translate(-463.000000, -12852.000000)">
            <g id="Group-22" transform="translate(463.000000, 12852.000000)">
                <g id="Group-Copy-16">
                    <rect id="Rectangle-3" fill="#FFFFFF" x="0" y="1" width="200" height="140" rx="8"></rect>
                    <path d="M8,0 L192,0 L192,0 C196.418278,-8.11624501e-16 200,3.581722 200,8 L200,18 L0,18 L0,8 L0,8 C-5.41083001e-16,3.581722 3.581722,8.11624501e-16 8,0 Z" id="Rectangle-4" fill="#BA251C"></path>
                    <circle id="Oval" fill="#EBEBEB" cx="12" cy="9" r="3"></circle>
                    <circle id="Oval-Copy" fill="#EBEBEB" cx="21" cy="9" r="3"></circle>
                    <circle id="Oval-Copy-2" fill="#EBEBEB" cx="30" cy="9" r="3"></circle>
                    <rect id="Rectangle-5" fill="#F4F4F4" x="16" y="53" width="171" height="67"></rect>
                    <path d="M54.7167969,32.8222656 C54.0331997,32.8222656 53.5039081,33.079099 53.1289062,33.5927734 C52.7539044,34.1064479 52.5664062,34.822261 52.5664062,35.7402344 C52.5664062,37.6504002 53.283196,38.6054688 54.7167969,38.6054688 C55.3183624,38.6054688 56.0468707,38.4550796 56.9023438,38.1542969 L56.9023438,39.6777344 C56.1992152,39.9707046 55.4140668,40.1171875 54.546875,40.1171875 C53.300775,40.1171875 52.3476596,39.7392616 51.6875,38.9833984 C51.0273404,38.2275353 50.6972656,37.1425852 50.6972656,35.7285156 C50.6972656,34.8378862 50.8593734,34.0576205 51.1835938,33.3876953 C51.5078141,32.7177701 51.9736298,32.2041033 52.5810547,31.8466797 C53.1884796,31.489256 53.9003865,31.3105469 54.7167969,31.3105469 C55.5488323,31.3105469 56.3847614,31.5117167 57.2246094,31.9140625 L56.6386719,33.390625 C56.3183578,33.2382805 55.9960954,33.1054693 55.671875,32.9921875 C55.3476546,32.8789057 55.0292984,32.8222656 54.7167969,32.8222656 Z M65.6972656,31.4335938 L65.6972656,36.9765625 C65.6972656,37.6093782 65.5556655,38.1640601 65.2724609,38.640625 C64.9892564,39.1171899 64.5800808,39.4824206 64.0449219,39.7363281 C63.5097629,39.9902356 62.8769568,40.1171875 62.1464844,40.1171875 C61.0449164,40.1171875 60.1894562,39.8349638 59.5800781,39.2705078 C58.9707001,38.7060519 58.6660156,37.9335987 58.6660156,36.953125 L58.6660156,31.4335938 L60.4765625,31.4335938 L60.4765625,36.6777344 C60.4765625,37.3378939 60.6093737,37.8222641 60.875,38.1308594 C61.1406263,38.4394547 61.5800751,38.59375 62.1933594,38.59375 C62.7871123,38.59375 63.2177721,38.4384781 63.4853516,38.1279297 C63.752931,37.8173813 63.8867188,37.3300814 63.8867188,36.6660156 L63.8867188,31.4335938 L65.6972656,31.4335938 Z M69.6113281,35.2363281 L70.1972656,35.2363281 C70.7714872,35.2363281 71.1953111,35.140626 71.46875,34.9492188 C71.7421889,34.7578115 71.8789062,34.4570333 71.8789062,34.046875 C71.8789062,33.640623 71.7392592,33.3515634 71.4599609,33.1796875 C71.1806627,33.0078116 70.7480498,32.921875 70.1621094,32.921875 L69.6113281,32.921875 L69.6113281,35.2363281 Z M69.6113281,36.7128906 L69.6113281,40 L67.7949219,40 L67.7949219,31.4335938 L70.2910156,31.4335938 C71.4550839,31.4335938 72.3164035,31.6455057 72.875,32.0693359 C73.4335965,32.4931662 73.7128906,33.1367144 73.7128906,34 C73.7128906,34.5039088 73.5742201,34.9521465 73.296875,35.3447266 C73.0195299,35.7373067 72.6269557,36.0449208 72.1191406,36.2675781 C73.4082096,38.193369 74.2480449,39.4374972 74.6386719,40 L72.6230469,40 L70.578125,36.7128906 L69.6113281,36.7128906 Z M80.7734375,37.6210938 C80.7734375,38.3945351 80.49512,39.003904 79.9384766,39.4492188 C79.3818332,39.8945335 78.6074268,40.1171875 77.6152344,40.1171875 C76.7011673,40.1171875 75.8925816,39.9453142 75.1894531,39.6015625 L75.1894531,37.9140625 C75.767581,38.1718763 76.2568339,38.3535151 76.6572266,38.4589844 C77.0576192,38.5644537 77.4238265,38.6171875 77.7558594,38.6171875 C78.1542989,38.6171875 78.4599599,38.5410164 78.6728516,38.3886719 C78.8857433,38.2363274 78.9921875,38.0097671 78.9921875,37.7089844 C78.9921875,37.5410148 78.945313,37.3916022 78.8515625,37.2607422 C78.757812,37.1298822 78.6201181,37.0039069 78.4384766,36.8828125 C78.256835,36.7617181 77.8867215,36.5683607 77.328125,36.3027344 C76.8046849,36.0566394 76.4121107,35.8203136 76.1503906,35.59375 C75.8886706,35.3671864 75.6796883,35.1035171 75.5234375,34.8027344 C75.3671867,34.5019516 75.2890625,34.1503926 75.2890625,33.7480469 C75.2890625,32.9902306 75.5458959,32.3945334 76.0595703,31.9609375 C76.5732448,31.5273416 77.2831986,31.3105469 78.1894531,31.3105469 C78.6347679,31.3105469 79.0595683,31.3632807 79.4638672,31.46875 C79.8681661,31.5742193 80.2910134,31.7226553 80.7324219,31.9140625 L80.1464844,33.3261719 C79.6894508,33.1386709 79.3115249,33.0078129 79.0126953,32.9335938 C78.7138657,32.8593746 78.4199233,32.8222656 78.1308594,32.8222656 C77.7871077,32.8222656 77.5234384,32.9023429 77.3398438,33.0625 C77.1562491,33.2226571 77.0644531,33.4316393 77.0644531,33.6894531 C77.0644531,33.8496102 77.1015621,33.9892572 77.1757812,34.1083984 C77.2500004,34.2275397 77.3681633,34.3427729 77.5302734,34.4541016 C77.6923836,34.5654302 78.0761688,34.7656236 78.6816406,35.0546875 C79.4824259,35.4375019 80.0312485,35.8212871 80.328125,36.2060547 C80.6250015,36.5908222 80.7734375,37.0624972 80.7734375,37.6210938 Z M90.1015625,35.7050781 C90.1015625,37.123054 89.7500035,38.2128868 89.046875,38.9746094 C88.3437465,39.7363319 87.3359441,40.1171875 86.0234375,40.1171875 C84.7109309,40.1171875 83.7031285,39.7363319 83,38.9746094 C82.2968715,38.2128868 81.9453125,37.1191478 81.9453125,35.6933594 C81.9453125,34.267571 82.297848,33.1787147 83.0029297,32.4267578 C83.7080113,31.6748009 84.7187434,31.2988281 86.0351562,31.2988281 C87.3515691,31.2988281 88.358395,31.6777306 89.0556641,32.4355469 C89.7529332,33.1933632 90.1015625,34.283196 90.1015625,35.7050781 Z M83.8496094,35.7050781 C83.8496094,36.6621142 84.0312482,37.3828101 84.3945312,37.8671875 C84.7578143,38.3515649 85.3007776,38.59375 86.0234375,38.59375 C87.4726635,38.59375 88.1972656,37.630869 88.1972656,35.7050781 C88.1972656,33.775381 87.4765697,32.8105469 86.0351562,32.8105469 C85.3124964,32.8105469 84.76758,33.0537085 84.4003906,33.5400391 C84.0332013,34.0263696 83.8496094,34.7480421 83.8496094,35.7050781 Z M99.9277344,40 L94.9941406,40 L94.9941406,31.4335938 L99.9277344,31.4335938 L99.9277344,32.921875 L96.8105469,32.921875 L96.8105469,34.8027344 L99.7109375,34.8027344 L99.7109375,36.2910156 L96.8105469,36.2910156 L96.8105469,38.5 L99.9277344,38.5 L99.9277344,40 Z M109.314453,40 L107.005859,40 L103.279297,33.5195312 L103.226562,33.5195312 C103.300782,34.6640682 103.337891,35.4804663 103.337891,35.96875 L103.337891,40 L101.714844,40 L101.714844,31.4335938 L104.005859,31.4335938 L107.726562,37.8496094 L107.767578,37.8496094 C107.708984,36.7363226 107.679688,35.9492211 107.679688,35.4882812 L107.679688,31.4335938 L109.314453,31.4335938 L109.314453,40 Z M114.587891,40 L114.587891,31.4335938 L116.404297,31.4335938 L116.404297,38.5 L119.878906,38.5 L119.878906,40 L114.587891,40 Z M121.367188,40 L121.367188,31.4335938 L123.183594,31.4335938 L123.183594,40 L121.367188,40 Z M121.267578,30.7480469 L121.267578,30.5898438 C121.939456,29.8085898 122.398436,29.2207051 122.644531,28.8261719 L124.648438,28.8261719 L124.648438,28.9492188 C124.445311,29.1523448 124.098635,29.4540996 123.608398,29.8544922 C123.118162,30.2548848 122.734376,30.5527334 122.457031,30.7480469 L121.267578,30.7480469 Z M132.939453,40 L130.630859,40 L126.904297,33.5195312 L126.851562,33.5195312 C126.925782,34.6640682 126.962891,35.4804663 126.962891,35.96875 L126.962891,40 L125.339844,40 L125.339844,31.4335938 L127.630859,31.4335938 L131.351562,37.8496094 L131.392578,37.8496094 C131.333984,36.7363226 131.304688,35.9492211 131.304688,35.4882812 L131.304688,31.4335938 L132.939453,31.4335938 L132.939453,40 Z M140.029297,40 L135.095703,40 L135.095703,31.4335938 L140.029297,31.4335938 L140.029297,32.921875 L136.912109,32.921875 L136.912109,34.8027344 L139.8125,34.8027344 L139.8125,36.2910156 L136.912109,36.2910156 L136.912109,38.5 L140.029297,38.5 L140.029297,40 Z M147.060547,40 L146.439453,37.9609375 L143.316406,37.9609375 L142.695312,40 L140.738281,40 L143.761719,31.3984375 L145.982422,31.3984375 L149.017578,40 L147.060547,40 Z M146.005859,36.4375 C145.431638,34.5898345 145.108399,33.5449231 145.036133,33.3027344 C144.963867,33.0605457 144.91211,32.8691413 144.880859,32.7285156 C144.751952,33.2285181 144.382816,34.4648339 143.773438,36.4375 L146.005859,36.4375 Z" id="CURSO-EN-LÃNEA" fill="#EE4135"></path>
                </g>
                <path d="M86,74.0003298 L86,98 L86,98 C86,100.209139 87.790861,102 90,102 C90.8260665,102 91.631873,101.744246 92.3067415,101.267865 L109.306412,89.2680302 L109.306412,89.2680302 C111.111204,87.994052 111.541514,85.4982156 110.267536,83.6934234 C110.004339,83.3205632 109.679272,82.9954965 109.306412,82.7322996 L92.3067415,70.7324645 L92.3067415,70.7324645 C90.5019493,69.4584863 88.0061128,69.8887961 86.7321347,71.6935883 C86.2557542,72.3684568 86,73.1742633 86,74.0003298 Z" id="Path-2-Copy-3" fill="#D9372D"></path>
            </g>
        </g>
    </g>
</svg>