<?xml version="1.0" encoding="UTF-8"?>
<svg width="727px" height="688px" viewBox="0 0 727 688" version="1.1" xmlns="http://www.w3.org/2000/svg" xmlns:xlink="http://www.w3.org/1999/xlink">
    <!-- Generator: Sketch 47.1 (45422) - http://www.bohemiancoding.com/sketch -->
    <title>Group 13</title>
    <desc>Created with Sketch.</desc>
    <defs></defs>
    <g id="Page-1" stroke="none" stroke-width="1" fill="none" fill-rule="evenodd">
        <g id="Convocatoria-ajustes">
            <g id="Group-13">
                <rect id="Rectangle-Copy-2" fill="#FFFFFF" x="0" y="0" width="727" height="688"></rect>
                <path d="M119.296875,112.765625 L123.28125,112.765625 C127.005227,112.765625 129.791657,112.029955 131.640625,110.558594 C133.489593,109.087232 134.414062,106.945327 134.414062,104.132812 C134.414062,101.294257 133.639331,99.1979234 132.089844,97.84375 C130.540357,96.4895766 128.111996,95.8125 124.804688,95.8125 L119.296875,95.8125 L119.296875,112.765625 Z M146.640625,103.703125 C146.640625,109.848989 144.720071,114.549463 140.878906,117.804688 C137.037741,121.059912 131.575556,122.6875 124.492188,122.6875 L119.296875,122.6875 L119.296875,143 L107.1875,143 L107.1875,85.890625 L125.429688,85.890625 C132.356805,85.890625 137.62368,87.3814955 141.230469,90.3632812 C144.837258,93.345067 146.640625,97.7916371 146.640625,103.703125 Z M180.859375,98.5078125 C182.473966,98.5078125 183.815099,98.6249988 184.882812,98.859375 L183.984375,110.03125 C183.020829,109.770832 181.848965,109.640625 180.46875,109.640625 C176.666648,109.640625 173.704438,110.617178 171.582031,112.570312 C169.459625,114.523447 168.398438,117.257795 168.398438,120.773438 L168.398438,143 L156.484375,143 L156.484375,99.328125 L165.507812,99.328125 L167.265625,106.671875 L167.851562,106.671875 C169.205736,104.223946 171.035145,102.25131 173.339844,100.753906 C175.644543,99.2565029 178.151028,98.5078125 180.859375,98.5078125 Z M209.296875,106.984375 C206.770821,106.984375 204.791674,107.785148 203.359375,109.386719 C201.927076,110.988289 201.106772,113.260402 200.898438,116.203125 L217.617188,116.203125 C217.565104,113.260402 216.796882,110.988289 215.3125,109.386719 C213.828118,107.785148 211.822929,106.984375 209.296875,106.984375 Z M210.976562,143.78125 C203.945277,143.78125 198.450541,141.841165 194.492188,137.960938 C190.533834,134.08071 188.554688,128.585973 188.554688,121.476562 C188.554688,114.158818 190.384096,108.501322 194.042969,104.503906 C197.701841,100.50649 202.760384,98.5078125 209.21875,98.5078125 C215.390656,98.5078125 220.195295,100.265607 223.632812,103.78125 C227.07033,107.296893 228.789062,112.153615 228.789062,118.351562 L228.789062,124.132812 L200.625,124.132812 C200.755209,127.518246 201.757803,130.161449 203.632812,132.0625 C205.507822,133.963551 208.138004,134.914062 211.523438,134.914062 C214.153659,134.914062 216.640613,134.640628 218.984375,134.09375 C221.328137,133.546872 223.776029,132.674485 226.328125,131.476562 L226.328125,140.695312 C224.244781,141.736984 222.018241,142.511716 219.648438,143.019531 C217.278634,143.527346 214.388038,143.78125 210.976562,143.78125 Z M277.578125,143 L265.664062,143 L265.664062,117.492188 C265.664062,114.34113 265.136724,111.977872 264.082031,110.402344 C263.027338,108.826815 261.367199,108.039062 259.101562,108.039062 C256.054672,108.039062 253.841153,109.158843 252.460938,111.398438 C251.080722,113.638032 250.390625,117.322891 250.390625,122.453125 L250.390625,143 L238.476562,143 L238.476562,99.328125 L247.578125,99.328125 L249.179688,104.914062 L249.84375,104.914062 C251.015631,102.908844 252.708322,101.339849 254.921875,100.207031 C257.135428,99.0742131 259.674465,98.5078125 262.539062,98.5078125 C269.075554,98.5078125 273.502593,100.643208 275.820312,104.914062 L276.875,104.914062 C278.046881,102.882802 279.772124,101.307297 282.050781,100.1875 C284.329438,99.0677027 286.901027,98.5078125 289.765625,98.5078125 C294.713566,98.5078125 298.457019,99.7773311 300.996094,102.316406 C303.535169,104.855481 304.804688,108.924451 304.804688,114.523438 L304.804688,143 L292.851562,143 L292.851562,117.492188 C292.851562,114.34113 292.324224,111.977872 291.269531,110.402344 C290.214838,108.826815 288.554699,108.039062 286.289062,108.039062 C283.372381,108.039062 281.191413,109.080719 279.746094,111.164062 C278.300774,113.247406 277.578125,116.554665 277.578125,121.085938 L277.578125,143 Z M316.523438,88.0390625 C316.523438,84.1588348 318.684874,82.21875 323.007812,82.21875 C327.330751,82.21875 329.492188,84.1588348 329.492188,88.0390625 C329.492188,89.8880301 328.951828,91.3268178 327.871094,92.3554688 C326.790359,93.3841197 325.169282,93.8984375 323.007812,93.8984375 C318.684874,93.8984375 316.523438,91.945332 316.523438,88.0390625 Z M328.945312,143 L317.03125,143 L317.03125,99.328125 L328.945312,99.328125 L328.945312,143 Z M350.9375,121.085938 C350.9375,125.408876 351.647128,128.677072 353.066406,130.890625 C354.485684,133.104178 356.796859,134.210938 360,134.210938 C363.177099,134.210938 365.462233,133.110688 366.855469,130.910156 C368.248705,128.709624 368.945312,125.434918 368.945312,121.085938 C368.945312,116.762999 368.242195,113.520844 366.835938,111.359375 C365.42968,109.197906 363.125016,108.117188 359.921875,108.117188 C356.744776,108.117188 354.453132,109.191396 353.046875,111.339844 C351.640618,113.488292 350.9375,116.736957 350.9375,121.085938 Z M381.132812,121.085938 C381.132812,128.195348 379.257831,133.755188 375.507812,137.765625 C371.757794,141.776062 366.536492,143.78125 359.84375,143.78125 C355.651021,143.78125 351.953141,142.86329 348.75,141.027344 C345.546859,139.191397 343.085946,136.554705 341.367188,133.117188 C339.648429,129.67967 338.789062,125.669294 338.789062,121.085938 C338.789062,113.950485 340.651023,108.403666 344.375,104.445312 C348.098977,100.486959 353.3333,98.5078125 360.078125,98.5078125 C364.270854,98.5078125 367.968734,99.4192617 371.171875,101.242188 C374.375016,103.065113 376.835929,105.682275 378.554688,109.09375 C380.273446,112.505225 381.132812,116.502581 381.132812,121.085938 Z M140.898438,236.140625 C140.898438,241.296901 139.042987,245.35936 135.332031,248.328125 C131.621075,251.29689 126.458366,252.78125 119.84375,252.78125 C113.74997,252.78125 108.359398,251.635428 103.671875,249.34375 L103.671875,238.09375 C107.526061,239.812509 110.787747,241.023434 113.457031,241.726562 C116.126315,242.429691 118.567697,242.78125 120.78125,242.78125 C123.437513,242.78125 125.475253,242.273443 126.894531,241.257812 C128.313809,240.242182 129.023438,238.731781 129.023438,236.726562 C129.023438,235.606765 128.710941,234.610681 128.085938,233.738281 C127.460934,232.865881 126.542975,232.026046 125.332031,231.21875 C124.121088,230.411454 121.653664,229.122405 117.929688,227.351562 C114.440087,225.710929 111.822925,224.135424 110.078125,222.625 C108.333325,221.114576 106.940109,219.356781 105.898438,217.351562 C104.856766,215.346344 104.335938,213.002618 104.335938,210.320312 C104.335938,205.268204 106.04816,201.296889 109.472656,198.40625 C112.897153,195.515611 117.630178,194.070312 123.671875,194.070312 C126.64064,194.070312 129.472643,194.421871 132.167969,195.125 C134.863295,195.828129 137.682277,196.817702 140.625,198.09375 L136.71875,207.507812 C133.67186,206.257806 131.152354,205.385419 129.160156,204.890625 C127.167959,204.395831 125.208343,204.148438 123.28125,204.148438 C120.989572,204.148438 119.231777,204.682286 118.007812,205.75 C116.783848,206.817714 116.171875,208.210929 116.171875,209.929688 C116.171875,210.997401 116.419268,211.928381 116.914062,212.722656 C117.408857,213.516931 118.196609,214.285153 119.277344,215.027344 C120.358078,215.769535 122.916646,217.104157 126.953125,219.03125 C132.291693,221.583346 135.950511,224.141914 137.929688,226.707031 C139.908864,229.272148 140.898438,232.416648 140.898438,236.140625 Z M178.046875,252 L175.742188,246.0625 L175.429688,246.0625 C173.424469,248.588554 171.360688,250.339839 169.238281,251.316406 C167.115875,252.292974 164.348975,252.78125 160.9375,252.78125 C156.744771,252.78125 153.444022,251.583345 151.035156,249.1875 C148.62629,246.791655 147.421875,243.38023 147.421875,238.953125 C147.421875,234.317685 149.042953,230.899751 152.285156,228.699219 C155.52736,226.498687 160.416634,225.281251 166.953125,225.046875 L174.53125,224.8125 L174.53125,222.898438 C174.53125,218.471332 172.265648,216.257812 167.734375,216.257812 C164.244774,216.257812 160.143253,217.312489 155.429688,219.421875 L151.484375,211.375 C156.510442,208.744779 162.083303,207.429688 168.203125,207.429688 C174.062529,207.429688 178.554672,208.705716 181.679688,211.257812 C184.804703,213.809909 186.367188,217.690078 186.367188,222.898438 L186.367188,252 L178.046875,252 Z M174.53125,231.765625 L169.921875,231.921875 C166.458316,232.026042 163.880217,232.651036 162.1875,233.796875 C160.494783,234.942714 159.648438,236.687488 159.648438,239.03125 C159.648438,242.390642 161.575502,244.070312 165.429688,244.070312 C168.190118,244.070312 170.397127,243.27605 172.050781,241.6875 C173.704435,240.09895 174.53125,237.989596 174.53125,235.359375 L174.53125,231.765625 Z M238.945312,252 L227.03125,252 L227.03125,226.492188 C227.03125,223.34113 226.47136,220.977872 225.351562,219.402344 C224.231765,217.826815 222.447929,217.039062 220,217.039062 C216.66665,217.039062 214.25782,218.152333 212.773438,220.378906 C211.289055,222.60548 210.546875,226.296849 210.546875,231.453125 L210.546875,252 L198.632812,252 L198.632812,208.328125 L207.734375,208.328125 L209.335938,213.914062 L210,213.914062 C211.328132,211.804677 213.15754,210.209641 215.488281,209.128906 C217.819022,208.048172 220.468735,207.507812 223.4375,207.507812 C228.51565,207.507812 232.369779,208.881497 235,211.628906 C237.630221,214.376316 238.945312,218.34112 238.945312,223.523438 L238.945312,252 Z M269.609375,243.289062 C271.692719,243.289062 274.192694,242.833338 277.109375,241.921875 L277.109375,250.789062 C274.14061,252.117194 270.494813,252.78125 266.171875,252.78125 C261.406226,252.78125 257.936209,251.576835 255.761719,249.167969 C253.587229,246.759103 252.5,243.145857 252.5,238.328125 L252.5,217.273438 L246.796875,217.273438 L246.796875,212.234375 L253.359375,208.25 L256.796875,199.03125 L264.414062,199.03125 L264.414062,208.328125 L276.640625,208.328125 L276.640625,217.273438 L264.414062,217.273438 L264.414062,238.328125 C264.414062,240.020842 264.889318,241.270829 265.839844,242.078125 C266.790369,242.885421 268.046867,243.289062 269.609375,243.289062 Z M313.671875,252 L311.367188,246.0625 L311.054688,246.0625 C309.049469,248.588554 306.985688,250.339839 304.863281,251.316406 C302.740875,252.292974 299.973975,252.78125 296.5625,252.78125 C292.369771,252.78125 289.069022,251.583345 286.660156,249.1875 C284.25129,246.791655 283.046875,243.38023 283.046875,238.953125 C283.046875,234.317685 284.667953,230.899751 287.910156,228.699219 C291.15236,226.498687 296.041634,225.281251 302.578125,225.046875 L310.15625,224.8125 L310.15625,222.898438 C310.15625,218.471332 307.890648,216.257812 303.359375,216.257812 C299.869774,216.257812 295.768253,217.312489 291.054688,219.421875 L287.109375,211.375 C292.135442,208.744779 297.708303,207.429688 303.828125,207.429688 C309.687529,207.429688 314.179672,208.705716 317.304688,211.257812 C320.429703,213.809909 321.992188,217.690078 321.992188,222.898438 L321.992188,252 L313.671875,252 Z M310.15625,231.765625 L305.546875,231.921875 C302.083316,232.026042 299.505217,232.651036 297.8125,233.796875 C296.119783,234.942714 295.273438,236.687488 295.273438,239.03125 C295.273438,242.390642 297.200502,244.070312 301.054688,244.070312 C303.815118,244.070312 306.022127,243.27605 307.675781,241.6875 C309.329435,240.09895 310.15625,237.989596 310.15625,235.359375 L310.15625,231.765625 Z M374.570312,252 L362.65625,252 L362.65625,226.492188 C362.65625,223.34113 362.09636,220.977872 360.976562,219.402344 C359.856765,217.826815 358.072929,217.039062 355.625,217.039062 C352.29165,217.039062 349.88282,218.152333 348.398438,220.378906 C346.914055,222.60548 346.171875,226.296849 346.171875,231.453125 L346.171875,252 L334.257812,252 L334.257812,208.328125 L343.359375,208.328125 L344.960938,213.914062 L345.625,213.914062 C346.953132,211.804677 348.78254,210.209641 351.113281,209.128906 C353.444022,208.048172 356.093735,207.507812 359.0625,207.507812 C364.14065,207.507812 367.994779,208.881497 370.625,211.628906 C373.255221,214.376316 374.570312,218.34112 374.570312,223.523438 L374.570312,252 Z M400.664062,252.78125 C395.533829,252.78125 391.503921,250.789082 388.574219,246.804688 C385.644517,242.820293 384.179688,237.299514 384.179688,230.242188 C384.179688,223.080693 385.670558,217.501322 388.652344,213.503906 C391.634129,209.50649 395.742161,207.507812 400.976562,207.507812 C406.471382,207.507812 410.664048,209.643208 413.554688,213.914062 L413.945312,213.914062 C413.346351,210.658838 413.046875,207.755221 413.046875,205.203125 L413.046875,191.21875 L425,191.21875 L425,252 L415.859375,252 L413.554688,246.335938 L413.046875,246.335938 C410.338528,250.632834 406.210965,252.78125 400.664062,252.78125 Z M404.84375,243.289062 C407.89064,243.289062 410.123691,242.403655 411.542969,240.632812 C412.962247,238.86197 413.736979,235.854188 413.867188,231.609375 L413.867188,230.320312 C413.867188,225.632789 413.144538,222.273448 411.699219,220.242188 C410.253899,218.210927 407.903662,217.195312 404.648438,217.195312 C401.992174,217.195312 399.928393,218.321603 398.457031,220.574219 C396.98567,222.826834 396.25,226.101541 396.25,230.398438 C396.25,234.695334 396.99218,237.917958 398.476562,240.066406 C399.960945,242.214854 402.08332,243.289062 404.84375,243.289062 Z M455.546875,215.984375 C453.020821,215.984375 451.041674,216.785148 449.609375,218.386719 C448.177076,219.988289 447.356772,222.260402 447.148438,225.203125 L463.867188,225.203125 C463.815104,222.260402 463.046882,219.988289 461.5625,218.386719 C460.078118,216.785148 458.072929,215.984375 455.546875,215.984375 Z M457.226562,252.78125 C450.195277,252.78125 444.700541,250.841165 440.742188,246.960938 C436.783834,243.08071 434.804688,237.585973 434.804688,230.476562 C434.804688,223.158818 436.634096,217.501322 440.292969,213.503906 C443.951841,209.50649 449.010384,207.507812 455.46875,207.507812 C461.640656,207.507812 466.445295,209.265607 469.882812,212.78125 C473.32033,216.296893 475.039062,221.153615 475.039062,227.351562 L475.039062,233.132812 L446.875,233.132812 C447.005209,236.518246 448.007803,239.161449 449.882812,241.0625 C451.757822,242.963551 454.388004,243.914062 457.773438,243.914062 C460.403659,243.914062 462.890613,243.640628 465.234375,243.09375 C467.578137,242.546872 470.026029,241.674485 472.578125,240.476562 L472.578125,249.695312 C470.494781,250.736984 468.268241,251.511716 465.898438,252.019531 C463.528634,252.527346 460.638038,252.78125 457.226562,252.78125 Z M509.101562,207.507812 C510.716154,207.507812 512.057286,207.624999 513.125,207.859375 L512.226562,219.03125 C511.263016,218.770832 510.091153,218.640625 508.710938,218.640625 C504.908835,218.640625 501.946625,219.617178 499.824219,221.570312 C497.701812,223.523447 496.640625,226.257795 496.640625,229.773438 L496.640625,252 L484.726562,252 L484.726562,208.328125 L493.75,208.328125 L495.507812,215.671875 L496.09375,215.671875 C497.447923,213.223946 499.277332,211.25131 501.582031,209.753906 C503.88673,208.256503 506.393216,207.507812 509.101562,207.507812 Z M569.570312,252 L567.265625,246.0625 L566.953125,246.0625 C564.947907,248.588554 562.884125,250.339839 560.761719,251.316406 C558.639312,252.292974 555.872413,252.78125 552.460938,252.78125 C548.268208,252.78125 544.96746,251.583345 542.558594,249.1875 C540.149728,246.791655 538.945312,243.38023 538.945312,238.953125 C538.945312,234.317685 540.56639,230.899751 543.808594,228.699219 C547.050797,226.498687 551.940071,225.281251 558.476562,225.046875 L566.054688,224.8125 L566.054688,222.898438 C566.054688,218.471332 563.789085,216.257812 559.257812,216.257812 C555.768212,216.257812 551.66669,217.312489 546.953125,219.421875 L543.007812,211.375 C548.033879,208.744779 553.60674,207.429688 559.726562,207.429688 C565.585967,207.429688 570.078109,208.705716 573.203125,211.257812 C576.328141,213.809909 577.890625,217.690078 577.890625,222.898438 L577.890625,252 L569.570312,252 Z M566.054688,231.765625 L561.445312,231.921875 C557.981754,232.026042 555.403654,232.651036 553.710938,233.796875 C552.018221,234.942714 551.171875,236.687488 551.171875,239.03125 C551.171875,242.390642 553.098939,244.070312 556.953125,244.070312 C559.713555,244.070312 561.920565,243.27605 563.574219,241.6875 C565.227873,240.09895 566.054688,237.989596 566.054688,235.359375 L566.054688,231.765625 Z M118.164062,361 L106.25,361 L106.25,300.21875 L118.164062,300.21875 L118.164062,361 Z M158.398438,361 L156.09375,355.0625 L155.78125,355.0625 C153.776032,357.588554 151.71225,359.339839 149.589844,360.316406 C147.467437,361.292974 144.700538,361.78125 141.289062,361.78125 C137.096333,361.78125 133.795585,360.583345 131.386719,358.1875 C128.977853,355.791655 127.773438,352.38023 127.773438,347.953125 C127.773438,343.317685 129.394515,339.899751 132.636719,337.699219 C135.878922,335.498687 140.768196,334.281251 147.304688,334.046875 L154.882812,333.8125 L154.882812,331.898438 C154.882812,327.471332 152.61721,325.257812 148.085938,325.257812 C144.596337,325.257812 140.494815,326.312489 135.78125,328.421875 L131.835938,320.375 C136.862004,317.744779 142.434865,316.429688 148.554688,316.429688 C154.414092,316.429688 158.906234,317.705716 162.03125,320.257812 C165.156266,322.809909 166.71875,326.690078 166.71875,331.898438 L166.71875,361 L158.398438,361 Z M154.882812,340.765625 L150.273438,340.921875 C146.809879,341.026042 144.231779,341.651036 142.539062,342.796875 C140.846346,343.942714 140,345.687488 140,348.03125 C140,351.390642 141.927064,353.070312 145.78125,353.070312 C148.54168,353.070312 150.74869,352.27605 152.402344,350.6875 C154.055998,349.09895 154.882812,346.989596 154.882812,344.359375 L154.882812,340.765625 Z M200.703125,361 L200.703125,303.890625 L212.8125,303.890625 L212.8125,361 L200.703125,361 Z M266.5625,361 L254.648438,361 L254.648438,335.492188 C254.648438,332.34113 254.088547,329.977872 252.96875,328.402344 C251.848953,326.826815 250.065116,326.039062 247.617188,326.039062 C244.283838,326.039062 241.875007,327.152333 240.390625,329.378906 C238.906243,331.60548 238.164062,335.296849 238.164062,340.453125 L238.164062,361 L226.25,361 L226.25,317.328125 L235.351562,317.328125 L236.953125,322.914062 L237.617188,322.914062 C238.945319,320.804677 240.774728,319.209641 243.105469,318.128906 C245.43621,317.048172 248.085923,316.507812 251.054688,316.507812 C256.132838,316.507812 259.986966,317.881497 262.617188,320.628906 C265.247409,323.376316 266.5625,327.34112 266.5625,332.523438 L266.5625,361 Z M319.140625,361 L307.226562,361 L307.226562,335.492188 C307.226562,332.34113 306.666672,329.977872 305.546875,328.402344 C304.427078,326.826815 302.643241,326.039062 300.195312,326.039062 C296.861963,326.039062 294.453132,327.152333 292.96875,329.378906 C291.484368,331.60548 290.742188,335.296849 290.742188,340.453125 L290.742188,361 L278.828125,361 L278.828125,317.328125 L287.929688,317.328125 L289.53125,322.914062 L290.195312,322.914062 C291.523444,320.804677 293.352853,319.209641 295.683594,318.128906 C298.014335,317.048172 300.664048,316.507812 303.632812,316.507812 C308.710963,316.507812 312.565091,317.881497 315.195312,320.628906 C317.825534,323.376316 319.140625,327.34112 319.140625,332.523438 L319.140625,361 Z M340.898438,339.085938 C340.898438,343.408876 341.608066,346.677072 343.027344,348.890625 C344.446622,351.104178 346.757796,352.210938 349.960938,352.210938 C353.138037,352.210938 355.42317,351.110688 356.816406,348.910156 C358.209642,346.709624 358.90625,343.434918 358.90625,339.085938 C358.90625,334.762999 358.203132,331.520844 356.796875,329.359375 C355.390618,327.197906 353.085954,326.117188 349.882812,326.117188 C346.705713,326.117188 344.41407,327.191396 343.007812,329.339844 C341.601555,331.488292 340.898438,334.736957 340.898438,339.085938 Z M371.09375,339.085938 C371.09375,346.195348 369.218769,351.755188 365.46875,355.765625 C361.718731,359.776062 356.497429,361.78125 349.804688,361.78125 C345.611958,361.78125 341.914079,360.86329 338.710938,359.027344 C335.507796,357.191397 333.046884,354.554705 331.328125,351.117188 C329.609366,347.67967 328.75,343.669294 328.75,339.085938 C328.75,331.950485 330.611961,326.403666 334.335938,322.445312 C338.059914,318.486959 343.294237,316.507812 350.039062,316.507812 C354.231792,316.507812 357.929671,317.419262 361.132812,319.242188 C364.335954,321.065113 366.796866,323.682275 368.515625,327.09375 C370.234384,330.505225 371.09375,334.502581 371.09375,339.085938 Z M389.726562,361 L373.085938,317.328125 L385.546875,317.328125 L393.984375,342.210938 C394.92188,345.361995 395.507811,348.343736 395.742188,351.15625 L395.976562,351.15625 C396.106771,348.656237 396.692703,345.674496 397.734375,342.210938 L406.132812,317.328125 L418.59375,317.328125 L401.953125,361 L389.726562,361 Z M452.578125,361 L450.273438,355.0625 L449.960938,355.0625 C447.955719,357.588554 445.891938,359.339839 443.769531,360.316406 C441.647125,361.292974 438.880225,361.78125 435.46875,361.78125 C431.276021,361.78125 427.975272,360.583345 425.566406,358.1875 C423.15754,355.791655 421.953125,352.38023 421.953125,347.953125 C421.953125,343.317685 423.574203,339.899751 426.816406,337.699219 C430.05861,335.498687 434.947884,334.281251 441.484375,334.046875 L449.0625,333.8125 L449.0625,331.898438 C449.0625,327.471332 446.796898,325.257812 442.265625,325.257812 C438.776024,325.257812 434.674503,326.312489 429.960938,328.421875 L426.015625,320.375 C431.041692,317.744779 436.614553,316.429688 442.734375,316.429688 C448.593779,316.429688 453.085922,317.705716 456.210938,320.257812 C459.335953,322.809909 460.898438,326.690078 460.898438,331.898438 L460.898438,361 L452.578125,361 Z M449.0625,340.765625 L444.453125,340.921875 C440.989566,341.026042 438.411467,341.651036 436.71875,342.796875 C435.026033,343.942714 434.179688,345.687488 434.179688,348.03125 C434.179688,351.390642 436.106752,353.070312 439.960938,353.070312 C442.721368,353.070312 444.928377,352.27605 446.582031,350.6875 C448.235685,349.09895 449.0625,346.989596 449.0625,344.359375 L449.0625,340.765625 Z M490.898438,361.78125 C477.30462,361.78125 470.507812,354.320387 470.507812,339.398438 C470.507812,331.976525 472.356752,326.306009 476.054688,322.386719 C479.752623,318.467428 485.052049,316.507812 491.953125,316.507812 C497.005234,316.507812 501.536438,317.497386 505.546875,319.476562 L502.03125,328.695312 C500.156241,327.9401 498.411466,327.321617 496.796875,326.839844 C495.182284,326.358071 493.567716,326.117188 491.953125,326.117188 C485.755177,326.117188 482.65625,330.518185 482.65625,339.320312 C482.65625,347.862022 485.755177,352.132812 491.953125,352.132812 C494.244803,352.132812 496.367178,351.826826 498.320312,351.214844 C500.273447,350.602862 502.226553,349.64584 504.179688,348.34375 L504.179688,358.539062 C502.252595,359.763027 500.305999,360.609373 498.339844,361.078125 C496.373688,361.546877 493.893244,361.78125 490.898438,361.78125 Z M513.789062,306.039062 C513.789062,302.158835 515.950499,300.21875 520.273438,300.21875 C524.596376,300.21875 526.757812,302.158835 526.757812,306.039062 C526.757812,307.88803 526.217453,309.326818 525.136719,310.355469 C524.055984,311.38412 522.434907,311.898438 520.273438,311.898438 C515.950499,311.898438 513.789062,309.945332 513.789062,306.039062 Z M526.210938,361 L514.296875,361 L514.296875,317.328125 L526.210938,317.328125 L526.210938,361 Z M548.203125,339.085938 C548.203125,343.408876 548.912753,346.677072 550.332031,348.890625 C551.751309,351.104178 554.062484,352.210938 557.265625,352.210938 C560.442724,352.210938 562.727858,351.110688 564.121094,348.910156 C565.51433,346.709624 566.210938,343.434918 566.210938,339.085938 C566.210938,334.762999 565.50782,331.520844 564.101562,329.359375 C562.695305,327.197906 560.390641,326.117188 557.1875,326.117188 C554.010401,326.117188 551.718757,327.191396 550.3125,329.339844 C548.906243,331.488292 548.203125,334.736957 548.203125,339.085938 Z M578.398438,339.085938 C578.398438,346.195348 576.523456,351.755188 572.773438,355.765625 C569.023419,359.776062 563.802117,361.78125 557.109375,361.78125 C552.916646,361.78125 549.218766,360.86329 546.015625,359.027344 C542.812484,357.191397 540.351571,354.554705 538.632812,351.117188 C536.914054,347.67967 536.054688,343.669294 536.054688,339.085938 C536.054688,331.950485 537.916648,326.403666 541.640625,322.445312 C545.364602,318.486959 550.598925,316.507812 557.34375,316.507812 C561.536479,316.507812 565.234359,317.419262 568.4375,319.242188 C571.640641,321.065113 574.101554,323.682275 575.820312,327.09375 C577.539071,330.505225 578.398438,334.502581 578.398438,339.085938 Z M550.703125,312.523438 L550.703125,311.46875 C555.182314,306.260391 558.242179,302.341159 559.882812,299.710938 L573.242188,299.710938 L573.242188,300.53125 C571.888014,301.885423 569.576839,303.897122 566.308594,306.566406 C563.040348,309.23569 560.48178,311.221348 558.632812,312.523438 L550.703125,312.523438 Z M628.554688,361 L616.640625,361 L616.640625,335.492188 C616.640625,332.34113 616.080735,329.977872 614.960938,328.402344 C613.84114,326.826815 612.057304,326.039062 609.609375,326.039062 C606.276025,326.039062 603.867195,327.152333 602.382812,329.378906 C600.89843,331.60548 600.15625,335.296849 600.15625,340.453125 L600.15625,361 L588.242188,361 L588.242188,317.328125 L597.34375,317.328125 L598.945312,322.914062 L599.609375,322.914062 C600.937507,320.804677 602.766915,319.209641 605.097656,318.128906 C607.428397,317.048172 610.07811,316.507812 613.046875,316.507812 C618.125025,316.507812 621.979154,317.881497 624.609375,320.628906 C627.239596,323.376316 628.554688,327.34112 628.554688,332.523438 L628.554688,361 Z M140.078125,470 L107.1875,470 L107.1875,412.890625 L140.078125,412.890625 L140.078125,422.8125 L119.296875,422.8125 L119.296875,435.351562 L138.632812,435.351562 L138.632812,445.273438 L119.296875,445.273438 L119.296875,460 L140.078125,460 L140.078125,470 Z M190.15625,470 L178.242188,470 L178.242188,444.492188 C178.242188,441.34113 177.714849,438.977872 176.660156,437.402344 C175.605463,435.826815 173.945324,435.039062 171.679688,435.039062 C168.632797,435.039062 166.419278,436.158843 165.039062,438.398438 C163.658847,440.638032 162.96875,444.322891 162.96875,449.453125 L162.96875,470 L151.054688,470 L151.054688,426.328125 L160.15625,426.328125 L161.757812,431.914062 L162.421875,431.914062 C163.593756,429.908844 165.286447,428.339849 167.5,427.207031 C169.713553,426.074213 172.25259,425.507812 175.117188,425.507812 C181.653679,425.507812 186.080718,427.643208 188.398438,431.914062 L189.453125,431.914062 C190.625006,429.882802 192.350249,428.307297 194.628906,427.1875 C196.907563,426.067703 199.479152,425.507812 202.34375,425.507812 C207.291691,425.507812 211.035144,426.777331 213.574219,429.316406 C216.113294,431.855481 217.382812,435.924451 217.382812,441.523438 L217.382812,470 L205.429688,470 L205.429688,444.492188 C205.429688,441.34113 204.902349,438.977872 203.847656,437.402344 C202.792963,435.826815 201.132824,435.039062 198.867188,435.039062 C195.950506,435.039062 193.769538,436.080719 192.324219,438.164062 C190.878899,440.247406 190.15625,443.554665 190.15625,448.085938 L190.15625,470 Z M253.59375,470.78125 C248.463516,470.78125 244.440119,468.919289 241.523438,465.195312 L240.898438,465.195312 C241.315106,468.841164 241.523438,470.950518 241.523438,471.523438 L241.523438,489.21875 L229.609375,489.21875 L229.609375,426.328125 L239.296875,426.328125 L240.976562,431.992188 L241.523438,431.992188 C244.30991,427.669249 248.437473,425.507812 253.90625,425.507812 C259.062526,425.507812 263.098944,427.49998 266.015625,431.484375 C268.932306,435.46877 270.390625,441.002569 270.390625,448.085938 C270.390625,452.747419 269.707038,456.796858 268.339844,460.234375 C266.972649,463.671892 265.026054,466.289054 262.5,468.085938 C259.973946,469.882821 257.005225,470.78125 253.59375,470.78125 Z M250.078125,435.039062 C247.135402,435.039062 244.986986,435.944001 243.632812,437.753906 C242.278639,439.563811 241.575521,442.552063 241.523438,446.71875 L241.523438,448.007812 C241.523438,452.695336 242.220045,456.054677 243.613281,458.085938 C245.006517,460.117198 247.213527,461.132812 250.234375,461.132812 C255.572943,461.132812 258.242188,456.731815 258.242188,447.929688 C258.242188,443.632791 257.584642,440.410167 256.269531,438.261719 C254.954421,436.113271 252.890639,435.039062 250.078125,435.039062 Z M304.609375,425.507812 C306.223966,425.507812 307.565099,425.624999 308.632812,425.859375 L307.734375,437.03125 C306.770829,436.770832 305.598965,436.640625 304.21875,436.640625 C300.416648,436.640625 297.454438,437.617178 295.332031,439.570312 C293.209625,441.523447 292.148438,444.257795 292.148438,447.773438 L292.148438,470 L280.234375,470 L280.234375,426.328125 L289.257812,426.328125 L291.015625,433.671875 L291.601562,433.671875 C292.955736,431.223946 294.785145,429.25131 297.089844,427.753906 C299.394543,426.256503 301.901028,425.507812 304.609375,425.507812 Z M333.046875,433.984375 C330.520821,433.984375 328.541674,434.785148 327.109375,436.386719 C325.677076,437.988289 324.856772,440.260402 324.648438,443.203125 L341.367188,443.203125 C341.315104,440.260402 340.546882,437.988289 339.0625,436.386719 C337.578118,434.785148 335.572929,433.984375 333.046875,433.984375 Z M334.726562,470.78125 C327.695277,470.78125 322.200541,468.841165 318.242188,464.960938 C314.283834,461.08071 312.304688,455.585973 312.304688,448.476562 C312.304688,441.158818 314.134096,435.501322 317.792969,431.503906 C321.451841,427.50649 326.510384,425.507812 332.96875,425.507812 C339.140656,425.507812 343.945295,427.265607 347.382812,430.78125 C350.82033,434.296893 352.539062,439.153615 352.539062,445.351562 L352.539062,451.132812 L324.375,451.132812 C324.505209,454.518246 325.507803,457.161449 327.382812,459.0625 C329.257822,460.963551 331.888004,461.914062 335.273438,461.914062 C337.903659,461.914062 340.390613,461.640628 342.734375,461.09375 C345.078137,460.546872 347.526029,459.674485 350.078125,458.476562 L350.078125,467.695312 C347.994781,468.736984 345.768241,469.511716 343.398438,470.019531 C341.028634,470.527346 338.138038,470.78125 334.726562,470.78125 Z M392.695312,457.03125 C392.695312,461.510439 391.139338,464.921863 388.027344,467.265625 C384.915349,469.609387 380.260448,470.78125 374.0625,470.78125 C370.885401,470.78125 368.177095,470.566408 365.9375,470.136719 C363.697905,469.707029 361.601572,469.075525 359.648438,468.242188 L359.648438,458.398438 C361.86199,459.440109 364.355455,460.312496 367.128906,461.015625 C369.902358,461.718754 372.343739,462.070312 374.453125,462.070312 C378.776063,462.070312 380.9375,460.820325 380.9375,458.320312 C380.9375,457.382808 380.651045,456.621097 380.078125,456.035156 C379.505205,455.449216 378.515632,454.78516 377.109375,454.042969 C375.703118,453.300778 373.828137,452.434901 371.484375,451.445312 C368.124983,450.039055 365.65756,448.736985 364.082031,447.539062 C362.506503,446.34114 361.360681,444.967456 360.644531,443.417969 C359.928382,441.868482 359.570312,439.960949 359.570312,437.695312 C359.570312,433.815085 361.074204,430.813813 364.082031,428.691406 C367.089859,426.569 371.354139,425.507812 376.875,425.507812 C382.135443,425.507812 387.252579,426.653634 392.226562,428.945312 L388.632812,437.539062 C386.445302,436.601558 384.401051,435.833336 382.5,435.234375 C380.598949,434.635414 378.658864,434.335938 376.679688,434.335938 C373.164045,434.335938 371.40625,435.286449 371.40625,437.1875 C371.40625,438.255214 371.972651,439.179684 373.105469,439.960938 C374.238287,440.742191 376.718731,441.901034 380.546875,443.4375 C383.95835,444.817715 386.458325,446.106765 388.046875,447.304688 C389.635425,448.50261 390.807288,449.882805 391.5625,451.445312 C392.317712,453.00782 392.695312,454.869781 392.695312,457.03125 Z M429.726562,470 L427.421875,464.0625 L427.109375,464.0625 C425.104157,466.588554 423.040375,468.339839 420.917969,469.316406 C418.795562,470.292974 416.028663,470.78125 412.617188,470.78125 C408.424458,470.78125 405.12371,469.583345 402.714844,467.1875 C400.305978,464.791655 399.101562,461.38023 399.101562,456.953125 C399.101562,452.317685 400.72264,448.899751 403.964844,446.699219 C407.207047,444.498687 412.096321,443.281251 418.632812,443.046875 L426.210938,442.8125 L426.210938,440.898438 C426.210938,436.471332 423.945335,434.257812 419.414062,434.257812 C415.924462,434.257812 411.82294,435.312489 407.109375,437.421875 L403.164062,429.375 C408.190129,426.744779 413.76299,425.429688 419.882812,425.429688 C425.742217,425.429688 430.234359,426.705716 433.359375,429.257812 C436.484391,431.809909 438.046875,435.690078 438.046875,440.898438 L438.046875,470 L429.726562,470 Z M426.210938,449.765625 L421.601562,449.921875 C418.138004,450.026042 415.559904,450.651036 413.867188,451.796875 C412.174471,452.942714 411.328125,454.687488 411.328125,457.03125 C411.328125,460.390642 413.255189,462.070312 417.109375,462.070312 C419.869805,462.070312 422.076815,461.27605 423.730469,459.6875 C425.384123,458.09895 426.210938,455.989596 426.210938,453.359375 L426.210938,449.765625 Z M474.6875,425.507812 C476.302091,425.507812 477.643224,425.624999 478.710938,425.859375 L477.8125,437.03125 C476.848954,436.770832 475.67709,436.640625 474.296875,436.640625 C470.494773,436.640625 467.532563,437.617178 465.410156,439.570312 C463.28775,441.523447 462.226562,444.257795 462.226562,447.773438 L462.226562,470 L450.3125,470 L450.3125,426.328125 L459.335938,426.328125 L461.09375,433.671875 L461.679688,433.671875 C463.033861,431.223946 464.86327,429.25131 467.167969,427.753906 C469.472668,426.256503 471.979153,425.507812 474.6875,425.507812 Z M486.132812,415.039062 C486.132812,411.158835 488.294249,409.21875 492.617188,409.21875 C496.940126,409.21875 499.101562,411.158835 499.101562,415.039062 C499.101562,416.88803 498.561203,418.326818 497.480469,419.355469 C496.399734,420.38412 494.778657,420.898438 492.617188,420.898438 C488.294249,420.898438 486.132812,418.945332 486.132812,415.039062 Z M498.554688,470 L486.640625,470 L486.640625,426.328125 L498.554688,426.328125 L498.554688,470 Z M538.789062,470 L536.484375,464.0625 L536.171875,464.0625 C534.166657,466.588554 532.102875,468.339839 529.980469,469.316406 C527.858062,470.292974 525.091163,470.78125 521.679688,470.78125 C517.486958,470.78125 514.18621,469.583345 511.777344,467.1875 C509.368478,464.791655 508.164062,461.38023 508.164062,456.953125 C508.164062,452.317685 509.78514,448.899751 513.027344,446.699219 C516.269547,444.498687 521.158821,443.281251 527.695312,443.046875 L535.273438,442.8125 L535.273438,440.898438 C535.273438,436.471332 533.007835,434.257812 528.476562,434.257812 C524.986962,434.257812 520.88544,435.312489 516.171875,437.421875 L512.226562,429.375 C517.252629,426.744779 522.82549,425.429688 528.945312,425.429688 C534.804717,425.429688 539.296859,426.705716 542.421875,429.257812 C545.546891,431.809909 547.109375,435.690078 547.109375,440.898438 L547.109375,470 L538.789062,470 Z M535.273438,449.765625 L530.664062,449.921875 C527.200504,450.026042 524.622404,450.651036 522.929688,451.796875 C521.236971,452.942714 520.390625,454.687488 520.390625,457.03125 C520.390625,460.390642 522.317689,462.070312 526.171875,462.070312 C528.932305,462.070312 531.139315,461.27605 532.792969,459.6875 C534.446623,458.09895 535.273438,455.989596 535.273438,453.359375 L535.273438,449.765625 Z M571.289062,470 L559.375,470 L559.375,409.21875 L571.289062,409.21875 L571.289062,470 Z M143.125,579 L103.203125,579 L103.203125,570.601562 L117.539062,556.109375 C121.783875,551.760395 124.557285,548.746102 125.859375,547.066406 C127.161465,545.38671 128.098955,543.830736 128.671875,542.398438 C129.244795,540.966139 129.53125,539.481779 129.53125,537.945312 C129.53125,535.653634 128.899746,533.947922 127.636719,532.828125 C126.373692,531.708328 124.687511,531.148438 122.578125,531.148438 C120.364572,531.148438 118.216156,531.656245 116.132812,532.671875 C114.049469,533.687505 111.875011,535.132803 109.609375,537.007812 L103.046875,529.234375 C105.859389,526.83853 108.190095,525.145838 110.039062,524.15625 C111.88803,523.166662 113.906239,522.404951 116.09375,521.871094 C118.281261,521.337237 120.729153,521.070312 123.4375,521.070312 C127.005226,521.070312 130.156236,521.721348 132.890625,523.023438 C135.625014,524.325527 137.747388,526.148426 139.257812,528.492188 C140.768237,530.835949 141.523438,533.518214 141.523438,536.539062 C141.523438,539.169284 141.061203,541.636707 140.136719,543.941406 C139.212235,546.246105 137.779958,548.609363 135.839844,551.03125 C133.89973,553.453137 130.481795,556.903623 125.585938,561.382812 L118.242188,568.296875 L118.242188,568.84375 L143.125,568.84375 L143.125,579 Z M188.476562,550.445312 C188.476562,560.419321 186.842464,567.802059 183.574219,572.59375 C180.305973,577.385441 175.273471,579.78125 168.476562,579.78125 C161.887988,579.78125 156.92059,577.307316 153.574219,572.359375 C150.227848,567.411434 148.554688,560.106819 148.554688,550.445312 C148.554688,540.367137 150.182275,532.938826 153.4375,528.160156 C156.692725,523.381487 161.705695,520.992188 168.476562,520.992188 C175.065137,520.992188 180.045556,523.492162 183.417969,528.492188 C186.790381,533.492213 188.476562,540.809848 188.476562,550.445312 Z M160.546875,550.445312 C160.546875,557.450556 161.152338,562.470037 162.363281,565.503906 C163.574225,568.537776 165.611965,570.054688 168.476562,570.054688 C171.289077,570.054688 173.320306,568.518245 174.570312,565.445312 C175.820319,562.37238 176.445312,557.37243 176.445312,550.445312 C176.445312,543.440069 175.813808,538.407567 174.550781,535.347656 C173.287754,532.287745 171.263035,530.757812 168.476562,530.757812 C165.638007,530.757812 163.606777,532.287745 162.382812,535.347656 C161.158848,538.407567 160.546875,543.440069 160.546875,550.445312 Z M224.375,579 L212.304688,579 L212.304688,545.953125 L212.421875,540.523438 L212.617188,534.585938 C210.611969,536.591156 209.218754,537.906247 208.4375,538.53125 L201.875,543.804688 L196.054688,536.539062 L214.453125,521.890625 L224.375,521.890625 L224.375,579 Z M259.882812,521.148438 C265.35159,521.148438 269.759098,522.391915 273.105469,524.878906 C276.45184,527.365898 278.125,530.718729 278.125,534.9375 C278.125,537.854181 277.317716,540.451812 275.703125,542.730469 C274.088534,545.009126 271.484393,547.046866 267.890625,548.84375 C272.16148,551.135428 275.227855,553.524727 277.089844,556.011719 C278.951832,558.49871 279.882812,561.226548 279.882812,564.195312 C279.882812,568.882836 278.046893,572.652329 274.375,575.503906 C270.703107,578.355483 265.872426,579.78125 259.882812,579.78125 C253.632781,579.78125 248.723976,578.453138 245.15625,575.796875 C241.588524,573.140612 239.804688,569.377629 239.804688,564.507812 C239.804688,561.252588 240.670564,558.361992 242.402344,555.835938 C244.134123,553.309883 246.914043,551.083343 250.742188,549.15625 C247.486963,547.098948 245.143236,544.898449 243.710938,542.554688 C242.278639,540.210926 241.5625,537.645847 241.5625,534.859375 C241.5625,530.770813 243.255191,527.463554 246.640625,524.9375 C250.026059,522.411446 254.440077,521.148438 259.882812,521.148438 Z M250.976562,563.804688 C250.976562,566.044282 251.757805,567.789056 253.320312,569.039062 C254.88282,570.289069 257.018216,570.914062 259.726562,570.914062 C262.721369,570.914062 264.96093,570.269538 266.445312,568.980469 C267.929695,567.6914 268.671875,565.992198 268.671875,563.882812 C268.671875,562.138012 267.936205,560.503914 266.464844,558.980469 C264.993482,557.457024 262.604183,555.835946 259.296875,554.117188 C253.749972,556.669284 250.976562,559.898418 250.976562,563.804688 Z M259.804688,529.976562 C257.747386,529.976562 256.087246,530.503901 254.824219,531.558594 C253.561192,532.613287 252.929688,534.026033 252.929688,535.796875 C252.929688,537.359383 253.430985,538.759108 254.433594,539.996094 C255.436203,541.233079 257.252591,542.502598 259.882812,543.804688 C262.434909,542.606765 264.218745,541.382819 265.234375,540.132812 C266.250005,538.882806 266.757812,537.437508 266.757812,535.796875 C266.757812,533.999991 266.106777,532.580734 264.804688,531.539062 C263.502598,530.497391 261.835948,529.976562 259.804688,529.976562 Z" id="Premio-Santander-a-l" fill="#EC0000"></path>
            </g>
        </g>
    </g>
</svg>