<?xml version="1.0" encoding="UTF-8"?>
<svg width="635px" height="600px" viewBox="0 0 635 600" version="1.1" xmlns="http://www.w3.org/2000/svg" xmlns:xlink="http://www.w3.org/1999/xlink">
    <!-- Generator: Sketch 47.1 (45422) - http://www.bohemiancoding.com/sketch -->
    <title>Group 15</title>
    <desc>Created with Sketch.</desc>
    <defs></defs>
    <g id="Page-1" stroke="none" stroke-width="1" fill="none" fill-rule="evenodd">
        <g id="Convocatoria-ajustes" transform="translate(-374.000000, -739.000000)">
            <g id="Group-15" transform="translate(374.000000, 739.000000)">
                <rect id="Rectangle-Copy-2" fill="#FFFFFF" x="0" y="0" width="635" height="600"></rect>
                <path d="M110.84375,170 L94.9257812,170 L94.9257812,141.445312 L110.84375,141.445312 L110.84375,144.394531 L98.2460938,144.394531 L98.2460938,153.59375 L110.082031,153.59375 L110.082031,156.523438 L98.2460938,156.523438 L98.2460938,167.03125 L110.84375,167.03125 L110.84375,170 Z M130.492188,164.160156 C130.492188,166.152354 129.750007,167.688797 128.265625,168.769531 C126.781243,169.850266 124.69793,170.390625 122.015625,170.390625 C119.177069,170.390625 116.96355,169.941411 115.375,169.042969 L115.375,166.035156 C116.403651,166.555992 117.507156,166.966144 118.685547,167.265625 C119.863938,167.565106 120.999995,167.714844 122.09375,167.714844 C123.786467,167.714844 125.088537,167.444664 126,166.904297 C126.911463,166.36393 127.367188,165.54037 127.367188,164.433594 C127.367188,163.600256 127.005863,162.887373 126.283203,162.294922 C125.560543,161.702471 124.151052,161.002608 122.054688,160.195312 C120.06249,159.453121 118.646489,158.805341 117.806641,158.251953 C116.966793,157.698565 116.341799,157.070316 115.931641,156.367188 C115.521482,155.664059 115.316406,154.824224 115.316406,153.847656 C115.316406,152.102856 116.026035,150.725917 117.445312,149.716797 C118.86459,148.707677 120.811186,148.203125 123.285156,148.203125 C125.589855,148.203125 127.842437,148.67187 130.042969,149.609375 L128.890625,152.246094 C126.742177,151.360673 124.795582,150.917969 123.050781,150.917969 C121.514315,150.917969 120.355473,151.158852 119.574219,151.640625 C118.792965,152.122398 118.402344,152.786454 118.402344,153.632812 C118.402344,154.205732 118.548827,154.694008 118.841797,155.097656 C119.134767,155.501304 119.606768,155.885415 120.257812,156.25 C120.908857,156.614585 122.158845,157.141924 124.007812,157.832031 C126.546888,158.756515 128.262365,159.687495 129.154297,160.625 C130.046228,161.562505 130.492188,162.740878 130.492188,164.160156 Z M173.441406,170 L173.441406,156.074219 C173.441406,154.368481 173.076827,153.089197 172.347656,152.236328 C171.618486,151.383459 170.485685,150.957031 168.949219,150.957031 C166.930979,150.957031 165.440109,151.536453 164.476562,152.695312 C163.513016,153.854172 163.03125,155.638009 163.03125,158.046875 L163.03125,170 L159.789062,170 L159.789062,156.074219 C159.789062,154.368481 159.424483,153.089197 158.695312,152.236328 C157.966142,151.383459 156.826831,150.957031 155.277344,150.957031 C153.246084,150.957031 151.758468,151.565749 150.814453,152.783203 C149.870438,154.000657 149.398438,155.99608 149.398438,158.769531 L149.398438,170 L146.15625,170 L146.15625,148.59375 L148.792969,148.59375 L149.320312,151.523438 L149.476562,151.523438 C150.088545,150.481766 150.951166,149.667972 152.064453,149.082031 C153.17774,148.496091 154.424472,148.203125 155.804688,148.203125 C159.151058,148.203125 161.338537,149.41405 162.367188,151.835938 L162.523438,151.835938 C163.161462,150.71614 164.085931,149.830732 165.296875,149.179688 C166.507819,148.528643 167.888013,148.203125 169.4375,148.203125 C171.859387,148.203125 173.67252,148.824864 174.876953,150.068359 C176.081386,151.311855 176.683594,153.300768 176.683594,156.035156 L176.683594,170 L173.441406,170 Z M201.839844,159.277344 C201.839844,162.766945 200.960946,165.491527 199.203125,167.451172 C197.445304,169.410817 195.016943,170.390625 191.917969,170.390625 C190.003897,170.390625 188.304695,169.941411 186.820312,169.042969 C185.33593,168.144527 184.190108,166.855477 183.382812,165.175781 C182.575517,163.496085 182.171875,161.529959 182.171875,159.277344 C182.171875,155.787743 183.044262,153.069671 184.789062,151.123047 C186.533863,149.176423 188.955714,148.203125 192.054688,148.203125 C195.049494,148.203125 197.429028,149.199209 199.193359,151.191406 C200.957691,153.183604 201.839844,155.878889 201.839844,159.277344 Z M185.53125,159.277344 C185.53125,162.011732 186.07812,164.095045 187.171875,165.527344 C188.26563,166.959643 189.873687,167.675781 191.996094,167.675781 C194.1185,167.675781 195.729812,166.962898 196.830078,165.537109 C197.930344,164.111321 198.480469,162.024753 198.480469,159.277344 C198.480469,156.555976 197.930344,154.488939 196.830078,153.076172 C195.729812,151.663404 194.105479,150.957031 191.957031,150.957031 C189.834625,150.957031 188.233078,151.653639 187.152344,153.046875 C186.071609,154.440111 185.53125,156.516913 185.53125,159.277344 Z M234.808594,170 L234.808594,156.074219 C234.808594,154.368481 234.444014,153.089197 233.714844,152.236328 C232.985673,151.383459 231.852872,150.957031 230.316406,150.957031 C228.298167,150.957031 226.807296,151.536453 225.84375,152.695312 C224.880204,153.854172 224.398438,155.638009 224.398438,158.046875 L224.398438,170 L221.15625,170 L221.15625,156.074219 C221.15625,154.368481 220.79167,153.089197 220.0625,152.236328 C219.33333,151.383459 218.194018,150.957031 216.644531,150.957031 C214.613271,150.957031 213.125656,151.565749 212.181641,152.783203 C211.237625,154.000657 210.765625,155.99608 210.765625,158.769531 L210.765625,170 L207.523438,170 L207.523438,148.59375 L210.160156,148.59375 L210.6875,151.523438 L210.84375,151.523438 C211.455732,150.481766 212.318354,149.667972 213.431641,149.082031 C214.544927,148.496091 215.79166,148.203125 217.171875,148.203125 C220.518246,148.203125 222.705724,149.41405 223.734375,151.835938 L223.890625,151.835938 C224.528649,150.71614 225.453119,149.830732 226.664062,149.179688 C227.875006,148.528643 229.255201,148.203125 230.804688,148.203125 C233.226575,148.203125 235.039708,148.824864 236.244141,150.068359 C237.448574,151.311855 238.050781,153.300768 238.050781,156.035156 L238.050781,170 L234.808594,170 Z M253.773438,170.390625 C250.609359,170.390625 248.112639,169.427093 246.283203,167.5 C244.453767,165.572907 243.539062,162.897153 243.539062,159.472656 C243.539062,156.022118 244.388663,153.28126 246.087891,151.25 C247.787118,149.21874 250.068996,148.203125 252.933594,148.203125 C255.615899,148.203125 257.738273,149.085278 259.300781,150.849609 C260.863289,152.613941 261.644531,154.941392 261.644531,157.832031 L261.644531,159.882812 L246.898438,159.882812 C246.963542,162.395846 247.598301,164.303379 248.802734,165.605469 C250.007167,166.907559 251.703114,167.558594 253.890625,167.558594 C256.195324,167.558594 258.473947,167.076828 260.726562,166.113281 L260.726562,169.003906 C259.580723,169.4987 258.49675,169.853515 257.474609,170.068359 C256.452469,170.283204 255.218757,170.390625 253.773438,170.390625 Z M252.894531,150.917969 C251.175773,150.917969 249.805344,151.477859 248.783203,152.597656 C247.761063,153.717454 247.158855,155.266917 246.976562,157.246094 L258.167969,157.246094 C258.167969,155.201813 257.712244,153.636073 256.800781,152.548828 C255.889318,151.461583 254.587248,150.917969 252.894531,150.917969 Z M281.820312,170 L281.820312,156.152344 C281.820312,154.407543 281.423181,153.105473 280.628906,152.246094 C279.834631,151.386714 278.591154,150.957031 276.898438,150.957031 C274.658843,150.957031 273.018234,151.562494 271.976562,152.773438 C270.934891,153.984381 270.414062,155.983059 270.414062,158.769531 L270.414062,170 L267.171875,170 L267.171875,148.59375 L269.808594,148.59375 L270.335938,151.523438 L270.492188,151.523438 C271.156253,150.468745 272.087234,149.651696 273.285156,149.072266 C274.483079,148.492836 275.817701,148.203125 277.289062,148.203125 C279.8672,148.203125 281.807285,148.824864 283.109375,150.068359 C284.411465,151.311855 285.0625,153.300768 285.0625,156.035156 L285.0625,170 L281.820312,170 Z M298.636719,167.714844 C299.209638,167.714844 299.763018,167.672526 300.296875,167.587891 C300.830732,167.503255 301.253905,167.415365 301.566406,167.324219 L301.566406,169.804688 C301.214842,169.973959 300.697269,170.113932 300.013672,170.224609 C299.330075,170.335287 298.714846,170.390625 298.167969,170.390625 C294.027323,170.390625 291.957031,168.209657 291.957031,163.847656 L291.957031,151.113281 L288.890625,151.113281 L288.890625,149.550781 L291.957031,148.203125 L293.324219,143.632812 L295.199219,143.632812 L295.199219,148.59375 L301.410156,148.59375 L301.410156,151.113281 L295.199219,151.113281 L295.199219,163.710938 C295.199219,165.000006 295.505205,165.98958 296.117188,166.679688 C296.72917,167.369795 297.569005,167.714844 298.636719,167.714844 Z M324.320312,159.277344 C324.320312,162.766945 323.441415,165.491527 321.683594,167.451172 C319.925772,169.410817 317.497411,170.390625 314.398438,170.390625 C312.484365,170.390625 310.785164,169.941411 309.300781,169.042969 C307.816399,168.144527 306.670577,166.855477 305.863281,165.175781 C305.055986,163.496085 304.652344,161.529959 304.652344,159.277344 C304.652344,155.787743 305.524731,153.069671 307.269531,151.123047 C309.014332,149.176423 311.436182,148.203125 314.535156,148.203125 C317.529963,148.203125 319.909496,149.199209 321.673828,151.191406 C323.43816,153.183604 324.320312,155.878889 324.320312,159.277344 Z M308.011719,159.277344 C308.011719,162.011732 308.558588,164.095045 309.652344,165.527344 C310.746099,166.959643 312.354156,167.675781 314.476562,167.675781 C316.598969,167.675781 318.210281,166.962898 319.310547,165.537109 C320.410813,164.111321 320.960938,162.024753 320.960938,159.277344 C320.960938,156.555976 320.410813,154.488939 319.310547,153.076172 C318.210281,151.663404 316.585948,150.957031 314.4375,150.957031 C312.315094,150.957031 310.713547,151.653639 309.632812,153.046875 C308.552078,154.440111 308.011719,156.516913 308.011719,159.277344 Z M354.964844,167.128906 L354.789062,167.128906 C353.291659,169.303396 351.052098,170.390625 348.070312,170.390625 C345.270819,170.390625 343.093107,169.433603 341.537109,167.519531 C339.981112,165.605459 339.203125,162.884132 339.203125,159.355469 C339.203125,155.826805 339.984367,153.085947 341.546875,151.132812 C343.109383,149.179678 345.28384,148.203125 348.070312,148.203125 C350.973973,148.203125 353.200513,149.257802 354.75,151.367188 L355.003906,151.367188 L354.867188,149.824219 L354.789062,148.320312 L354.789062,139.609375 L358.03125,139.609375 L358.03125,170 L355.394531,170 L354.964844,167.128906 Z M348.480469,167.675781 C350.694021,167.675781 352.298823,167.073574 353.294922,165.869141 C354.291021,164.664708 354.789062,162.721368 354.789062,160.039062 L354.789062,159.355469 C354.789062,156.321599 354.28451,154.156908 353.275391,152.861328 C352.266271,151.565749 350.654959,150.917969 348.441406,150.917969 C346.540355,150.917969 345.085292,151.656894 344.076172,153.134766 C343.067052,154.612638 342.5625,156.699205 342.5625,159.394531 C342.5625,162.12892 343.063797,164.192701 344.066406,165.585938 C345.069015,166.979174 346.540355,167.675781 348.480469,167.675781 Z M373.949219,170.390625 C370.78514,170.390625 368.288421,169.427093 366.458984,167.5 C364.629548,165.572907 363.714844,162.897153 363.714844,159.472656 C363.714844,156.022118 364.564445,153.28126 366.263672,151.25 C367.962899,149.21874 370.244777,148.203125 373.109375,148.203125 C375.79168,148.203125 377.914055,149.085278 379.476562,150.849609 C381.03907,152.613941 381.820312,154.941392 381.820312,157.832031 L381.820312,159.882812 L367.074219,159.882812 C367.139323,162.395846 367.774083,164.303379 368.978516,165.605469 C370.182949,166.907559 371.878895,167.558594 374.066406,167.558594 C376.371105,167.558594 378.649728,167.076828 380.902344,166.113281 L380.902344,169.003906 C379.756505,169.4987 378.672531,169.853515 377.650391,170.068359 C376.62825,170.283204 375.394538,170.390625 373.949219,170.390625 Z M373.070312,150.917969 C371.351554,150.917969 369.981125,151.477859 368.958984,152.597656 C367.936844,153.717454 367.334636,155.266917 367.152344,157.246094 L378.34375,157.246094 C378.34375,155.201813 377.888025,153.636073 376.976562,152.548828 C376.0651,151.461583 374.763029,150.917969 373.070312,150.917969 Z M405.824219,167.675781 C407.985688,167.675781 409.561193,167.09636 410.550781,165.9375 C411.54037,164.77864 412.067708,162.825535 412.132812,160.078125 L412.132812,159.355469 C412.132812,156.360662 411.625005,154.205736 410.609375,152.890625 C409.593745,151.575514 407.985688,150.917969 405.785156,150.917969 C403.884105,150.917969 402.429042,151.656894 401.419922,153.134766 C400.410802,154.612638 399.90625,156.699205 399.90625,159.394531 C399.90625,162.089857 400.404292,164.143873 401.400391,165.556641 C402.396489,166.969408 403.871084,167.675781 405.824219,167.675781 Z M405.335938,170.390625 C402.575507,170.390625 400.420581,169.420583 398.871094,167.480469 C397.321607,165.540355 396.546875,162.832049 396.546875,159.355469 C396.546875,155.852847 397.328117,153.118499 398.890625,151.152344 C400.453133,149.186188 402.62759,148.203125 405.414062,148.203125 C408.343765,148.203125 410.596346,149.309885 412.171875,151.523438 L412.347656,151.523438 L412.816406,148.59375 L415.375,148.59375 L415.375,179.609375 L412.132812,179.609375 L412.132812,170.449219 C412.132812,169.147129 412.204426,168.040369 412.347656,167.128906 L412.09375,167.128906 C410.596347,169.303396 408.343765,170.390625 405.335938,170.390625 Z M425.296875,148.59375 L425.296875,162.480469 C425.296875,164.225269 425.694006,165.527339 426.488281,166.386719 C427.282556,167.246098 428.526033,167.675781 430.21875,167.675781 C432.458345,167.675781 434.095698,167.063808 435.130859,165.839844 C436.166021,164.615879 436.683594,162.617201 436.683594,159.84375 L436.683594,148.59375 L439.925781,148.59375 L439.925781,170 L437.25,170 L436.78125,167.128906 L436.605469,167.128906 C435.941403,168.183599 435.020188,168.990883 433.841797,169.550781 C432.663406,170.11068 431.319018,170.390625 429.808594,170.390625 C427.204414,170.390625 425.254564,169.772142 423.958984,168.535156 C422.663405,167.298171 422.015625,165.319024 422.015625,162.597656 L422.015625,148.59375 L425.296875,148.59375 Z M455.84375,170.390625 C452.679672,170.390625 450.182952,169.427093 448.353516,167.5 C446.524079,165.572907 445.609375,162.897153 445.609375,159.472656 C445.609375,156.022118 446.458976,153.28126 448.158203,151.25 C449.85743,149.21874 452.139309,148.203125 455.003906,148.203125 C457.686211,148.203125 459.808586,149.085278 461.371094,150.849609 C462.933602,152.613941 463.714844,154.941392 463.714844,157.832031 L463.714844,159.882812 L448.96875,159.882812 C449.033854,162.395846 449.668614,164.303379 450.873047,165.605469 C452.07748,166.907559 453.773427,167.558594 455.960938,167.558594 C458.265637,167.558594 460.54426,167.076828 462.796875,166.113281 L462.796875,169.003906 C461.651036,169.4987 460.567062,169.853515 459.544922,170.068359 C458.522781,170.283204 457.28907,170.390625 455.84375,170.390625 Z M454.964844,150.917969 C453.246085,150.917969 451.875656,151.477859 450.853516,152.597656 C449.831375,153.717454 449.229168,155.266917 449.046875,157.246094 L460.238281,157.246094 C460.238281,155.201813 459.782557,153.636073 458.871094,152.548828 C457.959631,151.461583 456.657561,150.917969 454.964844,150.917969 Z M101.351562,222.714844 C101.924482,222.714844 102.477862,222.672526 103.011719,222.587891 C103.545576,222.503255 103.968748,222.415365 104.28125,222.324219 L104.28125,224.804688 C103.929686,224.973959 103.412113,225.113932 102.728516,225.224609 C102.044918,225.335287 101.42969,225.390625 100.882812,225.390625 C96.7421668,225.390625 94.671875,223.209657 94.671875,218.847656 L94.671875,206.113281 L91.6054688,206.113281 L91.6054688,204.550781 L94.671875,203.203125 L96.0390625,198.632812 L97.9140625,198.632812 L97.9140625,203.59375 L104.125,203.59375 L104.125,206.113281 L97.9140625,206.113281 L97.9140625,218.710938 C97.9140625,220.000006 98.220049,220.98958 98.8320312,221.679688 C99.4440135,222.369795 100.283849,222.714844 101.351562,222.714844 Z M111.605469,203.59375 L111.605469,217.480469 C111.605469,219.225269 112.0026,220.527339 112.796875,221.386719 C113.59115,222.246098 114.834627,222.675781 116.527344,222.675781 C118.766938,222.675781 120.404292,222.063808 121.439453,220.839844 C122.474615,219.615879 122.992188,217.617201 122.992188,214.84375 L122.992188,203.59375 L126.234375,203.59375 L126.234375,225 L123.558594,225 L123.089844,222.128906 L122.914062,222.128906 C122.249997,223.183599 121.328782,223.990883 120.150391,224.550781 C118.971999,225.11068 117.627612,225.390625 116.117188,225.390625 C113.513008,225.390625 111.563158,224.772142 110.267578,223.535156 C108.971999,222.298171 108.324219,220.319024 108.324219,217.597656 L108.324219,203.59375 L111.605469,203.59375 Z M146.742188,225 L143.5,225 L143.5,203.59375 L146.742188,203.59375 L146.742188,225 Z M143.226562,197.792969 C143.226562,197.050778 143.408852,196.507163 143.773438,196.162109 C144.138023,195.817056 144.593747,195.644531 145.140625,195.644531 C145.661461,195.644531 146.110675,195.820311 146.488281,196.171875 C146.865887,196.523439 147.054688,197.063798 147.054688,197.792969 C147.054688,198.522139 146.865887,199.065753 146.488281,199.423828 C146.110675,199.781903 145.661461,199.960938 145.140625,199.960938 C144.593747,199.960938 144.138023,199.781903 143.773438,199.423828 C143.408852,199.065753 143.226562,198.522139 143.226562,197.792969 Z M168.1875,222.128906 L168.011719,222.128906 C166.514315,224.303396 164.274754,225.390625 161.292969,225.390625 C158.493476,225.390625 156.315763,224.433603 154.759766,222.519531 C153.203768,220.605459 152.425781,217.884132 152.425781,214.355469 C152.425781,210.826805 153.207023,208.085947 154.769531,206.132812 C156.332039,204.179678 158.506496,203.203125 161.292969,203.203125 C164.196629,203.203125 166.423169,204.257802 167.972656,206.367188 L168.226562,206.367188 L168.089844,204.824219 L168.011719,203.320312 L168.011719,194.609375 L171.253906,194.609375 L171.253906,225 L168.617188,225 L168.1875,222.128906 Z M161.703125,222.675781 C163.916678,222.675781 165.521479,222.073574 166.517578,220.869141 C167.513677,219.664708 168.011719,217.721368 168.011719,215.039062 L168.011719,214.355469 C168.011719,211.321599 167.507167,209.156908 166.498047,207.861328 C165.488927,206.565749 163.877615,205.917969 161.664062,205.917969 C159.763011,205.917969 158.307948,206.656894 157.298828,208.134766 C156.289708,209.612638 155.785156,211.699205 155.785156,214.394531 C155.785156,217.12892 156.286453,219.192701 157.289062,220.585938 C158.291672,221.979174 159.763011,222.675781 161.703125,222.675781 Z M187.171875,225.390625 C184.007797,225.390625 181.511077,224.427093 179.681641,222.5 C177.852204,220.572907 176.9375,217.897153 176.9375,214.472656 C176.9375,211.022118 177.787101,208.28126 179.486328,206.25 C181.185555,204.21874 183.467434,203.203125 186.332031,203.203125 C189.014336,203.203125 191.136711,204.085278 192.699219,205.849609 C194.261727,207.613941 195.042969,209.941392 195.042969,212.832031 L195.042969,214.882812 L180.296875,214.882812 C180.361979,217.395846 180.996739,219.303379 182.201172,220.605469 C183.405605,221.907559 185.101552,222.558594 187.289062,222.558594 C189.593762,222.558594 191.872385,222.076828 194.125,221.113281 L194.125,224.003906 C192.979161,224.4987 191.895187,224.853515 190.873047,225.068359 C189.850906,225.283204 188.617195,225.390625 187.171875,225.390625 Z M186.292969,205.917969 C184.57421,205.917969 183.203781,206.477859 182.181641,207.597656 C181.1595,208.717454 180.557293,210.266917 180.375,212.246094 L191.566406,212.246094 C191.566406,210.201813 191.110682,208.636073 190.199219,207.548828 C189.287756,206.461583 187.985686,205.917969 186.292969,205.917969 Z M213.734375,225 L213.089844,221.953125 L212.933594,221.953125 C211.86588,223.294278 210.801438,224.202472 209.740234,224.677734 C208.679031,225.152997 207.354175,225.390625 205.765625,225.390625 C203.643219,225.390625 201.979824,224.843755 200.775391,223.75 C199.570958,222.656245 198.96875,221.100271 198.96875,219.082031 C198.96875,214.759093 202.425747,212.493491 209.339844,212.285156 L212.972656,212.167969 L212.972656,210.839844 C212.972656,209.160148 212.611332,207.919926 211.888672,207.119141 C211.166012,206.318355 210.010425,205.917969 208.421875,205.917969 C206.638012,205.917969 204.619803,206.464838 202.367188,207.558594 L201.371094,205.078125 C202.425787,204.505205 203.581374,204.055991 204.837891,203.730469 C206.094407,203.404946 207.35416,203.242188 208.617188,203.242188 C211.169284,203.242188 213.060541,203.808588 214.291016,204.941406 C215.521491,206.074224 216.136719,207.890612 216.136719,210.390625 L216.136719,225 L213.734375,225 Z M206.410156,222.714844 C208.428396,222.714844 210.013666,222.161464 211.166016,221.054688 C212.318365,219.947911 212.894531,218.398447 212.894531,216.40625 L212.894531,214.472656 L209.652344,214.609375 C207.074206,214.700521 205.2155,215.100908 204.076172,215.810547 C202.936843,216.520186 202.367188,217.62369 202.367188,219.121094 C202.367188,220.292975 202.722002,221.184893 203.431641,221.796875 C204.14128,222.408857 205.134108,222.714844 206.410156,222.714844 Z M247.015625,219.160156 C247.015625,221.152354 246.273445,222.688797 244.789062,223.769531 C243.30468,224.850266 241.221368,225.390625 238.539062,225.390625 C235.700507,225.390625 233.486987,224.941411 231.898438,224.042969 L231.898438,221.035156 C232.927088,221.555992 234.030593,221.966144 235.208984,222.265625 C236.387376,222.565106 237.523432,222.714844 238.617188,222.714844 C240.309904,222.714844 241.611975,222.444664 242.523438,221.904297 C243.4349,221.36393 243.890625,220.54037 243.890625,219.433594 C243.890625,218.600256 243.5293,217.887373 242.806641,217.294922 C242.083981,216.702471 240.67449,216.002608 238.578125,215.195312 C236.585928,214.453121 235.169926,213.805341 234.330078,213.251953 C233.49023,212.698565 232.865236,212.070316 232.455078,211.367188 C232.04492,210.664059 231.839844,209.824224 231.839844,208.847656 C231.839844,207.102856 232.549472,205.725917 233.96875,204.716797 C235.388028,203.707677 237.334623,203.203125 239.808594,203.203125 C242.113293,203.203125 244.365874,203.67187 246.566406,204.609375 L245.414062,207.246094 C243.265614,206.360673 241.319019,205.917969 239.574219,205.917969 C238.037753,205.917969 236.87891,206.158852 236.097656,206.640625 C235.316402,207.122398 234.925781,207.786454 234.925781,208.632812 C234.925781,209.205732 235.072264,209.694008 235.365234,210.097656 C235.658205,210.501304 236.130205,210.885415 236.78125,211.25 C237.432295,211.614585 238.682282,212.141924 240.53125,212.832031 C243.070325,213.756515 244.785803,214.687495 245.677734,215.625 C246.569666,216.562505 247.015625,217.740878 247.015625,219.160156 Z M261.332031,225.390625 C258.167953,225.390625 255.671233,224.427093 253.841797,222.5 C252.012361,220.572907 251.097656,217.897153 251.097656,214.472656 C251.097656,211.022118 251.947257,208.28126 253.646484,206.25 C255.345712,204.21874 257.62759,203.203125 260.492188,203.203125 C263.174493,203.203125 265.296867,204.085278 266.859375,205.849609 C268.421883,207.613941 269.203125,209.941392 269.203125,212.832031 L269.203125,214.882812 L254.457031,214.882812 C254.522136,217.395846 255.156895,219.303379 256.361328,220.605469 C257.565761,221.907559 259.261708,222.558594 261.449219,222.558594 C263.753918,222.558594 266.032541,222.076828 268.285156,221.113281 L268.285156,224.003906 C267.139317,224.4987 266.055344,224.853515 265.033203,225.068359 C264.011063,225.283204 262.777351,225.390625 261.332031,225.390625 Z M260.453125,205.917969 C258.734366,205.917969 257.363937,206.477859 256.341797,207.597656 C255.319656,208.717454 254.717449,210.266917 254.535156,212.246094 L265.726562,212.246094 C265.726562,210.201813 265.270838,208.636073 264.359375,207.548828 C263.447912,206.461583 262.145842,205.917969 260.453125,205.917969 Z M299.769531,225 L299.769531,211.152344 C299.769531,209.407543 299.3724,208.105473 298.578125,207.246094 C297.78385,206.386714 296.540373,205.957031 294.847656,205.957031 C292.595041,205.957031 290.951177,206.569004 289.916016,207.792969 C288.880854,209.016933 288.363281,211.022121 288.363281,213.808594 L288.363281,225 L285.121094,225 L285.121094,194.609375 L288.363281,194.609375 L288.363281,203.808594 C288.363281,204.91537 288.311198,205.83333 288.207031,206.5625 L288.402344,206.5625 C289.040368,205.533849 289.948562,204.72331 291.126953,204.130859 C292.305344,203.538408 293.649732,203.242188 295.160156,203.242188 C297.777357,203.242188 299.740228,203.863926 301.048828,205.107422 C302.357428,206.350918 303.011719,208.326809 303.011719,211.035156 L303.011719,225 L299.769531,225 Z M322.835938,225 L322.191406,221.953125 L322.035156,221.953125 C320.967443,223.294278 319.903,224.202472 318.841797,224.677734 C317.780594,225.152997 316.455737,225.390625 314.867188,225.390625 C312.744781,225.390625 311.081386,224.843755 309.876953,223.75 C308.67252,222.656245 308.070312,221.100271 308.070312,219.082031 C308.070312,214.759093 311.527309,212.493491 318.441406,212.285156 L322.074219,212.167969 L322.074219,210.839844 C322.074219,209.160148 321.712894,207.919926 320.990234,207.119141 C320.267575,206.318355 319.111987,205.917969 317.523438,205.917969 C315.739574,205.917969 313.721365,206.464838 311.46875,207.558594 L310.472656,205.078125 C311.527349,204.505205 312.682936,204.055991 313.939453,203.730469 C315.19597,203.404946 316.455723,203.242188 317.71875,203.242188 C320.270846,203.242188 322.162103,203.808588 323.392578,204.941406 C324.623053,206.074224 325.238281,207.890612 325.238281,210.390625 L325.238281,225 L322.835938,225 Z M315.511719,222.714844 C317.529958,222.714844 319.115229,222.161464 320.267578,221.054688 C321.419928,219.947911 321.996094,218.398447 321.996094,216.40625 L321.996094,214.472656 L318.753906,214.609375 C316.175768,214.700521 314.317063,215.100908 313.177734,215.810547 C312.038406,216.520186 311.46875,217.62369 311.46875,219.121094 C311.46875,220.292975 311.823564,221.184893 312.533203,221.796875 C313.242842,222.408857 314.235671,222.714844 315.511719,222.714844 Z M349.4375,203.59375 L349.4375,205.644531 L345.472656,206.113281 C345.837241,206.569013 346.162759,207.16471 346.449219,207.900391 C346.735679,208.636071 346.878906,209.466141 346.878906,210.390625 C346.878906,212.48699 346.162768,214.16015 344.730469,215.410156 C343.29817,216.660162 341.332044,217.285156 338.832031,217.285156 C338.194007,217.285156 337.595055,217.233073 337.035156,217.128906 C335.654941,217.858077 334.964844,218.776036 334.964844,219.882812 C334.964844,220.468753 335.205727,220.901691 335.6875,221.181641 C336.169273,221.46159 336.996088,221.601562 338.167969,221.601562 L341.957031,221.601562 C344.274751,221.601562 346.055332,222.089839 347.298828,223.066406 C348.542324,224.042974 349.164062,225.46223 349.164062,227.324219 C349.164062,229.694022 348.213551,231.500645 346.3125,232.744141 C344.411449,233.987636 341.638039,234.609375 337.992188,234.609375 C335.192694,234.609375 333.034513,234.088547 331.517578,233.046875 C330.000643,232.005203 329.242188,230.533864 329.242188,228.632812 C329.242188,227.330723 329.65885,226.204432 330.492188,225.253906 C331.325525,224.303381 332.497388,223.658856 334.007812,223.320312 C333.460935,223.072915 333.001955,222.688805 332.630859,222.167969 C332.259764,221.647133 332.074219,221.04167 332.074219,220.351562 C332.074219,219.570309 332.28255,218.886722 332.699219,218.300781 C333.115887,217.714841 333.773433,217.14844 334.671875,216.601562 C333.565099,216.145831 332.663415,215.371099 331.966797,214.277344 C331.270179,213.183588 330.921875,211.933601 330.921875,210.527344 C330.921875,208.183582 331.624993,206.376959 333.03125,205.107422 C334.437507,203.837884 336.429675,203.203125 339.007812,203.203125 C340.12761,203.203125 341.136714,203.333332 342.035156,203.59375 L349.4375,203.59375 Z M332.367188,228.59375 C332.367188,229.75261 332.855464,230.631507 333.832031,231.230469 C334.808599,231.82943 336.208324,232.128906 338.03125,232.128906 C340.752618,232.128906 342.767572,231.722009 344.076172,230.908203 C345.384772,230.094397 346.039062,228.990892 346.039062,227.597656 C346.039062,226.438796 345.680993,225.634768 344.964844,225.185547 C344.248694,224.736326 342.901052,224.511719 340.921875,224.511719 L337.035156,224.511719 C335.563795,224.511719 334.417973,224.863278 333.597656,225.566406 C332.77734,226.269535 332.367188,227.278639 332.367188,228.59375 Z M334.125,210.449219 C334.125,211.946622 334.548173,213.079423 335.394531,213.847656 C336.24089,214.615889 337.419263,215 338.929688,215 C342.093766,215 343.675781,213.463557 343.675781,210.390625 C343.675781,207.174463 342.074235,205.566406 338.871094,205.566406 C337.347649,205.566406 336.175785,205.976558 335.355469,206.796875 C334.535152,207.617192 334.125,208.834627 334.125,210.449219 Z M366.996094,225 L366.351562,221.953125 L366.195312,221.953125 C365.127599,223.294278 364.063156,224.202472 363.001953,224.677734 C361.94075,225.152997 360.615893,225.390625 359.027344,225.390625 C356.904937,225.390625 355.241542,224.843755 354.037109,223.75 C352.832676,222.656245 352.230469,221.100271 352.230469,219.082031 C352.230469,214.759093 355.687465,212.493491 362.601562,212.285156 L366.234375,212.167969 L366.234375,210.839844 C366.234375,209.160148 365.87305,207.919926 365.150391,207.119141 C364.427731,206.318355 363.272143,205.917969 361.683594,205.917969 C359.899731,205.917969 357.881522,206.464838 355.628906,207.558594 L354.632812,205.078125 C355.687505,204.505205 356.843093,204.055991 358.099609,203.730469 C359.356126,203.404946 360.615879,203.242188 361.878906,203.242188 C364.431002,203.242188 366.322259,203.808588 367.552734,204.941406 C368.783209,206.074224 369.398438,207.890612 369.398438,210.390625 L369.398438,225 L366.996094,225 Z M359.671875,222.714844 C361.690114,222.714844 363.275385,222.161464 364.427734,221.054688 C365.580084,219.947911 366.15625,218.398447 366.15625,216.40625 L366.15625,214.472656 L362.914062,214.609375 C360.335925,214.700521 358.477219,215.100908 357.337891,215.810547 C356.198562,216.520186 355.628906,217.62369 355.628906,219.121094 C355.628906,220.292975 355.98372,221.184893 356.693359,221.796875 C357.402998,222.408857 358.395827,222.714844 359.671875,222.714844 Z M104.203125,258.203125 C105.153651,258.203125 106.006507,258.281249 106.761719,258.4375 L106.3125,261.445312 C105.427079,261.249999 104.645837,261.152344 103.96875,261.152344 C102.236971,261.152344 100.755866,261.855462 99.5253906,263.261719 C98.2949157,264.667976 97.6796875,266.41926 97.6796875,268.515625 L97.6796875,280 L94.4375,280 L94.4375,258.59375 L97.1132812,258.59375 L97.484375,262.558594 L97.640625,262.558594 C98.4348998,261.165358 99.3919215,260.09115 100.511719,259.335938 C101.631516,258.580725 102.861972,258.203125 104.203125,258.203125 Z M119.007812,280.390625 C115.843734,280.390625 113.347014,279.427093 111.517578,277.5 C109.688142,275.572907 108.773438,272.897153 108.773438,269.472656 C108.773438,266.022118 109.623038,263.28126 111.322266,261.25 C113.021493,259.21874 115.303371,258.203125 118.167969,258.203125 C120.850274,258.203125 122.972648,259.085278 124.535156,260.849609 C126.097664,262.613941 126.878906,264.941392 126.878906,267.832031 L126.878906,269.882812 L112.132812,269.882812 C112.197917,272.395846 112.832676,274.303379 114.037109,275.605469 C115.241542,276.907559 116.937489,277.558594 119.125,277.558594 C121.429699,277.558594 123.708322,277.076828 125.960938,276.113281 L125.960938,279.003906 C124.815098,279.4987 123.731125,279.853515 122.708984,280.068359 C121.686844,280.283204 120.453132,280.390625 119.007812,280.390625 Z M118.128906,260.917969 C116.410148,260.917969 115.039719,261.477859 114.017578,262.597656 C112.995438,263.717454 112.39323,265.266917 112.210938,267.246094 L123.402344,267.246094 C123.402344,265.201813 122.946619,263.636073 122.035156,262.548828 C121.123693,261.461583 119.821623,260.917969 118.128906,260.917969 Z M145.570312,280 L144.925781,276.953125 L144.769531,276.953125 C143.701818,278.294278 142.637375,279.202472 141.576172,279.677734 C140.514969,280.152997 139.190112,280.390625 137.601562,280.390625 C135.479156,280.390625 133.815761,279.843755 132.611328,278.75 C131.406895,277.656245 130.804688,276.100271 130.804688,274.082031 C130.804688,269.759093 134.261684,267.493491 141.175781,267.285156 L144.808594,267.167969 L144.808594,265.839844 C144.808594,264.160148 144.447269,262.919926 143.724609,262.119141 C143.00195,261.318355 141.846362,260.917969 140.257812,260.917969 C138.473949,260.917969 136.45574,261.464838 134.203125,262.558594 L133.207031,260.078125 C134.261724,259.505205 135.417311,259.055991 136.673828,258.730469 C137.930345,258.404946 139.190098,258.242188 140.453125,258.242188 C143.005221,258.242188 144.896478,258.808588 146.126953,259.941406 C147.357428,261.074224 147.972656,262.890612 147.972656,265.390625 L147.972656,280 L145.570312,280 Z M138.246094,277.714844 C140.264333,277.714844 141.849604,277.161464 143.001953,276.054688 C144.154303,274.947911 144.730469,273.398447 144.730469,271.40625 L144.730469,269.472656 L141.488281,269.609375 C138.910143,269.700521 137.051438,270.100908 135.912109,270.810547 C134.772781,271.520186 134.203125,272.62369 134.203125,274.121094 C134.203125,275.292975 134.557939,276.184893 135.267578,276.796875 C135.977217,277.408857 136.970046,277.714844 138.246094,277.714844 Z M157.894531,280 L154.652344,280 L154.652344,249.609375 L157.894531,249.609375 L157.894531,280 Z M168.011719,280 L164.769531,280 L164.769531,258.59375 L168.011719,258.59375 L168.011719,280 Z M164.496094,252.792969 C164.496094,252.050778 164.678384,251.507163 165.042969,251.162109 C165.407554,250.817056 165.863279,250.644531 166.410156,250.644531 C166.930992,250.644531 167.380206,250.820311 167.757812,251.171875 C168.135419,251.523439 168.324219,252.063798 168.324219,252.792969 C168.324219,253.522139 168.135419,254.065753 167.757812,254.423828 C167.380206,254.781903 166.930992,254.960938 166.410156,254.960938 C165.863279,254.960938 165.407554,254.781903 165.042969,254.423828 C164.678384,254.065753 164.496094,253.522139 164.496094,252.792969 Z M189.457031,277.128906 L189.28125,277.128906 C187.783847,279.303396 185.544286,280.390625 182.5625,280.390625 C179.763007,280.390625 177.585294,279.433603 176.029297,277.519531 C174.4733,275.605459 173.695312,272.884132 173.695312,269.355469 C173.695312,265.826805 174.476555,263.085947 176.039062,261.132812 C177.60157,259.179678 179.776028,258.203125 182.5625,258.203125 C185.46616,258.203125 187.692701,259.257802 189.242188,261.367188 L189.496094,261.367188 L189.359375,259.824219 L189.28125,258.320312 L189.28125,249.609375 L192.523438,249.609375 L192.523438,280 L189.886719,280 L189.457031,277.128906 Z M182.972656,277.675781 C185.186209,277.675781 186.791011,277.073574 187.787109,275.869141 C188.783208,274.664708 189.28125,272.721368 189.28125,270.039062 L189.28125,269.355469 C189.28125,266.321599 188.776698,264.156908 187.767578,262.861328 C186.758458,261.565749 185.147146,260.917969 182.933594,260.917969 C181.032543,260.917969 179.577479,261.656894 178.568359,263.134766 C177.55924,264.612638 177.054688,266.699205 177.054688,269.394531 C177.054688,272.12892 177.555985,274.192701 178.558594,275.585938 C179.561203,276.979174 181.032542,277.675781 182.972656,277.675781 Z M212.5625,280 L211.917969,276.953125 L211.761719,276.953125 C210.694005,278.294278 209.629563,279.202472 208.568359,279.677734 C207.507156,280.152997 206.1823,280.390625 204.59375,280.390625 C202.471344,280.390625 200.807949,279.843755 199.603516,278.75 C198.399083,277.656245 197.796875,276.100271 197.796875,274.082031 C197.796875,269.759093 201.253872,267.493491 208.167969,267.285156 L211.800781,267.167969 L211.800781,265.839844 C211.800781,264.160148 211.439457,262.919926 210.716797,262.119141 C209.994137,261.318355 208.83855,260.917969 207.25,260.917969 C205.466137,260.917969 203.447928,261.464838 201.195312,262.558594 L200.199219,260.078125 C201.253912,259.505205 202.409499,259.055991 203.666016,258.730469 C204.922532,258.404946 206.182285,258.242188 207.445312,258.242188 C209.997409,258.242188 211.888666,258.808588 213.119141,259.941406 C214.349616,261.074224 214.964844,262.890612 214.964844,265.390625 L214.964844,280 L212.5625,280 Z M205.238281,277.714844 C207.256521,277.714844 208.841791,277.161464 209.994141,276.054688 C211.14649,274.947911 211.722656,273.398447 211.722656,271.40625 L211.722656,269.472656 L208.480469,269.609375 C205.902331,269.700521 204.043625,270.100908 202.904297,270.810547 C201.764968,271.520186 201.195312,272.62369 201.195312,274.121094 C201.195312,275.292975 201.550127,276.184893 202.259766,276.796875 C202.969405,277.408857 203.962233,277.714844 205.238281,277.714844 Z M236.214844,277.128906 L236.039062,277.128906 C234.541659,279.303396 232.302098,280.390625 229.320312,280.390625 C226.520819,280.390625 224.343107,279.433603 222.787109,277.519531 C221.231112,275.605459 220.453125,272.884132 220.453125,269.355469 C220.453125,265.826805 221.234367,263.085947 222.796875,261.132812 C224.359383,259.179678 226.53384,258.203125 229.320312,258.203125 C232.223973,258.203125 234.450513,259.257802 236,261.367188 L236.253906,261.367188 L236.117188,259.824219 L236.039062,258.320312 L236.039062,249.609375 L239.28125,249.609375 L239.28125,280 L236.644531,280 L236.214844,277.128906 Z M229.730469,277.675781 C231.944021,277.675781 233.548823,277.073574 234.544922,275.869141 C235.541021,274.664708 236.039062,272.721368 236.039062,270.039062 L236.039062,269.355469 C236.039062,266.321599 235.53451,264.156908 234.525391,262.861328 C233.516271,261.565749 231.904959,260.917969 229.691406,260.917969 C227.790355,260.917969 226.335292,261.656894 225.326172,263.134766 C224.317052,264.612638 223.8125,266.699205 223.8125,269.394531 C223.8125,272.12892 224.313797,274.192701 225.316406,275.585938 C226.319015,276.979174 227.790355,277.675781 229.730469,277.675781 Z" id="Es-momento-de-que-tu" fill="#000000"></path>
                <path d="M94.953125,373.347656 L99.2421875,373.347656 L100.138672,390.486328 L94.0566406,390.486328 L94.953125,373.347656 Z M100.208984,367.335938 C100.208984,368.320317 99.9453151,369.064451 99.4179688,369.568359 C98.8906224,370.072268 98.1230519,370.324219 97.1152344,370.324219 C96.1425733,370.324219 95.3896511,370.066409 94.8564453,369.550781 C94.3232395,369.035154 94.0566406,368.29688 94.0566406,367.335938 C94.0566406,366.386714 94.3290988,365.65137 94.8740234,365.129883 C95.418948,364.608396 96.1660109,364.347656 97.1152344,364.347656 C98.0996143,364.347656 98.8613254,364.605466 99.4003906,365.121094 C99.9394558,365.636721 100.208984,366.374995 100.208984,367.335938 Z M110.984375,370.394531 L112.777344,370.394531 C114.453133,370.394531 115.707027,370.06348 116.539062,369.401367 C117.371098,368.739255 117.787109,367.775397 117.787109,366.509766 C117.787109,365.232415 117.43848,364.289066 116.741211,363.679688 C116.043942,363.070309 114.951179,362.765625 113.462891,362.765625 L110.984375,362.765625 L110.984375,370.394531 Z M123.289062,366.316406 C123.289062,369.082045 122.424813,371.197258 120.696289,372.662109 C118.967765,374.12696 116.509782,374.859375 113.322266,374.859375 L110.984375,374.859375 L110.984375,384 L105.535156,384 L105.535156,358.300781 L113.744141,358.300781 C116.861344,358.300781 119.231437,358.971673 120.854492,360.313477 C122.477547,361.65528 123.289062,363.656237 123.289062,366.316406 Z M140.199219,384 L139.162109,381.328125 L139.021484,381.328125 C138.119136,382.464849 137.190434,383.252927 136.235352,383.692383 C135.280269,384.131838 134.035164,384.351562 132.5,384.351562 C130.613272,384.351562 129.127935,383.812505 128.043945,382.734375 C126.959956,381.656245 126.417969,380.121104 126.417969,378.128906 C126.417969,376.042958 127.147454,374.504888 128.606445,373.514648 C130.065437,372.524409 132.26561,371.976563 135.207031,371.871094 L138.617188,371.765625 L138.617188,370.904297 C138.617188,368.912099 137.597666,367.916016 135.558594,367.916016 C133.988273,367.916016 132.142589,368.39062 130.021484,369.339844 L128.246094,365.71875 C130.507824,364.53515 133.015611,363.943359 135.769531,363.943359 C138.406263,363.943359 140.427727,364.517572 141.833984,365.666016 C143.240241,366.814459 143.943359,368.560535 143.943359,370.904297 L143.943359,384 L140.199219,384 Z M138.617188,374.894531 L136.542969,374.964844 C134.984367,375.011719 133.824223,375.292966 133.0625,375.808594 C132.300777,376.324221 131.919922,377.10937 131.919922,378.164062 C131.919922,379.675789 132.787101,380.431641 134.521484,380.431641 C135.763678,380.431641 136.756832,380.074222 137.500977,379.359375 C138.245121,378.644528 138.617188,377.695318 138.617188,376.511719 L138.617188,374.894531 Z M160.431641,363.978516 C161.158207,363.978516 161.761716,364.031249 162.242188,364.136719 L161.837891,369.164062 C161.404295,369.046874 160.876956,368.988281 160.255859,368.988281 C158.544913,368.988281 157.211919,369.42773 156.256836,370.306641 C155.301753,371.185551 154.824219,372.416008 154.824219,373.998047 L154.824219,384 L149.462891,384 L149.462891,364.347656 L153.523438,364.347656 L154.314453,367.652344 L154.578125,367.652344 C155.187503,366.550776 156.010737,365.663089 157.047852,364.989258 C158.084966,364.315426 159.212885,363.978516 160.431641,363.978516 Z M174.089844,380.080078 C175.027348,380.080078 176.152337,379.875002 177.464844,379.464844 L177.464844,383.455078 C176.1289,384.052737 174.488291,384.351562 172.542969,384.351562 C170.398427,384.351562 168.836919,383.809576 167.858398,382.725586 C166.879878,381.641596 166.390625,380.015636 166.390625,377.847656 L166.390625,368.373047 L163.824219,368.373047 L163.824219,366.105469 L166.777344,364.3125 L168.324219,360.164062 L171.751953,360.164062 L171.751953,364.347656 L177.253906,364.347656 L177.253906,368.373047 L171.751953,368.373047 L171.751953,377.847656 C171.751953,378.609379 171.965818,379.171873 172.393555,379.535156 C172.821291,379.898439 173.386715,380.080078 174.089844,380.080078 Z M181.208984,359.267578 C181.208984,357.521476 182.181631,356.648438 184.126953,356.648438 C186.072275,356.648438 187.044922,357.521476 187.044922,359.267578 C187.044922,360.099614 186.80176,360.747068 186.31543,361.209961 C185.829099,361.672854 185.099614,361.904297 184.126953,361.904297 C182.181631,361.904297 181.208984,361.025399 181.208984,359.267578 Z M186.798828,384 L181.4375,384 L181.4375,364.347656 L186.798828,364.347656 L186.798828,384 Z M200.404297,384.351562 C194.287079,384.351562 191.228516,380.994174 191.228516,374.279297 C191.228516,370.939436 192.060539,368.387704 193.724609,366.624023 C195.38868,364.860343 197.773422,363.978516 200.878906,363.978516 C203.152355,363.978516 205.191397,364.423824 206.996094,365.314453 L205.414062,369.462891 C204.570308,369.123045 203.78516,368.844728 203.058594,368.62793 C202.332028,368.411132 201.605472,368.302734 200.878906,368.302734 C198.08983,368.302734 196.695312,370.283183 196.695312,374.244141 C196.695312,378.08791 198.08983,380.009766 200.878906,380.009766 C201.910161,380.009766 202.86523,379.872072 203.744141,379.59668 C204.623051,379.321288 205.501949,378.890628 206.380859,378.304688 L206.380859,382.892578 C205.513668,383.443362 204.6377,383.824218 203.75293,384.035156 C202.86816,384.246095 201.75196,384.351562 200.404297,384.351562 Z M210.705078,359.267578 C210.705078,357.521476 211.677725,356.648438 213.623047,356.648438 C215.568369,356.648438 216.541016,357.521476 216.541016,359.267578 C216.541016,360.099614 216.297854,360.747068 215.811523,361.209961 C215.325193,361.672854 214.595708,361.904297 213.623047,361.904297 C211.677725,361.904297 210.705078,361.025399 210.705078,359.267578 Z M216.294922,384 L210.933594,384 L210.933594,364.347656 L216.294922,364.347656 L216.294922,384 Z M232.712891,384.351562 C230.404285,384.351562 228.593757,383.51368 227.28125,381.837891 L227,381.837891 C227.187501,383.478524 227.28125,384.427733 227.28125,384.685547 L227.28125,392.648438 L221.919922,392.648438 L221.919922,364.347656 L226.279297,364.347656 L227.035156,366.896484 L227.28125,366.896484 C228.535163,364.951162 230.392566,363.978516 232.853516,363.978516 C235.17384,363.978516 236.990228,364.874991 238.302734,366.667969 C239.615241,368.460946 240.271484,370.951156 240.271484,374.138672 C240.271484,376.236339 239.96387,378.058586 239.348633,379.605469 C238.733395,381.152351 237.857428,382.330074 236.720703,383.138672 C235.583979,383.94727 234.248055,384.351562 232.712891,384.351562 Z M231.130859,368.267578 C229.806634,368.267578 228.839847,368.674801 228.230469,369.489258 C227.621091,370.303715 227.304688,371.648428 227.28125,373.523438 L227.28125,374.103516 C227.28125,376.212901 227.594723,377.724605 228.22168,378.638672 C228.848636,379.552739 229.84179,380.009766 231.201172,380.009766 C233.603528,380.009766 234.804688,378.029317 234.804688,374.068359 C234.804688,372.134756 234.508792,370.684575 233.916992,369.717773 C233.325192,368.750972 232.396491,368.267578 231.130859,368.267578 Z M257.181641,384 L256.144531,381.328125 L256.003906,381.328125 C255.101558,382.464849 254.172856,383.252927 253.217773,383.692383 C252.262691,384.131838 251.017586,384.351562 249.482422,384.351562 C247.595694,384.351562 246.110357,383.812505 245.026367,382.734375 C243.942377,381.656245 243.400391,380.121104 243.400391,378.128906 C243.400391,376.042958 244.129876,374.504888 245.588867,373.514648 C247.047859,372.524409 249.248032,371.976563 252.189453,371.871094 L255.599609,371.765625 L255.599609,370.904297 C255.599609,368.912099 254.580088,367.916016 252.541016,367.916016 C250.970695,367.916016 249.125011,368.39062 247.003906,369.339844 L245.228516,365.71875 C247.490246,364.53515 249.998033,363.943359 252.751953,363.943359 C255.388685,363.943359 257.410149,364.517572 258.816406,365.666016 C260.222663,366.814459 260.925781,368.560535 260.925781,370.904297 L260.925781,384 L257.181641,384 Z M255.599609,374.894531 L253.525391,374.964844 C251.966789,375.011719 250.806644,375.292966 250.044922,375.808594 C249.283199,376.324221 248.902344,377.10937 248.902344,378.164062 C248.902344,379.675789 249.769523,380.431641 251.503906,380.431641 C252.7461,380.431641 253.739254,380.074222 254.483398,379.359375 C255.227543,378.644528 255.599609,377.695318 255.599609,376.511719 L255.599609,374.894531 Z M272.984375,364.347656 L278.855469,364.347656 L282.564453,375.404297 C282.880861,376.365239 283.097656,377.501947 283.214844,378.814453 L283.320312,378.814453 C283.449219,377.607416 283.70117,376.470708 284.076172,375.404297 L287.714844,364.347656 L293.462891,364.347656 L285.148438,386.513672 C284.386715,388.564463 283.299812,390.099604 281.887695,391.119141 C280.475579,392.138677 278.826181,392.648438 276.939453,392.648438 C276.013667,392.648438 275.105473,392.548829 274.214844,392.349609 L274.214844,388.095703 C274.859378,388.248048 275.562496,388.324219 276.324219,388.324219 C277.273442,388.324219 278.102536,388.034183 278.811523,387.454102 C279.520511,386.874021 280.074217,385.998053 280.472656,384.826172 L280.789062,383.859375 L272.984375,364.347656 Z M322.730469,364.347656 L322.730469,367.072266 L319.654297,367.863281 C320.2168,368.742192 320.498047,369.726557 320.498047,370.816406 C320.498047,372.925792 319.762703,374.56933 318.291992,375.74707 C316.821282,376.924811 314.77931,377.513672 312.166016,377.513672 L311.199219,377.460938 L310.408203,377.373047 C309.857419,377.794924 309.582031,378.263669 309.582031,378.779297 C309.582031,379.552738 310.566396,379.939453 312.535156,379.939453 L315.875,379.939453 C318.031261,379.939453 319.674799,380.402339 320.805664,381.328125 C321.936529,382.253911 322.501953,383.613272 322.501953,385.40625 C322.501953,387.703136 321.543955,389.484369 319.62793,390.75 C317.711904,392.015631 314.960955,392.648438 311.375,392.648438 C308.632799,392.648438 306.538093,392.170903 305.09082,391.21582 C303.643547,390.260737 302.919922,388.921884 302.919922,387.199219 C302.919922,386.015619 303.289059,385.025395 304.027344,384.228516 C304.765629,383.431637 305.849602,382.863283 307.279297,382.523438 C306.728513,382.289061 306.248049,381.905276 305.837891,381.37207 C305.427732,380.838865 305.222656,380.27344 305.222656,379.675781 C305.222656,378.925778 305.439451,378.30176 305.873047,377.803711 C306.306643,377.305662 306.93359,376.816409 307.753906,376.335938 C306.722651,375.890623 305.905276,375.175786 305.301758,374.191406 C304.698239,373.207026 304.396484,372.046882 304.396484,370.710938 C304.396484,368.566396 305.093743,366.908209 306.488281,365.736328 C307.882819,364.564447 309.874987,363.978516 312.464844,363.978516 C313.015628,363.978516 313.668942,364.02832 314.424805,364.12793 C315.180668,364.22754 315.664061,364.300781 315.875,364.347656 L322.730469,364.347656 Z M307.560547,386.777344 C307.560547,387.515629 307.915036,388.095701 308.624023,388.517578 C309.333011,388.939455 310.326165,389.150391 311.603516,389.150391 C313.5254,389.150391 315.031245,388.886721 316.121094,388.359375 C317.210943,387.832029 317.755859,387.111333 317.755859,386.197266 C317.755859,385.458981 317.433597,384.94922 316.789062,384.667969 C316.144528,384.386717 315.148444,384.246094 313.800781,384.246094 L311.023438,384.246094 C310.039058,384.246094 309.215824,384.477537 308.553711,384.94043 C307.891598,385.403323 307.560547,386.015621 307.560547,386.777344 Z M309.511719,370.78125 C309.511719,371.847662 309.75488,372.691403 310.241211,373.3125 C310.727541,373.933597 311.468745,374.244141 312.464844,374.244141 C313.472661,374.244141 314.210935,373.933597 314.679688,373.3125 C315.14844,372.691403 315.382812,371.847662 315.382812,370.78125 C315.382812,368.414051 314.410166,367.230469 312.464844,367.230469 C310.496084,367.230469 309.511719,368.414051 309.511719,370.78125 Z M338.445312,384 L337.408203,381.328125 L337.267578,381.328125 C336.36523,382.464849 335.436528,383.252927 334.481445,383.692383 C333.526362,384.131838 332.281258,384.351562 330.746094,384.351562 C328.859366,384.351562 327.374029,383.812505 326.290039,382.734375 C325.206049,381.656245 324.664062,380.121104 324.664062,378.128906 C324.664062,376.042958 325.393547,374.504888 326.852539,373.514648 C328.311531,372.524409 330.511704,371.976563 333.453125,371.871094 L336.863281,371.765625 L336.863281,370.904297 C336.863281,368.912099 335.84376,367.916016 333.804688,367.916016 C332.234367,367.916016 330.388682,368.39062 328.267578,369.339844 L326.492188,365.71875 C328.753918,364.53515 331.261705,363.943359 334.015625,363.943359 C336.652357,363.943359 338.673821,364.517572 340.080078,365.666016 C341.486335,366.814459 342.189453,368.560535 342.189453,370.904297 L342.189453,384 L338.445312,384 Z M336.863281,374.894531 L334.789062,374.964844 C333.230461,375.011719 332.070316,375.292966 331.308594,375.808594 C330.546871,376.324221 330.166016,377.10937 330.166016,378.164062 C330.166016,379.675789 331.033194,380.431641 332.767578,380.431641 C334.009772,380.431641 335.002926,380.074222 335.74707,379.359375 C336.491215,378.644528 336.863281,377.695318 336.863281,376.511719 L336.863281,374.894531 Z M365.849609,384 L360.488281,384 L360.488281,372.521484 C360.488281,371.103509 360.236331,370.040043 359.732422,369.331055 C359.228513,368.622067 358.425787,368.267578 357.324219,368.267578 C355.824211,368.267578 354.740238,368.76855 354.072266,369.770508 C353.404294,370.772466 353.070312,372.433582 353.070312,374.753906 L353.070312,384 L347.708984,384 L347.708984,364.347656 L351.804688,364.347656 L352.525391,366.861328 L352.824219,366.861328 C353.421878,365.912105 354.245112,365.194338 355.293945,364.708008 C356.342779,364.221677 357.53515,363.978516 358.871094,363.978516 C361.156261,363.978516 362.890619,364.596674 364.074219,365.833008 C365.257818,367.069342 365.849609,368.853504 365.849609,371.185547 L365.849609,384 Z M383.849609,384 L382.8125,381.328125 L382.671875,381.328125 C381.769527,382.464849 380.840825,383.252927 379.885742,383.692383 C378.930659,384.131838 377.685555,384.351562 376.150391,384.351562 C374.263662,384.351562 372.778326,383.812505 371.694336,382.734375 C370.610346,381.656245 370.068359,380.121104 370.068359,378.128906 C370.068359,376.042958 370.797844,374.504888 372.256836,373.514648 C373.715828,372.524409 375.916001,371.976563 378.857422,371.871094 L382.267578,371.765625 L382.267578,370.904297 C382.267578,368.912099 381.248057,367.916016 379.208984,367.916016 C377.638664,367.916016 375.792979,368.39062 373.671875,369.339844 L371.896484,365.71875 C374.158214,364.53515 376.666002,363.943359 379.419922,363.943359 C382.056654,363.943359 384.078118,364.517572 385.484375,365.666016 C386.890632,366.814459 387.59375,368.560535 387.59375,370.904297 L387.59375,384 L383.849609,384 Z M382.267578,374.894531 L380.193359,374.964844 C378.634758,375.011719 377.474613,375.292966 376.712891,375.808594 C375.951168,376.324221 375.570312,377.10937 375.570312,378.164062 C375.570312,379.675789 376.437491,380.431641 378.171875,380.431641 C379.414069,380.431641 380.407223,380.074222 381.151367,379.359375 C381.895512,378.644528 382.267578,377.695318 382.267578,376.511719 L382.267578,374.894531 Z M112.953125,433 L107.591797,433 L107.591797,421.521484 C107.591797,418.685533 106.53712,417.267578 104.427734,417.267578 C102.927727,417.267578 101.843753,417.777339 101.175781,418.796875 C100.507809,419.816411 100.173828,421.468739 100.173828,423.753906 L100.173828,433 L94.8125,433 L94.8125,405.648438 L100.173828,405.648438 L100.173828,411.220703 C100.173828,411.654299 100.132813,412.67382 100.050781,414.279297 L99.9277344,415.861328 L100.208984,415.861328 C101.404303,413.939444 103.302721,412.978516 105.904297,412.978516 C108.212902,412.978516 109.964838,413.599603 111.160156,414.841797 C112.355475,416.083991 112.953125,417.865223 112.953125,420.185547 L112.953125,433 Z M130.953125,433 L129.916016,430.328125 L129.775391,430.328125 C128.873042,431.464849 127.944341,432.252927 126.989258,432.692383 C126.034175,433.131838 124.78907,433.351562 123.253906,433.351562 C121.367178,433.351562 119.881841,432.812505 118.797852,431.734375 C117.713862,430.656245 117.171875,429.121104 117.171875,427.128906 C117.171875,425.042958 117.90136,423.504888 119.360352,422.514648 C120.819343,421.524409 123.019517,420.976563 125.960938,420.871094 L129.371094,420.765625 L129.371094,419.904297 C129.371094,417.912099 128.351573,416.916016 126.3125,416.916016 C124.74218,416.916016 122.896495,417.39062 120.775391,418.339844 L119,414.71875 C121.26173,413.53515 123.769517,412.943359 126.523438,412.943359 C129.160169,412.943359 131.181634,413.517572 132.587891,414.666016 C133.994148,415.814459 134.697266,417.560535 134.697266,419.904297 L134.697266,433 L130.953125,433 Z M129.371094,423.894531 L127.296875,423.964844 C125.738273,424.011719 124.578129,424.292966 123.816406,424.808594 C123.054684,425.324221 122.673828,426.10937 122.673828,427.164062 C122.673828,428.675789 123.541007,429.431641 125.275391,429.431641 C126.517584,429.431641 127.510738,429.074222 128.254883,428.359375 C128.999027,427.644528 129.371094,426.695318 129.371094,425.511719 L129.371094,423.894531 Z M153.927734,427.164062 C153.927734,429.179698 153.227546,430.714838 151.827148,431.769531 C150.426751,432.824224 148.332045,433.351562 145.542969,433.351562 C144.113274,433.351562 142.894536,433.254884 141.886719,433.061523 C140.878901,432.868163 139.935551,432.583986 139.056641,432.208984 L139.056641,427.779297 C140.052739,428.248049 141.174798,428.640623 142.422852,428.957031 C143.670905,429.273439 144.769527,429.431641 145.71875,429.431641 C147.664072,429.431641 148.636719,428.869146 148.636719,427.744141 C148.636719,427.322264 148.507814,426.979494 148.25,426.71582 C147.992186,426.452147 147.546878,426.153322 146.914062,425.819336 C146.281247,425.48535 145.437505,425.095705 144.382812,424.650391 C142.871086,424.017575 141.760746,423.431643 141.051758,422.892578 C140.34277,422.353513 139.82715,421.735355 139.504883,421.038086 C139.182616,420.340817 139.021484,419.482427 139.021484,418.462891 C139.021484,416.716788 139.698235,415.366216 141.051758,414.411133 C142.40528,413.45605 144.324206,412.978516 146.808594,412.978516 C149.175793,412.978516 151.478504,413.494135 153.716797,414.525391 L152.099609,418.392578 C151.115229,417.970701 150.195317,417.625001 149.339844,417.355469 C148.484371,417.085936 147.611333,416.951172 146.720703,416.951172 C145.138664,416.951172 144.347656,417.378902 144.347656,418.234375 C144.347656,418.714846 144.602537,419.130858 145.112305,419.482422 C145.622073,419.833986 146.738273,420.355465 148.460938,421.046875 C149.996101,421.667972 151.12109,422.248044 151.835938,422.787109 C152.550785,423.326175 153.078123,423.947262 153.417969,424.650391 C153.757814,425.353519 153.927734,426.191401 153.927734,427.164062 Z M166.390625,429.080078 C167.32813,429.080078 168.453118,428.875002 169.765625,428.464844 L169.765625,432.455078 C168.429681,433.052737 166.789072,433.351562 164.84375,433.351562 C162.699208,433.351562 161.1377,432.809576 160.15918,431.725586 C159.180659,430.641596 158.691406,429.015636 158.691406,426.847656 L158.691406,417.373047 L156.125,417.373047 L156.125,415.105469 L159.078125,413.3125 L160.625,409.164062 L164.052734,409.164062 L164.052734,413.347656 L169.554688,413.347656 L169.554688,417.373047 L164.052734,417.373047 L164.052734,426.847656 C164.052734,427.609379 164.266599,428.171873 164.694336,428.535156 C165.122072,428.898439 165.687496,429.080078 166.390625,429.080078 Z M186.21875,433 L185.181641,430.328125 L185.041016,430.328125 C184.138667,431.464849 183.209966,432.252927 182.254883,432.692383 C181.2998,433.131838 180.054695,433.351562 178.519531,433.351562 C176.632803,433.351562 175.147466,432.812505 174.063477,431.734375 C172.979487,430.656245 172.4375,429.121104 172.4375,427.128906 C172.4375,425.042958 173.166985,423.504888 174.625977,422.514648 C176.084968,421.524409 178.285142,420.976563 181.226562,420.871094 L184.636719,420.765625 L184.636719,419.904297 C184.636719,417.912099 183.617198,416.916016 181.578125,416.916016 C180.007805,416.916016 178.16212,417.39062 176.041016,418.339844 L174.265625,414.71875 C176.527355,413.53515 179.035142,412.943359 181.789062,412.943359 C184.425794,412.943359 186.447259,413.517572 187.853516,414.666016 C189.259773,415.814459 189.962891,417.560535 189.962891,419.904297 L189.962891,433 L186.21875,433 Z M184.636719,423.894531 L182.5625,423.964844 C181.003898,424.011719 179.843754,424.292966 179.082031,424.808594 C178.320309,425.324221 177.939453,426.10937 177.939453,427.164062 C177.939453,428.675789 178.806632,429.431641 180.541016,429.431641 C181.783209,429.431641 182.776363,429.074222 183.520508,428.359375 C184.264652,427.644528 184.636719,426.695318 184.636719,425.511719 L184.636719,423.894531 Z M221.216797,424.966797 C221.216797,426.830087 220.542975,428.327143 219.195312,429.458008 C217.84765,430.588873 215.96095,431.265624 213.535156,431.488281 L213.535156,435.091797 L211.126953,435.091797 L211.126953,431.558594 C208.267564,431.5 205.759776,430.996098 203.603516,430.046875 L203.603516,425.40625 C204.623052,425.910159 205.850579,426.355467 207.286133,426.742188 C208.721687,427.128908 210.001948,427.357422 211.126953,427.427734 L211.126953,421.978516 L209.949219,421.521484 C207.628895,420.607417 205.985356,419.614263 205.018555,418.541992 C204.051753,417.469721 203.568359,416.142586 203.568359,414.560547 C203.568359,412.86132 204.233392,411.463873 205.563477,410.368164 C206.893561,409.272455 208.748035,408.607423 211.126953,408.373047 L211.126953,405.683594 L213.535156,405.683594 L213.535156,408.302734 C216.218763,408.419922 218.64452,408.95898 220.8125,409.919922 L219.160156,414.033203 C217.332022,413.283199 215.457041,412.826173 213.535156,412.662109 L213.535156,417.847656 C215.820324,418.726567 217.446284,419.488278 218.413086,420.132812 C219.379888,420.777347 220.088865,421.486324 220.540039,422.259766 C220.991213,423.033207 221.216797,423.935542 221.216797,424.966797 Z M215.925781,425.230469 C215.925781,424.738279 215.726564,424.322267 215.328125,423.982422 C214.929686,423.642576 214.332035,423.291017 213.535156,422.927734 L213.535156,427.304688 C215.128914,427.035155 215.925781,426.343756 215.925781,425.230469 Z M208.859375,414.560547 C208.859375,415.076174 209.038084,415.500975 209.395508,415.834961 C209.752931,416.168947 210.330074,416.511717 211.126953,416.863281 L211.126953,412.732422 C209.615227,412.955079 208.859375,413.564448 208.859375,414.560547 Z M233.363281,416.582031 C235.847669,416.582031 237.825188,417.27929 239.295898,418.673828 C240.766609,420.068366 241.501953,421.978503 241.501953,424.404297 C241.501953,427.275405 240.617196,429.484367 238.847656,431.03125 C237.078116,432.578133 234.546891,433.351562 231.253906,433.351562 C228.394517,433.351562 226.085946,432.888677 224.328125,431.962891 L224.328125,427.269531 C225.253911,427.761721 226.332025,428.163084 227.5625,428.473633 C228.792975,428.784181 229.958979,428.939453 231.060547,428.939453 C234.37697,428.939453 236.035156,427.580092 236.035156,424.861328 C236.035156,422.271471 234.318377,420.976562 230.884766,420.976562 C230.263669,420.976562 229.578129,421.038085 228.828125,421.161133 C228.078121,421.28418 227.468752,421.416015 227,421.556641 L224.837891,420.396484 L225.804688,407.300781 L239.744141,407.300781 L239.744141,411.90625 L230.568359,411.90625 L230.09375,416.951172 L230.708984,416.828125 C231.423832,416.664062 232.308588,416.582031 233.363281,416.582031 Z M262.384766,420.150391 C262.384766,424.638694 261.649421,427.960927 260.178711,430.117188 C258.708,432.273448 256.443375,433.351562 253.384766,433.351562 C250.419907,433.351562 248.184578,432.238292 246.678711,430.011719 C245.172844,427.785145 244.419922,424.498069 244.419922,420.150391 C244.419922,415.615212 245.152336,412.272472 246.617188,410.12207 C248.082039,407.971669 250.337875,406.896484 253.384766,406.896484 C256.349624,406.896484 258.590813,408.021473 260.108398,410.271484 C261.625984,412.521496 262.384766,415.814431 262.384766,420.150391 Z M249.816406,420.150391 C249.816406,423.30275 250.088864,425.561517 250.633789,426.926758 C251.178714,428.291999 252.095697,428.974609 253.384766,428.974609 C254.650397,428.974609 255.56445,428.28321 256.126953,426.900391 C256.689456,425.517571 256.970703,423.267594 256.970703,420.150391 C256.970703,416.998031 256.686526,414.733405 256.118164,413.356445 C255.549802,411.979485 254.638678,411.291016 253.384766,411.291016 C252.107415,411.291016 251.193362,411.979485 250.642578,413.356445 C250.091794,414.733405 249.816406,416.998031 249.816406,420.150391 Z M282.933594,420.150391 C282.933594,424.638694 282.19825,427.960927 280.727539,430.117188 C279.256829,432.273448 276.992203,433.351562 273.933594,433.351562 C270.968735,433.351562 268.733406,432.238292 267.227539,430.011719 C265.721672,427.785145 264.96875,424.498069 264.96875,420.150391 C264.96875,415.615212 265.701165,412.272472 267.166016,410.12207 C268.630867,407.971669 270.886704,406.896484 273.933594,406.896484 C276.898452,406.896484 279.139641,408.021473 280.657227,410.271484 C282.174812,412.521496 282.933594,415.814431 282.933594,420.150391 Z M270.365234,420.150391 C270.365234,423.30275 270.637693,425.561517 271.182617,426.926758 C271.727542,428.291999 272.644525,428.974609 273.933594,428.974609 C275.199225,428.974609 276.113278,428.28321 276.675781,426.900391 C277.238284,425.517571 277.519531,423.267594 277.519531,420.150391 C277.519531,416.998031 277.235354,414.733405 276.666992,413.356445 C276.09863,411.979485 275.187506,411.291016 273.933594,411.291016 C272.656244,411.291016 271.74219,411.979485 271.191406,413.356445 C270.640622,414.733405 270.365234,416.998031 270.365234,420.150391 Z M313.976562,433 L308.615234,433 L308.615234,421.521484 C308.615234,420.103509 308.377932,419.040043 307.90332,418.331055 C307.428709,417.622067 306.681646,417.267578 305.662109,417.267578 C304.291009,417.267578 303.294925,417.771479 302.673828,418.779297 C302.052731,419.787114 301.742188,421.445301 301.742188,423.753906 L301.742188,433 L296.380859,433 L296.380859,413.347656 L300.476562,413.347656 L301.197266,415.861328 L301.496094,415.861328 C302.02344,414.95898 302.785151,414.252932 303.78125,413.743164 C304.777349,413.233396 305.919915,412.978516 307.208984,412.978516 C310.150405,412.978516 312.142573,413.939444 313.185547,415.861328 L313.660156,415.861328 C314.187503,414.947261 314.963862,414.238284 315.989258,413.734375 C317.014654,413.230466 318.171869,412.978516 319.460938,412.978516 C321.687511,412.978516 323.372065,413.549799 324.514648,414.692383 C325.657232,415.834967 326.228516,417.666003 326.228516,420.185547 L326.228516,433 L320.849609,433 L320.849609,421.521484 C320.849609,420.103509 320.612307,419.040043 320.137695,418.331055 C319.663084,417.622067 318.916021,417.267578 317.896484,417.267578 C316.583978,417.267578 315.602542,417.736323 314.952148,418.673828 C314.301755,419.611333 313.976562,421.099599 313.976562,423.138672 L313.976562,433 Z M331.501953,408.267578 C331.501953,406.521476 332.4746,405.648438 334.419922,405.648438 C336.365244,405.648438 337.337891,406.521476 337.337891,408.267578 C337.337891,409.099614 337.094729,409.747068 336.608398,410.209961 C336.122068,410.672854 335.392583,410.904297 334.419922,410.904297 C332.4746,410.904297 331.501953,410.025399 331.501953,408.267578 Z M337.091797,433 L331.730469,433 L331.730469,413.347656 L337.091797,413.347656 L337.091797,433 Z M348.078125,433 L342.716797,433 L342.716797,405.648438 L348.078125,405.648438 L348.078125,433 Z M373.847656,433.351562 C371.539051,433.351562 369.728522,432.51368 368.416016,430.837891 L368.134766,430.837891 C368.322267,432.478524 368.416016,433.427733 368.416016,433.685547 L368.416016,441.648438 L363.054688,441.648438 L363.054688,413.347656 L367.414062,413.347656 L368.169922,415.896484 L368.416016,415.896484 C369.669928,413.951162 371.527331,412.978516 373.988281,412.978516 C376.308605,412.978516 378.124993,413.874991 379.4375,415.667969 C380.750007,417.460946 381.40625,419.951156 381.40625,423.138672 C381.40625,425.236339 381.098636,427.058586 380.483398,428.605469 C379.868161,430.152351 378.992193,431.330074 377.855469,432.138672 C376.718744,432.94727 375.38282,433.351562 373.847656,433.351562 Z M372.265625,417.267578 C370.9414,417.267578 369.974612,417.674801 369.365234,418.489258 C368.755856,419.303715 368.439453,420.648428 368.416016,422.523438 L368.416016,423.103516 C368.416016,425.212901 368.729489,426.724605 369.356445,427.638672 C369.983402,428.552739 370.976556,429.009766 372.335938,429.009766 C374.738293,429.009766 375.939453,427.029317 375.939453,423.068359 C375.939453,421.134756 375.643558,419.684575 375.051758,418.717773 C374.459958,417.750972 373.531256,417.267578 372.265625,417.267578 Z M393.974609,416.792969 C392.837885,416.792969 391.947269,417.153317 391.302734,417.874023 C390.6582,418.59473 390.289063,419.617181 390.195312,420.941406 L397.71875,420.941406 C397.695312,419.617181 397.349613,418.59473 396.681641,417.874023 C396.013669,417.153317 395.111334,416.792969 393.974609,416.792969 Z M394.730469,433.351562 C391.56639,433.351562 389.093759,432.478524 387.3125,430.732422 C385.531241,428.986319 384.640625,426.513688 384.640625,423.314453 C384.640625,420.021468 385.463859,417.475595 387.110352,415.676758 C388.756844,413.877921 391.033189,412.978516 393.939453,412.978516 C396.716811,412.978516 398.878899,413.769523 400.425781,415.351562 C401.972664,416.933602 402.746094,419.119127 402.746094,421.908203 L402.746094,424.509766 L390.072266,424.509766 C390.13086,426.033211 390.582027,427.222652 391.425781,428.078125 C392.269535,428.933598 393.453117,429.361328 394.976562,429.361328 C396.160162,429.361328 397.279292,429.238282 398.333984,428.992188 C399.388677,428.746093 400.490229,428.353518 401.638672,427.814453 L401.638672,431.962891 C400.701167,432.431643 399.699224,432.780272 398.632812,433.008789 C397.566401,433.237306 396.265633,433.351562 394.730469,433.351562 Z M420.816406,427.164062 C420.816406,429.179698 420.116218,430.714838 418.71582,431.769531 C417.315423,432.824224 415.220717,433.351562 412.431641,433.351562 C411.001946,433.351562 409.783208,433.254884 408.775391,433.061523 C407.767573,432.868163 406.824223,432.583986 405.945312,432.208984 L405.945312,427.779297 C406.941411,428.248049 408.06347,428.640623 409.311523,428.957031 C410.559577,429.273439 411.658198,429.431641 412.607422,429.431641 C414.552744,429.431641 415.525391,428.869146 415.525391,427.744141 C415.525391,427.322264 415.396486,426.979494 415.138672,426.71582 C414.880858,426.452147 414.43555,426.153322 413.802734,425.819336 C413.169919,425.48535 412.326177,425.095705 411.271484,424.650391 C409.759758,424.017575 408.649418,423.431643 407.94043,422.892578 C407.231442,422.353513 406.715822,421.735355 406.393555,421.038086 C406.071287,420.340817 405.910156,419.482427 405.910156,418.462891 C405.910156,416.716788 406.586907,415.366216 407.94043,414.411133 C409.293952,413.45605 411.212878,412.978516 413.697266,412.978516 C416.064465,412.978516 418.367176,413.494135 420.605469,414.525391 L418.988281,418.392578 C418.003901,417.970701 417.083989,417.625001 416.228516,417.355469 C415.373043,417.085936 414.500004,416.951172 413.609375,416.951172 C412.027336,416.951172 411.236328,417.378902 411.236328,418.234375 C411.236328,418.714846 411.491208,419.130858 412.000977,419.482422 C412.510745,419.833986 413.626945,420.355465 415.349609,421.046875 C416.884773,421.667972 418.009762,422.248044 418.724609,422.787109 C419.439457,423.326175 419.966795,423.947262 420.306641,424.650391 C420.646486,425.353519 420.816406,426.191401 420.816406,427.164062 Z M429.271484,423.138672 C429.271484,425.083994 429.590817,426.554683 430.229492,427.550781 C430.868167,428.54688 431.908196,429.044922 433.349609,429.044922 C434.779304,429.044922 435.807614,428.54981 436.43457,427.55957 C437.061527,426.569331 437.375,425.095713 437.375,423.138672 C437.375,421.19335 437.058597,419.73438 436.425781,418.761719 C435.792966,417.789058 434.755867,417.302734 433.314453,417.302734 C431.884758,417.302734 430.853519,417.786128 430.220703,418.75293 C429.587887,419.719731 429.271484,421.181631 429.271484,423.138672 Z M442.859375,423.138672 C442.859375,426.337907 442.015633,428.839835 440.328125,430.644531 C438.640617,432.449228 436.291031,433.351562 433.279297,433.351562 C431.392569,433.351562 429.728523,432.938481 428.287109,432.112305 C426.845696,431.286129 425.738285,430.099617 424.964844,428.552734 C424.191402,427.005852 423.804688,425.201182 423.804688,423.138672 C423.804688,419.927718 424.64257,417.43165 426.318359,415.650391 C427.994149,413.869132 430.349594,412.978516 433.384766,412.978516 C435.271494,412.978516 436.93554,413.388668 438.376953,414.208984 C439.818367,415.029301 440.925777,416.207024 441.699219,417.742188 C442.47266,419.277351 442.859375,421.076162 442.859375,423.138672 Z M461,427.164062 C461,429.179698 460.299812,430.714838 458.899414,431.769531 C457.499016,432.824224 455.404311,433.351562 452.615234,433.351562 C451.18554,433.351562 449.966802,433.254884 448.958984,433.061523 C447.951167,432.868163 447.007817,432.583986 446.128906,432.208984 L446.128906,427.779297 C447.125005,428.248049 448.247064,428.640623 449.495117,428.957031 C450.74317,429.273439 451.841792,429.431641 452.791016,429.431641 C454.736338,429.431641 455.708984,428.869146 455.708984,427.744141 C455.708984,427.322264 455.580079,426.979494 455.322266,426.71582 C455.064452,426.452147 454.619144,426.153322 453.986328,425.819336 C453.353512,425.48535 452.509771,425.095705 451.455078,424.650391 C449.943352,424.017575 448.833011,423.431643 448.124023,422.892578 C447.415036,422.353513 446.899416,421.735355 446.577148,421.038086 C446.254881,420.340817 446.09375,419.482427 446.09375,418.462891 C446.09375,416.716788 446.770501,415.366216 448.124023,414.411133 C449.477546,413.45605 451.396472,412.978516 453.880859,412.978516 C456.248059,412.978516 458.55077,413.494135 460.789062,414.525391 L459.171875,418.392578 C458.187495,417.970701 457.267582,417.625001 456.412109,417.355469 C455.556636,417.085936 454.683598,416.951172 453.792969,416.951172 C452.21093,416.951172 451.419922,417.378902 451.419922,418.234375 C451.419922,418.714846 451.674802,419.130858 452.18457,419.482422 C452.694338,419.833986 453.810538,420.355465 455.533203,421.046875 C457.068367,421.667972 458.193356,422.248044 458.908203,422.787109 C459.62305,423.326175 460.150389,423.947262 460.490234,424.650391 C460.83008,425.353519 461,426.191401 461,427.164062 Z M469.683594,424.474609 L465.394531,424.474609 L464.498047,407.300781 L470.580078,407.300781 L469.683594,424.474609 Z M464.427734,430.486328 C464.427734,429.501948 464.691404,428.757815 465.21875,428.253906 C465.746096,427.749997 466.513667,427.498047 467.521484,427.498047 C468.494145,427.498047 469.247068,427.755857 469.780273,428.271484 C470.313479,428.787112 470.580078,429.525386 470.580078,430.486328 C470.580078,431.412114 470.31055,432.141599 469.771484,432.674805 C469.232419,433.20801 468.482427,433.474609 467.521484,433.474609 C466.537104,433.474609 465.775393,433.21387 465.236328,432.692383 C464.697263,432.170896 464.427734,431.435552 464.427734,430.486328 Z" id="Participa-y-gana-ha" fill="#EE4135"></path>
            </g>
        </g>
    </g>
</svg>