<?xml version="1.0" encoding="UTF-8"?>
<svg width="727px" height="862px" viewBox="0 0 727 862" version="1.1" xmlns="http://www.w3.org/2000/svg" xmlns:xlink="http://www.w3.org/1999/xlink">
    <!-- Generator: Sketch 47.1 (45422) - http://www.bohemiancoding.com/sketch -->
    <title>Group 24</title>
    <desc>Created with Sketch.</desc>
    <defs></defs>
    <g id="Page-1" stroke="none" stroke-width="1" fill="none" fill-rule="evenodd">
        <g id="Convocatoria-ajustes" transform="translate(0.000000, -24343.000000)">
            <g id="Group-24" transform="translate(0.000000, 24343.000000)">
                <rect id="Rectangle-Copy-2" fill="#EC0000" x="0" y="0" width="727" height="863"></rect>
                <g id="Group-21" transform="translate(102.000000, 73.000000)" fill="#FFFFFF">
                    <path d="M9.578125,18.859375 L11.96875,18.859375 C14.2031362,18.859375 15.8749945,18.4179732 16.984375,17.5351562 C18.0937555,16.6523393 18.6484375,15.3671959 18.6484375,13.6796875 C18.6484375,11.976554 18.1835984,10.7187541 17.2539062,9.90625 C16.3242141,9.09374594 14.8671974,8.6875 12.8828125,8.6875 L9.578125,8.6875 L9.578125,18.859375 Z M25.984375,13.421875 C25.984375,17.1093934 24.8320428,19.9296777 22.5273438,21.8828125 C20.2226447,23.8359473 16.9453338,24.8125 12.6953125,24.8125 L9.578125,24.8125 L9.578125,37 L2.3125,37 L2.3125,2.734375 L13.2578125,2.734375 C17.4140833,2.734375 20.5742079,3.6288973 22.7382813,5.41796875 C24.9023546,7.2070402 25.984375,9.87498227 25.984375,13.421875 Z M46.515625,10.3046875 C47.4843798,10.3046875 48.2890593,10.3749993 48.9296875,10.515625 L48.390625,17.21875 C47.8124971,17.0624992 47.1093791,16.984375 46.28125,16.984375 C43.9999886,16.984375 42.2226626,17.5703066 40.9492188,18.7421875 C39.6757749,19.9140684 39.0390625,21.554677 39.0390625,23.6640625 L39.0390625,37 L31.890625,37 L31.890625,10.796875 L37.3046875,10.796875 L38.359375,15.203125 L38.7109375,15.203125 C39.5234416,13.7343677 40.6210868,12.5507857 42.0039063,11.6523437 C43.3867257,10.7539018 44.8906169,10.3046875 46.515625,10.3046875 Z M63.578125,15.390625 C62.0624924,15.390625 60.8750043,15.8710889 60.015625,16.8320312 C59.1562457,17.7929736 58.6640631,19.1562412 58.5390625,20.921875 L68.5703125,20.921875 C68.5390623,19.1562412 68.0781295,17.7929736 67.1875,16.8320312 C66.2968705,15.8710889 65.0937576,15.390625 63.578125,15.390625 Z M64.5859375,37.46875 C60.3671664,37.46875 57.0703244,36.3046991 54.6953125,33.9765625 C52.3203006,31.6484259 51.1328125,28.3515838 51.1328125,24.0859375 C51.1328125,19.6952905 52.2304578,16.3007932 54.4257812,13.9023438 C56.6211047,11.5038943 59.6562306,10.3046875 63.53125,10.3046875 C67.2343935,10.3046875 70.1171772,11.3593645 72.1796875,13.46875 C74.2421978,15.5781355 75.2734375,18.4921689 75.2734375,22.2109375 L75.2734375,25.6796875 L58.375,25.6796875 C58.4531254,27.7109477 59.0546819,29.2968693 60.1796875,30.4375 C61.3046931,31.5781307 62.8828023,32.1484375 64.9140625,32.1484375 C66.4921954,32.1484375 67.984368,31.9843766 69.390625,31.65625 C70.796882,31.3281234 72.2656173,30.8046911 73.796875,30.0859375 L73.796875,35.6171875 C72.5468687,36.2421906 71.2109446,36.7070297 69.7890625,37.0117188 C68.3671804,37.3164078 66.6328227,37.46875 64.5859375,37.46875 Z M104.546875,37 L97.3984375,37 L97.3984375,21.6953125 C97.3984375,19.804678 97.0820344,18.3867235 96.4492188,17.4414062 C95.8164031,16.496089 94.8203193,16.0234375 93.4609375,16.0234375 C91.6328034,16.0234375 90.3046916,16.6953058 89.4765625,18.0390625 C88.6484334,19.3828192 88.234375,21.5937346 88.234375,24.671875 L88.234375,37 L81.0859375,37 L81.0859375,10.796875 L86.546875,10.796875 L87.5078125,14.1484375 L87.90625,14.1484375 C88.6093785,12.9453065 89.6249934,12.0039096 90.953125,11.3242187 C92.2812566,10.6445279 93.8046789,10.3046875 95.5234375,10.3046875 C99.4453321,10.3046875 102.101556,11.5859247 103.492188,14.1484375 L104.125,14.1484375 C104.828129,12.9296814 105.863274,11.9843784 107.230469,11.3125 C108.597663,10.6406216 110.140616,10.3046875 111.859375,10.3046875 C114.82814,10.3046875 117.074211,11.0663986 118.597656,12.5898437 C120.121101,14.1132889 120.882812,16.5546707 120.882812,19.9140625 L120.882812,37 L113.710938,37 L113.710938,21.6953125 C113.710938,19.804678 113.394534,18.3867235 112.761719,17.4414062 C112.128903,16.496089 111.132819,16.0234375 109.773438,16.0234375 C108.023429,16.0234375 106.714848,16.6484312 105.847656,17.8984375 C104.980464,19.1484438 104.546875,21.1327989 104.546875,23.8515625 L104.546875,37 Z M127.914062,4.0234375 C127.914062,1.69530086 129.210925,0.53125 131.804688,0.53125 C134.39845,0.53125 135.695312,1.69530086 135.695312,4.0234375 C135.695312,5.13281805 135.371097,5.99609066 134.722656,6.61328125 C134.074216,7.23047184 133.101569,7.5390625 131.804688,7.5390625 C129.210925,7.5390625 127.914062,6.36719922 127.914062,4.0234375 Z M135.367188,37 L128.21875,37 L128.21875,10.796875 L135.367188,10.796875 L135.367188,37 Z M148.5625,23.8515625 C148.5625,26.4453255 148.988277,28.4062434 149.839844,29.734375 C150.691411,31.0625066 152.078115,31.7265625 154,31.7265625 C155.90626,31.7265625 157.27734,31.0664129 158.113281,29.7460938 C158.949223,28.4257746 159.367188,26.4609505 159.367188,23.8515625 C159.367188,21.2577995 158.945317,19.3125065 158.101562,18.015625 C157.257808,16.7187435 155.87501,16.0703125 153.953125,16.0703125 C152.046865,16.0703125 150.671879,16.7148373 149.828125,18.0039063 C148.984371,19.2929752 148.5625,21.2421745 148.5625,23.8515625 Z M166.679688,23.8515625 C166.679688,28.1172088 165.554699,31.453113 163.304688,33.859375 C161.054676,36.265637 157.921895,37.46875 153.90625,37.46875 C151.390612,37.46875 149.171885,36.9179743 147.25,35.8164062 C145.328115,34.7148382 143.851568,33.1328228 142.820312,31.0703125 C141.789057,29.0078022 141.273438,26.6015762 141.273438,23.8515625 C141.273438,19.5702911 142.390614,16.2421994 144.625,13.8671875 C146.859386,11.4921756 149.99998,10.3046875 154.046875,10.3046875 C156.562513,10.3046875 158.78124,10.851557 160.703125,11.9453125 C162.62501,13.039068 164.101557,14.6093648 165.132812,16.65625 C166.164068,18.7031352 166.679688,21.1015488 166.679688,23.8515625 Z M22.5390625,92.484375 C22.5390625,95.5781405 21.4257924,98.0156161 19.1992188,99.796875 C16.9726451,101.578134 13.8750198,102.46875 9.90625,102.46875 C6.24998172,102.46875 3.01563906,101.781257 0.203125,100.40625 L0.203125,93.65625 C2.51563656,94.6875052 4.47264824,95.4140604 6.07421875,95.8359375 C7.67578926,96.2578146 9.14061836,96.46875 10.46875,96.46875 C12.062508,96.46875 13.285152,96.1640655 14.1367188,95.5546875 C14.9882855,94.9453095 15.4140625,94.0390685 15.4140625,92.8359375 C15.4140625,92.1640591 15.2265644,91.5664089 14.8515625,91.0429688 C14.4765606,90.5195286 13.9257849,90.0156274 13.1992188,89.53125 C12.4726526,89.0468726 10.9921987,88.2734428 8.7578125,87.2109375 C6.66405203,86.2265576 5.09375523,85.2812545 4.046875,84.375 C2.99999477,83.4687455 2.16406563,82.4140685 1.5390625,81.2109375 C0.914059375,80.0078065 0.6015625,78.6015705 0.6015625,76.9921875 C0.6015625,73.9609223 1.62889598,71.5781337 3.68359375,69.84375 C5.73829152,68.1093663 8.57810688,67.2421875 12.203125,67.2421875 C13.9843839,67.2421875 15.6835857,67.4531229 17.3007812,67.875 C18.9179768,68.2968771 20.6093662,68.8906212 22.375,69.65625 L20.03125,75.3046875 C18.2031159,74.5546838 16.6914122,74.0312515 15.4960938,73.734375 C14.3007753,73.4374985 13.1250058,73.2890625 11.96875,73.2890625 C10.5937431,73.2890625 9.53906617,73.6093718 8.8046875,74.25 C8.07030883,74.8906282 7.703125,75.7265573 7.703125,76.7578125 C7.703125,77.3984407 7.85156102,77.9570289 8.1484375,78.4335938 C8.44531398,78.9101586 8.91796551,79.3710915 9.56640625,79.8164062 C10.214847,80.261721 11.7499879,81.0624942 14.171875,82.21875 C17.375016,83.7500077 19.5703066,85.2851486 20.7578125,86.8242188 C21.9453184,88.3632889 22.5390625,90.2499888 22.5390625,92.484375 Z M44.828125,102 L43.4453125,98.4375 L43.2578125,98.4375 C42.0546815,99.9531326 40.8164126,101.003903 39.5429688,101.589844 C38.2695249,102.175784 36.6093852,102.46875 34.5625,102.46875 C32.0468624,102.46875 30.0664135,101.750007 28.6210938,100.3125 C27.175774,98.8749928 26.453125,96.8281383 26.453125,94.171875 C26.453125,91.3906111 27.4257715,89.3398504 29.3710938,88.0195312 C31.316416,86.6992121 34.2499804,85.9687507 38.171875,85.828125 L42.71875,85.6875 L42.71875,84.5390625 C42.71875,81.8827992 41.3593886,80.5546875 38.640625,80.5546875 C36.5468645,80.5546875 34.0859516,81.1874937 31.2578125,82.453125 L28.890625,77.625 C31.9062651,76.0468671 35.2499816,75.2578125 38.921875,75.2578125 C42.4375176,75.2578125 45.1328031,76.0234298 47.0078125,77.5546875 C48.8828219,79.0859452 49.8203125,81.4140469 49.8203125,84.5390625 L49.8203125,102 L44.828125,102 Z M42.71875,89.859375 L39.953125,89.953125 C37.8749896,90.0156253 36.3281301,90.3906216 35.3125,91.078125 C34.2968699,91.7656284 33.7890625,92.812493 33.7890625,94.21875 C33.7890625,96.2343851 34.9453009,97.2421875 37.2578125,97.2421875 C38.9140708,97.2421875 40.2382763,96.7656298 41.2304688,95.8125 C42.2226612,94.8593702 42.71875,93.5937579 42.71875,92.015625 L42.71875,89.859375 Z M81.3671875,102 L74.21875,102 L74.21875,86.6953125 C74.21875,84.804678 73.8828159,83.3867235 73.2109375,82.4414062 C72.5390591,81.496089 71.4687573,81.0234375 70,81.0234375 C67.99999,81.0234375 66.554692,81.6913996 65.6640625,83.0273438 C64.773433,84.3632879 64.328125,86.5781095 64.328125,89.671875 L64.328125,102 L57.1796875,102 L57.1796875,75.796875 L62.640625,75.796875 L63.6015625,79.1484375 L64,79.1484375 C64.796879,77.8828062 65.8945243,76.9257845 67.2929688,76.2773438 C68.6914132,75.628903 70.2812411,75.3046875 72.0625,75.3046875 C75.1093902,75.3046875 77.4218671,76.128898 79,77.7773438 C80.5781329,79.4257895 81.3671875,81.804672 81.3671875,84.9140625 L81.3671875,102 Z M99.765625,96.7734375 C101.015631,96.7734375 102.515616,96.5000027 104.265625,95.953125 L104.265625,101.273438 C102.484366,102.070316 100.296888,102.46875 97.703125,102.46875 C94.8437357,102.46875 92.7617253,101.746101 91.4570312,100.300781 C90.1523372,98.8554615 89.5,96.6875145 89.5,93.796875 L89.5,81.1640625 L86.078125,81.1640625 L86.078125,78.140625 L90.015625,75.75 L92.078125,70.21875 L96.6484375,70.21875 L96.6484375,75.796875 L103.984375,75.796875 L103.984375,81.1640625 L96.6484375,81.1640625 L96.6484375,93.796875 C96.6484375,94.8125051 96.9335909,95.5624976 97.5039062,96.046875 C98.0742216,96.5312524 98.8281203,96.7734375 99.765625,96.7734375 Z M126.203125,102 L124.820312,98.4375 L124.632812,98.4375 C123.429681,99.9531326 122.191413,101.003903 120.917969,101.589844 C119.644525,102.175784 117.984385,102.46875 115.9375,102.46875 C113.421862,102.46875 111.441413,101.750007 109.996094,100.3125 C108.550774,98.8749928 107.828125,96.8281383 107.828125,94.171875 C107.828125,91.3906111 108.800772,89.3398504 110.746094,88.0195312 C112.691416,86.6992121 115.62498,85.9687507 119.546875,85.828125 L124.09375,85.6875 L124.09375,84.5390625 C124.09375,81.8827992 122.734389,80.5546875 120.015625,80.5546875 C117.921865,80.5546875 115.460952,81.1874937 112.632812,82.453125 L110.265625,77.625 C113.281265,76.0468671 116.624982,75.2578125 120.296875,75.2578125 C123.812518,75.2578125 126.507803,76.0234298 128.382812,77.5546875 C130.257822,79.0859452 131.195312,81.4140469 131.195312,84.5390625 L131.195312,102 L126.203125,102 Z M124.09375,89.859375 L121.328125,89.953125 C119.24999,90.0156253 117.70313,90.3906216 116.6875,91.078125 C115.67187,91.7656284 115.164062,92.812493 115.164062,94.21875 C115.164062,96.2343851 116.320301,97.2421875 118.632812,97.2421875 C120.289071,97.2421875 121.613276,96.7656298 122.605469,95.8125 C123.597661,94.8593702 124.09375,93.5937579 124.09375,92.015625 L124.09375,89.859375 Z M162.742188,102 L155.59375,102 L155.59375,86.6953125 C155.59375,84.804678 155.257816,83.3867235 154.585938,82.4414062 C153.914059,81.496089 152.843757,81.0234375 151.375,81.0234375 C149.37499,81.0234375 147.929692,81.6913996 147.039062,83.0273438 C146.148433,84.3632879 145.703125,86.5781095 145.703125,89.671875 L145.703125,102 L138.554688,102 L138.554688,75.796875 L144.015625,75.796875 L144.976562,79.1484375 L145.375,79.1484375 C146.171879,77.8828062 147.269524,76.9257845 148.667969,76.2773438 C150.066413,75.628903 151.656241,75.3046875 153.4375,75.3046875 C156.48439,75.3046875 158.796867,76.128898 160.375,77.7773438 C161.953133,79.4257895 162.742188,81.804672 162.742188,84.9140625 L162.742188,102 Z M178.398438,102.46875 C175.320297,102.46875 172.902353,101.273449 171.144531,98.8828125 C169.38671,96.4921755 168.507812,93.1797087 168.507812,88.9453125 C168.507812,84.648416 169.402335,81.3007932 171.191406,78.9023438 C172.980478,76.5038943 175.445297,75.3046875 178.585938,75.3046875 C181.882829,75.3046875 184.398429,76.5859247 186.132812,79.1484375 L186.367188,79.1484375 C186.007811,77.1953027 185.828125,75.4531327 185.828125,73.921875 L185.828125,65.53125 L193,65.53125 L193,102 L187.515625,102 L186.132812,98.6015625 L185.828125,98.6015625 C184.203117,101.1797 181.726579,102.46875 178.398438,102.46875 Z M180.90625,96.7734375 C182.734384,96.7734375 184.074214,96.2421928 184.925781,95.1796875 C185.777348,94.1171822 186.242187,92.3125127 186.320312,89.765625 L186.320312,88.9921875 C186.320312,86.1796734 185.886723,84.1640686 185.019531,82.9453125 C184.152339,81.7265564 182.742197,81.1171875 180.789062,81.1171875 C179.195305,81.1171875 177.957036,81.792962 177.074219,83.1445312 C176.191402,84.4961005 175.75,86.4609246 175.75,89.0390625 C175.75,91.6172004 176.195308,93.5507748 177.085938,94.8398438 C177.976567,96.1289127 179.249992,96.7734375 180.90625,96.7734375 Z M211.328125,80.390625 C209.812492,80.390625 208.625004,80.8710889 207.765625,81.8320312 C206.906246,82.7929736 206.414063,84.1562412 206.289062,85.921875 L216.320312,85.921875 C216.289062,84.1562412 215.828129,82.7929736 214.9375,81.8320312 C214.046871,80.8710889 212.843758,80.390625 211.328125,80.390625 Z M212.335938,102.46875 C208.117166,102.46875 204.820324,101.304699 202.445312,98.9765625 C200.070301,96.6484259 198.882812,93.3515838 198.882812,89.0859375 C198.882812,84.6952905 199.980458,81.3007932 202.175781,78.9023438 C204.371105,76.5038943 207.406231,75.3046875 211.28125,75.3046875 C214.984394,75.3046875 217.867177,76.3593645 219.929688,78.46875 C221.992198,80.5781355 223.023438,83.4921689 223.023438,87.2109375 L223.023438,90.6796875 L206.125,90.6796875 C206.203125,92.7109477 206.804682,94.2968693 207.929688,95.4375 C209.054693,96.5781307 210.632802,97.1484375 212.664062,97.1484375 C214.242195,97.1484375 215.734368,96.9843766 217.140625,96.65625 C218.546882,96.3281234 220.015617,95.8046911 221.546875,95.0859375 L221.546875,100.617188 C220.296869,101.242191 218.960945,101.70703 217.539062,102.011719 C216.11718,102.316408 214.382823,102.46875 212.335938,102.46875 Z M243.460938,75.3046875 C244.429692,75.3046875 245.234372,75.3749993 245.875,75.515625 L245.335938,82.21875 C244.75781,82.0624992 244.054692,81.984375 243.226562,81.984375 C240.945301,81.984375 239.167975,82.5703066 237.894531,83.7421875 C236.621087,84.9140684 235.984375,86.554677 235.984375,88.6640625 L235.984375,102 L228.835938,102 L228.835938,75.796875 L234.25,75.796875 L235.304688,80.203125 L235.65625,80.203125 C236.468754,78.7343677 237.566399,77.5507857 238.949219,76.6523438 C240.332038,75.7539018 241.835929,75.3046875 243.460938,75.3046875 Z M279.742188,102 L278.359375,98.4375 L278.171875,98.4375 C276.968744,99.9531326 275.730475,101.003903 274.457031,101.589844 C273.183587,102.175784 271.523448,102.46875 269.476562,102.46875 C266.960925,102.46875 264.980476,101.750007 263.535156,100.3125 C262.089837,98.8749928 261.367188,96.8281383 261.367188,94.171875 C261.367188,91.3906111 262.339834,89.3398504 264.285156,88.0195312 C266.230478,86.6992121 269.164043,85.9687507 273.085938,85.828125 L277.632812,85.6875 L277.632812,84.5390625 C277.632812,81.8827992 276.273451,80.5546875 273.554688,80.5546875 C271.460927,80.5546875 269.000014,81.1874937 266.171875,82.453125 L263.804688,77.625 C266.820328,76.0468671 270.164044,75.2578125 273.835938,75.2578125 C277.35158,75.2578125 280.046866,76.0234298 281.921875,77.5546875 C283.796884,79.0859452 284.734375,81.4140469 284.734375,84.5390625 L284.734375,102 L279.742188,102 Z M277.632812,89.859375 L274.867188,89.953125 C272.789052,90.0156253 271.242193,90.3906216 270.226562,91.078125 C269.210932,91.7656284 268.703125,92.812493 268.703125,94.21875 C268.703125,96.2343851 269.859363,97.2421875 272.171875,97.2421875 C273.828133,97.2421875 275.152339,96.7656298 276.144531,95.8125 C277.136724,94.8593702 277.632812,93.5937579 277.632812,92.015625 L277.632812,89.859375 Z M8.8984375,167 L1.75,167 L1.75,130.53125 L8.8984375,130.53125 L8.8984375,167 Z M33.0390625,167 L31.65625,163.4375 L31.46875,163.4375 C30.265619,164.953133 29.0273501,166.003903 27.7539062,166.589844 C26.4804624,167.175784 24.8203227,167.46875 22.7734375,167.46875 C20.2577999,167.46875 18.277351,166.750007 16.8320312,165.3125 C15.3867115,163.874993 14.6640625,161.828138 14.6640625,159.171875 C14.6640625,156.390611 15.636709,154.33985 17.5820312,153.019531 C19.5273535,151.699212 22.4609179,150.968751 26.3828125,150.828125 L30.9296875,150.6875 L30.9296875,149.539062 C30.9296875,146.882799 29.5703261,145.554688 26.8515625,145.554688 C24.757802,145.554688 22.2968891,146.187494 19.46875,147.453125 L17.1015625,142.625 C20.1172026,141.046867 23.4609191,140.257812 27.1328125,140.257812 C30.6484551,140.257812 33.3437406,141.02343 35.21875,142.554688 C37.0937594,144.085945 38.03125,146.414047 38.03125,149.539062 L38.03125,167 L33.0390625,167 Z M30.9296875,154.859375 L28.1640625,154.953125 C26.0859271,155.015625 24.5390676,155.390622 23.5234375,156.078125 C22.5078074,156.765628 22,157.812493 22,159.21875 C22,161.234385 23.1562384,162.242188 25.46875,162.242188 C27.1250083,162.242188 28.4492138,161.76563 29.4414062,160.8125 C30.4335987,159.85937 30.9296875,158.593758 30.9296875,157.015625 L30.9296875,154.859375 Z M58.421875,167 L58.421875,132.734375 L65.6875,132.734375 L65.6875,167 L58.421875,167 Z M97.9375,167 L90.7890625,167 L90.7890625,151.695312 C90.7890625,149.804678 90.4531284,148.386723 89.78125,147.441406 C89.1093716,146.496089 88.0390698,146.023438 86.5703125,146.023438 C84.5703025,146.023438 83.1250045,146.6914 82.234375,148.027344 C81.3437455,149.363288 80.8984375,151.57811 80.8984375,154.671875 L80.8984375,167 L73.75,167 L73.75,140.796875 L79.2109375,140.796875 L80.171875,144.148438 L80.5703125,144.148438 C81.3671915,142.882806 82.4648368,141.925784 83.8632812,141.277344 C85.2617257,140.628903 86.8515536,140.304688 88.6328125,140.304688 C91.6797027,140.304688 93.9921796,141.128898 95.5703125,142.777344 C97.1484454,144.425789 97.9375,146.804672 97.9375,149.914062 L97.9375,167 Z M129.484375,167 L122.335938,167 L122.335938,151.695312 C122.335938,149.804678 122.000003,148.386723 121.328125,147.441406 C120.656247,146.496089 119.585945,146.023438 118.117188,146.023438 C116.117177,146.023438 114.671879,146.6914 113.78125,148.027344 C112.890621,149.363288 112.445312,151.57811 112.445312,154.671875 L112.445312,167 L105.296875,167 L105.296875,140.796875 L110.757812,140.796875 L111.71875,144.148438 L112.117188,144.148438 C112.914066,142.882806 114.011712,141.925784 115.410156,141.277344 C116.808601,140.628903 118.398429,140.304688 120.179688,140.304688 C123.226578,140.304688 125.539055,141.128898 127.117188,142.777344 C128.69532,144.425789 129.484375,146.804672 129.484375,149.914062 L129.484375,167 Z M142.539062,153.851562 C142.539062,156.445325 142.964839,158.406243 143.816406,159.734375 C144.667973,161.062507 146.054678,161.726562 147.976562,161.726562 C149.882822,161.726562 151.253902,161.066413 152.089844,159.746094 C152.925785,158.425775 153.34375,156.460951 153.34375,153.851562 C153.34375,151.2578 152.921879,149.312506 152.078125,148.015625 C151.234371,146.718744 149.851572,146.070312 147.929688,146.070312 C146.023428,146.070312 144.648442,146.714837 143.804688,148.003906 C142.960933,149.292975 142.539062,151.242174 142.539062,153.851562 Z M160.65625,153.851562 C160.65625,158.117209 159.531261,161.453113 157.28125,163.859375 C155.031239,166.265637 151.898458,167.46875 147.882812,167.46875 C145.367175,167.46875 143.148447,166.917974 141.226562,165.816406 C139.304678,164.714838 137.82813,163.132823 136.796875,161.070312 C135.76562,159.007802 135.25,156.601576 135.25,153.851562 C135.25,149.570291 136.367176,146.242199 138.601562,143.867188 C140.835949,141.492176 143.976542,140.304688 148.023438,140.304688 C150.539075,140.304688 152.757803,140.851557 154.679688,141.945312 C156.601572,143.039068 158.07812,144.609365 159.109375,146.65625 C160.14063,148.703135 160.65625,151.101549 160.65625,153.851562 Z M171.835938,167 L161.851562,140.796875 L169.328125,140.796875 L174.390625,155.726562 C174.953128,157.617197 175.304687,159.406242 175.445312,161.09375 L175.585938,161.09375 C175.664063,159.593743 176.015622,157.804698 176.640625,155.726562 L181.679688,140.796875 L189.15625,140.796875 L179.171875,167 L171.835938,167 Z M209.546875,167 L208.164062,163.4375 L207.976562,163.4375 C206.773431,164.953133 205.535163,166.003903 204.261719,166.589844 C202.988275,167.175784 201.328135,167.46875 199.28125,167.46875 C196.765612,167.46875 194.785163,166.750007 193.339844,165.3125 C191.894524,163.874993 191.171875,161.828138 191.171875,159.171875 C191.171875,156.390611 192.144522,154.33985 194.089844,153.019531 C196.035166,151.699212 198.96873,150.968751 202.890625,150.828125 L207.4375,150.6875 L207.4375,149.539062 C207.4375,146.882799 206.078139,145.554688 203.359375,145.554688 C201.265615,145.554688 198.804702,146.187494 195.976562,147.453125 L193.609375,142.625 C196.625015,141.046867 199.968732,140.257812 203.640625,140.257812 C207.156268,140.257812 209.851553,141.02343 211.726562,142.554688 C213.601572,144.085945 214.539062,146.414047 214.539062,149.539062 L214.539062,167 L209.546875,167 Z M207.4375,154.859375 L204.671875,154.953125 C202.59374,155.015625 201.04688,155.390622 200.03125,156.078125 C199.01562,156.765628 198.507812,157.812493 198.507812,159.21875 C198.507812,161.234385 199.664051,162.242188 201.976562,162.242188 C203.632821,162.242188 204.957026,161.76563 205.949219,160.8125 C206.941411,159.85937 207.4375,158.593758 207.4375,157.015625 L207.4375,154.859375 Z M232.539062,167.46875 C224.382772,167.46875 220.304688,162.992232 220.304688,154.039062 C220.304688,149.585915 221.414051,146.183606 223.632812,143.832031 C225.851574,141.480457 229.031229,140.304688 233.171875,140.304688 C236.20314,140.304688 238.921863,140.898432 241.328125,142.085938 L239.21875,147.617188 C238.093744,147.16406 237.04688,146.79297 236.078125,146.503906 C235.10937,146.214842 234.14063,146.070312 233.171875,146.070312 C229.453106,146.070312 227.59375,148.710911 227.59375,153.992188 C227.59375,159.117213 229.453106,161.679688 233.171875,161.679688 C234.546882,161.679688 235.820307,161.496096 236.992188,161.128906 C238.164068,160.761717 239.335932,160.187504 240.507812,159.40625 L240.507812,165.523438 C239.351557,166.257816 238.1836,166.765624 237.003906,167.046875 C235.824213,167.328126 234.335946,167.46875 232.539062,167.46875 Z M246.273438,134.023438 C246.273438,131.695301 247.5703,130.53125 250.164063,130.53125 C252.757825,130.53125 254.054688,131.695301 254.054688,134.023438 C254.054688,135.132818 253.730472,135.996091 253.082031,136.613281 C252.433591,137.230472 251.460944,137.539062 250.164063,137.539062 C247.5703,137.539062 246.273438,136.367199 246.273438,134.023438 Z M253.726563,167 L246.578125,167 L246.578125,140.796875 L253.726563,140.796875 L253.726563,167 Z M266.921875,153.851562 C266.921875,156.445325 267.347652,158.406243 268.199219,159.734375 C269.050786,161.062507 270.43749,161.726562 272.359375,161.726562 C274.265635,161.726562 275.636715,161.066413 276.472656,159.746094 C277.308598,158.425775 277.726562,156.460951 277.726562,153.851562 C277.726562,151.2578 277.304692,149.312506 276.460938,148.015625 C275.617183,146.718744 274.234385,146.070312 272.3125,146.070312 C270.40624,146.070312 269.031254,146.714837 268.1875,148.003906 C267.343746,149.292975 266.921875,151.242174 266.921875,153.851562 Z M285.039062,153.851562 C285.039062,158.117209 283.914074,161.453113 281.664062,163.859375 C279.414051,166.265637 276.28127,167.46875 272.265625,167.46875 C269.749987,167.46875 267.53126,166.917974 265.609375,165.816406 C263.68749,164.714838 262.210943,163.132823 261.179688,161.070312 C260.148432,159.007802 259.632812,156.601576 259.632812,153.851562 C259.632812,149.570291 260.749989,146.242199 262.984375,143.867188 C265.218761,141.492176 268.359355,140.304688 272.40625,140.304688 C274.921888,140.304688 277.140615,140.851557 279.0625,141.945312 C280.984385,143.039068 282.460932,144.609365 283.492188,146.65625 C284.523443,148.703135 285.039062,151.101549 285.039062,153.851562 Z M268.421875,137.914062 L268.421875,137.28125 C271.109388,134.156234 272.945308,131.804695 273.929688,130.226562 L281.945312,130.226562 L281.945312,130.71875 C281.132808,131.531254 279.746104,132.738273 277.785156,134.339844 C275.824209,135.941414 274.289068,137.132809 273.179688,137.914062 L268.421875,137.914062 Z M315.132812,167 L307.984375,167 L307.984375,151.695312 C307.984375,149.804678 307.648441,148.386723 306.976562,147.441406 C306.304684,146.496089 305.234382,146.023438 303.765625,146.023438 C301.765615,146.023438 300.320317,146.6914 299.429688,148.027344 C298.539058,149.363288 298.09375,151.57811 298.09375,154.671875 L298.09375,167 L290.945312,167 L290.945312,140.796875 L296.40625,140.796875 L297.367188,144.148438 L297.765625,144.148438 C298.562504,142.882806 299.660149,141.925784 301.058594,141.277344 C302.457038,140.628903 304.046866,140.304688 305.828125,140.304688 C308.875015,140.304688 311.187492,141.128898 312.765625,142.777344 C314.343758,144.425789 315.132812,146.804672 315.132812,149.914062 L315.132812,167 Z M22.046875,232 L2.3125,232 L2.3125,197.734375 L22.046875,197.734375 L22.046875,203.6875 L9.578125,203.6875 L9.578125,211.210938 L21.1796875,211.210938 L21.1796875,217.164063 L9.578125,217.164063 L9.578125,226 L22.046875,226 L22.046875,232 Z M52.09375,232 L44.9453125,232 L44.9453125,216.695313 C44.9453125,214.804678 44.6289094,213.386723 43.9960938,212.441406 C43.3632781,211.496089 42.3671943,211.023438 41.0078125,211.023438 C39.1796784,211.023438 37.8515666,211.695306 37.0234375,213.039063 C36.1953084,214.382819 35.78125,216.593735 35.78125,219.671875 L35.78125,232 L28.6328125,232 L28.6328125,205.796875 L34.09375,205.796875 L35.0546875,209.148438 L35.453125,209.148438 C36.1562535,207.945306 37.1718684,207.00391 38.5,206.324219 C39.8281316,205.644528 41.3515539,205.304688 43.0703125,205.304688 C46.9922071,205.304688 49.6484305,206.585925 51.0390625,209.148438 L51.671875,209.148438 C52.3750035,207.929681 53.4101494,206.984378 54.7773438,206.3125 C56.1445381,205.640622 57.6874914,205.304688 59.40625,205.304688 C62.3750148,205.304688 64.6210861,206.066399 66.1445312,207.589844 C67.6679764,209.113289 68.4296875,211.554671 68.4296875,214.914063 L68.4296875,232 L61.2578125,232 L61.2578125,216.695313 C61.2578125,214.804678 60.9414094,213.386723 60.3085938,212.441406 C59.6757781,211.496089 58.6796943,211.023438 57.3203125,211.023438 C55.5703037,211.023438 54.2617231,211.648431 53.3945312,212.898438 C52.5273394,214.148444 52.09375,216.132799 52.09375,218.851563 L52.09375,232 Z M90.15625,232.46875 C87.0781096,232.46875 84.6640713,231.351574 82.9140625,229.117188 L82.5390625,229.117188 C82.7890637,231.304698 82.9140625,232.570311 82.9140625,232.914063 L82.9140625,243.53125 L75.765625,243.53125 L75.765625,205.796875 L81.578125,205.796875 L82.5859375,209.195313 L82.9140625,209.195313 C84.5859459,206.60155 87.0624836,205.304688 90.34375,205.304688 C93.4375155,205.304688 95.8593662,206.499988 97.609375,208.890625 C99.3593838,211.281262 100.234375,214.601541 100.234375,218.851563 C100.234375,221.648451 99.8242229,224.078115 99.0039062,226.140625 C98.1835896,228.203135 97.0156326,229.773432 95.5,230.851563 C93.9843674,231.929693 92.2031352,232.46875 90.15625,232.46875 Z M88.046875,211.023438 C86.2812412,211.023438 84.9921916,211.566401 84.1796875,212.652344 C83.3671834,213.738287 82.9453127,215.531237 82.9140625,218.03125 L82.9140625,218.804688 C82.9140625,221.617202 83.3320271,223.632806 84.1679688,224.851563 C85.0039104,226.070319 86.3281159,226.679688 88.140625,226.679688 C91.343766,226.679688 92.9453125,224.039089 92.9453125,218.757813 C92.9453125,216.179675 92.5507852,214.2461 91.7617188,212.957031 C90.9726523,211.667962 89.7343834,211.023438 88.046875,211.023438 Z M120.765625,205.304688 C121.73438,205.304688 122.539059,205.374999 123.179688,205.515625 L122.640625,212.21875 C122.062497,212.062499 121.359379,211.984375 120.53125,211.984375 C118.249989,211.984375 116.472663,212.570307 115.199219,213.742188 C113.925775,214.914068 113.289062,216.554677 113.289062,218.664063 L113.289062,232 L106.140625,232 L106.140625,205.796875 L111.554688,205.796875 L112.609375,210.203125 L112.960938,210.203125 C113.773442,208.734368 114.871087,207.550786 116.253906,206.652344 C117.636726,205.753902 119.140617,205.304688 120.765625,205.304688 Z M137.828125,210.390625 C136.312492,210.390625 135.125004,210.871089 134.265625,211.832031 C133.406246,212.792974 132.914063,214.156241 132.789062,215.921875 L142.820312,215.921875 C142.789062,214.156241 142.328129,212.792974 141.4375,211.832031 C140.546871,210.871089 139.343758,210.390625 137.828125,210.390625 Z M138.835938,232.46875 C134.617166,232.46875 131.320324,231.304699 128.945312,228.976563 C126.570301,226.648426 125.382812,223.351584 125.382812,219.085938 C125.382812,214.695291 126.480458,211.300793 128.675781,208.902344 C130.871105,206.503894 133.906231,205.304688 137.78125,205.304688 C141.484394,205.304688 144.367177,206.359364 146.429688,208.46875 C148.492198,210.578136 149.523438,213.492169 149.523438,217.210938 L149.523438,220.679688 L132.625,220.679688 C132.703125,222.710948 133.304682,224.296869 134.429688,225.4375 C135.554693,226.578131 137.132802,227.148438 139.164062,227.148438 C140.742195,227.148438 142.234368,226.984377 143.640625,226.65625 C145.046882,226.328123 146.515617,225.804691 148.046875,225.085938 L148.046875,230.617188 C146.796869,231.242191 145.460945,231.70703 144.039062,232.011719 C142.61718,232.316408 140.882823,232.46875 138.835938,232.46875 Z M173.617188,224.21875 C173.617188,226.906263 172.683603,228.953118 170.816406,230.359375 C168.949209,231.765632 166.156269,232.46875 162.4375,232.46875 C160.53124,232.46875 158.906257,232.339845 157.5625,232.082031 C156.218743,231.824217 154.960943,231.445315 153.789062,230.945313 L153.789062,225.039063 C155.117194,225.664066 156.613273,226.187498 158.277344,226.609375 C159.941415,227.031252 161.406244,227.242188 162.671875,227.242188 C165.265638,227.242188 166.5625,226.492195 166.5625,224.992188 C166.5625,224.429685 166.390627,223.972658 166.046875,223.621094 C165.703123,223.269529 165.109379,222.871096 164.265625,222.425781 C163.421871,221.980467 162.296882,221.46094 160.890625,220.867188 C158.87499,220.023433 157.394536,219.242191 156.449219,218.523438 C155.503902,217.804684 154.816408,216.980473 154.386719,216.050781 C153.957029,215.121089 153.742188,213.976569 153.742188,212.617188 C153.742188,210.289051 154.644522,208.488288 156.449219,207.214844 C158.253915,205.9414 160.812483,205.304688 164.125,205.304688 C167.281266,205.304688 170.351548,205.992181 173.335938,207.367188 L171.179688,212.523438 C169.867181,211.960935 168.640631,211.500002 167.5,211.140625 C166.359369,210.781248 165.195318,210.601563 164.007812,210.601563 C161.898427,210.601563 160.84375,211.171869 160.84375,212.3125 C160.84375,212.953128 161.18359,213.50781 161.863281,213.976563 C162.542972,214.445315 164.031239,215.14062 166.328125,216.0625 C168.37501,216.890629 169.874995,217.664059 170.828125,218.382813 C171.781255,219.101566 172.484373,219.929683 172.9375,220.867188 C173.390627,221.804692 173.617188,222.921869 173.617188,224.21875 Z M195.835938,232 L194.453125,228.4375 L194.265625,228.4375 C193.062494,229.953133 191.824225,231.003903 190.550781,231.589844 C189.277337,232.175784 187.617198,232.46875 185.570312,232.46875 C183.054675,232.46875 181.074226,231.750007 179.628906,230.3125 C178.183587,228.874993 177.460938,226.828138 177.460938,224.171875 C177.460938,221.390611 178.433584,219.33985 180.378906,218.019531 C182.324228,216.699212 185.257793,215.968751 189.179688,215.828125 L193.726562,215.6875 L193.726562,214.539063 C193.726562,211.882799 192.367201,210.554688 189.648438,210.554688 C187.554677,210.554688 185.093764,211.187494 182.265625,212.453125 L179.898438,207.625 C182.914078,206.046867 186.257794,205.257813 189.929688,205.257813 C193.44533,205.257813 196.140616,206.02343 198.015625,207.554688 C199.890634,209.085945 200.828125,211.414047 200.828125,214.539063 L200.828125,232 L195.835938,232 Z M193.726562,219.859375 L190.960938,219.953125 C188.882802,220.015625 187.335943,220.390622 186.320312,221.078125 C185.304682,221.765628 184.796875,222.812493 184.796875,224.21875 C184.796875,226.234385 185.953113,227.242188 188.265625,227.242188 C189.921883,227.242188 191.246089,226.76563 192.238281,225.8125 C193.230474,224.85937 193.726562,223.593758 193.726562,222.015625 L193.726562,219.859375 Z M222.8125,205.304688 C223.781255,205.304688 224.585934,205.374999 225.226562,205.515625 L224.6875,212.21875 C224.109372,212.062499 223.406254,211.984375 222.578125,211.984375 C220.296864,211.984375 218.519538,212.570307 217.246094,213.742188 C215.97265,214.914068 215.335938,216.554677 215.335938,218.664063 L215.335938,232 L208.1875,232 L208.1875,205.796875 L213.601562,205.796875 L214.65625,210.203125 L215.007812,210.203125 C215.820317,208.734368 216.917962,207.550786 218.300781,206.652344 C219.683601,205.753902 221.187492,205.304688 222.8125,205.304688 Z M229.679688,199.023438 C229.679688,196.695301 230.97655,195.53125 233.570312,195.53125 C236.164075,195.53125 237.460938,196.695301 237.460938,199.023438 C237.460938,200.132818 237.136722,200.996091 236.488281,201.613281 C235.839841,202.230472 234.867194,202.539063 233.570312,202.539063 C230.97655,202.539063 229.679688,201.367199 229.679688,199.023438 Z M237.132812,232 L229.984375,232 L229.984375,205.796875 L237.132812,205.796875 L237.132812,232 Z M261.273438,232 L259.890625,228.4375 L259.703125,228.4375 C258.499994,229.953133 257.261725,231.003903 255.988281,231.589844 C254.714837,232.175784 253.054698,232.46875 251.007813,232.46875 C248.492175,232.46875 246.511726,231.750007 245.066406,230.3125 C243.621087,228.874993 242.898438,226.828138 242.898438,224.171875 C242.898438,221.390611 243.871084,219.33985 245.816406,218.019531 C247.761728,216.699212 250.695293,215.968751 254.617188,215.828125 L259.164062,215.6875 L259.164062,214.539063 C259.164062,211.882799 257.804701,210.554688 255.085938,210.554688 C252.992177,210.554688 250.531264,211.187494 247.703125,212.453125 L245.335938,207.625 C248.351578,206.046867 251.695294,205.257813 255.367188,205.257813 C258.88283,205.257813 261.578116,206.02343 263.453125,207.554688 C265.328134,209.085945 266.265625,211.414047 266.265625,214.539063 L266.265625,232 L261.273438,232 Z M259.164062,219.859375 L256.398438,219.953125 C254.320302,220.015625 252.773443,220.390622 251.757813,221.078125 C250.742182,221.765628 250.234375,222.812493 250.234375,224.21875 C250.234375,226.234385 251.390613,227.242188 253.703125,227.242188 C255.359383,227.242188 256.683589,226.76563 257.675781,225.8125 C258.667974,224.85937 259.164062,223.593758 259.164062,222.015625 L259.164062,219.859375 Z M280.773438,232 L273.625,232 L273.625,195.53125 L280.773438,195.53125 L280.773438,232 Z" id="Premio-Santander-a-l"></path>
                </g>
                <path d="M125.875,379 L101.921875,379 L101.921875,373.960938 L110.523438,365.265625 C113.070325,362.656237 114.734371,360.847661 115.515625,359.839844 C116.296879,358.832026 116.859373,357.898442 117.203125,357.039062 C117.546877,356.179683 117.71875,355.289067 117.71875,354.367188 C117.71875,352.992181 117.339848,351.968753 116.582031,351.296875 C115.824215,350.624997 114.812506,350.289062 113.546875,350.289062 C112.218743,350.289062 110.929694,350.593747 109.679688,351.203125 C108.429681,351.812503 107.125007,352.679682 105.765625,353.804688 L101.828125,349.140625 C103.515633,347.703118 104.914057,346.687503 106.023438,346.09375 C107.132818,345.499997 108.343743,345.04297 109.65625,344.722656 C110.968757,344.402342 112.437492,344.242188 114.0625,344.242188 C116.203136,344.242188 118.093742,344.632809 119.734375,345.414062 C121.375008,346.195316 122.648433,347.289055 123.554688,348.695312 C124.460942,350.10157 124.914062,351.710928 124.914062,353.523438 C124.914062,355.10157 124.636722,356.582024 124.082031,357.964844 C123.527341,359.347663 122.667975,360.765618 121.503906,362.21875 C120.339838,363.671882 118.289077,365.742174 115.351562,368.429688 L110.945312,372.578125 L110.945312,372.90625 L125.875,372.90625 L125.875,379 Z M153.085938,361.867188 C153.085938,367.851592 152.105479,372.281236 150.144531,375.15625 C148.183584,378.031264 145.164083,379.46875 141.085938,379.46875 C137.132793,379.46875 134.152354,377.98439 132.144531,375.015625 C130.136709,372.04686 129.132812,367.664091 129.132812,361.867188 C129.132812,355.820282 130.109365,351.363296 132.0625,348.496094 C134.015635,345.628892 137.023417,344.195312 141.085938,344.195312 C145.039082,344.195312 148.027334,345.695297 150.050781,348.695312 C152.074229,351.695328 153.085938,356.085909 153.085938,361.867188 Z M136.328125,361.867188 C136.328125,366.070334 136.691403,369.082022 137.417969,370.902344 C138.144535,372.722665 139.367179,373.632812 141.085938,373.632812 C142.773446,373.632812 143.992184,372.710947 144.742188,370.867188 C145.492191,369.023428 145.867188,366.023458 145.867188,361.867188 C145.867188,357.664041 145.488285,354.64454 144.730469,352.808594 C143.972652,350.972647 142.757821,350.054688 141.085938,350.054688 C139.382804,350.054688 138.164066,350.972647 137.429688,352.808594 C136.695309,354.64454 136.328125,357.664041 136.328125,361.867188 Z M174.625,379 L167.382812,379 L167.382812,359.171875 L167.453125,355.914062 L167.570312,352.351562 C166.367181,353.554694 165.531252,354.343748 165.0625,354.71875 L161.125,357.882812 L157.632812,353.523438 L168.671875,344.734375 L174.625,344.734375 L174.625,379 Z M195.929688,344.289062 C199.210954,344.289062 201.855459,345.035149 203.863281,346.527344 C205.871104,348.019539 206.875,350.031237 206.875,352.5625 C206.875,354.312509 206.39063,355.871087 205.421875,357.238281 C204.45312,358.605476 202.890636,359.82812 200.734375,360.90625 C203.296888,362.281257 205.136713,363.714836 206.253906,365.207031 C207.371099,366.699226 207.929688,368.335929 207.929688,370.117188 C207.929688,372.929702 206.828136,375.191398 204.625,376.902344 C202.421864,378.61329 199.523455,379.46875 195.929688,379.46875 C192.179669,379.46875 189.234386,378.671883 187.09375,377.078125 C184.953114,375.484367 183.882812,373.226577 183.882812,370.304688 C183.882812,368.351553 184.402339,366.617195 185.441406,365.101562 C186.480474,363.58593 188.148426,362.250006 190.445312,361.09375 C188.492178,359.859369 187.085942,358.53907 186.226562,357.132812 C185.367183,355.726555 184.9375,354.187508 184.9375,352.515625 C184.9375,350.062488 185.953115,348.078133 187.984375,346.5625 C190.015635,345.046867 192.664046,344.289062 195.929688,344.289062 Z M190.585938,369.882812 C190.585938,371.226569 191.054683,372.273434 191.992188,373.023438 C192.929692,373.773441 194.210929,374.148438 195.835938,374.148438 C197.632821,374.148438 198.976558,373.761723 199.867188,372.988281 C200.757817,372.21484 201.203125,371.195319 201.203125,369.929688 C201.203125,368.882807 200.761723,367.902348 199.878906,366.988281 C198.996089,366.074214 197.56251,365.101568 195.578125,364.070312 C192.249983,365.60157 190.585938,367.539051 190.585938,369.882812 Z M195.882812,349.585938 C194.648431,349.585938 193.652348,349.902341 192.894531,350.535156 C192.136715,351.167972 191.757812,352.01562 191.757812,353.078125 C191.757812,354.01563 192.058591,354.855465 192.660156,355.597656 C193.261722,356.339847 194.351555,357.101559 195.929688,357.882812 C197.460945,357.164059 198.531247,356.429691 199.140625,355.679688 C199.750003,354.929684 200.054688,354.062505 200.054688,353.078125 C200.054688,351.999995 199.664066,351.148441 198.882812,350.523438 C198.101559,349.898434 197.101569,349.585938 195.882812,349.585938 Z" id="2018" fill="#000000"></path>
                <path d="M112.023438,528.452148 C112.023438,530.573253 111.44776,532.194819 110.296387,533.316895 C109.145014,534.43897 107.488292,535 105.326172,535 L101.766602,535 L101.766602,522.150391 L105.704102,522.150391 C107.702158,522.150391 109.254877,522.704096 110.362305,523.811523 C111.469732,524.918951 112.023438,526.46581 112.023438,528.452148 Z M110.441406,528.504883 C110.441406,526.829093 110.021,525.56641 109.180176,524.716797 C108.339351,523.867183 107.089852,523.442383 105.431641,523.442383 L103.260742,523.442383 L103.260742,533.708008 L105.080078,533.708008 C106.861337,533.708008 108.200191,533.270024 109.09668,532.394043 C109.993169,531.518062 110.441406,530.221688 110.441406,528.504883 Z M118.738281,535.175781 C117.314446,535.175781 116.190922,534.742192 115.367676,533.875 C114.544429,533.007808 114.132812,531.803719 114.132812,530.262695 C114.132812,528.709953 114.515133,527.476567 115.279785,526.5625 C116.044437,525.648433 117.071283,525.191406 118.360352,525.191406 C119.567389,525.191406 120.522457,525.588375 121.225586,526.382324 C121.928714,527.176274 122.280273,528.223626 122.280273,529.524414 L122.280273,530.447266 L115.644531,530.447266 C115.673828,531.578131 115.95947,532.436521 116.501465,533.022461 C117.04346,533.608401 117.806636,533.901367 118.791016,533.901367 C119.82813,533.901367 120.853511,533.684572 121.867188,533.250977 L121.867188,534.551758 C121.35156,534.774415 120.863772,534.934082 120.403809,535.030762 C119.943845,535.127442 119.388675,535.175781 118.738281,535.175781 Z M118.342773,526.413086 C117.569332,526.413086 116.952639,526.665037 116.492676,527.168945 C116.032713,527.672854 115.761719,528.370113 115.679688,529.260742 L120.71582,529.260742 C120.71582,528.340816 120.510744,527.636233 120.100586,527.146973 C119.690428,526.657712 119.104496,526.413086 118.342773,526.413086 Z M129.162109,525.191406 C129.589846,525.191406 129.973631,525.226562 130.313477,525.296875 L130.111328,526.650391 C129.712889,526.5625 129.36133,526.518555 129.056641,526.518555 C128.27734,526.518555 127.610843,526.834958 127.057129,527.467773 C126.503415,528.100589 126.226562,528.888667 126.226562,529.832031 L126.226562,535 L124.767578,535 L124.767578,525.367188 L125.97168,525.367188 L126.138672,527.151367 L126.208984,527.151367 C126.566408,526.524411 126.997068,526.041017 127.500977,525.701172 C128.004885,525.361326 128.558591,525.191406 129.162109,525.191406 Z M135.824219,535.175781 C134.400384,535.175781 133.27686,534.742192 132.453613,533.875 C131.630367,533.007808 131.21875,531.803719 131.21875,530.262695 C131.21875,528.709953 131.60107,527.476567 132.365723,526.5625 C133.130375,525.648433 134.15722,525.191406 135.446289,525.191406 C136.653326,525.191406 137.608395,525.588375 138.311523,526.382324 C139.014652,527.176274 139.366211,528.223626 139.366211,529.524414 L139.366211,530.447266 L132.730469,530.447266 C132.759766,531.578131 133.045407,532.436521 133.587402,533.022461 C134.129397,533.608401 134.892573,533.901367 135.876953,533.901367 C136.914068,533.901367 137.939448,533.684572 138.953125,533.250977 L138.953125,534.551758 C138.437497,534.774415 137.949709,534.934082 137.489746,535.030762 C137.029783,535.127442 136.474613,535.175781 135.824219,535.175781 Z M135.428711,526.413086 C134.65527,526.413086 134.038577,526.665037 133.578613,527.168945 C133.11865,527.672854 132.847657,528.370113 132.765625,529.260742 L137.801758,529.260742 C137.801758,528.340816 137.596682,527.636233 137.186523,527.146973 C136.776365,526.657712 136.190433,526.413086 135.428711,526.413086 Z M145.703125,535.175781 C144.308587,535.175781 143.229008,534.746586 142.464355,533.888184 C141.699703,533.029781 141.317383,531.815438 141.317383,530.245117 C141.317383,528.633781 141.705563,527.388676 142.481934,526.509766 C143.258305,525.630855 144.364251,525.191406 145.799805,525.191406 C146.262698,525.191406 146.725584,525.24121 147.188477,525.34082 C147.65137,525.44043 148.014647,525.557617 148.27832,525.692383 L147.830078,526.931641 C147.507811,526.802734 147.156252,526.695801 146.775391,526.61084 C146.394529,526.525878 146.057619,526.483398 145.764648,526.483398 C143.807607,526.483398 142.829102,527.731433 142.829102,530.227539 C142.829102,531.411139 143.067869,532.319333 143.54541,532.952148 C144.022952,533.584964 144.730464,533.901367 145.667969,533.901367 C146.470707,533.901367 147.293941,533.728517 148.137695,533.382812 L148.137695,534.674805 C147.493161,535.008791 146.681646,535.175781 145.703125,535.175781 Z M157.014648,535 L157.014648,528.768555 C157.014648,527.983395 156.835939,527.397463 156.478516,527.010742 C156.121092,526.624022 155.561527,526.430664 154.799805,526.430664 C153.786128,526.430664 153.046389,526.706052 152.580566,527.256836 C152.114744,527.80762 151.881836,528.709955 151.881836,529.963867 L151.881836,535 L150.422852,535 L150.422852,521.324219 L151.881836,521.324219 L151.881836,525.463867 C151.881836,525.961917 151.858399,526.374998 151.811523,526.703125 L151.899414,526.703125 C152.186525,526.240232 152.595212,525.87549 153.125488,525.608887 C153.655764,525.342284 154.260739,525.208984 154.94043,525.208984 C156.11817,525.208984 157.001462,525.488767 157.590332,526.04834 C158.179202,526.607913 158.473633,527.497064 158.473633,528.71582 L158.473633,535 L157.014648,535 Z M169.785156,530.174805 C169.785156,531.745125 169.389652,532.971187 168.598633,533.853027 C167.807613,534.734868 166.714851,535.175781 165.320312,535.175781 C164.45898,535.175781 163.694339,534.973635 163.026367,534.569336 C162.358395,534.165037 161.842775,533.584965 161.479492,532.829102 C161.116209,532.073238 160.93457,531.188482 160.93457,530.174805 C160.93457,528.604484 161.327145,527.381352 162.112305,526.505371 C162.897465,525.62939 163.987298,525.191406 165.381836,525.191406 C166.729499,525.191406 167.800289,525.639644 168.594238,526.536133 C169.388188,527.432622 169.785156,528.6455 169.785156,530.174805 Z M162.446289,530.174805 C162.446289,531.40528 162.69238,532.34277 163.18457,532.987305 C163.67676,533.631839 164.400386,533.954102 165.355469,533.954102 C166.310552,533.954102 167.035642,533.633304 167.530762,532.991699 C168.025881,532.350094 168.273438,531.411139 168.273438,530.174805 C168.273438,528.950189 168.025881,528.020023 167.530762,527.384277 C167.035642,526.748532 166.304692,526.430664 165.337891,526.430664 C164.382808,526.430664 163.662112,526.744137 163.175781,527.371094 C162.689451,527.99805 162.446289,528.932611 162.446289,530.174805 Z M178.556641,532.37207 C178.556641,533.268559 178.22266,533.959959 177.554688,534.446289 C176.886715,534.93262 175.949225,535.175781 174.742188,535.175781 C173.464837,535.175781 172.468754,534.973635 171.753906,534.569336 L171.753906,533.21582 C172.216799,533.450196 172.713376,533.634765 173.243652,533.769531 C173.773928,533.904298 174.285154,533.97168 174.777344,533.97168 C175.539066,533.97168 176.124998,533.850099 176.535156,533.606934 C176.945315,533.363768 177.150391,532.993167 177.150391,532.495117 C177.150391,532.120115 176.987795,531.799318 176.662598,531.532715 C176.337401,531.266112 175.70313,530.951174 174.759766,530.587891 C173.863277,530.253905 173.226076,529.962404 172.848145,529.713379 C172.470213,529.464354 172.188966,529.181642 172.004395,528.865234 C171.819823,528.548827 171.727539,528.170901 171.727539,527.731445 C171.727539,526.946285 172.046872,526.326662 172.685547,525.872559 C173.324222,525.418455 174.20019,525.191406 175.313477,525.191406 C176.350591,525.191406 177.364253,525.402342 178.354492,525.824219 L177.835938,527.010742 C176.869136,526.612303 175.993168,526.413086 175.208008,526.413086 C174.516598,526.413086 173.995119,526.521483 173.643555,526.738281 C173.29199,526.955079 173.116211,527.253904 173.116211,527.634766 C173.116211,527.892579 173.182128,528.112304 173.313965,528.293945 C173.445801,528.475587 173.658202,528.648437 173.951172,528.8125 C174.244142,528.976563 174.806636,529.213866 175.638672,529.524414 C176.781256,529.940432 177.553221,530.359373 177.95459,530.78125 C178.355959,531.203127 178.556641,531.733395 178.556641,532.37207 Z M187.319336,529.65625 L187.319336,535 L185.825195,535 L185.825195,522.150391 L189.349609,522.150391 C190.925789,522.150391 192.090328,522.452145 192.843262,523.055664 C193.596195,523.659183 193.972656,524.567377 193.972656,525.780273 C193.972656,527.479501 193.111337,528.627927 191.388672,529.225586 L194.87793,535 L193.111328,535 L190,529.65625 L187.319336,529.65625 Z M187.319336,528.373047 L189.367188,528.373047 C190.42188,528.373047 191.19531,528.163576 191.6875,527.744629 C192.17969,527.325681 192.425781,526.69727 192.425781,525.859375 C192.425781,525.009761 192.175295,524.397463 191.674316,524.022461 C191.173337,523.647459 190.369146,523.459961 189.261719,523.459961 L187.319336,523.459961 L187.319336,528.373047 Z M200.801758,535.175781 C199.377923,535.175781 198.254399,534.742192 197.431152,533.875 C196.607906,533.007808 196.196289,531.803719 196.196289,530.262695 C196.196289,528.709953 196.578609,527.476567 197.343262,526.5625 C198.107914,525.648433 199.134759,525.191406 200.423828,525.191406 C201.630865,525.191406 202.585934,525.588375 203.289062,526.382324 C203.992191,527.176274 204.34375,528.223626 204.34375,529.524414 L204.34375,530.447266 L197.708008,530.447266 C197.737305,531.578131 198.022947,532.436521 198.564941,533.022461 C199.106936,533.608401 199.870112,533.901367 200.854492,533.901367 C201.891607,533.901367 202.916987,533.684572 203.930664,533.250977 L203.930664,534.551758 C203.415036,534.774415 202.927248,534.934082 202.467285,535.030762 C202.007322,535.127442 201.452152,535.175781 200.801758,535.175781 Z M200.40625,526.413086 C199.632809,526.413086 199.016116,526.665037 198.556152,527.168945 C198.096189,527.672854 197.825196,528.370113 197.743164,529.260742 L202.779297,529.260742 C202.779297,528.340816 202.574221,527.636233 202.164062,527.146973 C201.753904,526.657712 201.167973,526.413086 200.40625,526.413086 Z M213.044922,532.37207 C213.044922,533.268559 212.710941,533.959959 212.042969,534.446289 C211.374997,534.93262 210.437506,535.175781 209.230469,535.175781 C207.953119,535.175781 206.957035,534.973635 206.242188,534.569336 L206.242188,533.21582 C206.70508,533.450196 207.201658,533.634765 207.731934,533.769531 C208.26221,533.904298 208.773435,533.97168 209.265625,533.97168 C210.027348,533.97168 210.613279,533.850099 211.023438,533.606934 C211.433596,533.363768 211.638672,532.993167 211.638672,532.495117 C211.638672,532.120115 211.476076,531.799318 211.150879,531.532715 C210.825682,531.266112 210.191411,530.951174 209.248047,530.587891 C208.351558,530.253905 207.714357,529.962404 207.336426,529.713379 C206.958494,529.464354 206.677247,529.181642 206.492676,528.865234 C206.308105,528.548827 206.21582,528.170901 206.21582,527.731445 C206.21582,526.946285 206.535153,526.326662 207.173828,525.872559 C207.812503,525.418455 208.688471,525.191406 209.801758,525.191406 C210.838872,525.191406 211.852534,525.402342 212.842773,525.824219 L212.324219,527.010742 C211.357417,526.612303 210.481449,526.413086 209.696289,526.413086 C209.004879,526.413086 208.4834,526.521483 208.131836,526.738281 C207.780272,526.955079 207.604492,527.253904 207.604492,527.634766 C207.604492,527.892579 207.670409,528.112304 207.802246,528.293945 C207.934083,528.475587 208.146483,528.648437 208.439453,528.8125 C208.732423,528.976563 209.294918,529.213866 210.126953,529.524414 C211.269537,529.940432 212.041502,530.359373 212.442871,530.78125 C212.84424,531.203127 213.044922,531.733395 213.044922,532.37207 Z M219.487305,535.175781 C218.063469,535.175781 216.939946,534.742192 216.116699,533.875 C215.293453,533.007808 214.881836,531.803719 214.881836,530.262695 C214.881836,528.709953 215.264156,527.476567 216.028809,526.5625 C216.793461,525.648433 217.820306,525.191406 219.109375,525.191406 C220.316412,525.191406 221.271481,525.588375 221.974609,526.382324 C222.677738,527.176274 223.029297,528.223626 223.029297,529.524414 L223.029297,530.447266 L216.393555,530.447266 C216.422852,531.578131 216.708493,532.436521 217.250488,533.022461 C217.792483,533.608401 218.555659,533.901367 219.540039,533.901367 C220.577154,533.901367 221.602534,533.684572 222.616211,533.250977 L222.616211,534.551758 C222.100583,534.774415 221.612795,534.934082 221.152832,535.030762 C220.692869,535.127442 220.137699,535.175781 219.487305,535.175781 Z M219.091797,526.413086 C218.318356,526.413086 217.701662,526.665037 217.241699,527.168945 C216.781736,527.672854 216.510743,528.370113 216.428711,529.260742 L221.464844,529.260742 C221.464844,528.340816 221.259768,527.636233 220.849609,527.146973 C220.439451,526.657712 219.853519,526.413086 219.091797,526.413086 Z M229.911133,525.191406 C230.338869,525.191406 230.722655,525.226562 231.0625,525.296875 L230.860352,526.650391 C230.461912,526.5625 230.110353,526.518555 229.805664,526.518555 C229.026363,526.518555 228.359866,526.834958 227.806152,527.467773 C227.252439,528.100589 226.975586,528.888667 226.975586,529.832031 L226.975586,535 L225.516602,535 L225.516602,525.367188 L226.720703,525.367188 L226.887695,527.151367 L226.958008,527.151367 C227.315431,526.524411 227.746091,526.041017 228.25,525.701172 C228.753909,525.361326 229.307614,525.191406 229.911133,525.191406 Z M234.973633,535 L231.317383,525.367188 L232.881836,525.367188 L234.956055,531.080078 C235.424807,532.416022 235.700195,533.283201 235.782227,533.681641 L235.852539,533.681641 C235.916993,533.371092 236.120604,532.728032 236.463379,531.752441 C236.806154,530.776851 237.575189,528.648454 238.770508,525.367188 L240.334961,525.367188 L236.678711,535 L234.973633,535 Z M247.805664,535 L247.515625,533.628906 L247.445312,533.628906 C246.964841,534.232425 246.485842,534.641112 246.008301,534.85498 C245.530759,535.068849 244.934574,535.175781 244.219727,535.175781 C243.264644,535.175781 242.516116,534.92969 241.974121,534.4375 C241.432126,533.94531 241.161133,533.245122 241.161133,532.336914 C241.161133,530.391592 242.716781,529.372071 245.828125,529.27832 L247.462891,529.225586 L247.462891,528.62793 C247.462891,527.872067 247.300295,527.313967 246.975098,526.953613 C246.649901,526.59326 246.129886,526.413086 245.415039,526.413086 C244.612301,526.413086 243.704107,526.659177 242.69043,527.151367 L242.242188,526.035156 C242.716799,525.777342 243.236814,525.575196 243.802246,525.428711 C244.367679,525.282226 244.934567,525.208984 245.50293,525.208984 C246.651373,525.208984 247.502439,525.463865 248.056152,525.973633 C248.609866,526.483401 248.886719,527.300776 248.886719,528.425781 L248.886719,535 L247.805664,535 Z M244.509766,533.97168 C245.417973,533.97168 246.131345,533.722659 246.649902,533.224609 C247.16846,532.72656 247.427734,532.029301 247.427734,531.132812 L247.427734,530.262695 L245.96875,530.324219 C244.808588,530.365235 243.972171,530.545409 243.459473,530.864746 C242.946775,531.184084 242.69043,531.680661 242.69043,532.354492 C242.69043,532.881839 242.850096,533.283202 243.169434,533.558594 C243.488771,533.833986 243.935544,533.97168 244.509766,533.97168 Z M258.449219,533.708008 L258.370117,533.708008 C257.696286,534.686528 256.688483,535.175781 255.34668,535.175781 C254.086908,535.175781 253.106937,534.745121 252.406738,533.883789 C251.706539,533.022457 251.356445,531.79786 251.356445,530.209961 C251.356445,528.622062 251.708004,527.388676 252.411133,526.509766 C253.114261,525.630855 254.092767,525.191406 255.34668,525.191406 C256.653327,525.191406 257.65527,525.666011 258.352539,526.615234 L258.466797,526.615234 L258.405273,525.920898 L258.370117,525.244141 L258.370117,521.324219 L259.829102,521.324219 L259.829102,535 L258.642578,535 L258.449219,533.708008 Z M255.53125,533.954102 C256.527349,533.954102 257.249509,533.683108 257.697754,533.141113 C258.145998,532.599118 258.370117,531.724615 258.370117,530.517578 L258.370117,530.209961 C258.370117,528.84472 258.143069,527.870608 257.688965,527.287598 C257.234861,526.704587 256.509771,526.413086 255.513672,526.413086 C254.658199,526.413086 254.00342,526.745602 253.549316,527.410645 C253.095213,528.075687 252.868164,529.014642 252.868164,530.227539 C252.868164,531.458014 253.093748,532.386716 253.544922,533.013672 C253.996096,533.640628 254.658199,533.954102 255.53125,533.954102 Z M271.237305,530.174805 C271.237305,531.745125 270.841801,532.971187 270.050781,533.853027 C269.259762,534.734868 268.166999,535.175781 266.772461,535.175781 C265.911129,535.175781 265.146488,534.973635 264.478516,534.569336 C263.810544,534.165037 263.294924,533.584965 262.931641,532.829102 C262.568358,532.073238 262.386719,531.188482 262.386719,530.174805 C262.386719,528.604484 262.779293,527.381352 263.564453,526.505371 C264.349613,525.62939 265.439446,525.191406 266.833984,525.191406 C268.181647,525.191406 269.252437,525.639644 270.046387,526.536133 C270.840336,527.432622 271.237305,528.6455 271.237305,530.174805 Z M263.898438,530.174805 C263.898438,531.40528 264.144529,532.34277 264.636719,532.987305 C265.128909,533.631839 265.852534,533.954102 266.807617,533.954102 C267.7627,533.954102 268.48779,533.633304 268.98291,532.991699 C269.47803,532.350094 269.725586,531.411139 269.725586,530.174805 C269.725586,528.950189 269.47803,528.020023 268.98291,527.384277 C268.48779,526.748532 267.756841,526.430664 266.790039,526.430664 C265.834956,526.430664 265.11426,526.744137 264.62793,527.371094 C264.141599,527.99805 263.898438,528.932611 263.898438,530.174805 Z M280.008789,532.37207 C280.008789,533.268559 279.674808,533.959959 279.006836,534.446289 C278.338864,534.93262 277.401373,535.175781 276.194336,535.175781 C274.916986,535.175781 273.920902,534.973635 273.206055,534.569336 L273.206055,533.21582 C273.668948,533.450196 274.165525,533.634765 274.695801,533.769531 C275.226077,533.904298 275.737302,533.97168 276.229492,533.97168 C276.991215,533.97168 277.577146,533.850099 277.987305,533.606934 C278.397463,533.363768 278.602539,532.993167 278.602539,532.495117 C278.602539,532.120115 278.439943,531.799318 278.114746,531.532715 C277.789549,531.266112 277.155278,530.951174 276.211914,530.587891 C275.315425,530.253905 274.678225,529.962404 274.300293,529.713379 C273.922361,529.464354 273.641114,529.181642 273.456543,528.865234 C273.271972,528.548827 273.179688,528.170901 273.179688,527.731445 C273.179688,526.946285 273.49902,526.326662 274.137695,525.872559 C274.77637,525.418455 275.652338,525.191406 276.765625,525.191406 C277.80274,525.191406 278.816401,525.402342 279.806641,525.824219 L279.288086,527.010742 C278.321284,526.612303 277.445316,526.413086 276.660156,526.413086 C275.968747,526.413086 275.447267,526.521483 275.095703,526.738281 C274.744139,526.955079 274.568359,527.253904 274.568359,527.634766 C274.568359,527.892579 274.634277,528.112304 274.766113,528.293945 C274.89795,528.475587 275.11035,528.648437 275.40332,528.8125 C275.696291,528.976563 276.258785,529.213866 277.09082,529.524414 C278.233404,529.940432 279.005369,530.359373 279.406738,530.78125 C279.808107,531.203127 280.008789,531.733395 280.008789,532.37207 Z M107.866211,550.123047 C107.297849,550.123047 106.8584,550.339842 106.547852,550.773438 C106.237303,551.207033 106.082031,551.807613 106.082031,552.575195 C106.082031,554.215829 106.676752,555.036133 107.866211,555.036133 C108.200197,555.036133 108.560545,554.992188 108.947266,554.904297 C109.333986,554.816406 109.694334,554.687501 110.02832,554.517578 L110.02832,556.196289 C109.325192,556.530275 108.586918,556.697266 107.813477,556.697266 C106.618158,556.697266 105.692386,556.331058 105.036133,555.598633 C104.37988,554.866207 104.051758,553.852546 104.051758,552.557617 C104.051758,551.268548 104.375485,550.26514 105.022949,549.547363 C105.670413,548.829586 106.577143,548.470703 107.743164,548.470703 C108.616215,548.470703 109.509761,548.699216 110.423828,549.15625 L109.773438,550.632812 C109.111325,550.292967 108.475589,550.123047 107.866211,550.123047 Z M100.878906,552.575195 C100.878906,551.403314 101.171872,550.304693 101.757812,549.279297 C102.343753,548.253901 103.149409,547.445315 104.174805,546.853516 C105.2002,546.261716 106.304682,545.96582 107.488281,545.96582 C108.660162,545.96582 109.758784,546.258786 110.78418,546.844727 C111.809575,547.430667 112.618161,548.236323 113.209961,549.261719 C113.801761,550.287115 114.097656,551.391596 114.097656,552.575195 C114.097656,553.729498 113.813479,554.813471 113.245117,555.827148 C112.676755,556.840825 111.879888,557.652341 110.854492,558.261719 C109.829096,558.871097 108.707037,559.175781 107.488281,559.175781 C106.275385,559.175781 105.156255,558.872562 104.130859,558.266113 C103.105464,557.659665 102.307132,556.849614 101.73584,555.835938 C101.164548,554.822261 100.878906,553.735357 100.878906,552.575195 Z M102.126953,552.575195 C102.126953,553.536138 102.367185,554.431148 102.847656,555.260254 C103.328127,556.08936 103.984371,556.742673 104.816406,557.220215 C105.648442,557.697756 106.539058,557.936523 107.488281,557.936523 C108.449224,557.936523 109.344234,557.696291 110.17334,557.21582 C111.002446,556.735349 111.655759,556.079106 112.133301,555.24707 C112.610842,554.415035 112.849609,553.524419 112.849609,552.575195 C112.849609,551.614253 112.609377,550.719242 112.128906,549.890137 C111.648435,549.061031 110.992192,548.407717 110.160156,547.930176 C109.328121,547.452634 108.437505,547.213867 107.488281,547.213867 C106.527339,547.213867 105.632328,547.454099 104.803223,547.93457 C103.974117,548.415041 103.320803,549.071285 102.843262,549.90332 C102.36572,550.735356 102.126953,551.625972 102.126953,552.575195 Z M129.355469,559 L120.373047,559 L120.373047,557.110352 L123.598633,553.849609 C124.553716,552.871089 125.177733,552.192873 125.470703,551.814941 C125.763673,551.43701 125.974609,551.086916 126.103516,550.764648 C126.232423,550.442381 126.296875,550.1084 126.296875,549.762695 C126.296875,549.247068 126.154787,548.863283 125.870605,548.611328 C125.586424,548.359374 125.207034,548.233398 124.732422,548.233398 C124.234373,548.233398 123.750979,548.347655 123.282227,548.576172 C122.813474,548.804689 122.324221,549.129881 121.814453,549.551758 L120.337891,547.802734 C120.970706,547.263669 121.495115,546.882814 121.911133,546.660156 C122.327151,546.437499 122.781248,546.266114 123.273438,546.145996 C123.765627,546.025878 124.316403,545.96582 124.925781,545.96582 C125.72852,545.96582 126.437497,546.112303 127.052734,546.405273 C127.667972,546.698244 128.145506,547.108396 128.485352,547.635742 C128.825197,548.163089 128.995117,548.766598 128.995117,549.446289 C128.995117,550.038089 128.891114,550.593259 128.683105,551.111816 C128.475097,551.630374 128.152834,552.162107 127.716309,552.707031 C127.279783,553.251956 126.510748,554.028315 125.40918,555.036133 L123.756836,556.591797 L123.756836,556.714844 L129.355469,556.714844 L129.355469,559 Z M139.55957,552.575195 C139.55957,554.819347 139.191898,556.480463 138.456543,557.558594 C137.721188,558.636724 136.588875,559.175781 135.05957,559.175781 C133.577141,559.175781 132.459476,558.619146 131.706543,557.505859 C130.95361,556.392573 130.577148,554.749034 130.577148,552.575195 C130.577148,550.307606 130.943356,548.636236 131.675781,547.561035 C132.408207,546.485834 133.536125,545.948242 135.05957,545.948242 C136.542,545.948242 137.662594,546.510737 138.421387,547.635742 C139.18018,548.760748 139.55957,550.407216 139.55957,552.575195 Z M133.275391,552.575195 C133.275391,554.151375 133.41162,555.280758 133.684082,555.963379 C133.956544,556.646 134.415036,556.987305 135.05957,556.987305 C135.692386,556.987305 136.149413,556.641605 136.430664,555.950195 C136.711915,555.258786 136.852539,554.133797 136.852539,552.575195 C136.852539,550.999016 136.710451,549.866703 136.42627,549.178223 C136.142088,548.489743 135.686527,548.145508 135.05957,548.145508 C134.420895,548.145508 133.963869,548.489743 133.688477,549.178223 C133.413085,549.866703 133.275391,550.999016 133.275391,552.575195 Z M147.636719,559 L144.920898,559 L144.920898,551.564453 L144.947266,550.342773 L144.991211,549.006836 C144.540037,549.45801 144.226563,549.753906 144.050781,549.894531 L142.574219,551.081055 L141.264648,549.446289 L145.404297,546.150391 L147.636719,546.150391 L147.636719,559 Z M152.470703,559 L157.295898,548.453125 L150.958984,548.453125 L150.958984,546.167969 L160.178711,546.167969 L160.178711,547.873047 L155.318359,559 L152.470703,559 Z M174.62793,555.431641 C174.62793,556.591803 174.210453,557.505856 173.375488,558.173828 C172.540523,558.8418 171.378914,559.175781 169.890625,559.175781 C168.519524,559.175781 167.306646,558.917971 166.251953,558.402344 L166.251953,555.871094 C167.119145,556.257814 167.853024,556.530273 168.453613,556.688477 C169.054202,556.84668 169.603513,556.925781 170.101562,556.925781 C170.699222,556.925781 171.157713,556.811525 171.477051,556.583008 C171.796388,556.354491 171.956055,556.014651 171.956055,555.563477 C171.956055,555.311522 171.885743,555.087403 171.745117,554.891113 C171.604491,554.694823 171.397951,554.50586 171.125488,554.324219 C170.853026,554.142577 170.297856,553.852541 169.459961,553.454102 C168.674801,553.084959 168.085939,552.73047 167.693359,552.390625 C167.300779,552.05078 166.987306,551.655276 166.75293,551.204102 C166.518554,550.752927 166.401367,550.225589 166.401367,549.62207 C166.401367,548.485346 166.786617,547.5918 167.557129,546.941406 C168.327641,546.291012 169.392571,545.96582 170.751953,545.96582 C171.419925,545.96582 172.057126,546.044921 172.663574,546.203125 C173.270023,546.361329 173.904294,546.583983 174.566406,546.871094 L173.6875,548.989258 C173.00195,548.708006 172.435061,548.511719 171.986816,548.400391 C171.538572,548.289062 171.097658,548.233398 170.664062,548.233398 C170.148435,548.233398 169.752931,548.353514 169.477539,548.59375 C169.202147,548.833986 169.064453,549.147459 169.064453,549.53418 C169.064453,549.774415 169.120117,549.983886 169.231445,550.162598 C169.342774,550.341309 169.520018,550.514159 169.763184,550.681152 C170.006349,550.848145 170.582027,551.148435 171.490234,551.582031 C172.691412,552.156253 173.514646,552.731931 173.959961,553.309082 C174.405276,553.886233 174.62793,554.593746 174.62793,555.431641 Z M182.986328,559 L182.467773,557.664062 L182.397461,557.664062 C181.946287,558.232425 181.481936,558.626464 181.004395,558.846191 C180.526853,559.065919 179.904301,559.175781 179.136719,559.175781 C178.193355,559.175781 177.450686,558.906253 176.908691,558.367188 C176.366697,557.828122 176.095703,557.060552 176.095703,556.064453 C176.095703,555.021479 176.460446,554.252444 177.189941,553.757324 C177.919437,553.262205 179.019524,552.988282 180.490234,552.935547 L182.195312,552.882812 L182.195312,552.452148 C182.195312,551.45605 181.685552,550.958008 180.666016,550.958008 C179.880855,550.958008 178.958013,551.19531 177.897461,551.669922 L177.009766,549.859375 C178.140631,549.267575 179.394524,548.97168 180.771484,548.97168 C182.08985,548.97168 183.100582,549.258786 183.803711,549.833008 C184.506839,550.407229 184.858398,551.280268 184.858398,552.452148 L184.858398,559 L182.986328,559 Z M182.195312,554.447266 L181.158203,554.482422 C180.378902,554.505859 179.79883,554.646483 179.417969,554.904297 C179.037107,555.162111 178.84668,555.554685 178.84668,556.082031 C178.84668,556.837894 179.280269,557.21582 180.147461,557.21582 C180.768558,557.21582 181.265135,557.037111 181.637207,556.679688 C182.009279,556.322264 182.195312,555.847659 182.195312,555.255859 L182.195312,554.447266 Z M196.688477,559 L194.007812,559 L194.007812,553.260742 C194.007812,552.551754 193.881837,552.020021 193.629883,551.665527 C193.377928,551.311033 192.976565,551.133789 192.425781,551.133789 C191.675778,551.133789 191.133791,551.384275 190.799805,551.885254 C190.465819,552.386233 190.298828,553.216791 190.298828,554.376953 L190.298828,559 L187.618164,559 L187.618164,549.173828 L189.666016,549.173828 L190.026367,550.430664 L190.175781,550.430664 C190.474611,549.956052 190.886228,549.597169 191.410645,549.354004 C191.935061,549.110839 192.531247,548.989258 193.199219,548.989258 C194.341803,548.989258 195.208981,549.298337 195.800781,549.916504 C196.392581,550.534671 196.688477,551.426752 196.688477,552.592773 L196.688477,559 Z M203.587891,557.040039 C204.056643,557.040039 204.619137,556.937501 205.275391,556.732422 L205.275391,558.727539 C204.607419,559.026369 203.787114,559.175781 202.814453,559.175781 C201.742182,559.175781 200.961428,558.904788 200.472168,558.362793 C199.982908,557.820798 199.738281,557.007818 199.738281,555.923828 L199.738281,551.186523 L198.455078,551.186523 L198.455078,550.052734 L199.931641,549.15625 L200.705078,547.082031 L202.418945,547.082031 L202.418945,549.173828 L205.169922,549.173828 L205.169922,551.186523 L202.418945,551.186523 L202.418945,555.923828 C202.418945,556.304689 202.525878,556.585937 202.739746,556.767578 C202.953614,556.94922 203.236326,557.040039 203.587891,557.040039 Z M213.501953,559 L212.983398,557.664062 L212.913086,557.664062 C212.461912,558.232425 211.997561,558.626464 211.52002,558.846191 C211.042478,559.065919 210.419926,559.175781 209.652344,559.175781 C208.70898,559.175781 207.966311,558.906253 207.424316,558.367188 C206.882322,557.828122 206.611328,557.060552 206.611328,556.064453 C206.611328,555.021479 206.976071,554.252444 207.705566,553.757324 C208.435062,553.262205 209.535149,552.988282 211.005859,552.935547 L212.710938,552.882812 L212.710938,552.452148 C212.710938,551.45605 212.201177,550.958008 211.181641,550.958008 C210.39648,550.958008 209.473638,551.19531 208.413086,551.669922 L207.525391,549.859375 C208.656256,549.267575 209.910149,548.97168 211.287109,548.97168 C212.605475,548.97168 213.616207,549.258786 214.319336,549.833008 C215.022464,550.407229 215.374023,551.280268 215.374023,552.452148 L215.374023,559 L213.501953,559 Z M212.710938,554.447266 L211.673828,554.482422 C210.894527,554.505859 210.314455,554.646483 209.933594,554.904297 C209.552732,555.162111 209.362305,555.554685 209.362305,556.082031 C209.362305,556.837894 209.795894,557.21582 210.663086,557.21582 C211.284183,557.21582 211.78076,557.037111 212.152832,556.679688 C212.524904,556.322264 212.710938,555.847659 212.710938,555.255859 L212.710938,554.447266 Z M227.204102,559 L224.523438,559 L224.523438,553.260742 C224.523438,552.551754 224.397462,552.020021 224.145508,551.665527 C223.893553,551.311033 223.49219,551.133789 222.941406,551.133789 C222.191403,551.133789 221.649416,551.384275 221.31543,551.885254 C220.981444,552.386233 220.814453,553.216791 220.814453,554.376953 L220.814453,559 L218.133789,559 L218.133789,549.173828 L220.181641,549.173828 L220.541992,550.430664 L220.691406,550.430664 C220.990236,549.956052 221.401853,549.597169 221.92627,549.354004 C222.450686,549.110839 223.046872,548.989258 223.714844,548.989258 C224.857428,548.989258 225.724606,549.298337 226.316406,549.916504 C226.908206,550.534671 227.204102,551.426752 227.204102,552.592773 L227.204102,559 Z M233.075195,559.175781 C231.920893,559.175781 231.014163,558.727544 230.35498,557.831055 C229.695797,556.934566 229.366211,555.692391 229.366211,554.104492 C229.366211,552.493156 229.701657,551.237797 230.372559,550.338379 C231.04346,549.43896 231.967768,548.989258 233.145508,548.989258 C234.381842,548.989258 235.325192,549.469722 235.975586,550.430664 L236.063477,550.430664 C235.92871,549.698239 235.861328,549.044925 235.861328,548.470703 L235.861328,545.324219 L238.550781,545.324219 L238.550781,559 L236.494141,559 L235.975586,557.725586 L235.861328,557.725586 C235.25195,558.692388 234.323248,559.175781 233.075195,559.175781 Z M234.015625,557.040039 C234.701175,557.040039 235.203612,556.840822 235.522949,556.442383 C235.842287,556.043943 236.016601,555.367192 236.045898,554.412109 L236.045898,554.12207 C236.045898,553.067378 235.883302,552.311526 235.558105,551.854492 C235.232909,551.397459 234.704105,551.168945 233.97168,551.168945 C233.37402,551.168945 232.90967,551.422361 232.578613,551.929199 C232.247557,552.436038 232.082031,553.172847 232.082031,554.139648 C232.082031,555.10645 232.249022,555.831541 232.583008,556.314941 C232.916994,556.798342 233.394528,557.040039 234.015625,557.040039 Z M245.423828,550.896484 C244.855466,550.896484 244.410158,551.076658 244.087891,551.437012 C243.765623,551.797365 243.581055,552.30859 243.53418,552.970703 L247.295898,552.970703 C247.28418,552.30859 247.11133,551.797365 246.777344,551.437012 C246.443358,551.076658 245.99219,550.896484 245.423828,550.896484 Z M245.801758,559.175781 C244.219719,559.175781 242.983403,558.739262 242.092773,557.866211 C241.202144,556.99316 240.756836,555.756844 240.756836,554.157227 C240.756836,552.510734 241.168453,551.237797 241.991699,550.338379 C242.814946,549.43896 243.953118,548.989258 245.40625,548.989258 C246.794929,548.989258 247.875973,549.384762 248.649414,550.175781 C249.422855,550.966801 249.80957,552.059563 249.80957,553.454102 L249.80957,554.754883 L243.472656,554.754883 C243.501953,555.516605 243.727537,556.111326 244.149414,556.539062 C244.571291,556.966799 245.163082,557.180664 245.924805,557.180664 C246.516605,557.180664 247.076169,557.119141 247.603516,556.996094 C248.130862,556.873046 248.681638,556.676759 249.255859,556.407227 L249.255859,558.481445 C248.787107,558.715821 248.286135,558.890136 247.75293,559.004395 C247.219724,559.118653 246.56934,559.175781 245.801758,559.175781 Z M257.473633,548.989258 C257.836916,548.989258 258.138671,549.015625 258.378906,549.068359 L258.176758,551.582031 C257.95996,551.523437 257.696291,551.494141 257.385742,551.494141 C256.530269,551.494141 255.863772,551.713865 255.38623,552.15332 C254.908689,552.592776 254.669922,553.208004 254.669922,553.999023 L254.669922,559 L251.989258,559 L251.989258,549.173828 L254.019531,549.173828 L254.415039,550.826172 L254.546875,550.826172 C254.851564,550.275388 255.263181,549.831545 255.781738,549.494629 C256.300296,549.157713 256.864255,548.989258 257.473633,548.989258 Z M112.076172,570.150391 L112.076172,578.464844 C112.076172,579.414067 111.863772,580.24609 111.438965,580.960938 C111.014158,581.675785 110.400395,582.223631 109.597656,582.604492 C108.794918,582.985353 107.845709,583.175781 106.75,583.175781 C105.097648,583.175781 103.814458,582.752446 102.900391,581.905762 C101.986324,581.059078 101.529297,579.900398 101.529297,578.429688 L101.529297,570.150391 L104.245117,570.150391 L104.245117,578.016602 C104.245117,579.006841 104.444334,579.733396 104.842773,580.196289 C105.241213,580.659182 105.900386,580.890625 106.820312,580.890625 C107.710942,580.890625 108.356932,580.657717 108.758301,580.191895 C109.15967,579.726072 109.360352,578.995122 109.360352,577.999023 L109.360352,570.150391 L112.076172,570.150391 Z M124.082031,583 L121.401367,583 L121.401367,577.260742 C121.401367,576.551754 121.275392,576.020021 121.023438,575.665527 C120.771483,575.311033 120.37012,575.133789 119.819336,575.133789 C119.069332,575.133789 118.527345,575.384275 118.193359,575.885254 C117.859373,576.386233 117.692383,577.216791 117.692383,578.376953 L117.692383,583 L115.011719,583 L115.011719,573.173828 L117.05957,573.173828 L117.419922,574.430664 L117.569336,574.430664 C117.868166,573.956052 118.279783,573.597169 118.804199,573.354004 C119.328616,573.110839 119.924801,572.989258 120.592773,572.989258 C121.735357,572.989258 122.602536,573.298337 123.194336,573.916504 C123.786136,574.534671 124.082031,575.426752 124.082031,576.592773 L124.082031,583 Z M126.727539,570.633789 C126.727539,569.760738 127.213862,569.324219 128.186523,569.324219 C129.159185,569.324219 129.645508,569.760738 129.645508,570.633789 C129.645508,571.049807 129.523927,571.373534 129.280762,571.60498 C129.037596,571.836427 128.672854,571.952148 128.186523,571.952148 C127.213862,571.952148 126.727539,571.5127 126.727539,570.633789 Z M129.522461,583 L126.841797,583 L126.841797,573.173828 L129.522461,573.173828 L129.522461,583 Z M134.672852,583 L130.928711,573.173828 L133.732422,573.173828 L135.630859,578.772461 C135.841798,579.481449 135.973633,580.152341 136.026367,580.785156 L136.079102,580.785156 C136.108399,580.222653 136.240233,579.551762 136.474609,578.772461 L138.364258,573.173828 L141.167969,573.173828 L137.423828,583 L134.672852,583 Z M146.643555,574.896484 C146.075192,574.896484 145.629884,575.076658 145.307617,575.437012 C144.98535,575.797365 144.800781,576.30859 144.753906,576.970703 L148.515625,576.970703 C148.503906,576.30859 148.331056,575.797365 147.99707,575.437012 C147.663084,575.076658 147.211917,574.896484 146.643555,574.896484 Z M147.021484,583.175781 C145.439445,583.175781 144.203129,582.739262 143.3125,581.866211 C142.421871,580.99316 141.976562,579.756844 141.976562,578.157227 C141.976562,576.510734 142.388179,575.237797 143.211426,574.338379 C144.034672,573.43896 145.172844,572.989258 146.625977,572.989258 C148.014655,572.989258 149.095699,573.384762 149.869141,574.175781 C150.642582,574.966801 151.029297,576.059563 151.029297,577.454102 L151.029297,578.754883 L144.692383,578.754883 C144.72168,579.516605 144.947264,580.111326 145.369141,580.539062 C145.791018,580.966799 146.382809,581.180664 147.144531,581.180664 C147.736331,581.180664 148.295896,581.119141 148.823242,580.996094 C149.350589,580.873046 149.901364,580.676759 150.475586,580.407227 L150.475586,582.481445 C150.006834,582.715821 149.505862,582.890136 148.972656,583.004395 C148.43945,583.118653 147.789066,583.175781 147.021484,583.175781 Z M158.693359,572.989258 C159.056642,572.989258 159.358397,573.015625 159.598633,573.068359 L159.396484,575.582031 C159.179686,575.523437 158.916017,575.494141 158.605469,575.494141 C157.749996,575.494141 157.083498,575.713865 156.605957,576.15332 C156.128416,576.592776 155.889648,577.208004 155.889648,577.999023 L155.889648,583 L153.208984,583 L153.208984,573.173828 L155.239258,573.173828 L155.634766,574.826172 L155.766602,574.826172 C156.071291,574.275388 156.482908,573.831545 157.001465,573.494629 C157.520022,573.157713 158.083981,572.989258 158.693359,572.989258 Z M168.238281,580.082031 C168.238281,581.089849 167.888187,581.857419 167.187988,582.384766 C166.487789,582.912112 165.440437,583.175781 164.045898,583.175781 C163.331051,583.175781 162.721682,583.127442 162.217773,583.030762 C161.713865,582.934082 161.24219,582.791993 160.802734,582.604492 L160.802734,580.389648 C161.300784,580.624025 161.861813,580.820312 162.48584,580.978516 C163.109866,581.13672 163.659177,581.21582 164.133789,581.21582 C165.10645,581.21582 165.592773,580.934573 165.592773,580.37207 C165.592773,580.161132 165.528321,579.989747 165.399414,579.85791 C165.270507,579.726074 165.047853,579.576661 164.731445,579.409668 C164.415037,579.242675 163.993167,579.047853 163.46582,578.825195 C162.709957,578.508787 162.154787,578.215822 161.800293,577.946289 C161.445799,577.676756 161.187989,577.367678 161.026855,577.019043 C160.865722,576.670408 160.785156,576.241213 160.785156,575.731445 C160.785156,574.858394 161.123532,574.183108 161.800293,573.705566 C162.477054,573.228025 163.436517,572.989258 164.678711,572.989258 C165.862311,572.989258 167.013666,573.247068 168.132812,573.762695 L167.324219,575.696289 C166.832029,575.485351 166.372072,575.312501 165.944336,575.177734 C165.516599,575.042968 165.08008,574.975586 164.634766,574.975586 C163.843746,574.975586 163.448242,575.189451 163.448242,575.617188 C163.448242,575.857423 163.575682,576.065429 163.830566,576.241211 C164.08545,576.416993 164.64355,576.677733 165.504883,577.023438 C166.272465,577.333986 166.834959,577.624022 167.192383,577.893555 C167.549806,578.163087 167.813476,578.473631 167.983398,578.825195 C168.153321,579.17676 168.238281,579.595701 168.238281,580.082031 Z M170.21582,570.633789 C170.21582,569.760738 170.702144,569.324219 171.674805,569.324219 C172.647466,569.324219 173.133789,569.760738 173.133789,570.633789 C173.133789,571.049807 173.012208,571.373534 172.769043,571.60498 C172.525878,571.836427 172.161135,571.952148 171.674805,571.952148 C170.702144,571.952148 170.21582,571.5127 170.21582,570.633789 Z M173.010742,583 L170.330078,583 L170.330078,573.173828 L173.010742,573.173828 L173.010742,583 Z M178.93457,583.175781 C177.780268,583.175781 176.873538,582.727544 176.214355,581.831055 C175.555172,580.934566 175.225586,579.692391 175.225586,578.104492 C175.225586,576.493156 175.561032,575.237797 176.231934,574.338379 C176.902835,573.43896 177.827143,572.989258 179.004883,572.989258 C180.241217,572.989258 181.184567,573.469722 181.834961,574.430664 L181.922852,574.430664 C181.788085,573.698239 181.720703,573.044925 181.720703,572.470703 L181.720703,569.324219 L184.410156,569.324219 L184.410156,583 L182.353516,583 L181.834961,581.725586 L181.720703,581.725586 C181.111325,582.692388 180.182623,583.175781 178.93457,583.175781 Z M179.875,581.040039 C180.56055,581.040039 181.062987,580.840822 181.382324,580.442383 C181.701662,580.043943 181.875976,579.367192 181.905273,578.412109 L181.905273,578.12207 C181.905273,577.067378 181.742677,576.311526 181.41748,575.854492 C181.092284,575.397459 180.56348,575.168945 179.831055,575.168945 C179.233395,575.168945 178.769045,575.422361 178.437988,575.929199 C178.106932,576.436038 177.941406,577.172847 177.941406,578.139648 C177.941406,579.10645 178.108397,579.831541 178.442383,580.314941 C178.776369,580.798342 179.253903,581.040039 179.875,581.040039 Z M193.454102,583 L192.935547,581.664062 L192.865234,581.664062 C192.41406,582.232425 191.949709,582.626464 191.472168,582.846191 C190.994627,583.065919 190.372074,583.175781 189.604492,583.175781 C188.661128,583.175781 187.91846,582.906253 187.376465,582.367188 C186.83447,581.828122 186.563477,581.060552 186.563477,580.064453 C186.563477,579.021479 186.928219,578.252444 187.657715,577.757324 C188.387211,577.262205 189.487297,576.988282 190.958008,576.935547 L192.663086,576.882812 L192.663086,576.452148 C192.663086,575.45605 192.153325,574.958008 191.133789,574.958008 C190.348629,574.958008 189.425787,575.19531 188.365234,575.669922 L187.477539,573.859375 C188.608404,573.267575 189.862298,572.97168 191.239258,572.97168 C192.557624,572.97168 193.568356,573.258786 194.271484,573.833008 C194.974613,574.407229 195.326172,575.280268 195.326172,576.452148 L195.326172,583 L193.454102,583 Z M192.663086,578.447266 L191.625977,578.482422 C190.846676,578.505859 190.266603,578.646483 189.885742,578.904297 C189.504881,579.162111 189.314453,579.554685 189.314453,580.082031 C189.314453,580.837894 189.748043,581.21582 190.615234,581.21582 C191.236331,581.21582 191.732908,581.037111 192.10498,580.679688 C192.477053,580.322264 192.663086,579.847659 192.663086,579.255859 L192.663086,578.447266 Z M201.197266,583.175781 C200.042963,583.175781 199.136234,582.727544 198.477051,581.831055 C197.817868,580.934566 197.488281,579.692391 197.488281,578.104492 C197.488281,576.493156 197.823727,575.237797 198.494629,574.338379 C199.165531,573.43896 200.089838,572.989258 201.267578,572.989258 C202.503912,572.989258 203.447262,573.469722 204.097656,574.430664 L204.185547,574.430664 C204.050781,573.698239 203.983398,573.044925 203.983398,572.470703 L203.983398,569.324219 L206.672852,569.324219 L206.672852,583 L204.616211,583 L204.097656,581.725586 L203.983398,581.725586 C203.37402,582.692388 202.445319,583.175781 201.197266,583.175781 Z M202.137695,581.040039 C202.823246,581.040039 203.325682,580.840822 203.64502,580.442383 C203.964357,580.043943 204.138672,579.367192 204.167969,578.412109 L204.167969,578.12207 C204.167969,577.067378 204.005373,576.311526 203.680176,575.854492 C203.354979,575.397459 202.826176,575.168945 202.09375,575.168945 C201.496091,575.168945 201.03174,575.422361 200.700684,575.929199 C200.369627,576.436038 200.204102,577.172847 200.204102,578.139648 C200.204102,579.10645 200.371092,579.831541 200.705078,580.314941 C201.039064,580.798342 201.516598,581.040039 202.137695,581.040039 Z M213.545898,574.896484 C212.977536,574.896484 212.532228,575.076658 212.209961,575.437012 C211.887694,575.797365 211.703125,576.30859 211.65625,576.970703 L215.417969,576.970703 C215.40625,576.30859 215.2334,575.797365 214.899414,575.437012 C214.565428,575.076658 214.114261,574.896484 213.545898,574.896484 Z M213.923828,583.175781 C212.341789,583.175781 211.105473,582.739262 210.214844,581.866211 C209.324214,580.99316 208.878906,579.756844 208.878906,578.157227 C208.878906,576.510734 209.290523,575.237797 210.11377,574.338379 C210.937016,573.43896 212.075188,572.989258 213.52832,572.989258 C214.916999,572.989258 215.998043,573.384762 216.771484,574.175781 C217.544926,574.966801 217.931641,576.059563 217.931641,577.454102 L217.931641,578.754883 L211.594727,578.754883 C211.624024,579.516605 211.849607,580.111326 212.271484,580.539062 C212.693361,580.966799 213.285152,581.180664 214.046875,581.180664 C214.638675,581.180664 215.19824,581.119141 215.725586,580.996094 C216.252932,580.873046 216.803708,580.676759 217.37793,580.407227 L217.37793,582.481445 C216.909177,582.715821 216.408206,582.890136 215.875,583.004395 C215.341794,583.118653 214.69141,583.175781 213.923828,583.175781 Z M226.966797,580.082031 C226.966797,581.089849 226.616703,581.857419 225.916504,582.384766 C225.216305,582.912112 224.168952,583.175781 222.774414,583.175781 C222.059567,583.175781 221.450198,583.127442 220.946289,583.030762 C220.44238,582.934082 219.970705,582.791993 219.53125,582.604492 L219.53125,580.389648 C220.029299,580.624025 220.590329,580.820312 221.214355,580.978516 C221.838382,581.13672 222.387693,581.21582 222.862305,581.21582 C223.834966,581.21582 224.321289,580.934573 224.321289,580.37207 C224.321289,580.161132 224.256837,579.989747 224.12793,579.85791 C223.999023,579.726074 223.776369,579.576661 223.459961,579.409668 C223.143553,579.242675 222.721682,579.047853 222.194336,578.825195 C221.438473,578.508787 220.883303,578.215822 220.528809,577.946289 C220.174315,577.676756 219.916505,577.367678 219.755371,577.019043 C219.594237,576.670408 219.513672,576.241213 219.513672,575.731445 C219.513672,574.858394 219.852047,574.183108 220.528809,573.705566 C221.20557,573.228025 222.165033,572.989258 223.407227,572.989258 C224.590826,572.989258 225.742182,573.247068 226.861328,573.762695 L226.052734,575.696289 C225.560544,575.485351 225.100588,575.312501 224.672852,575.177734 C224.245115,575.042968 223.808596,574.975586 223.363281,574.975586 C222.572262,574.975586 222.176758,575.189451 222.176758,575.617188 C222.176758,575.857423 222.304198,576.065429 222.559082,576.241211 C222.813966,576.416993 223.372066,576.677733 224.233398,577.023438 C225.00098,577.333986 225.563475,577.624022 225.920898,577.893555 C226.278322,578.163087 226.541991,578.473631 226.711914,578.825195 C226.881837,579.17676 226.966797,579.595701 226.966797,580.082031 Z" id="Derechos-Reservados" fill="#000000"></path>
            </g>
        </g>
    </g>
</svg>